<svg xmlns="http://www.w3.org/2000/svg" xmlns:xlink="http://www.w3.org/1999/xlink" width="138.557" height="129.113" viewBox="0 0 138.557 129.113">
  <defs>
    <clipPath id="clip-path">
      <rect id="Rectángulo_38722" data-name="Rectángulo 38722" width="138.557" height="129.113" transform="translate(4083 -11102)" fill="#c4fbf8"/>
    </clipPath>
    <clipPath id="clip-path-2">
      <rect id="Rectángulo_38645" data-name="Rectángulo 38645" width="105.84" height="105.84" fill="none"/>
    </clipPath>
  </defs>
  <g id="Enmascarar_grupo_66" data-name="Enmascarar grupo 66" transform="translate(-4083 11102)" clip-path="url(#clip-path)">
    <g id="Grupo_147310" data-name="Grupo 147310" transform="translate(4099 -11090)">
      <g id="Grupo_147217" data-name="Grupo 147217" clip-path="url(#clip-path-2)">
        <path id="Trazado_207825" data-name="Trazado 207825" d="M92.183,78.527a13.656,13.656,0,0,0-11.81,6.828H69.979A44.383,44.383,0,1,0,8.568,42.678H3.184l12.18,14.616,12.18-14.616H22.238A30.729,30.729,0,1,1,52.92,75.112H34.142V95.6H78.975A13.65,13.65,0,1,0,92.183,78.527m-39.263,0A34.142,34.142,0,1,0,18.778,44.385v1.707h1.476l-4.89,5.869-4.891-5.869h1.476V44.385A40.97,40.97,0,1,1,52.92,85.355H37.556V78.527ZM37.556,92.183V88.769H78.975a13.592,13.592,0,0,0-.449,3.414Zm54.627,10.243a10.243,10.243,0,1,1,10.243-10.243,10.253,10.253,0,0,1-10.243,10.243" fill="#01074e"/>
        <path id="Trazado_207826" data-name="Trazado 207826" d="M97.8,87.562l-7.329,7.329-2.207-2.208L85.855,95.1l4.621,4.621,9.743-9.742Z" fill="#01074e"/>
        <path id="Trazado_207827" data-name="Trazado 207827" d="M25.607,61.456H5.122A5.128,5.128,0,0,0,0,66.577v34.142a5.127,5.127,0,0,0,5.122,5.121H25.607a5.127,5.127,0,0,0,5.121-5.121V66.577a5.128,5.128,0,0,0-5.121-5.121m1.707,39.263a1.709,1.709,0,0,1-1.707,1.707H5.122a1.709,1.709,0,0,1-1.707-1.707V66.577A1.709,1.709,0,0,1,5.122,64.87H25.607a1.709,1.709,0,0,1,1.707,1.707Z" fill="#01074e"/>
        <path id="Trazado_207828" data-name="Trazado 207828" d="M54.627,56.334a11.949,11.949,0,1,0-11.95-11.95,11.963,11.963,0,0,0,11.95,11.95m0-20.485a8.535,8.535,0,1,1-8.535,8.535,8.545,8.545,0,0,1,8.535-8.535" fill="#01074e"/>
        <path id="Trazado_207829" data-name="Trazado 207829" d="M32.435,50.839l4.124,1.029-2.187,3.645L43.5,64.639l3.643-2.187,1.03,4.124H61.082l1.029-4.124,3.643,2.187,9.128-9.126-2.187-3.645,4.124-1.029V37.931L72.695,36.9l2.187-3.643L65.754,24.13l-3.643,2.186-1.029-4.124H48.173l-1.03,4.124L43.5,24.13l-9.128,9.127L36.559,36.9l-4.124,1.031ZM35.849,40.6l4.176-1.043.857-2.086-2.213-3.683,5.357-5.358,3.684,2.212,2.086-.855,1.043-4.177h7.576l1.043,4.177,2.086.855,3.684-2.212,5.357,5.358-2.212,3.683.857,2.086L73.4,40.6v7.576L70.078,49l-.912.352L68.371,51.3l2.212,3.687-5.357,5.359-3.683-2.213-2.083.847-1.045,4.184H50.839l-.831-3.327-.347-.913-1.949-.792-3.684,2.212-5.357-5.359L40.883,51.3l-.858-2.083-4.176-1.041Z" fill="#01074e"/>
        <path id="Trazado_207830" data-name="Trazado 207830" d="M54.627,49.505a5.121,5.121,0,1,0-5.121-5.121,5.126,5.126,0,0,0,5.121,5.121m0-6.828a1.707,1.707,0,1,1-1.707,1.707,1.709,1.709,0,0,1,1.707-1.707" fill="#01074e"/>
        <rect id="Rectángulo_38638" data-name="Rectángulo 38638" width="17.071" height="3.414" transform="translate(6.828 68.284)" fill="#01074e"/>
        <rect id="Rectángulo_38639" data-name="Rectángulo 38639" width="17.071" height="3.414" transform="translate(6.828 75.112)" fill="#01074e"/>
        <rect id="Rectángulo_38640" data-name="Rectángulo 38640" width="17.071" height="3.414" transform="translate(6.828 81.941)" fill="#01074e"/>
        <rect id="Rectángulo_38641" data-name="Rectángulo 38641" width="17.071" height="3.414" transform="translate(6.828 88.769)" fill="#01074e"/>
        <rect id="Rectángulo_38642" data-name="Rectángulo 38642" width="3.414" height="3.414" transform="translate(20.485 95.597)" fill="#01074e"/>
        <rect id="Rectángulo_38643" data-name="Rectángulo 38643" width="3.414" height="3.414" transform="translate(13.657 95.597)" fill="#01074e"/>
        <rect id="Rectángulo_38644" data-name="Rectángulo 38644" width="3.414" height="3.414" transform="translate(6.828 95.597)" fill="#01074e"/>
      </g>
    </g>
  </g>
</svg>
