<svg xmlns="http://www.w3.org/2000/svg" xmlns:xlink="http://www.w3.org/1999/xlink" width="210" height="55" viewBox="0 0 210 55">
  <defs>
    <clipPath id="clip-path">
      <rect id="Rect치ngulo_38185" data-name="Rect치ngulo 38185" width="35.603" height="35.601" fill="none"/>
    </clipPath>
  </defs>
  <g id="Grupo_147335" data-name="Grupo 147335" transform="translate(-180 -1639.396)">
    <g id="Grupo_147334" data-name="Grupo 147334">
      <g id="Grupo_147223" data-name="Grupo 147223" transform="translate(0 5.396)">
        <path id="Rect치ngulo_38184" data-name="Rect치ngulo 38184" d="M0,0H171.5A18.5,18.5,0,0,1,190,18.5v0A18.5,18.5,0,0,1,171.5,37H0a0,0,0,0,1,0,0V0A0,0,0,0,1,0,0Z" transform="translate(180 1643)" fill="#0043ff"/>
        <g id="Grupo_146641" data-name="Grupo 146641" transform="translate(57.763 -4057.236)">
          <circle id="Elipse_4060" data-name="Elipse 4060" cx="27.5" cy="27.5" r="27.5" transform="translate(277.237 5691.236)" fill="#0ccbc3"/>
          <g id="Grupo_146640" data-name="Grupo 146640" transform="translate(286.935 5700.936)">
            <g id="Grupo_146639" data-name="Grupo 146639" transform="translate(0 0)" clip-path="url(#clip-path)">
              <path id="Trazado_204887" data-name="Trazado 204887" d="M25.607,2.375V0A17.742,17.742,0,0,0,14.059,4.771L15.738,6.45a15.375,15.375,0,0,1,9.869-4.075" transform="translate(-8.407 0)" fill="#01074e"/>
              <path id="Trazado_204888" data-name="Trazado 204888" d="M6.492,15.627,4.813,13.948A17.737,17.737,0,0,0,0,25.5H2.376a15.378,15.378,0,0,1,4.116-9.87" transform="translate(-0.001 -8.341)" fill="#01074e"/>
              <path id="Trazado_204889" data-name="Trazado 204889" d="M7.806,56.848a15.4,15.4,0,0,1-5.432-11.22H0a17.763,17.763,0,0,0,6.123,12.9L4.14,60.512l8.9,2.374L9.483,55.169Z" transform="translate(0 -27.285)" fill="#01074e"/>
              <path id="Trazado_204890" data-name="Trazado 204890" d="M72.465,55.536l1.682,1.682a17.736,17.736,0,0,0,4.769-11.59H76.541a15.367,15.367,0,0,1-4.076,9.908" transform="translate(-43.333 -27.285)" fill="#01074e"/>
              <path id="Trazado_204891" data-name="Trazado 204891" d="M61.537,74.857l1.18,2.064a17.84,17.84,0,0,0,4.06-2.87L65.1,72.37a15.456,15.456,0,0,1-3.562,2.487" transform="translate(-36.798 -43.276)" fill="#01074e"/>
              <path id="Trazado_204892" data-name="Trazado 204892" d="M45.964,9.636l1.978-1.978L44.38,4.1,43,5.479l.021.021,0,0L43,5.479A17.751,17.751,0,0,0,30.727,0V2.375A15.388,15.388,0,0,1,41.318,7.159L30.133,18.343,24.2,12.407l-3.562,3.562,9.5,9.5L44.186,11.414l.017.025a15.355,15.355,0,0,1,1.347,5.717h2.374a17.718,17.718,0,0,0-1.942-7.5Z" transform="translate(-12.339 0)" fill="#01074e"/>
            </g>
          </g>
        </g>
      </g>
    </g>
    <path id="Trazado_208190" data-name="Trazado 208190" d="M11.013,8.585H7.172V19H4.087V8.585H.316V6.2h10.7ZM16.058,19a3.344,3.344,0,0,1-.281-.853,2.754,2.754,0,0,1-2.285,1.028,3.374,3.374,0,0,1-2.285-.813,2.588,2.588,0,0,1-.94-2.043,2.66,2.66,0,0,1,1.143-2.338,5.821,5.821,0,0,1,3.322-.791h.914v-.5q0-1.316-1.134-1.316a.927.927,0,0,0-1.055,1.042H10.494a2.655,2.655,0,0,1,1.173-2.239,4.931,4.931,0,0,1,2.993-.86,4.323,4.323,0,0,1,2.874.888,3.086,3.086,0,0,1,1.081,2.435v4.21a4.311,4.311,0,0,0,.4,2V19ZM14.2,17.066a1.652,1.652,0,0,0,.918-.237,1.487,1.487,0,0,0,.523-.536V14.772h-.861q-1.547,0-1.547,1.389a.848.848,0,0,0,.272.655A.986.986,0,0,0,14.2,17.066Zm14.88-2.742a5.8,5.8,0,0,1-.967,3.595,3.238,3.238,0,0,1-2.725,1.257,2.81,2.81,0,0,1-2.338-1.151L22.931,19H20.276V5.5h2.962v4.755a2.711,2.711,0,0,1,2.136-.94,3.239,3.239,0,0,1,2.742,1.274,5.826,5.826,0,0,1,.967,3.586Zm-2.971-.189a3.866,3.866,0,0,0-.365-1.952,1.229,1.229,0,0,0-1.121-.584,1.418,1.418,0,0,0-1.389.763v3.773a1.426,1.426,0,0,0,1.406.755,1.258,1.258,0,0,0,1.327-1.018A7.309,7.309,0,0,0,26.112,14.135ZM33.513,19H30.542V5.5h2.971Zm6.425.176A4.889,4.889,0,0,1,36.4,17.871a4.507,4.507,0,0,1-1.354-3.4v-.246a5.84,5.84,0,0,1,.541-2.575A3.955,3.955,0,0,1,37.16,9.925a4.763,4.763,0,0,1,2.461-.611,4.117,4.117,0,0,1,3.164,1.244,4.887,4.887,0,0,1,1.16,3.467v1.151H38.057a2.135,2.135,0,0,0,.694,1.257,2.066,2.066,0,0,0,1.389.457,2.662,2.662,0,0,0,2.2-.984l1.354,1.6a3.784,3.784,0,0,1-1.569,1.217A5.3,5.3,0,0,1,39.938,19.176ZM39.6,11.6q-1.3,0-1.547,1.723h2.988v-.229a1.467,1.467,0,0,0-.36-1.1A1.434,1.434,0,0,0,39.6,11.6Zm11.285.571-.976-.07a1.752,1.752,0,0,0-1.793.879V19H45.158V9.49h2.777l.1,1.222a2.294,2.294,0,0,1,2.083-1.4,2.888,2.888,0,0,1,.826.105Zm.378,1.986a5.613,5.613,0,0,1,.554-2.536,3.96,3.96,0,0,1,1.591-1.709,4.791,4.791,0,0,1,2.435-.6,4.373,4.373,0,0,1,3.366,1.323,5.076,5.076,0,0,1,1.23,3.6v.105a4.925,4.925,0,0,1-1.235,3.529,4.384,4.384,0,0,1-3.344,1.305A4.434,4.434,0,0,1,52.6,17.958a4.761,4.761,0,0,1-1.327-3.3Zm2.962.185a3.538,3.538,0,0,0,.413,1.934,1.376,1.376,0,0,0,1.222.615q1.582,0,1.617-2.435v-.3q0-2.558-1.635-2.558-1.485,0-1.608,2.206Zm16.33-.07-1.564,1.468L68.423,19H65.417L67.632,6.2h3.015l-.958,5.476,1.248-1.521L74.259,6.2h3.9L72.853,12,75.8,19H72.36ZM81.905,19a2.578,2.578,0,0,1-.123-.861,2.933,2.933,0,0,1-2.329,1.037A2.866,2.866,0,0,1,77.4,18.35a2.483,2.483,0,0,1-.765-1.96,2.79,2.79,0,0,1,1.292-2.377,6.091,6.091,0,0,1,3.41-.831l.967.018.105-.536.035-.466a.755.755,0,0,0-.8-.826,1.111,1.111,0,0,0-1.169,1.046l-2.9.009A2.754,2.754,0,0,1,78.2,10.76a3.7,3.7,0,0,1,1.578-1.09A5.512,5.512,0,0,1,81.9,9.314a4.251,4.251,0,0,1,1.894.453,2.82,2.82,0,0,1,1.217,1.187,3.031,3.031,0,0,1,.308,1.753L84.6,17.181l-.044.545a2.4,2.4,0,0,0,.167,1.107L84.718,19Zm-1.652-1.916a1.865,1.865,0,0,0,1.556-.782l.29-1.529-.747-.009a1.969,1.969,0,0,0-1.2.409,1.55,1.55,0,0,0-.589,1.068.778.778,0,0,0,.136.593A.7.7,0,0,0,80.253,17.084Zm9.932-7.6-.2,1.143a3.38,3.38,0,0,1,2.751-1.318,2.27,2.27,0,0,1,1.964.98,4.1,4.1,0,0,1,.47,2.729l-1,5.985h-2.9l1.011-6.01a3.108,3.108,0,0,0,.018-.563q-.062-.836-.984-.836a1.807,1.807,0,0,0-1.4.678L88.726,19H85.834l1.652-9.51Zm15.029,4.781a6.891,6.891,0,0,1-1.362,3.639,3.409,3.409,0,0,1-2.865,1.283,2.522,2.522,0,0,1-2.162-1.178l-.36.993H95.845L98.191,5.5h2.892l-.94,4.772a2.87,2.87,0,0,1,2.136-.958,2.679,2.679,0,0,1,2.18,1,4.351,4.351,0,0,1,.826,2.667,9.674,9.674,0,0,1-.044,1.1Zm-2.874-.171a9.1,9.1,0,0,0,.079-1.018q0-1.413-1.011-1.474a1.732,1.732,0,0,0-1.5.763l-.686,3.791a1.163,1.163,0,0,0,1.2.746q1.415.044,1.784-1.843l.123-.781ZM111.1,19a2.578,2.578,0,0,1-.123-.861,2.933,2.933,0,0,1-2.329,1.037,2.866,2.866,0,0,1-2.057-.826,2.483,2.483,0,0,1-.765-1.96,2.79,2.79,0,0,1,1.292-2.377,6.091,6.091,0,0,1,3.41-.831l.967.018.105-.536.035-.466a.755.755,0,0,0-.8-.826,1.111,1.111,0,0,0-1.169,1.046l-2.9.009a2.754,2.754,0,0,1,.624-1.666,3.7,3.7,0,0,1,1.578-1.09,5.512,5.512,0,0,1,2.123-.356,4.251,4.251,0,0,1,1.894.453,2.82,2.82,0,0,1,1.217,1.187,3.031,3.031,0,0,1,.308,1.753l-.712,4.474-.044.545a2.4,2.4,0,0,0,.167,1.107l-.009.167Zm-1.652-1.916a1.865,1.865,0,0,0,1.556-.782l.29-1.529-.747-.009a1.969,1.969,0,0,0-1.2.409,1.55,1.55,0,0,0-.589,1.068.778.778,0,0,0,.136.593A.7.7,0,0,0,109.45,17.084Zm9.932-7.6-.2,1.143a3.38,3.38,0,0,1,2.751-1.318,2.27,2.27,0,0,1,1.964.98,4.1,4.1,0,0,1,.47,2.729l-1,5.985h-2.9l1.011-6.01a3.108,3.108,0,0,0,.018-.563q-.062-.836-.984-.836a1.807,1.807,0,0,0-1.4.678L117.923,19h-2.892l1.652-9.51Z" transform="translate(197.065 1652.896)" fill="#fff"/>
  </g>
</svg>
