<svg xmlns="http://www.w3.org/2000/svg" xmlns:xlink="http://www.w3.org/1999/xlink" width="138.557" height="129.113" viewBox="0 0 138.557 129.113">
  <defs>
    <clipPath id="clip-path">
      <rect id="Rect치ngulo_38721" data-name="Rect치ngulo 38721" width="138.557" height="129.113" transform="translate(3922 -11102)" fill="#c4fbf8"/>
    </clipPath>
    <clipPath id="clip-path-2">
      <rect id="Rect치ngulo_38636" data-name="Rect치ngulo 38636" width="101.477" height="101.485" fill="none"/>
    </clipPath>
  </defs>
  <g id="Enmascarar_grupo_65" data-name="Enmascarar grupo 65" transform="translate(-3922 11102)" clip-path="url(#clip-path)">
    <g id="Grupo_147309" data-name="Grupo 147309" transform="translate(3940 -11088)">
      <g id="Grupo_147215" data-name="Grupo 147215" clip-path="url(#clip-path-2)">
        <path id="Trazado_207816" data-name="Trazado 207816" d="M78.54,80.418H22.927A1.731,1.731,0,0,1,21.2,78.686V31.592a1.732,1.732,0,0,1,1.731-1.732H78.54a1.732,1.732,0,0,1,1.732,1.732V78.686a1.731,1.731,0,0,1-1.732,1.732M24.659,76.955h52.15V33.324H24.659Z" fill="#01074e"/>
        <path id="Trazado_207817" data-name="Trazado 207817" d="M82.079,33.324H19.388a1.731,1.731,0,0,1-1.731-1.732V22.8a1.732,1.732,0,0,1,1.731-1.732H82.079A1.733,1.733,0,0,1,83.811,22.8v8.793a1.732,1.732,0,0,1-1.732,1.732M21.12,29.86H80.347V24.53H21.12Z" fill="#01074e"/>
        <path id="Trazado_207818" data-name="Trazado 207818" d="M59.106,47.195H42.361a5.564,5.564,0,0,1,0-11.129H59.106a5.564,5.564,0,0,1,0,11.129M42.361,39.529a2.1,2.1,0,0,0,0,4.2H59.106a2.1,2.1,0,0,0,0-4.2Z" fill="#01074e"/>
        <path id="Trazado_207819" data-name="Trazado 207819" d="M50.734,101.485A50.2,50.2,0,0,1,19.16,90.468a1.732,1.732,0,0,1,2.156-2.711A46.778,46.778,0,0,0,50.734,98.022a47.333,47.333,0,0,0,47.28-47.279,1.731,1.731,0,0,1,3.463,0,50.8,50.8,0,0,1-50.743,50.742" fill="#01074e"/>
        <path id="Trazado_207820" data-name="Trazado 207820" d="M23.655,11.618A1.731,1.731,0,0,1,22.7,8.444q1.193-.794,2.434-1.519a1.731,1.731,0,0,1,1.747,2.99q-1.155.675-2.266,1.413a1.722,1.722,0,0,1-.956.29" fill="#01074e"/>
        <path id="Trazado_207821" data-name="Trazado 207821" d="M11.04,81.227a1.727,1.727,0,0,1-1.4-.714,51.143,51.143,0,0,1-2.961-4.579,1.731,1.731,0,0,1,3.005-1.721,48.172,48.172,0,0,0,2.758,4.266,1.73,1.73,0,0,1-1.4,2.748M3.964,67.169a1.732,1.732,0,0,1-1.652-1.213A50.673,50.673,0,0,1,.964,60.672,1.731,1.731,0,1,1,4.359,60,47.665,47.665,0,0,0,5.616,64.92a1.73,1.73,0,0,1-1.652,2.249M1.732,51.585A1.738,1.738,0,0,1,0,49.824a51.1,51.1,0,0,1,.385-5.436,1.731,1.731,0,1,1,3.436.428,48.169,48.169,0,0,0-.359,5.067,1.731,1.731,0,0,1-1.731,1.7M4.524,36.1a1.7,1.7,0,0,1-.579-.1,1.73,1.73,0,0,1-1.052-2.211,50.646,50.646,0,0,1,2.1-5.034,1.732,1.732,0,0,1,3.12,1.505A47.174,47.174,0,0,0,6.156,34.95,1.732,1.732,0,0,1,4.524,36.1M12.1,22.311a1.731,1.731,0,0,1-1.362-2.8A51.4,51.4,0,0,1,14.322,15.4a1.732,1.732,0,1,1,2.484,2.413,47.694,47.694,0,0,0-3.34,3.83,1.732,1.732,0,0,1-1.365.664" fill="#01074e"/>
        <path id="Trazado_207822" data-name="Trazado 207822" d="M20.237,90.844a1.722,1.722,0,0,1-1.077-.377q-1.124-.9-2.193-1.848a1.732,1.732,0,1,1,2.306-2.584q1,.888,2.043,1.723a1.731,1.731,0,0,1-1.079,3.086" fill="#01074e"/>
        <path id="Trazado_207823" data-name="Trazado 207823" d="M26,10.152a1.731,1.731,0,0,1-.877-3.225,50.822,50.822,0,0,1,47.94-1.759,1.732,1.732,0,1,1-1.526,3.109A47.36,47.36,0,0,0,26.879,9.914a1.715,1.715,0,0,1-.874.238" fill="#01074e"/>
        <path id="Trazado_207824" data-name="Trazado 207824" d="M73.873,11.384c-.111,0-6.61-.422-6.61-.422a1.73,1.73,0,0,1-1.616-1.838,1.7,1.7,0,0,1,1.838-1.617l4.533.291-.29-4.534a1.731,1.731,0,1,1,3.454-.221l.418,6.5a1.73,1.73,0,0,1-1.727,1.842" fill="#01074e"/>
      </g>
    </g>
  </g>
</svg>
