<svg xmlns="http://www.w3.org/2000/svg" xmlns:xlink="http://www.w3.org/1999/xlink" width="170" height="55" viewBox="0 0 170 55">
  <defs>
    <clipPath id="clip-path">
      <rect id="Rect치ngulo_38185" data-name="Rect치ngulo 38185" width="35.603" height="35.601" fill="none"/>
    </clipPath>
  </defs>
  <g id="Grupo_147336" data-name="Grupo 147336" transform="translate(-180 -3240.396)">
    <g id="Grupo_147284" data-name="Grupo 147284" transform="translate(0 1606.396)">
      <path id="Rect치ngulo_38184" data-name="Rect치ngulo 38184" d="M0,0H132.5A18.5,18.5,0,0,1,151,18.5v0A18.5,18.5,0,0,1,132.5,37H0a0,0,0,0,1,0,0V0A0,0,0,0,1,0,0Z" transform="translate(180 1643)" fill="#0043ff"/>
      <g id="Grupo_146641" data-name="Grupo 146641" transform="translate(17.763 -4057.236)">
        <circle id="Elipse_4060" data-name="Elipse 4060" cx="27.5" cy="27.5" r="27.5" transform="translate(277.237 5691.236)" fill="#0ccbc3"/>
        <g id="Grupo_146640" data-name="Grupo 146640" transform="translate(286.935 5700.936)">
          <g id="Grupo_146639" data-name="Grupo 146639" transform="translate(0 0)" clip-path="url(#clip-path)">
            <path id="Trazado_204887" data-name="Trazado 204887" d="M25.607,2.375V0A17.742,17.742,0,0,0,14.059,4.771L15.738,6.45a15.375,15.375,0,0,1,9.869-4.075" transform="translate(-8.407 0)" fill="#01074e"/>
            <path id="Trazado_204888" data-name="Trazado 204888" d="M6.492,15.627,4.813,13.948A17.737,17.737,0,0,0,0,25.5H2.376a15.378,15.378,0,0,1,4.116-9.87" transform="translate(-0.001 -8.341)" fill="#01074e"/>
            <path id="Trazado_204889" data-name="Trazado 204889" d="M7.806,56.848a15.4,15.4,0,0,1-5.432-11.22H0a17.763,17.763,0,0,0,6.123,12.9L4.14,60.512l8.9,2.374L9.483,55.169Z" transform="translate(0 -27.285)" fill="#01074e"/>
            <path id="Trazado_204890" data-name="Trazado 204890" d="M72.465,55.536l1.682,1.682a17.736,17.736,0,0,0,4.769-11.59H76.541a15.367,15.367,0,0,1-4.076,9.908" transform="translate(-43.333 -27.285)" fill="#01074e"/>
            <path id="Trazado_204891" data-name="Trazado 204891" d="M61.537,74.857l1.18,2.064a17.84,17.84,0,0,0,4.06-2.87L65.1,72.37a15.456,15.456,0,0,1-3.562,2.487" transform="translate(-36.798 -43.276)" fill="#01074e"/>
            <path id="Trazado_204892" data-name="Trazado 204892" d="M45.964,9.636l1.978-1.978L44.38,4.1,43,5.479l.021.021,0,0L43,5.479A17.751,17.751,0,0,0,30.727,0V2.375A15.388,15.388,0,0,1,41.318,7.159L30.133,18.343,24.2,12.407l-3.562,3.562,9.5,9.5L44.186,11.414l.017.025a15.355,15.355,0,0,1,1.347,5.717h2.374a17.718,17.718,0,0,0-1.942-7.5Z" transform="translate(-12.339 0)" fill="#01074e"/>
          </g>
        </g>
      </g>
    </g>
    <path id="Trazado_208198" data-name="Trazado 208198" d="M7.567,15.6a1.268,1.268,0,0,0-.479-1.055,5.954,5.954,0,0,0-1.683-.782,16.147,16.147,0,0,1-1.969-.782Q.949,11.758.949,9.622a3.011,3.011,0,0,1,.62-1.876A4.008,4.008,0,0,1,3.322,6.48a6.823,6.823,0,0,1,2.549-.453,5.969,5.969,0,0,1,2.474.492,3.917,3.917,0,0,1,1.7,1.4A3.661,3.661,0,0,1,10.652,10H7.576A1.547,1.547,0,0,0,7.1,8.787a1.867,1.867,0,0,0-1.3-.431A2.106,2.106,0,0,0,4.5,8.721a1.074,1.074,0,0,0,.048,1.819,6.65,6.65,0,0,0,1.854.826,11.36,11.36,0,0,1,2.18.918,3.663,3.663,0,0,1,2.074,3.3,3.125,3.125,0,0,1-1.266,2.637,5.629,5.629,0,0,1-3.472.958A6.888,6.888,0,0,1,3.1,18.618a4.247,4.247,0,0,1-1.9-1.529,3.985,3.985,0,0,1-.637-2.237H3.656a1.963,1.963,0,0,0,.532,1.516,2.513,2.513,0,0,0,1.727.488,1.985,1.985,0,0,0,1.208-.33A1.088,1.088,0,0,0,7.567,15.6ZM15.328,19H12.349V9.49h2.979ZM14.221,5.676H17.35l-2.443,2.76-2.417,0Zm5.73,3.814.1,1.116a3.225,3.225,0,0,1,2.716-1.292,2.713,2.713,0,0,1,2.219.888,4.226,4.226,0,0,1,.76,2.672V19H22.772V13a1.6,1.6,0,0,0-.29-1.059,1.342,1.342,0,0,0-1.055-.338,1.413,1.413,0,0,0-1.292.686V19H17.174V9.49ZM30.832,7.126V9.49H32.4v2.057H30.832V15.9a1.111,1.111,0,0,0,.193.747,1.037,1.037,0,0,0,.765.211,4.345,4.345,0,0,0,.738-.053v2.118a5.466,5.466,0,0,1-1.67.255,3.1,3.1,0,0,1-2.259-.721,2.954,2.954,0,0,1-.729-2.188v-4.72H26.657V9.49H27.87V7.126Zm7.33,12.05a4.889,4.889,0,0,1-3.542-1.305,4.507,4.507,0,0,1-1.354-3.4v-.246a5.84,5.84,0,0,1,.541-2.575,3.955,3.955,0,0,1,1.578-1.727,4.763,4.763,0,0,1,2.461-.611,4.117,4.117,0,0,1,3.164,1.244,4.887,4.887,0,0,1,1.16,3.467v1.151H36.281a2.135,2.135,0,0,0,.694,1.257,2.066,2.066,0,0,0,1.389.457,2.662,2.662,0,0,0,2.2-.984l1.354,1.6a3.784,3.784,0,0,1-1.569,1.217A5.3,5.3,0,0,1,38.162,19.176ZM37.828,11.6q-1.3,0-1.547,1.723H39.27v-.229a1.467,1.467,0,0,0-.36-1.1A1.434,1.434,0,0,0,37.828,11.6ZM48.34,16.328a.684.684,0,0,0-.4-.606,6.016,6.016,0,0,0-1.5-.475,6.853,6.853,0,0,1-1.828-.646,3.062,3.062,0,0,1-1.1-.971,2.319,2.319,0,0,1-.378-1.31,2.628,2.628,0,0,1,1.081-2.158,4.453,4.453,0,0,1,2.83-.848,4.934,4.934,0,0,1,3.023.853,2.666,2.666,0,0,1,1.143,2.241H48.243q0-1.143-1.2-1.143a1.194,1.194,0,0,0-.782.259.8.8,0,0,0-.316.646.737.737,0,0,0,.387.642,3.654,3.654,0,0,0,1.235.4,10.671,10.671,0,0,1,1.49.378A2.706,2.706,0,0,1,51.2,16.24a2.491,2.491,0,0,1-1.156,2.118,5.068,5.068,0,0,1-2.993.817,5.172,5.172,0,0,1-2.18-.439,3.645,3.645,0,0,1-1.494-1.2,2.707,2.707,0,0,1-.536-1.591h2.769a1.145,1.145,0,0,0,.439.962,1.808,1.808,0,0,0,1.081.3,1.422,1.422,0,0,0,.91-.246A.787.787,0,0,0,48.34,16.328ZM55.705,19H52.734V9.49h2.971ZM52.559,7.038A1.322,1.322,0,0,1,53.016,6a1.943,1.943,0,0,1,2.373,0,1.322,1.322,0,0,1,.457,1.037,1.322,1.322,0,0,1-.457,1.037,1.943,1.943,0,0,1-2.373,0A1.322,1.322,0,0,1,52.559,7.038Zm9.949,9.29a.684.684,0,0,0-.4-.606,6.016,6.016,0,0,0-1.5-.475,6.853,6.853,0,0,1-1.828-.646,3.062,3.062,0,0,1-1.1-.971,2.319,2.319,0,0,1-.378-1.31,2.628,2.628,0,0,1,1.081-2.158,4.453,4.453,0,0,1,2.83-.848,4.934,4.934,0,0,1,3.023.853,2.666,2.666,0,0,1,1.143,2.241H62.411q0-1.143-1.2-1.143a1.194,1.194,0,0,0-.782.259.8.8,0,0,0-.316.646.737.737,0,0,0,.387.642,3.654,3.654,0,0,0,1.235.4,10.671,10.671,0,0,1,1.49.378,2.706,2.706,0,0,1,2.145,2.646,2.491,2.491,0,0,1-1.156,2.118,5.068,5.068,0,0,1-2.993.817,5.172,5.172,0,0,1-2.18-.439,3.645,3.645,0,0,1-1.494-1.2,2.707,2.707,0,0,1-.536-1.591h2.769a1.145,1.145,0,0,0,.439.962,1.808,1.808,0,0,0,1.081.3,1.422,1.422,0,0,0,.91-.246A.787.787,0,0,0,62.508,16.328Z" transform="translate(202.083 3255.896)" fill="#fff"/>
  </g>
</svg>
