<svg id="Grupo_147011" data-name="Grupo 147011" xmlns="http://www.w3.org/2000/svg" xmlns:xlink="http://www.w3.org/1999/xlink" width="315" height="200.833" viewBox="0 0 315 200.833">
  <defs>
    <clipPath id="clip-path">
      <rect id="Rectángulo_38358" data-name="Rectángulo 38358" width="315" height="200.833" fill="none"/>
    </clipPath>
    <clipPath id="clip-path-2">
      <rect id="Rectángulo_38353" data-name="Rectángulo 38353" width="22.694" height="70.835" fill="none"/>
    </clipPath>
    <clipPath id="clip-path-3">
      <rect id="Rectángulo_38354" data-name="Rectángulo 38354" width="7.987" height="37.442" fill="none"/>
    </clipPath>
    <clipPath id="clip-path-4">
      <rect id="Rectángulo_38355" data-name="Rectángulo 38355" width="7.571" height="42.091" fill="none"/>
    </clipPath>
    <clipPath id="clip-path-5">
      <rect id="Rectángulo_38356" data-name="Rectángulo 38356" width="18.559" height="19.489" fill="none"/>
    </clipPath>
  </defs>
  <g id="Grupo_147324" data-name="Grupo 147324">
    <g id="Grupo_147009" data-name="Grupo 147009">
      <g id="Grupo_147008" data-name="Grupo 147008" clip-path="url(#clip-path)">
        <path id="Trazado_206013" data-name="Trazado 206013" d="M197.525,10.477a2.412,2.412,0,0,0,1.437-2.231,2.267,2.267,0,1,0-4.525-.021,2.407,2.407,0,0,0,1.441,2.253c-3.482.525-3.324,4.309-3.324,4.309l8.234.038s.188-3.826-3.264-4.347" transform="translate(-40.669 -1.23)" fill="#ebebeb"/>
        <path id="Trazado_206014" data-name="Trazado 206014" d="M359.331,68.506a5.328,5.328,0,0,0,3.175-4.929,5.007,5.007,0,1,0-9.994-.047,5.321,5.321,0,0,0,3.184,4.976c-7.69,1.159-7.341,9.517-7.341,9.517l18.186.084s.414-8.449-7.209-9.6" transform="translate(-73.574 -12.297)" fill="#b5e5eb"/>
        <path id="Trazado_206015" data-name="Trazado 206015" d="M354.524,86.288a20.016,20.016,0,1,1,20.016-20.016,20.038,20.038,0,0,1-20.016,20.016m0-39.461a19.445,19.445,0,1,0,19.445,19.445,19.468,19.468,0,0,0-19.445-19.445" transform="translate(-70.65 -9.77)" fill="#b5e5eb"/>
        <path id="Trazado_206016" data-name="Trazado 206016" d="M83.045,36.16a4.862,4.862,0,0,0,2.9-4.5,4.569,4.569,0,1,0-9.119-.043,4.854,4.854,0,0,0,2.905,4.54c-7.017,1.057-6.7,8.683-6.7,8.683l16.592.077s.379-7.709-6.577-8.76" transform="translate(-15.424 -5.656)" fill="#b5e5eb"/>
        <path id="Trazado_206017" data-name="Trazado 206017" d="M78.652,52.4A18.288,18.288,0,1,1,96.941,34.116,18.308,18.308,0,0,1,78.652,52.4m0-36.005A17.717,17.717,0,1,0,96.37,34.116,17.737,17.737,0,0,0,78.652,16.4" transform="translate(-12.749 -3.343)" fill="#b5e5eb"/>
        <path id="Trazado_206018" data-name="Trazado 206018" d="M287.773,31.129a3.8,3.8,0,0,0,2.267-3.52,3.576,3.576,0,1,0-7.137-.033,3.8,3.8,0,0,0,2.274,3.554c-5.492.827-5.242,6.8-5.242,6.8l12.986.06s.3-6.033-5.148-6.855" transform="translate(-59.124 -5.024)" fill="#b5e5eb"/>
        <path id="Trazado_206019" data-name="Trazado 206019" d="M284.318,43.855A14.375,14.375,0,1,1,298.693,29.48a14.391,14.391,0,0,1-14.375,14.375m0-28.18a13.8,13.8,0,1,0,13.8,13.8,13.82,13.82,0,0,0-13.8-13.8" transform="translate(-57.014 -3.19)" fill="#b5e5eb"/>
        <path id="Trazado_206020" data-name="Trazado 206020" d="M222.277,70.533a2.686,2.686,0,0,0,1.6-2.485,2.524,2.524,0,1,0-5.038-.024,2.682,2.682,0,0,0,1.605,2.508c-3.877.584-3.7,4.8-3.7,4.8l9.167.043s.209-4.259-3.634-4.84" transform="translate(-45.777 -13.802)" fill="#b5e5eb"/>
        <path id="Trazado_206021" data-name="Trazado 206021" d="M219.831,79.559a10.174,10.174,0,1,1,10.175-10.174,10.185,10.185,0,0,1-10.175,10.174m0-19.893a9.718,9.718,0,1,0,9.719,9.719,9.729,9.729,0,0,0-9.719-9.719" transform="translate(-44.281 -12.506)" fill="#b5e5eb"/>
        <path id="Trazado_206022" data-name="Trazado 206022" d="M24.272,126.755a2.445,2.445,0,0,0,1.457-2.262,2.3,2.3,0,1,0-4.586-.021,2.441,2.441,0,0,0,1.461,2.284c-3.529.532-3.369,4.367-3.369,4.367l8.345.039s.19-3.877-3.308-4.405" transform="translate(-4.062 -25.775)" fill="#b5e5eb"/>
        <path id="Trazado_206023" data-name="Trazado 206023" d="M22.025,135.028a9.339,9.339,0,1,1,9.339-9.339,9.351,9.351,0,0,1-9.339,9.339m0-18.108a8.769,8.769,0,1,0,8.769,8.769,8.779,8.779,0,0,0-8.769-8.769" transform="translate(-2.679 -24.574)" fill="#b5e5eb"/>
        <path id="Trazado_206024" data-name="Trazado 206024" d="M32.464,106.123c-.069-.046,7.124-11.01,16.061-24.487s16.242-24.37,16.311-24.325S57.713,68.32,48.772,81.8s-16.24,24.367-16.308,24.322" transform="translate(-6.856 -12.105)" fill="#b5e5eb"/>
        <path id="Trazado_206025" data-name="Trazado 206025" d="M234.518,63.877c-.035-.055,6.947-4.519,15.591-9.97s15.684-9.826,15.718-9.771-6.945,4.517-15.593,9.97-15.682,9.825-15.717,9.77" transform="translate(-49.532 -9.322)" fill="#b5e5eb"/>
        <path id="Trazado_206026" data-name="Trazado 206026" d="M187.6,68.192c-.011.064-18.944-3.159-42.284-7.2s-42.259-7.367-42.247-7.43,18.94,3.158,42.287,7.2,42.255,7.366,42.244,7.43" transform="translate(-21.769 -11.313)" fill="#b5e5eb"/>
        <path id="Trazado_206027" data-name="Trazado 206027" d="M330.739,56.356c-.034.056-5.88-3.429-13.055-7.78s-12.969-7.927-12.935-7.983,5.878,3.427,13.057,7.781,12.967,7.927,12.933,7.981" transform="translate(-64.365 -8.574)" fill="#b5e5eb"/>
        <path id="Trazado_206028" data-name="Trazado 206028" d="M53.792,42.689c0,.065-5.442.183-12.155.264s-12.158.093-12.159.028,5.441-.183,12.156-.263,12.158-.094,12.158-.029" transform="translate(-6.226 -9.007)" fill="#b5e5eb"/>
        <path id="Trazado_206029" data-name="Trazado 206029" d="M20.822,41.856a1.535,1.535,0,0,0,.915-1.421,1.443,1.443,0,1,0-2.881-.013,1.532,1.532,0,0,0,.918,1.434c-2.217.334-2.116,2.743-2.116,2.743l5.242.024s.12-2.436-2.078-2.768" transform="translate(-3.729 -8.214)" fill="#b5e5eb"/>
        <path id="Trazado_206030" data-name="Trazado 206030" d="M19.382,47.131a5.973,5.973,0,1,1,5.973-5.973,5.98,5.98,0,0,1-5.973,5.973m0-11.375a5.4,5.4,0,1,0,5.4,5.4,5.408,5.408,0,0,0-5.4-5.4" transform="translate(-2.832 -7.432)" fill="#b5e5eb"/>
        <path id="Trazado_206031" data-name="Trazado 206031" d="M195.263,18.762a9.381,9.381,0,1,1,9.381-9.381,9.392,9.392,0,0,1-9.381,9.381m0-17.866a8.485,8.485,0,1,0,8.485,8.485A8.495,8.495,0,0,0,195.263.9" transform="translate(-39.259)" fill="#b5e5eb"/>
        <path id="Trazado_206032" data-name="Trazado 206032" d="M212.763,53.657a1.675,1.675,0,0,1-.121-.3c-.077-.224-.179-.517-.305-.884-.27-.794-.647-1.9-1.108-3.255-.944-2.746-2.3-6.521-3.921-10.642s-3.211-7.806-4.394-10.458L201.5,24.98c-.157-.354-.283-.637-.38-.854a1.637,1.637,0,0,1-.118-.3,1.683,1.683,0,0,1,.161.284l.42.836c.363.726.869,1.787,1.48,3.105,1.222,2.636,2.834,6.314,4.461,10.44s2.955,7.914,3.86,10.675c.453,1.38.806,2.5,1.038,3.281l.263.9a1.7,1.7,0,0,1,.077.318" transform="translate(-42.453 -5.031)" fill="#b5e5eb"/>
        <path id="Trazado_206033" data-name="Trazado 206033" d="M2.73,210.195V226.02H.088v1.717H2.73v10.591H52.118v-9.637H48.46v-2.1h3.658v-3.148h1.626v-1.432H51.813V210.195Z" transform="translate(-0.019 -44.394)" fill="#baeff5"/>
        <path id="Trazado_206034" data-name="Trazado 206034" d="M49.423,210.241v27.911H62.538v-9.637H58.88v-1.923l3.658.065v-3.149l1.657,0-.032-1.627-1.931-.048V210.2Z" transform="translate(-10.438 -44.395)" fill="#acdae0"/>
        <path id="Trazado_206035" data-name="Trazado 206035" d="M39.918,232.1c0,.1-8.937.175-19.958.175S0,232.2,0,232.1s8.935-.175,19.96-.175,19.958.078,19.958.175" transform="translate(0 -48.984)" fill="#acdae0"/>
        <path id="Trazado_206036" data-name="Trazado 206036" d="M39.918,230.061c0,.1-8.937.175-19.958.175S0,230.158,0,230.061s8.935-.175,19.96-.175,19.958.078,19.958.175" transform="translate(0 -48.553)" fill="#acdae0"/>
        <path id="Trazado_206037" data-name="Trazado 206037" d="M43.168,224.576c0,.1-8.937.175-19.958.175s-19.96-.078-19.96-.175,8.935-.175,19.96-.175,19.958.078,19.958.175" transform="translate(-0.686 -47.395)" fill="#acdae0"/>
        <path id="Trazado_206038" data-name="Trazado 206038" d="M43.481,239.522c0,.1-8.937.175-19.958.175s-19.96-.078-19.96-.175,8.935-.175,19.96-.175,19.958.078,19.958.175" transform="translate(-0.753 -50.552)" fill="#acdae0"/>
        <path id="Trazado_206039" data-name="Trazado 206039" d="M9.7,174.879V190.7H7.062v1.717H9.7v10.591H59.092v-9.637H55.433v-2.1h3.658v-3.148h1.626V186.7H58.787V174.879Z" transform="translate(-1.491 -36.936)" fill="#baeff5"/>
        <path id="Trazado_206040" data-name="Trazado 206040" d="M56.4,174.925v27.911H69.512V193.2H65.853v-1.923l3.658.065v-3.149l1.657,0-.032-1.627-1.931-.048v-11.64Z" transform="translate(-11.911 -36.936)" fill="#acdae0"/>
        <path id="Trazado_206041" data-name="Trazado 206041" d="M46.892,196.783c0,.1-8.937.175-19.958.175s-19.96-.078-19.96-.175,8.935-.175,19.96-.175,19.958.078,19.958.175" transform="translate(-1.473 -41.525)" fill="#acdae0"/>
        <path id="Trazado_206042" data-name="Trazado 206042" d="M46.892,194.745c0,.1-8.937.175-19.958.175s-19.96-.078-19.96-.175,8.935-.175,19.96-.175,19.958.078,19.958.175" transform="translate(-1.473 -41.094)" fill="#acdae0"/>
        <path id="Trazado_206043" data-name="Trazado 206043" d="M50.142,189.26c0,.1-8.937.175-19.958.175s-19.96-.078-19.96-.175,8.935-.175,19.96-.175,19.958.078,19.958.175" transform="translate(-2.159 -39.936)" fill="#acdae0"/>
        <path id="Trazado_206044" data-name="Trazado 206044" d="M50.455,204.206c0,.1-8.937.175-19.958.175s-19.96-.078-19.96-.175,8.935-.175,19.96-.175,19.958.078,19.958.175" transform="translate(-2.225 -43.093)" fill="#acdae0"/>
        <path id="Trazado_206045" data-name="Trazado 206045" d="M379.127,174.872a15.358,15.358,0,0,1,9.53-1.158,7.92,7.92,0,0,1,4.708,2.1c1.176,1.3,1.4,3.584.049,4.7a4.514,4.514,0,0,1-2.969.753c-2.519-.03-5.315-.473-7.327,1.043-1.148.865-1.913,2.3-3.286,2.728a3.245,3.245,0,0,1-3.571-1.589,5.547,5.547,0,0,1-.4-4.094,6.25,6.25,0,0,1,3.27-4.485" transform="translate(-79.34 -36.633)" fill="#b5e5eb"/>
        <path id="Trazado_206046" data-name="Trazado 206046" d="M371.19,151.961c1.772,2.531,5.218,1.694,6.815.148s2.272-3.785,2.887-5.921c1.4-4.88,2.82-10,1.776-14.969a8.317,8.317,0,0,0-1.912-4.069,4.346,4.346,0,0,0-4.117-1.37c-1.737.459-2.816,2.161-3.6,3.779a35.692,35.692,0,0,0-3.526,15.312,12.376,12.376,0,0,0,1.674,7.09" transform="translate(-78.044 -26.542)" fill="#b5e5eb"/>
        <path id="Trazado_206047" data-name="Trazado 206047" d="M360,157.774a9.211,9.211,0,0,0,1.433-8.477,16.334,16.334,0,0,0-5.021-7.283,27.021,27.021,0,0,0-8.991-5.305,9.6,9.6,0,0,0-4.044-.687,4.246,4.246,0,0,0-3.393,2.053c-.946,1.8-.039,3.994.943,5.779a68.5,68.5,0,0,0,5.9,8.992c1.77,2.282,3.8,4.533,6.5,5.564s5.5.91,6.93-.961" transform="translate(-71.723 -28.723)" fill="#b5e5eb"/>
        <path id="Trazado_206048" data-name="Trazado 206048" d="M371.477,201.182a5.534,5.534,0,0,0,.16-1.15c.082-.838.184-1.889.306-3.14a45.343,45.343,0,0,1,.706-4.6,35.6,35.6,0,0,1,1.674-5.435,20.063,20.063,0,0,1,2.775-4.918,10.37,10.37,0,0,1,3.509-2.917,9.822,9.822,0,0,1,2.955-.92,5.591,5.591,0,0,0,1.145-.166,5.324,5.324,0,0,0-1.166-.018,8.954,8.954,0,0,0-3.081.8,10.343,10.343,0,0,0-3.7,2.943,19.538,19.538,0,0,0-2.877,5.017,33.163,33.163,0,0,0-1.662,5.524,38.817,38.817,0,0,0-.612,4.663c-.1,1.333-.138,2.412-.156,3.158a5.387,5.387,0,0,0,.024,1.162" transform="translate(-78.451 -37.574)" fill="#acdae0"/>
        <path id="Trazado_206049" data-name="Trazado 206049" d="M371.693,190.459a2.237,2.237,0,0,0,.031-.534c0-.4,0-.906,0-1.526,0-1.324,0-3.242.068-5.609.118-4.734.525-9.83,1.313-17.013.745-6.755,1.746-14.616,2.8-19.727.226-1.163.454-2.209.669-3.124s.379-1.71.548-2.351c.145-.6.263-1.093.357-1.484a2.294,2.294,0,0,0,.094-.526,2.215,2.215,0,0,0-.185.5c-.117.384-.263.868-.443,1.463-.2.634-.4,1.421-.628,2.335s-.491,1.955-.74,3.117a173.414,173.414,0,0,0-2.946,18.3c-.789,7.2-1.145,13.753-1.175,18.5-.028,2.373.022,4.294.083,5.62l.093,1.526a2.263,2.263,0,0,0,.065.53" transform="translate(-78.451 -29.266)" fill="#acdae0"/>
        <path id="Trazado_206050" data-name="Trazado 206050" d="M367.272,178.852a10.076,10.076,0,0,0-.011-1.595c-.059-1.025-.2-2.505-.488-4.319a57.074,57.074,0,0,0-1.4-6.295,51.684,51.684,0,0,0-2.632-7.448,39.668,39.668,0,0,0-7.729-12.035,19.618,19.618,0,0,0-1.819-1.69c-.278-.236-.525-.471-.776-.658l-.706-.486a10.131,10.131,0,0,0-1.343-.86,47.351,47.351,0,0,1,4.4,3.926,41.806,41.806,0,0,1,7.536,11.992,58.819,58.819,0,0,1,2.647,7.379,64.011,64.011,0,0,1,1.495,6.232c.33,1.8.521,3.262.635,4.278a10.294,10.294,0,0,0,.2,1.579" transform="translate(-73.998 -30.3)" fill="#acdae0"/>
        <path id="Trazado_206051" data-name="Trazado 206051" d="M356.309,216.6l1.267,17.355h22.3l1.267-17.355Z" transform="translate(-75.255 -45.747)" fill="#acdae0"/>
        <rect id="Rectángulo_38352" data-name="Rectángulo 38352" width="29.642" height="6.84" transform="translate(278.901 164.011)" fill="#acdae0"/>
        <path id="Trazado_206052" data-name="Trazado 206052" d="M353.579,237.758v1.9h29.152v-1.9Z" transform="translate(-74.678 -50.216)" fill="#b5e5eb"/>
        <path id="Trazado_206053" data-name="Trazado 206053" d="M356.71,243.5l-1.365-3.337h26.7L380.45,243.5Z" transform="translate(-75.051 -50.724)" fill="#acdae0"/>
        <path id="Trazado_206054" data-name="Trazado 206054" d="M380.824,223.136a.712.712,0,0,1-.1.159l-.333.442-1.3,1.662-.058.074-.056-.077-3.191-4.413h.184l-3.142,4.449-.1.139-.11-.131-3.726-4.433.215,0c-.065.081-.135.17-.205.258l-3.332,4.176-.111.14-.1-.145-3.143-4.447.183.009-3.871,4.41-.069.079-.052-.088-1.212-2.037-.311-.542a.9.9,0,0,1-.1-.193.8.8,0,0,1,.13.172l.344.521,1.272,2-.121-.01,3.808-4.464.1-.113.087.121,3.172,4.427-.214-.006,3.323-4.183.205-.257L369,220.7l.109.131,3.715,4.441-.208.009,3.173-4.426.093-.13.091.13,3.124,4.461-.114,0,1.351-1.62c.147-.17.266-.307.361-.419a.739.739,0,0,1,.134-.135" transform="translate(-75.355 -46.613)" fill="#baeff5"/>
        <path id="Trazado_206055" data-name="Trazado 206055" d="M381.5,216.416c0,.077-5.586.139-12.476.139s-12.478-.062-12.478-.139,5.585-.139,12.478-.139,12.476.062,12.476.139" transform="translate(-75.304 -45.679)" fill="#baeff5"/>
        <path id="Trazado_206056" data-name="Trazado 206056" d="M382.346,240.362c0,.077-6.071.139-13.559.139s-13.56-.062-13.56-.139,6.071-.139,13.56-.139,13.559.062,13.559.139" transform="translate(-75.026 -50.737)" fill="#baeff5"/>
        <path id="Trazado_206057" data-name="Trazado 206057" d="M231.669,188.582s4.769-2.971,6.568-2.773l10.327,2.405s.884.965-.909,1.856c-1.765.877-4.062-.389-4.062-.389l-2.512.354,1.734,1.449,6.85,2.105s4.962,1.4,4.36,2.134-2.093.819-4.234.214l-4.857-1.373s-.85-.184.517.767,7.38,2.425,8.172,2.818,2.954.722,2.719,1.953-2.944.24-2.944.24l-8.894-2.063s3.511,1.515,4.108,1.8,2.542.816,3.58,1.335,1.537,1.207,1.417,1.753a1.038,1.038,0,0,1-1.124.874l-7.525-2.584s-3.415-1.36-3.644-1.312,1.333,1.505,1.333,1.505l2.4,1.23s3.465,1.161,3.475,2.123-.713.926-.713.926l-6.321-2.181-7.056-3.574-5.287-3.243a25.317,25.317,0,0,0,.772-3.891c-.18-.164,1.748-4.456,1.748-4.456" transform="translate(-48.398 -39.242)" fill="#ffc09d"/>
        <path id="Trazado_206058" data-name="Trazado 206058" d="M235.482,196.618a11.23,11.23,0,0,1,1.7-.624,5.7,5.7,0,0,0,3.258-2.518,3.056,3.056,0,0,0,.343-1.971l-.045-.226.248-.032c1.095-.141,2.116-.38,2.808-.473.7-.114,1.133-.121,1.133-.063a5.837,5.837,0,0,1-1.08.321,28.7,28.7,0,0,1-2.848.644l.2-.257a3.374,3.374,0,0,1-.357,2.269,4.672,4.672,0,0,1-1.716,1.815,7.433,7.433,0,0,1-1.848.8,5.316,5.316,0,0,1-1.8.316" transform="translate(-49.735 -40.272)" fill="#ff9b6c"/>
        <path id="Trazado_206059" data-name="Trazado 206059" d="M112.245,238.691l-.838-31.161,54.647,1.056,7.439,28.933Z" transform="translate(-23.53 -43.832)" fill="#263238"/>
        <path id="Trazado_206060" data-name="Trazado 206060" d="M139.855,97.139l-4.108,3.89s-15.363,3.819-18.047,6.5-4.086,44.075-3.907,46.939-.009,27.738-.009,27.738-.9,9.485,0,10.022,18.132.767,26.722.947,26.808.684,27.882-.211-2.666-19.447-2.666-19.447l-1.488-8.557L164.7,150l3.142-20.581,2.327-21.3s-6.264-3.759-9.306-4.474-21-6.508-21-6.508" transform="translate(-23.947 -20.516)" fill="#455a64"/>
        <path id="Trazado_206061" data-name="Trazado 206061" d="M198.259,159.834l-8.349-35.056a39.172,39.172,0,0,0-2.871-8.059c-1.294-2.661-2.9-5.56-3.78-5.662-5.177-.6-7.874,15.211-7.874,15.211v20.043l4.887,21.707a9.612,9.612,0,0,0,6.463,7.049l33.135,10.546,3.84-16.448Z" transform="translate(-37.043 -23.453)" fill="#455a64"/>
        <path id="Trazado_206062" data-name="Trazado 206062" d="M122.015,106.342s-12.59,1.779-16.656,11.385c0,0-12.583,48.978-10.48,55.429S113.248,204.5,113.248,204.5l14.261-7.529s-13.935-28.927-13.935-32.115,8.441-58.516,8.441-58.516" transform="translate(-19.989 -22.46)" fill="#455a64"/>
        <path id="Trazado_206063" data-name="Trazado 206063" d="M132.591,204.1a.932.932,0,0,1-.08-.156c-.052-.116-.122-.271-.212-.468-.186-.426-.453-1.033-.794-1.809L128.627,195l-9.417-22.03c-.169-.4-.336-.791-.492-1.157l-.01-.024v-.019a12.1,12.1,0,0,1,.264-1.7c.12-.548.237-1.092.371-1.628.253-1.075.524-2.127.788-3.161l1.556-5.944c1-3.78,1.889-7.176,2.612-10.03s1.275-5.165,1.656-6.762c.184-.789.327-1.406.428-1.839.048-.2.087-.359.116-.477a.834.834,0,0,1,.047-.161,1.021,1.021,0,0,1-.024.166c-.024.12-.054.279-.094.482-.091.435-.22,1.055-.385,1.849-.354,1.6-.877,3.923-1.586,6.781s-1.576,6.261-2.563,10.045c-.491,1.893-1.007,3.882-1.542,5.945-.262,1.033-.532,2.086-.783,3.158a23.931,23.931,0,0,0-.626,3.265l-.009-.043c.156.366.324.76.492,1.156l9.354,22.058,2.81,6.7c.323.783.576,1.4.753,1.825.08.2.143.359.19.477a.941.941,0,0,1,.058.166" transform="translate(-25.072 -29.584)" fill="#263238"/>
        <path id="Trazado_206064" data-name="Trazado 206064" d="M181.475,133.385a1.29,1.29,0,0,1,0,.285c-.011.211-.024.48-.042.814-.048.735-.114,1.749-.194,2.989-.18,2.523-.4,6.011-.8,9.852s-.972,7.3-1.4,9.788c-.218,1.246-.4,2.252-.539,2.946-.065.327-.119.592-.161.8a1.3,1.3,0,0,1-.072.275,1.3,1.3,0,0,1,.025-.284c.031-.209.069-.476.118-.805.114-.729.272-1.731.465-2.959.39-2.5.93-5.95,1.333-9.785s.644-7.321.865-9.84c.112-1.238.2-2.249.269-2.983.035-.332.064-.6.086-.811a1.306,1.306,0,0,1,.046-.281" transform="translate(-37.651 -28.172)" fill="#263238"/>
        <path id="Trazado_206065" data-name="Trazado 206065" d="M120.614,228.068l1.412,2.6s7-2.668,10.333-7.165l-.92-.884Z" transform="translate(-25.474 -47.019)" fill="#ffc09d"/>
        <path id="Trazado_206066" data-name="Trazado 206066" d="M133.867,220.518a4.966,4.966,0,0,1-.4.664c-.135.211-.3.467-.519.748s-.443.618-.739.954-.6.722-.967,1.1c-.353.391-.76.778-1.191,1.184a25.7,25.7,0,0,1-3.027,2.375,27,27,0,0,1-6.264,3.064c-.42.154-.81.261-1.149.364s-.635.181-.879.238a4.92,4.92,0,0,1-.759.161,4.806,4.806,0,0,1,.734-.248c.239-.07.53-.159.864-.276s.719-.232,1.133-.394c.837-.3,1.813-.711,2.874-1.215a30.5,30.5,0,0,0,3.315-1.889,27.4,27.4,0,0,0,3.012-2.34c.431-.4.84-.776,1.2-1.159.372-.367.687-.737.98-1.07s.536-.654.762-.926.4-.519.548-.721a4.941,4.941,0,0,1,.476-.611" transform="translate(-24.916 -46.575)" fill="#455a64"/>
        <path id="Trazado_206067" data-name="Trazado 206067" d="M127.38,125.242c-.054-.008.136-.827.1-2.161a8.5,8.5,0,0,0-.093-1.085,11.261,11.261,0,0,0-.229-1.227,11.778,11.778,0,0,0-2.644-5.013,11.206,11.206,0,0,0-.883-.882,8.531,8.531,0,0,0-.842-.689c-1.079-.786-1.862-1.093-1.838-1.142a2.777,2.777,0,0,1,.546.214,4.239,4.239,0,0,1,.614.311,7.063,7.063,0,0,1,.775.482,8.138,8.138,0,0,1,.875.678,10.678,10.678,0,0,1,.916.883,11.408,11.408,0,0,1,2.694,5.107,10.821,10.821,0,0,1,.211,1.254,8.011,8.011,0,0,1,.066,1.105,7.2,7.2,0,0,1-.039.912,4.358,4.358,0,0,1-.091.682,2.758,2.758,0,0,1-.132.571" transform="translate(-25.544 -23.875)" fill="#263238"/>
        <path id="Trazado_206068" data-name="Trazado 206068" d="M121.745,144.417c-.015.063-4.17-.883-9.279-2.113s-9.24-2.279-9.225-2.343,4.17.883,9.28,2.114,9.239,2.279,9.224,2.342" transform="translate(-21.805 -29.56)" fill="#fff"/>
        <path id="Trazado_206069" data-name="Trazado 206069" d="M170.014,142.326c0,.065-9.354.277-20.891.474s-20.9.3-20.9.239,9.352-.277,20.894-.474,20.894-.3,20.9-.239" transform="translate(-27.082 -30.056)" fill="#fff"/>
        <path id="Trazado_206070" data-name="Trazado 206070" d="M194.658,145.3a2.221,2.221,0,0,1-.508.11c-.328.055-.805.126-1.4.207-1.18.162-2.815.358-4.625.536s-3.452.3-4.641.375c-.6.035-1.077.059-1.41.069a2.148,2.148,0,0,1-.519-.009,2.233,2.233,0,0,1,.513-.083l1.4-.143,4.632-.444,4.629-.468,1.4-.133a2.223,2.223,0,0,1,.519-.019" transform="translate(-38.346 -30.687)" fill="#fff"/>
        <path id="Trazado_206071" data-name="Trazado 206071" d="M114.352,177.222c-.009.065-4.02-.459-8.958-1.168s-8.935-1.336-8.926-1.4,4.02.459,8.959,1.168,8.934,1.337,8.924,1.4" transform="translate(-20.375 -36.887)" fill="#fff"/>
        <path id="Trazado_206072" data-name="Trazado 206072" d="M165.327,182.542c0,.065-9.693.786-21.656,1.611S122,185.594,122,185.528s9.691-.786,21.659-1.611,21.668-1.44,21.673-1.376" transform="translate(-25.766 -38.553)" fill="#fff"/>
        <path id="Trazado_206073" data-name="Trazado 206073" d="M199.442,173.612a4.411,4.411,0,0,1-.551.492l-1.551,1.282c-1.311,1.079-3.116,2.578-5.082,4.264s-3.722,3.245-4.988,4.377l-1.5,1.338a4.442,4.442,0,0,1-.57.471,4.333,4.333,0,0,1,.507-.538c.337-.335.833-.812,1.452-1.394,1.238-1.163,2.978-2.742,4.947-4.432s3.793-3.169,5.131-4.216c.669-.524,1.216-.942,1.6-1.223a4.384,4.384,0,0,1,.608-.42" transform="translate(-39.115 -36.668)" fill="#fff"/>
        <path id="Trazado_206074" data-name="Trazado 206074" d="M127.482,213.876a3.28,3.28,0,0,1-.573.269l-1.592.658-5.257,2.155-5.24,2.2-1.591.661a3.337,3.337,0,0,1-.6.216,3.278,3.278,0,0,1,.558-.3c.366-.178.9-.428,1.561-.73,1.324-.6,3.165-1.411,5.217-2.262s3.923-1.582,5.286-2.093c.682-.256,1.234-.456,1.62-.588a3.3,3.3,0,0,1,.606-.184" transform="translate(-23.789 -45.172)" fill="#fff"/>
        <path id="Trazado_206075" data-name="Trazado 206075" d="M225.912,182.229a3.491,3.491,0,0,1-.089.648c-.072.416-.191,1.013-.353,1.748-.324,1.47-.841,3.487-1.541,5.677s-1.455,4.132-2.045,5.517c-.3.693-.545,1.248-.728,1.627a3.523,3.523,0,0,1-.3.58,3.545,3.545,0,0,1,.221-.617c.171-.431.393-.987.658-1.653.551-1.4,1.275-3.343,1.975-5.525s1.239-4.186,1.6-5.644l.425-1.728a3.527,3.527,0,0,1,.179-.629" transform="translate(-46.645 -38.488)" fill="#fff"/>
        <path id="Trazado_206076" data-name="Trazado 206076" d="M141.824,107.933a4.425,4.425,0,0,1-.724.147l-1.98.338c-1.671.293-3.971.739-6.485,1.346s-4.765,1.262-6.384,1.765l-1.916.6a4.482,4.482,0,0,1-.711.2,4.345,4.345,0,0,1,.68-.287c.443-.172,1.091-.4,1.9-.675,1.61-.544,3.859-1.225,6.381-1.836s4.833-1.031,6.514-1.282c.84-.126,1.522-.215,1.994-.265a4.493,4.493,0,0,1,.737-.056" transform="translate(-26.11 -22.795)" fill="#fff"/>
        <path id="Trazado_206077" data-name="Trazado 206077" d="M178.1,51.171c3.347,2.885,1.472,7.408.8,11.775s.11,9.158.287,13.573c.095,2.335.668,4.747-.09,6.957-.794,2.311-2.866,3.892-4.476,5.731s-2.815,4.574-1.547,6.662a2.217,2.217,0,0,1-2.1-.291,2.565,2.565,0,0,1-2.948.946,7.5,7.5,0,0,1-2.765-1.826,1.563,1.563,0,0,1-1.888,1.07,4.188,4.188,0,0,1-2-1.316,5.424,5.424,0,0,0-1.914-1.458c-1.692-.6-3.672.685-5.313-.044-2.254-1-2.04-4.9-4.372-5.7-1.1-.377-2.278.14-3.43.267a2.013,2.013,0,0,1-2.232-2.042,9.468,9.468,0,0,1-6.549.482,2.319,2.319,0,0,0,.821-2.231,7.57,7.57,0,0,1-4.356-.534,4.457,4.457,0,0,0,2.885-2.29,3.807,3.807,0,0,1-3.4-1.212c2.512.024,4.266-2.575,4.793-5.03s.345-5.083,1.345-7.386c1.088-2.507,3.418-4.253,4.833-6.592,1.972-3.259,2.028-7.419,4.069-10.637a18.047,18.047,0,0,1,4.633-5.368c2.556-1.85,4.02-2.81,7.176-2.768,2.643.035,7.17.772,9.425,2.154,4.012,2.457,8.269,5.2,10.048,9.55" transform="translate(-28.197 -8.851)" fill="#263238"/>
        <path id="Trazado_206078" data-name="Trazado 206078" d="M152.364,71.931a60.619,60.619,0,0,1,.055-10.466,21.19,21.19,0,0,1,3.461-9.777c.306-.432,2.683-3.246,3.178-3.061.355.133-1.38,2.886-1.281,3.251a17.967,17.967,0,0,1-.741,10.644,47.309,47.309,0,0,1-4.673,9.409" transform="translate(-32.138 -10.268)" fill="#263238"/>
        <path id="Trazado_206079" data-name="Trazado 206079" d="M159.315,106.754c-5.2-1.5-15-11.695-13.611-16.93l8.364-31.505c1.978-8.536,8.592-14.5,17.07-12.286l.771.25a15.664,15.664,0,0,1,10.407,18.522c-1.754,7.387-3.788,15.524-5.088,19.37-2.693,7.965-11.094,6.614-11.094,6.614-.018,0-.547,1.87-1.206,4.248a38.564,38.564,0,0,1-5.614,11.717" transform="translate(-30.745 -9.624)" fill="#ffc09d"/>
        <path id="Trazado_206080" data-name="Trazado 206080" d="M169.12,101.169a20.309,20.309,0,0,1-9.413-6.456s.555,6.825,8.767,8.693Z" transform="translate(-33.731 -20.004)" fill="#ff9b6c"/>
        <path id="Trazado_206081" data-name="Trazado 206081" d="M185.261,77.857a1.2,1.2,0,0,1-1.475.8,1.149,1.149,0,0,1-.843-1.412,1.2,1.2,0,0,1,1.474-.8,1.149,1.149,0,0,1,.844,1.413" transform="translate(-38.63 -16.137)" fill="#263238"/>
        <path id="Trazado_206082" data-name="Trazado 206082" d="M187.346,73.166c-.19.1-.847-.818-2.078-1.213-1.223-.413-2.329-.073-2.414-.267-.044-.088.188-.31.673-.469a3.293,3.293,0,0,1,1.992.029,3.164,3.164,0,0,1,1.593,1.152c.283.413.324.723.233.767" transform="translate(-38.619 -15.012)" fill="#263238"/>
        <path id="Trazado_206083" data-name="Trazado 206083" d="M171.034,73.737a1.2,1.2,0,0,1-1.475.8,1.149,1.149,0,0,1-.843-1.412,1.2,1.2,0,0,1,1.474-.8,1.149,1.149,0,0,1,.844,1.413" transform="translate(-35.625 -15.267)" fill="#263238"/>
        <path id="Trazado_206084" data-name="Trazado 206084" d="M171.958,68.574c-.19.1-.849-.818-2.078-1.213-1.223-.413-2.33-.073-2.415-.267-.043-.088.186-.31.673-.469a3.293,3.293,0,0,1,1.992.029,3.163,3.163,0,0,1,1.593,1.152c.283.413.324.723.233.768" transform="translate(-35.369 -14.042)" fill="#263238"/>
        <path id="Trazado_206085" data-name="Trazado 206085" d="M174.867,80.127a8.552,8.552,0,0,1,2.112.287c.325.069.642.1.764-.094a1.682,1.682,0,0,0,.092-1q-.073-1.283-.153-2.691a43.15,43.15,0,0,1-.057-6.926,43.255,43.255,0,0,1,.614,6.906q.058,1.409.11,2.692a1.91,1.91,0,0,1-.237,1.284.828.828,0,0,1-.665.292,2.239,2.239,0,0,1-.557-.1,8.418,8.418,0,0,1-2.024-.653" transform="translate(-36.933 -14.722)" fill="#263238"/>
        <path id="Trazado_206086" data-name="Trazado 206086" d="M173.421,62.594c-.269.26-1.354-.457-2.8-.959-1.432-.531-2.725-.67-2.767-1.041-.014-.175.323-.378.916-.466a5.137,5.137,0,0,1,4.237,1.524c.4.446.532.817.409.943" transform="translate(-35.453 -12.691)" fill="#263238"/>
        <path id="Trazado_206087" data-name="Trazado 206087" d="M188.05,69.357c-.343.2-1.259-.4-2.463-.786-1.193-.421-2.291-.5-2.436-.865-.059-.174.189-.405.717-.533a4.068,4.068,0,0,1,2.15.159,4,4,0,0,1,1.8,1.171c.338.42.39.752.234.853" transform="translate(-38.681 -14.171)" fill="#263238"/>
        <path id="Trazado_206088" data-name="Trazado 206088" d="M152.9,69.219c-.118-.1-4.968-3.408-6.566,2.116s4.276,5.989,4.332,5.834,2.234-7.95,2.234-7.95" transform="translate(-30.849 -14.393)" fill="#ffc09d"/>
        <path id="Trazado_206089" data-name="Trazado 206089" d="M149.994,75.053c-.019-.024-.116.039-.3.067a1,1,0,0,1-.724-.193,2.479,2.479,0,0,1-.483-2.456,3.3,3.3,0,0,1,.668-1.3,1.155,1.155,0,0,1,.937-.529.509.509,0,0,1,.491.428c.03.175-.037.275-.011.293s.146-.058.167-.3a.639.639,0,0,0-.118-.409.755.755,0,0,0-.491-.294,1.409,1.409,0,0,0-1.253.565,3.4,3.4,0,0,0-.779,1.443,2.6,2.6,0,0,0,.713,2.792,1.074,1.074,0,0,0,.923.109c.21-.088.275-.2.259-.218" transform="translate(-31.256 -14.857)" fill="#ff9b6c"/>
        <path id="Trazado_206090" data-name="Trazado 206090" d="M182.817,54.29c1.035-.244-.842-3.9-2.766-5.514-2.906-2.442-7.728-4.8-11.041-4.783-3.988.013-7.573.992-10.369,3.837a22.618,22.618,0,0,0-5.558,10.437,6.863,6.863,0,0,0-.166,3.6c.431,1.441,1.7,2.627,1.161,4.3a2.41,2.41,0,0,0,.1,1.851c.712,1.362,2.235.7,3.089-.16,1.824-1.828,2.684-4.379,3.487-6.834a16.825,16.825,0,0,0,1.124-5.365c-.013-1-.2-1.993-.161-2.991a3.452,3.452,0,0,1,1.166-2.654,3.626,3.626,0,0,1,.577-.33,6,6,0,0,1,6.034.514c2.81,1.976,7.674,5.115,9.361,4.446a8.858,8.858,0,0,0,3.184-1.821Z" transform="translate(-32.259 -9.291)" fill="#263238"/>
        <path id="Trazado_206091" data-name="Trazado 206091" d="M170.232,82.553c-.078-.01-.207.279-.234.787a3.206,3.206,0,0,0,.545,1.906,5.3,5.3,0,0,0,1.354,1.387c.4.284.674.413.728.351s-.126-.311-.441-.668a11.874,11.874,0,0,1-1.133-1.4c-.771-1.133-.63-2.354-.82-2.365" transform="translate(-35.903 -17.436)" fill="#263238"/>
        <path id="Trazado_206092" data-name="Trazado 206092" d="M154.59,70.469c0,.11.008.226.006.35,0,0,0-.125-.006-.35" transform="translate(-32.65 -14.884)" fill="#ff725e"/>
        <path id="Trazado_206093" data-name="Trazado 206093" d="M152.716,63.049s1.371-.8,1.472,1.561c-.024-3.046.522-25.015,21.593-19.155,0,0-6.8-4.057-12.662-2.27,0,0-11.078,1.623-10.4,19.864" transform="translate(-32.248 -9.025)" fill="#455a64"/>
        <path id="Trazado_206094" data-name="Trazado 206094" d="M170.2,97.315c.046.084.636-.167,1.183-.722s.8-1.143.714-1.189-.454.423-.968.936-.982.886-.929.974" transform="translate(-35.947 -20.149)" fill="#263238"/>
        <path id="Trazado_206095" data-name="Trazado 206095" d="M168.748,96.556c.074.065.558-.36,1.081-.95s.886-1.122.812-1.188-.558.36-1.081.951-.886,1.122-.812,1.187" transform="translate(-35.639 -19.94)" fill="#263238"/>
        <path id="Trazado_206096" data-name="Trazado 206096" d="M167.862,95.56c.094.032.358-.485.59-1.156s.345-1.242.251-1.274-.357.485-.59,1.156-.345,1.242-.251,1.274" transform="translate(-35.447 -19.669)" fill="#263238"/>
        <path id="Trazado_206097" data-name="Trazado 206097" d="M166.468,95.169c.1-.024,0-.686.141-1.477s.429-1.389.34-1.444c-.073-.059-.553.509-.694,1.386a1.933,1.933,0,0,0,.213,1.536" transform="translate(-35.105 -19.482)" fill="#263238"/>
        <path id="Trazado_206098" data-name="Trazado 206098" d="M164.6,94.061a6.794,6.794,0,0,0,.158-1.439,6.718,6.718,0,0,0,.188-1.436c-.084-.043-.446.554-.544,1.393a2.082,2.082,0,0,0,.2,1.481" transform="translate(-34.717 -19.259)" fill="#263238"/>
        <path id="Trazado_206099" data-name="Trazado 206099" d="M168.58,185.8c0,.007-.054.055-.171.141l-.515.367c-.45.316-1.11.76-1.931,1.3-1.643,1.079-3.943,2.522-6.535,4.029s-4.988,2.789-6.738,3.681c-.876.446-1.588.8-2.085,1.034l-.574.266a.78.78,0,0,1-.207.079.763.763,0,0,1,.185-.121l.555-.306,2.048-1.1c1.729-.929,4.106-2.233,6.7-3.737s4.9-2.924,6.564-3.965l1.97-1.235.54-.33a.764.764,0,0,1,.2-.1" transform="translate(-31.644 -39.242)" fill="#263238"/>
        <path id="Trazado_206100" data-name="Trazado 206100" d="M202.855,172.827a16.742,16.742,0,0,0-5.623,5.294,4.144,4.144,0,0,1,.547-1.015,12.04,12.04,0,0,1,4.029-3.793,4.093,4.093,0,0,1,1.047-.485" transform="translate(-41.656 -36.502)" fill="#263238"/>
        <path id="Trazado_206101" data-name="Trazado 206101" d="M194.892,165.4s-16.041,1.9-21.972,6.642a20.352,20.352,0,0,0-2.605,2.535,27.216,27.216,0,0,0-6.455,15.419l-2.149,23.592.173,3.9a11.407,11.407,0,0,0,11.36,10.9l66.284.464a31.9,31.9,0,0,0,6.427-24.786c-.536-3.548-1.395-15.7-4.753-23.18-1.776-3.955-4.492-8.84-11.669-10.748L212.79,165.4Z" transform="translate(-34.154 -34.932)" fill="#263238"/>
        <path id="Trazado_206102" data-name="Trazado 206102" d="M183.267,186.362a2.47,2.47,0,0,1-.137-.527c-.071-.342-.183-.834-.334-1.438a29.627,29.627,0,0,0-3.839-8.89c-.336-.525-.618-.944-.818-1.23a2.4,2.4,0,0,1-.289-.461,2.431,2.431,0,0,1,.362.406c.224.27.527.676.883,1.192a25.486,25.486,0,0,1,3.862,8.945c.131.613.219,1.112.262,1.46a2.436,2.436,0,0,1,.047.543" transform="translate(-37.563 -36.711)" fill="#455a64"/>
        <path id="Trazado_206103" data-name="Trazado 206103" d="M187.459,217.659c-.065.008-.774-5.148-1.583-11.517s-1.415-11.539-1.35-11.547.773,5.148,1.583,11.518,1.415,11.538,1.35,11.546" transform="translate(-38.972 -41.1)" fill="#455a64"/>
        <path id="Trazado_206104" data-name="Trazado 206104" d="M182.709,191.009a5.142,5.142,0,0,1-1.129-.478,20.463,20.463,0,0,1-4.827-3.4,5.222,5.222,0,0,1-.831-.9,8.061,8.061,0,0,1,.943.778c.571.49,1.377,1.145,2.314,1.806s1.827,1.2,2.48,1.57a8.1,8.1,0,0,1,1.051.625" transform="translate(-37.156 -39.333)" fill="#455a64"/>
        <path id="Trazado_206105" data-name="Trazado 206105" d="M238.977,193.233a5.144,5.144,0,0,1,0-.805,8.5,8.5,0,0,1,.062-.943c.041-.367.068-.787.159-1.243.075-.459.162-.961.3-1.49.114-.536.3-1.091.478-1.679a20.99,20.99,0,0,1,3.9-6.934c.409-.46.789-.9,1.188-1.279.379-.394.764-.729,1.117-1.031s.689-.555.98-.78a8.411,8.411,0,0,1,.775-.542,5.288,5.288,0,0,1,.69-.416,5.251,5.251,0,0,1-.638.491c-.211.148-.466.334-.747.571s-.618.482-.951.8-.717.647-1.088,1.043c-.39.377-.76.823-1.16,1.281a21.81,21.81,0,0,0-3.864,6.865c-.185.581-.373,1.128-.494,1.656-.147.522-.242,1.018-.327,1.471-.1.45-.139.866-.192,1.229s-.084.677-.1.935a5.206,5.206,0,0,1-.089.8" transform="translate(-50.471 -37.191)" fill="#455a64"/>
        <path id="Trazado_206106" data-name="Trazado 206106" d="M230.594,225.723a2.434,2.434,0,0,1-.05-.831,2.51,2.51,0,0,1,1.189-1.941l-.02.015a20.422,20.422,0,0,1,6.795-4.73l-.069.093c.092-.849.186-1.731.252-2.636a77.9,77.9,0,0,0,.136-9.936c-.059-1.272-.148-2.3-.2-3.008-.027-.335-.049-.606-.066-.818a1.369,1.369,0,0,1-.008-.287,1.278,1.278,0,0,1,.055.282c.028.211.065.48.11.813.08.708.194,1.735.274,3.008a69.5,69.5,0,0,1-.068,9.965c-.067.907-.162,1.792-.257,2.644l-.008.067-.062.026a21.069,21.069,0,0,0-6.778,4.618l-.008.008-.012.007a2.385,2.385,0,0,0-.88.906,2.49,2.49,0,0,0-.3.913c-.064.528,0,.821-.028.823" transform="translate(-48.69 -42.588)" fill="#455a64"/>
        <path id="Trazado_206107" data-name="Trazado 206107" d="M251.651,228.217c-.037.022-.383-.628-1.136-1.53a11.665,11.665,0,0,0-3.54-2.852,11.088,11.088,0,0,0-2.34-.911,8.6,8.6,0,0,0-2.03-.268c-1.174-.008-1.9.136-1.9.09a2.022,2.022,0,0,1,.5-.121,9.367,9.367,0,0,1,1.4-.136,8.169,8.169,0,0,1,2.083.224,10.661,10.661,0,0,1,2.4.913,10.917,10.917,0,0,1,3.561,2.956,9.529,9.529,0,0,1,.786,1.169,2.016,2.016,0,0,1,.222.466" transform="translate(-50.837 -46.991)" fill="#455a64"/>
        <path id="Trazado_206108" data-name="Trazado 206108" d="M251.432,221.655c-.018.04-.552-.211-1.467-.439a11.973,11.973,0,0,0-1.629-.281,16.012,16.012,0,0,0-2.024-.051,18,18,0,0,0-3.639.556c-.916.237-1.468.439-1.482.4a1.39,1.39,0,0,1,.372-.185,10.512,10.512,0,0,1,1.065-.378,15.079,15.079,0,0,1,3.674-.63,13.971,13.971,0,0,1,2.058.07,10.225,10.225,0,0,1,1.649.336,5.761,5.761,0,0,1,.612.206,3.426,3.426,0,0,1,.449.19,1.4,1.4,0,0,1,.363.2" transform="translate(-50.941 -46.6)" fill="#455a64"/>
        <path id="Trazado_206109" data-name="Trazado 206109" d="M227.947,126.5c-1.321-5.618-3.687-11.357-8.341-14.769-4.147-3.039-10.2-4.2-15.325-3.815a18.182,18.182,0,0,0-7.5,2.766c-2.964,1.807-4.13,5.316-5.484,8.512-2.714,6.4-2.066,14.935-.012,17.245L218.1,149.5c4.588-2.58,9.56-6.056,10.629-11.21.727-3.51.042-8.305-.779-11.795" transform="translate(-40.022 -22.777)" fill="#0043ff"/>
        <path id="Trazado_206110" data-name="Trazado 206110" d="M218.264,117.68l-16.752-4.356c-5.37-.605-8.988,5.988-9.365,11.378-.419,5.989-.693,13.319-.013,17.794,1.366,9,8.253,11.136,8.253,11.136,0-.031.016,7.815.049,10.486l7.812,23.8,11.113-23.8,1.709-43.212a3.163,3.163,0,0,0-2.807-3.226" transform="translate(-40.493 -23.927)" fill="#ffc09d"/>
        <path id="Trazado_206111" data-name="Trazado 206111" d="M196.056,136.681a1.152,1.152,0,0,0,1.1,1.171,1.1,1.1,0,0,0,1.2-1.031,1.153,1.153,0,0,0-1.1-1.171,1.1,1.1,0,0,0-1.2,1.032" transform="translate(-41.408 -28.65)" fill="#263238"/>
        <path id="Trazado_206112" data-name="Trazado 206112" d="M194.24,132.288c.142.151,1.02-.489,2.261-.477,1.239-.006,2.146.638,2.281.487.066-.067-.077-.339-.472-.631a3.165,3.165,0,0,0-1.825-.576,3.039,3.039,0,0,0-1.8.568c-.383.289-.515.561-.445.629" transform="translate(-41.021 -27.687)" fill="#263238"/>
        <path id="Trazado_206113" data-name="Trazado 206113" d="M210.328,136.681a1.152,1.152,0,0,0,1.1,1.171,1.1,1.1,0,0,0,1.2-1.031,1.153,1.153,0,0,0-1.1-1.171,1.1,1.1,0,0,0-1.2,1.032" transform="translate(-44.422 -28.65)" fill="#263238"/>
        <path id="Trazado_206114" data-name="Trazado 206114" d="M209.7,132.687c.142.151,1.022-.489,2.261-.477,1.239-.006,2.146.638,2.281.487.066-.067-.076-.339-.472-.63a3.157,3.157,0,0,0-1.824-.577,3.041,3.041,0,0,0-1.8.568c-.383.289-.514.561-.445.629" transform="translate(-44.286 -27.772)" fill="#263238"/>
        <path id="Trazado_206115" data-name="Trazado 206115" d="M203.071,141.865a8.223,8.223,0,0,0-2.012-.377c-.317-.036-.617-.1-.668-.316a1.609,1.609,0,0,1,.218-.938q.454-1.146.954-2.406a41.448,41.448,0,0,0,2.146-6.3,41.614,41.614,0,0,0-2.649,6.108q-.478,1.267-.913,2.421a1.829,1.829,0,0,0-.173,1.242.8.8,0,0,0,.517.466,2.12,2.12,0,0,0,.538.079,8.068,8.068,0,0,0,2.042.017" transform="translate(-42.224 -27.78)" fill="#263238"/>
        <path id="Trazado_206116" data-name="Trazado 206116" d="M202.681,163.683l.05,2.239c8.991.9,12.011-5.368,12.011-5.368a22.863,22.863,0,0,1-12.061,3.128" transform="translate(-42.808 -33.91)" fill="#ff9b6c"/>
        <path id="Trazado_206117" data-name="Trazado 206117" d="M207.969,147.358a1.992,1.992,0,0,0-1.651-.914,2.592,2.592,0,0,0-2.37,1.154,1.615,1.615,0,0,0-.113,1.163c.086.2.019.1.172.237a4.533,4.533,0,0,0,1.846,1.162,1.945,1.945,0,0,0,2.06-.742,1.984,1.984,0,0,0,.057-2.06" transform="translate(-43.039 -30.929)" fill="#ff9b6c"/>
        <path id="Trazado_206118" data-name="Trazado 206118" d="M207.472,145.752c-.2-.013-.214,1.334-1.373,2.281s-2.592.79-2.6.979c-.019.084.318.263.924.284a3.351,3.351,0,0,0,2.173-.741,2.918,2.918,0,0,0,1.064-1.914c.055-.562-.092-.9-.185-.89" transform="translate(-42.979 -30.784)" fill="#263238"/>
        <path id="Trazado_206119" data-name="Trazado 206119" d="M209,127.722c.12.338,1.36.187,2.814.372,1.458.156,2.629.59,2.825.289.088-.144-.115-.463-.588-.793a4.934,4.934,0,0,0-4.3-.5c-.536.212-.806.476-.755.636" transform="translate(-44.14 -26.783)" fill="#0043ff"/>
        <path id="Trazado_206120" data-name="Trazado 206120" d="M194.846,126.836c.216.283,1.073,0,2.1-.01,1.028-.043,1.9.2,2.1-.091.089-.143-.047-.426-.424-.7a3.041,3.041,0,0,0-3.384.082c-.365.287-.487.577-.391.715" transform="translate(-41.146 -26.52)" fill="#0043ff"/>
        <path id="Trazado_206121" data-name="Trazado 206121" d="M225.831,136.746c.124-.057,5-1.607,4.961,3.411s-5.074,3.939-5.081,3.795.12-7.206.12-7.206" transform="translate(-47.672 -28.825)" fill="#ffc09d"/>
        <path id="Trazado_206122" data-name="Trazado 206122" d="M227.675,142.5c.022-.016.086.062.234.131a.871.871,0,0,0,.653.019,2.16,2.16,0,0,0,1.018-1.932,2.878,2.878,0,0,0-.234-1.253,1.008,1.008,0,0,0-.651-.677.442.442,0,0,0-.517.235c-.069.14-.039.24-.065.248s-.106-.085-.065-.292a.56.56,0,0,1,.2-.313.662.662,0,0,1,.484-.123,1.225,1.225,0,0,1,.906.786,2.97,2.97,0,0,1,.292,1.4,2.27,2.27,0,0,1-1.3,2.156.933.933,0,0,1-.8-.14c-.155-.125-.18-.238-.163-.247" transform="translate(-48.085 -29.26)" fill="#ff9b6c"/>
        <path id="Trazado_206123" data-name="Trazado 206123" d="M229.29,145.563c.023-.024.217.212.189.66a.936.936,0,0,1-.355.7,1.039,1.039,0,0,1-.963.069,1.017,1.017,0,0,1-.667-.7,1.049,1.049,0,0,1,.138-.771c.248-.388.565-.425.562-.4.021.038-.236.136-.4.484a.922.922,0,0,0-.067.628.815.815,0,0,0,.529.514.843.843,0,0,0,.74-.024.8.8,0,0,0,.31-.532,2.774,2.774,0,0,0-.01-.638" transform="translate(-48.043 -30.651)" fill="#263238"/>
        <path id="Trazado_206124" data-name="Trazado 206124" d="M191.563,125.6a7.839,7.839,0,0,1,3.386-3.31c1.394-.794,2.9-1.371,4.291-2.176a15.076,15.076,0,0,0,6.742-8.435,9.05,9.05,0,0,0-8.034.1,12.267,12.267,0,0,0-5.552,6,19.228,19.228,0,0,0-1.532,8.128" transform="translate(-40.312 -23.399)" fill="#0043ff"/>
        <path id="Trazado_206125" data-name="Trazado 206125" d="M223.158,115.974c-3.711-3.526-10.721-5.471-15.559-3.82.719,4.224,3.905,8.969,6.71,12.207,2.823,3.26,4.526,8.973,10.666,7.032.423-.134.906.252,1.288.027a1.571,1.571,0,0,0,.593-.93,14.392,14.392,0,0,0-3.7-14.516" transform="translate(-43.846 -23.562)" fill="#0043ff"/>
        <path id="Trazado_206126" data-name="Trazado 206126" d="M191.142,132.375a1.851,1.851,0,0,1-.882-.05,3.448,3.448,0,0,1-1.929-1.418,5.267,5.267,0,0,1-.761-3.468,12.919,12.919,0,0,1,.353-2.085,21.874,21.874,0,0,1,.633-2.173,22.155,22.155,0,0,1,3.908-6.866,20.446,20.446,0,0,1,1.65-1.746l.491-.429a.782.782,0,0,1,.183-.137,6.006,6.006,0,0,1-.605.637c-.385.413-.955,1-1.581,1.789a23.325,23.325,0,0,0-3.807,6.836c-.245.726-.469,1.442-.631,2.147a13.039,13.039,0,0,0-.362,2.045,5.158,5.158,0,0,0,.677,3.348,3.441,3.441,0,0,0,1.806,1.424,4.624,4.624,0,0,0,.855.146" transform="translate(-39.61 -24.078)" fill="#0043ff"/>
        <path id="Trazado_206127" data-name="Trazado 206127" d="M241.82,115.518A9.635,9.635,0,0,0,239.553,109a7.729,7.729,0,0,0-9.012-1.411,8.753,8.753,0,0,0-4.445,8.141,10.108,10.108,0,0,0,5.057,7.936l2.069-.235a5.557,5.557,0,0,0,6.4-1.4,9.412,9.412,0,0,0,2.2-6.513" transform="translate(-47.75 -22.543)" fill="#0043ff"/>
        <path id="Trazado_206128" data-name="Trazado 206128" d="M225.588,115.875a.645.645,0,0,1-.1.169c-.079.1-.182.267-.346.452a9.129,9.129,0,0,1-1.524,1.437,9.877,9.877,0,0,1-12.76-.7,9.062,9.062,0,0,1-1.357-1.6,5.6,5.6,0,0,1-.295-.487.637.637,0,0,1-.086-.179,13.719,13.719,0,0,0,1.851,2.139,10.273,10.273,0,0,0,2.545,1.683,9.585,9.585,0,0,0,7.288.4,10.292,10.292,0,0,0,2.714-1.394,13.718,13.718,0,0,0,2.074-1.924" transform="translate(-44.166 -24.282)" fill="#fff"/>
        <path id="Trazado_206129" data-name="Trazado 206129" d="M227.992,122.788c.006.006-.052.065-.168.171a5.1,5.1,0,0,1-.525.443,7.879,7.879,0,0,1-2.239,1.174,9.993,9.993,0,0,1-3.714.5,11.5,11.5,0,0,1-4.442-1.144,14.531,14.531,0,0,1-3.718-2.692,19.085,19.085,0,0,1-2.388-2.888,22.539,22.539,0,0,1-1.3-2.161c-.143-.261-.24-.472-.308-.612a.959.959,0,0,1-.092-.222.885.885,0,0,1,.134.2l.346.59c.3.512.749,1.245,1.361,2.109a20.059,20.059,0,0,0,2.4,2.829,14.739,14.739,0,0,0,3.671,2.636,11.511,11.511,0,0,0,4.349,1.137,10.1,10.1,0,0,0,3.651-.443,8.4,8.4,0,0,0,2.237-1.09c.484-.338.73-.558.746-.54" transform="translate(-44.162 -24.365)" fill="#fff"/>
        <path id="Trazado_206130" data-name="Trazado 206130" d="M241.207,115.067c.013.01-.064.119-.215.307a6.054,6.054,0,0,1-.707.736,8.253,8.253,0,0,1-1.217.906,8.77,8.77,0,0,1-3.494,1.215,8.3,8.3,0,0,1-1.516.045,6.119,6.119,0,0,1-1.011-.139,1.165,1.165,0,0,1-.359-.107c.009-.043.529.064,1.376.08a9.415,9.415,0,0,0,6.112-2.126c.655-.538,1-.945,1.03-.917" transform="translate(-49.145 -24.303)" fill="#fff"/>
        <path id="Trazado_206131" data-name="Trazado 206131" d="M243.534,119.057a.719.719,0,0,1,.063.406,1.923,1.923,0,0,1-.387,1.053,3.317,3.317,0,0,1-1.323,1,9.96,9.96,0,0,1-1.916.637,10.264,10.264,0,0,1-3.645.155,8.342,8.342,0,0,1-1.085-.222,1.337,1.337,0,0,1-.382-.14c.009-.04.566.111,1.486.2a11.445,11.445,0,0,0,3.574-.22,5.826,5.826,0,0,0,3.158-1.514,2,2,0,0,0,.428-.96c.035-.252.007-.4.028-.4" transform="translate(-49.604 -25.146)" fill="#fff"/>
        <path id="Trazado_206132" data-name="Trazado 206132" d="M226.708,231.625a1.007,1.007,0,0,1-.248.023c-.163,0-.4.023-.715.011a16.215,16.215,0,0,1-2.618-.252,17.622,17.622,0,0,1-13.15-10.317,16.277,16.277,0,0,1-.868-2.482c-.085-.3-.124-.538-.159-.7a1.03,1.03,0,0,1-.037-.247c.02,0,.1.327.284.918a19.118,19.118,0,0,0,.932,2.439,17.984,17.984,0,0,0,13.029,10.223,18.849,18.849,0,0,0,2.59.324c.617.033.96.038.96.058" transform="translate(-44.123 -45.972)" fill="#455a64"/>
        <path id="Trazado_206133" data-name="Trazado 206133" d="M199.281,231.257a.866.866,0,0,1-.2-.11l-.544-.351-1.982-1.317a58.048,58.048,0,0,0-6.758-3.957,26.26,26.26,0,0,0-7.424-2.372,20.414,20.414,0,0,0-2.362-.218,7.954,7.954,0,0,1-.872-.037.834.834,0,0,1,.225-.028c.148-.008.367-.029.648-.027a16.759,16.759,0,0,1,2.383.144,24.825,24.825,0,0,1,7.5,2.325,50.689,50.689,0,0,1,6.75,4.032c.827.573,1.488,1.047,1.941,1.379l.519.388a.828.828,0,0,1,.172.148" transform="translate(-37.836 -47.065)" fill="#455a64"/>
        <path id="Trazado_206134" data-name="Trazado 206134" d="M225.2,232.027l-30.821,1.562,2.386,9.075,41.077.192Z" transform="translate(-41.054 -49.006)" fill="#ffc09d"/>
        <path id="Trazado_206135" data-name="Trazado 206135" d="M190.385,232.571s-9.959-4.976-11.193-5.018c-.944-.032-6.418.895-8.933,1.331a1.827,1.827,0,0,0-1.544,2.029.989.989,0,0,0,.044.176,1.666,1.666,0,0,0,1.389,1.064,1.936,1.936,0,0,0-1.055,2c.2,1.428,1.966,1.465,1.966,1.465a2.533,2.533,0,0,0-.213.257,1.72,1.72,0,0,0,1.269,2.725l.8.058a1.7,1.7,0,0,0-.822,1.574c.314,1.871,4.586,1.588,4.586,1.588l14.656-.1Z" transform="translate(-35.629 -48.061)" fill="#ffc09d"/>
        <path id="Trazado_206136" data-name="Trazado 206136" d="M171.473,225.969a3.073,3.073,0,0,0,1.628,2.34l5.773-1.112s-4.552-.834-5.28-1.478a5.034,5.034,0,0,0-.952-.684.83.83,0,0,0-1.169.934" transform="translate(-36.212 -47.51)" fill="#ffc09d"/>
        <path id="Trazado_206137" data-name="Trazado 206137" d="M175.968,228.245a8.607,8.607,0,0,1-2.624.592,10.89,10.89,0,0,1-2.676.215,8.652,8.652,0,0,1,2.624-.592,10.884,10.884,0,0,1,2.675-.215" transform="translate(-36.046 -48.199)" fill="#ff9b6c"/>
        <path id="Trazado_206138" data-name="Trazado 206138" d="M175.132,232.609a8.512,8.512,0,0,1-4.582.532,43.575,43.575,0,0,1,4.582-.532" transform="translate(-36.021 -49.122)" fill="#ff9b6c"/>
        <path id="Trazado_206139" data-name="Trazado 206139" d="M179.777,231.521c.095.04.031.373-.265.635s-.633.286-.662.188.181-.264.41-.472.42-.4.517-.351" transform="translate(-37.773 -48.897)" fill="#ff9b6c"/>
        <path id="Trazado_206140" data-name="Trazado 206140" d="M176.536,237.145a16.914,16.914,0,0,1-5.018.6,16.913,16.913,0,0,1,5.018-.6" transform="translate(-36.226 -50.075)" fill="#ff9b6c"/>
        <path id="Trazado_206141" data-name="Trazado 206141" d="M181.526,234.55c.045-.021.152.083.215.307a1.209,1.209,0,0,1-.82,1.447c-.225.062-.368.022-.374-.026-.018-.1.475-.244.741-.721s.14-.97.237-1.007" transform="translate(-38.133 -49.538)" fill="#ff9b6c"/>
        <path id="Trazado_206142" data-name="Trazado 206142" d="M178.469,241.522a13.768,13.768,0,0,1-4.555.129,13.768,13.768,0,0,1,4.555-.129" transform="translate(-36.732 -50.982)" fill="#ff9b6c"/>
        <path id="Trazado_206143" data-name="Trazado 206143" d="M183.2,238.611c.047-.014.138.1.166.329a1.421,1.421,0,0,1-.191.836c-.346.579-.8.839-.859.776-.088-.077.243-.476.527-.961s.263-.949.357-.98" transform="translate(-38.504 -50.396)" fill="#ff9b6c"/>
        <path id="Trazado_206144" data-name="Trazado 206144" d="M139.489,232.247c-2.022-.962-8.772-3.591-8.772-3.591l-3.3-22.576L113.974,208.1s7.824,28.774,9.912,28.97,14.1.017,14.1.017l3.912-.061s-.992-4.1-2.409-4.776" transform="translate(-24.072 -43.525)" fill="#ab6e65"/>
        <path id="Trazado_206145" data-name="Trazado 206145" d="M133.287,244.145a1.475,1.475,0,0,1-.674.249,3.922,3.922,0,0,1-3.27-.873c-.335-.3-.481-.535-.461-.551s.217.17.564.421a4.53,4.53,0,0,0,3.142.838,4.245,4.245,0,0,1,.7-.084" transform="translate(-27.22 -51.316)" fill="#7c4b43"/>
        <path id="Trazado_206146" data-name="Trazado 206146" d="M142.225,243.863c-.034.021-.313-.443-.826-1.135a5.547,5.547,0,0,0-1.036-1.074,5.822,5.822,0,0,0-1.641-.8,15.971,15.971,0,0,1-3.079-1.456,7.493,7.493,0,0,1-1.175-.778,9.482,9.482,0,0,1,1.257.633,20.077,20.077,0,0,0,3.077,1.38,5.658,5.658,0,0,1,1.694.85,5.2,5.2,0,0,1,1.039,1.148,9.7,9.7,0,0,1,.535.885,1.171,1.171,0,0,1,.156.347" transform="translate(-28.4 -50.398)" fill="#7c4b43"/>
        <path id="Trazado_206147" data-name="Trazado 206147" d="M82.2,111.567l-4.978,3.426s-6.187-.372-10.675,1.156a20.023,20.023,0,0,0-8.769,5.179,24.575,24.575,0,0,0-6.246,10.866l-5.993,50.052-9.123,35.32H97.127v-44.69l5.811-20.5s-1.51-2.362-1.462-3.307,3.434-22.791,3.434-22.791l-6.92-8.279Z" transform="translate(-7.691 -23.564)" fill="#0043ff"/>
        <path id="Trazado_206148" data-name="Trazado 206148" d="M119.657,128.891s3.434,1.6,4.274,7.6,6.926,52.309,6.926,52.309-6.722,1.551-12.858,2.264l-7.724,1.314-.194-30.961Z" transform="translate(-23.25 -27.223)" fill="#0043ff"/>
        <g id="Grupo_146998" data-name="Grupo 146998" transform="translate(49.931 121.761)" opacity="0.2">
          <g id="Grupo_146997" data-name="Grupo 146997">
            <g id="Grupo_146996" data-name="Grupo 146996" clip-path="url(#clip-path-2)">
              <path id="Trazado_206149" data-name="Trazado 206149" d="M63.6,225.2c10.318-12.371,11.941-30.313,22.391-42.574L79.6,186.217c1.133-10.661,2.221-21.743-1.346-31.853A279.634,279.634,0,0,1,63.3,225.15" transform="translate(-63.3 -154.364)"/>
            </g>
          </g>
        </g>
        <path id="Trazado_206150" data-name="Trazado 206150" d="M78.207,130.116q-.349,28.637-2.625,57.206a24.023,24.023,0,0,1-.977,4.364,3.168,3.168,0,0,1-3.5,2.181l-12.455-1.879c-2.167-.366-2.986-.653-3.638-2.052a6.854,6.854,0,0,1-.6-3.087c.482-17.045-1.008-26.074.019-42.186" transform="translate(-11.419 -27.481)" fill="#0043ff"/>
        <path id="Trazado_206151" data-name="Trazado 206151" d="M54.419,144.666s0,.113-.006.332-.024.551-.043.974c-.046.855-.1,2.117-.154,3.743s-.089,3.616-.1,5.926.039,4.942.121,7.849c.159,5.814.465,12.742.336,20.44q-.031,1.442-.062,2.92a6.851,6.851,0,0,0,.515,2.871,3.287,3.287,0,0,0,.809,1.209,3.227,3.227,0,0,0,1.323.638,29.607,29.607,0,0,0,3.049.542l6.313.95,3.229.486c.538.077,1.094.177,1.623.233a3.055,3.055,0,0,0,2.736-1.354,5.108,5.108,0,0,0,.587-1.494,25.579,25.579,0,0,0,.705-3.17c.2-2.139.344-4.274.5-6.358.305-4.175.569-8.205.8-12.045.453-7.68.761-14.6.97-20.416s.327-10.521.4-13.774l.082-3.746q.017-.634.026-.974c.007-.219.017-.331.017-.331s.006.113.007.332,0,.551,0,.974c-.009.865-.021,2.125-.038,3.747-.043,3.254-.133,7.962-.323,13.779s-.48,12.74-.921,20.422c-.223,3.841-.483,7.872-.784,12.049-.157,2.09-.3,4.207-.5,6.373a25.513,25.513,0,0,1-.711,3.2,5.315,5.315,0,0,1-.617,1.56,3.29,3.29,0,0,1-2.946,1.459c-.569-.06-1.1-.159-1.642-.235l-3.229-.487-6.314-.954a29.777,29.777,0,0,1-3.072-.549,3.456,3.456,0,0,1-1.412-.688,3.512,3.512,0,0,1-.866-1.291,7.068,7.068,0,0,1-.529-2.966q.034-1.475.066-2.918c.141-7.69-.148-14.614-.286-20.431-.07-2.909-.095-5.542-.085-7.854s.071-4.3.14-5.929.137-2.888.2-3.743q.043-.633.065-.973c.017-.218.031-.331.031-.331" transform="translate(-11.402 -27.482)" fill="#263238"/>
        <path id="Trazado_206152" data-name="Trazado 206152" d="M113.382,196.04a.67.67,0,0,1,0-.144c0-.107,0-.247.008-.422.013-.387.032-.932.056-1.624.027-1.412.2-3.449.5-5.957.184-1.249.339-2.624.629-4.081.138-.729.26-1.488.424-2.261s.337-1.569.513-2.385c.732-3.256,1.667-6.8,2.538-10.549a77.241,77.241,0,0,0,2.312-19.5c-.046-1.257-.088-2.4-.124-3.4-.053-1-.154-1.857-.206-2.56s-.1-1.233-.132-1.619c-.012-.175-.021-.314-.028-.422a.668.668,0,0,1,0-.144.665.665,0,0,1,.026.142c.013.106.03.245.051.419.042.385.1.926.176,1.615s.181,1.559.246,2.56c.047,1,.1,2.145.159,3.4a75.142,75.142,0,0,1-2.249,19.554c-.873,3.751-1.814,7.3-2.557,10.544l-.521,2.378c-.168.771-.293,1.528-.435,2.254-.3,1.452-.463,2.823-.657,4.069-.315,2.5-.514,4.531-.57,5.94-.043.692-.076,1.234-.1,1.621-.013.174-.024.314-.032.421a.694.694,0,0,1-.019.144" transform="translate(-23.946 -29.775)" fill="#263238"/>
        <path id="Trazado_206153" data-name="Trazado 206153" d="M107.252,172.236a1.188,1.188,0,0,1-.175.207l-.536.56c-.467.485-1.16,1.171-2.031,2-1.741,1.662-4.226,3.878-7.115,6.15s-5.633,4.16-7.66,5.458c-1.013.65-1.843,1.161-2.424,1.5l-.671.388a1.252,1.252,0,0,1-.242.121,1.168,1.168,0,0,1,.218-.162l.648-.424c.566-.363,1.381-.894,2.381-1.561,2-1.332,4.721-3.24,7.606-5.5s5.379-4.457,7.146-6.086c.885-.813,1.594-1.479,2.08-1.944l.566-.529a1.245,1.245,0,0,1,.209-.173" transform="translate(-18.248 -36.377)" fill="#263238"/>
        <g id="Grupo_147001" data-name="Grupo 147001" transform="translate(89.436 126.172)" opacity="0.2">
          <g id="Grupo_147000" data-name="Grupo 147000">
            <g id="Grupo_146999" data-name="Grupo 146999" clip-path="url(#clip-path-3)">
              <path id="Trazado_206154" data-name="Trazado 206154" d="M120.193,159.956c-1.481,13.747-6.377,28.769-6.81,37.442,1.942-6.181,4.4-12.087,6.2-18.309s2.618-12.975.606-19.133" transform="translate(-113.383 -159.956)"/>
            </g>
          </g>
        </g>
        <path id="Trazado_206155" data-name="Trazado 206155" d="M125.955,54.9a3.531,3.531,0,0,0,1.755-5.311c-.47-.7-1.179-1.212-1.6-1.936a11.392,11.392,0,0,1-.715-1.959,7.134,7.134,0,0,0-4.809-4.3,9.2,9.2,0,0,0-6.511.764,7.046,7.046,0,0,1-2.456.984,9.65,9.65,0,0,1-2.534-.428,5.848,5.848,0,0,0-6.579,7.7,5.033,5.033,0,0,0-.058,9.919,10.825,10.825,0,0,0,4.3-.438,76.57,76.57,0,0,1,17.478-1.954" transform="translate(-20.761 -8.681)" fill="#263238"/>
        <path id="Trazado_206156" data-name="Trazado 206156" d="M95.09,88.464A18,18,0,0,1,92.754,76.4c.67-4.13,2.349-9.116,5.532-11.83-1.384-2.272-.225-4.256,1.5-6.282a13.318,13.318,0,0,1,6.863-3.829,28.618,28.618,0,0,1,11.782-.622c3.191.5,7.3,1.88,7.277,4.246a3.427,3.427,0,0,1-1.787,3.222A16,16,0,0,1,129.1,66c3.2,4.582,3.972,8.72,2.592,12.885s-2.965,7.308-6.067,9.5" transform="translate(-19.543 -11.297)" fill="#0043ff"/>
        <path id="Trazado_206157" data-name="Trazado 206157" d="M129.646,103.281a4.019,4.019,0,0,1,1.793-.654l-.117-.035a2.413,2.413,0,0,1,.346.022,1.588,1.588,0,0,1,1.177.437l-.012,0a2.947,2.947,0,0,1,1.247,1.738,3.491,3.491,0,0,1-1.228,3.406,2.668,2.668,0,0,1-4.554-2.019,3.31,3.31,0,0,1,1.347-2.891" transform="translate(-27.097 -21.668)" fill="#455a64"/>
        <path id="Trazado_206158" data-name="Trazado 206158" d="M94.166,105.991l5.022-33.12a3.253,3.253,0,0,1,3.519-2.642l17.792-.779c5.533.547,7.755,7.958,6.975,13.463-.868,6.116-2.168,13.55-3.815,17.906-3.311,8.762-10.493,8.479-10.493,8.479,0-.031-1.344,6.275-2.063,9.559l-3.669,12.995Z" transform="translate(-19.888 -14.668)" fill="#ab6e65"/>
        <path id="Trazado_206159" data-name="Trazado 206159" d="M131.324,95.245a1.186,1.186,0,0,1-1.362.94,1.135,1.135,0,0,1-.981-1.294,1.187,1.187,0,0,1,1.361-.942,1.136,1.136,0,0,1,.982,1.3" transform="translate(-27.238 -19.84)" fill="#263238"/>
        <path id="Trazado_206160" data-name="Trazado 206160" d="M132.127,90.5c-.175.121-.921-.711-2.172-.966-1.245-.273-2.3.181-2.4,0-.053-.081.151-.324.611-.533a3.257,3.257,0,0,1,1.96-.187,3.128,3.128,0,0,1,1.689.958c.323.375.4.676.312.729" transform="translate(-26.939 -18.743)" fill="#263238"/>
        <path id="Trazado_206161" data-name="Trazado 206161" d="M116.413,92.519a1.185,1.185,0,0,1-1.362.94,1.135,1.135,0,0,1-.981-1.294,1.187,1.187,0,0,1,1.361-.942,1.136,1.136,0,0,1,.982,1.3" transform="translate(-24.089 -19.264)" fill="#263238"/>
        <path id="Trazado_206162" data-name="Trazado 206162" d="M116.487,87.575c-.176.121-.922-.711-2.172-.966-1.246-.273-2.3.18-2.4,0-.052-.081.15-.325.611-.533a3.258,3.258,0,0,1,1.96-.187,3.134,3.134,0,0,1,1.69.958c.323.375.4.675.312.729" transform="translate(-23.635 -18.125)" fill="#263238"/>
        <path id="Trazado_206163" data-name="Trazado 206163" d="M121.036,98.169a8.435,8.435,0,0,1,2.106.054c.327.033.641.032.741-.175a1.663,1.663,0,0,0-.018-.99q-.211-1.252-.441-2.626a42.657,42.657,0,0,1-.806-6.8,42.687,42.687,0,0,1,1.351,6.716q.208,1.377.4,2.632a1.881,1.881,0,0,1-.093,1.287.818.818,0,0,1-.622.358,2.21,2.21,0,0,1-.558-.036,8.331,8.331,0,0,1-2.059-.423" transform="translate(-25.564 -18.509)" fill="#263238"/>
        <path id="Trazado_206164" data-name="Trazado 206164" d="M115.185,118.431a23.532,23.532,0,0,1-11.463-5.744s1.656,6.831,10.9,7.858Z" transform="translate(-21.907 -23.8)" fill="#7c4b43"/>
        <path id="Trazado_206165" data-name="Trazado 206165" d="M118.79,104.2a3.141,3.141,0,0,0-2.255-1.866,2.043,2.043,0,0,0-1.829.555,1.874,1.874,0,0,0,1.49,3.176,4.67,4.67,0,0,0,2.076-.758,1.464,1.464,0,0,0,.492-.387.65.65,0,0,0,.082-.643" transform="translate(-24.117 -21.607)" fill="#7c4b43"/>
        <path id="Trazado_206166" data-name="Trazado 206166" d="M116.04,101.121c.206.03-.072,1.387.891,2.591s2.437,1.352,2.409,1.544c0,.089-.377.2-.991.088a3.45,3.45,0,0,1-2.027-1.213,3.006,3.006,0,0,1-.659-2.154c.065-.578.286-.883.378-.856" transform="translate(-24.425 -21.357)" fill="#263238"/>
        <path id="Trazado_206167" data-name="Trazado 206167" d="M117.68,83.466c-.193.315-1.409-.1-2.911-.231-1.5-.156-2.773.028-2.9-.317-.056-.163.216-.441.762-.671a5.079,5.079,0,0,1,4.431.418c.494.328.709.651.623.8" transform="translate(-23.625 -17.302)" fill="#263238"/>
        <path id="Trazado_206168" data-name="Trazado 206168" d="M132.591,85.779c-.278.238-1.079-.234-2.112-.462-1.025-.264-1.952-.2-2.093-.543-.058-.162.139-.418.577-.607a3.129,3.129,0,0,1,3.387.81c.306.368.365.685.24.8" transform="translate(-27.114 -17.734)" fill="#263238"/>
        <path id="Trazado_206169" data-name="Trazado 206169" d="M121.672,71.765s-8.462-1.941-16.937,6.269a37.162,37.162,0,0,0-8.173,13.149l-.05-15.791,3.931-6.355,6.575-2.064,11.264,1.754,3.755,2.978" transform="translate(-20.384 -14.145)" fill="#0043ff"/>
        <path id="Trazado_206170" data-name="Trazado 206170" d="M106.983,68.593c14.216-.364,24.067,6.424,23.784,17.45l4.241-6.388-5.224-9.977-7.266-3.649-16.009-.958Z" transform="translate(-22.495 -13.743)" fill="#0043ff"/>
        <path id="Trazado_206171" data-name="Trazado 206171" d="M93.834,95.66a4.312,4.312,0,0,1,1.93-.7l-.126-.038a2.552,2.552,0,0,1,.372.024,1.706,1.706,0,0,1,1.267.47l-.013,0a3.174,3.174,0,0,1,1.342,1.87,3.758,3.758,0,0,1-1.321,3.666,2.872,2.872,0,0,1-4.9-2.172,3.563,3.563,0,0,1,1.45-3.112" transform="translate(-19.511 -20.047)" fill="#455a64"/>
        <path id="Trazado_206172" data-name="Trazado 206172" d="M98.665,86.747a1.393,1.393,0,0,1-.555-.349,3.494,3.494,0,0,1-.977-1.505,3.533,3.533,0,0,1,.152-2.655c.213-.459.5-.895.678-1.367a1.511,1.511,0,0,0-.072-1.421,5.3,5.3,0,0,0-1.141-1.1,3.96,3.96,0,0,1-1.03-1.223,4.37,4.37,0,0,1-.459-2.624,3.832,3.832,0,0,1,.632-1.675,1.452,1.452,0,0,1,.446-.48,5.078,5.078,0,0,0-.812,2.185,4.245,4.245,0,0,0,.5,2.426,3.676,3.676,0,0,0,.962,1.106,5.384,5.384,0,0,1,1.225,1.19A1.875,1.875,0,0,1,98.31,81c-.211.524-.5.955-.71,1.384a3.333,3.333,0,0,0-.211,2.426,3.7,3.7,0,0,0,.823,1.478c.278.3.471.428.452.455" transform="translate(-20.112 -15.28)" fill="#fff"/>
        <path id="Trazado_206173" data-name="Trazado 206173" d="M101.256,66.632a5.837,5.837,0,0,0-.856,2.027,4.346,4.346,0,0,0,.222,2.325,8.262,8.262,0,0,0,1.75,2.341,3.891,3.891,0,0,1,.82,1.4,2.683,2.683,0,0,1-.029,1.526,20.564,20.564,0,0,0-.809,2.293,2.143,2.143,0,0,0,.241,1.519c.207.312.429.387.408.422,0,.012-.058,0-.158-.043a1.1,1.1,0,0,1-.367-.29,2.178,2.178,0,0,1-.39-1.643,16.1,16.1,0,0,1,.738-2.35,2.361,2.361,0,0,0,.01-1.33,3.625,3.625,0,0,0-.754-1.258,8.089,8.089,0,0,1-1.787-2.461,4.437,4.437,0,0,1-.159-2.5,3.982,3.982,0,0,1,.686-1.537c.237-.322.42-.45.431-.439" transform="translate(-21.127 -14.073)" fill="#fff"/>
        <path id="Trazado_206174" data-name="Trazado 206174" d="M111.24,75.265c.014.014-.133.118-.387.007a.76.76,0,0,1-.338-.331.945.945,0,0,1-.079-.626c.072-.463.429-.884.551-1.354a1.394,1.394,0,0,0-.667-1.351,3.933,3.933,0,0,1-1.236-1.38,3.236,3.236,0,0,1-.316-1.493,1.923,1.923,0,0,1,.422-1.31,7.572,7.572,0,0,0-.155,1.309,3.242,3.242,0,0,0,.36,1.338,3.862,3.862,0,0,0,1.17,1.249,2.524,2.524,0,0,1,.646.757,1.3,1.3,0,0,1,.114.969c-.192.595-.547.949-.627,1.324a.692.692,0,0,0,.23.773c.17.121.308.088.312.12" transform="translate(-22.972 -14.241)" fill="#fff"/>
        <path id="Trazado_206175" data-name="Trazado 206175" d="M116.98,68.732c.012-.019.1-.006.177.11a.666.666,0,0,1,.051.561,3.678,3.678,0,0,1-.37.655,1.493,1.493,0,0,0-.17.764,3.215,3.215,0,0,0,.48,1.437c.2.358.324.591.28.622s-.237-.142-.5-.475a2.718,2.718,0,0,1-.636-1.574,1.669,1.669,0,0,1,.248-.954c.173-.254.343-.414.42-.573a.747.747,0,0,0,.021-.573" transform="translate(-24.561 -14.515)" fill="#fff"/>
        <path id="Trazado_206176" data-name="Trazado 206176" d="M134.254,66.137c.019.017-.055.141-.225.334s-.444.444-.715.782a1.913,1.913,0,0,0-.412,1.384,7.529,7.529,0,0,1,.028,1.983,3.466,3.466,0,0,1-.963,1.783,3.29,3.29,0,0,1-1.431.823,2.161,2.161,0,0,1-1.489,0,7.688,7.688,0,0,0,1.409-.258,3.238,3.238,0,0,0,2.1-2.426,8.378,8.378,0,0,0,0-1.9,2.127,2.127,0,0,1,.555-1.563,7.3,7.3,0,0,1,.818-.718c.2-.156.306-.245.327-.227" transform="translate(-27.255 -13.968)" fill="#fff"/>
        <path id="Trazado_206177" data-name="Trazado 206177" d="M140.482,75.9c.042.071-.46.185-.769.816-.154.327-.413.706-.629,1.114a8.27,8.27,0,0,1-.814,1.381,2.989,2.989,0,0,1-2.71,1.033,1.658,1.658,0,0,1-1.105-.491,10.6,10.6,0,0,0,1.132.225,2.909,2.909,0,0,0,2.389-1,10.169,10.169,0,0,0,.8-1.312c.255-.437.514-.762.7-1.083a1.482,1.482,0,0,1,.675-.607c.2-.081.315-.092.323-.071" transform="translate(-28.398 -16.028)" fill="#fff"/>
        <path id="Trazado_206178" data-name="Trazado 206178" d="M140.347,87.71c.039.027-.037.234-.29.476a1.979,1.979,0,0,1-2.53.121c-.275-.215-.371-.415-.334-.446a2.572,2.572,0,0,0,3.155-.151" transform="translate(-28.974 -18.524)" fill="#fff"/>
        <path id="Trazado_206179" data-name="Trazado 206179" d="M124.913,62.248a8.571,8.571,0,0,0-.939.706,2.834,2.834,0,0,0-.78,2.512,3.483,3.483,0,0,1,.183,1.651,2.217,2.217,0,0,1-.767,1.15,2.185,2.185,0,0,1-1.088.574c-.032-.056.39-.271.907-.771a2.091,2.091,0,0,0,.609-1.029,3.53,3.53,0,0,0-.213-1.5,2.814,2.814,0,0,1,.166-1.677,3.009,3.009,0,0,1,.8-1.107,1.658,1.658,0,0,1,1.122-.511" transform="translate(-25.666 -13.145)" fill="#fff"/>
        <path id="Trazado_206180" data-name="Trazado 206180" d="M113.255,67.208c-.092-.062.357-.809.581-1.832s.15-1.887.26-1.9a3.65,3.65,0,0,1-.841,3.736" transform="translate(-23.918 -13.406)" fill="#fff"/>
        <path id="Trazado_206181" data-name="Trazado 206181" d="M105.347,63.413c-.012-.028.1-.079.216-.242a1.382,1.382,0,0,0,.241-.8,11.086,11.086,0,0,0-.9-2.808,4.325,4.325,0,0,1-.218-1.7,2.466,2.466,0,0,1,.506-1.328,1.487,1.487,0,0,1,.79-.549c.23-.047.357,0,.353.022s-.123.036-.307.118a1.56,1.56,0,0,0-.621.567,3.2,3.2,0,0,0-.143,2.761,8.454,8.454,0,0,1,.8,2.937,1.364,1.364,0,0,1-.4.88c-.177.159-.322.163-.325.143" transform="translate(-22.108 -11.82)" fill="#fff"/>
        <path id="Trazado_206182" data-name="Trazado 206182" d="M117.215,60.663c-.014-.022.078-.106.252-.237.158-.133.462-.312.545-.617a1.919,1.919,0,0,0-.382-1.162c-.258-.424-.63-.842-.991-1.333a2.682,2.682,0,0,1-.654-1.641,2.414,2.414,0,0,1,.629-1.3,3.038,3.038,0,0,1,.964-.842,7.245,7.245,0,0,1-.753,1.006,2.326,2.326,0,0,0-.491,1.158,2.524,2.524,0,0,0,.613,1.4c.684.913,1.5,1.834,1.322,2.793a1.314,1.314,0,0,1-.725.666c-.2.094-.316.133-.329.111" transform="translate(-24.496 -11.306)" fill="#fff"/>
        <path id="Trazado_206183" data-name="Trazado 206183" d="M128.571,61.328c-.023-.054.418-.143.663-.71a1.733,1.733,0,0,0,.091-1.027,7.6,7.6,0,0,0-.418-1.294,3.569,3.569,0,0,1-.282-1.431,1.829,1.829,0,0,1,.5-1.111c.46-.539.977-.545.961-.481a2.259,2.259,0,0,0-.753.649,1.682,1.682,0,0,0-.364.956,3.645,3.645,0,0,0,.289,1.288,6.375,6.375,0,0,1,.409,1.372,1.878,1.878,0,0,1-.2,1.2,1.231,1.231,0,0,1-.6.558c-.185.069-.3.054-.3.032" transform="translate(-27.155 -11.668)" fill="#fff"/>
        <path id="Trazado_206184" data-name="Trazado 206184" d="M125.364,63.043a5.657,5.657,0,0,1-1.043-.176c-.661-.151-1.629-.316-2.825-.493a31.409,31.409,0,0,0-9.4.14,47.315,47.315,0,0,0-9.066,2.636l-2.67,1.066a5.677,5.677,0,0,1-.994.36,5.677,5.677,0,0,1,.935-.5c.611-.3,1.507-.706,2.629-1.178a42.075,42.075,0,0,1,9.1-2.761,29.177,29.177,0,0,1,9.5-.032,27.1,27.1,0,0,1,2.82.614,5.646,5.646,0,0,1,1.009.319" transform="translate(-20.986 -13.039)" fill="#263238"/>
        <path id="Trazado_206185" data-name="Trazado 206185" d="M103.01,68.042a.341.341,0,0,0,.1-.011l.275-.053.446-.091.613-.1a17.022,17.022,0,0,1,3.942-.1,23.717,23.717,0,0,1,5.709,1.249c1.044.355,2.117.8,3.219,1.279s2.223,1.022,3.333,1.645c4.5,2.416,7.555,6.229,8.627,9.375A13.36,13.36,0,0,1,130,85.1c.025.467.022.83.017,1.076,0,.112,0,.2,0,.28a.313.313,0,0,0,.008.1.292.292,0,0,0,.014-.095c0-.076.012-.168.02-.28a10.7,10.7,0,0,0,.023-1.08,12.855,12.855,0,0,0-.669-3.911c-1.047-3.2-4.124-7.077-8.666-9.514-1.119-.627-2.25-1.163-3.355-1.65s-2.186-.921-3.239-1.273a23.242,23.242,0,0,0-5.762-1.212,16.123,16.123,0,0,0-3.966.17l-.613.116-.443.113-.271.073a.325.325,0,0,0-.091.032" transform="translate(-21.756 -14.254)" fill="#263238"/>
        <path id="Trazado_206186" data-name="Trazado 206186" d="M119.554,72.977a1.6,1.6,0,0,0-.3-.052,8.237,8.237,0,0,0-.861-.069,12.235,12.235,0,0,0-3.153.354,21.864,21.864,0,0,0-9.109,5,33.5,33.5,0,0,0-3.9,4.242A40.728,40.728,0,0,0,99.5,86.28,21.652,21.652,0,0,0,98,89.074c-.147.345-.255.614-.317.8a1.547,1.547,0,0,0-.089.287,1.424,1.424,0,0,0,.13-.271c.075-.182.195-.446.353-.783a24.876,24.876,0,0,1,1.554-2.747,43.987,43.987,0,0,1,2.76-3.785,34.662,34.662,0,0,1,3.888-4.206,22.322,22.322,0,0,1,9-5.013,13,13,0,0,1,3.116-.418c.372,0,.662.011.857.028a1.647,1.647,0,0,0,.3.009" transform="translate(-20.612 -15.387)" fill="#263238"/>
        <path id="Trazado_206187" data-name="Trazado 206187" d="M28.109,236.479s2.763-.908,4.538-1.417c.98-.282,5.034-2.076,7.5-2.539,2.06-.387,7.759-3.3,8.645-3.9s4.379-20.068,4.379-20.068l13.182,1.989s-7.031,18.778-7.471,20.573-2.111,6.429-2.111,6.429H28.109Z" transform="translate(-5.937 -44.049)" fill="#ab6e65"/>
        <path id="Trazado_206188" data-name="Trazado 206188" d="M57.379,243.23c-.006-.042.433-.077,1.07-.346a4.279,4.279,0,0,0,2.653-4.251c-.039-.69-.2-1.1-.159-1.113.013-.006.068.091.137.277a3.569,3.569,0,0,1,.188.823,4.176,4.176,0,0,1-2.758,4.42,3.542,3.542,0,0,1-.821.192.717.717,0,0,1-.309,0" transform="translate(-12.119 -50.166)" fill="#7c4b43"/>
        <path id="Trazado_206189" data-name="Trazado 206189" d="M51.341,242.132a1.405,1.405,0,0,1-.267.119,4.77,4.77,0,0,1-.815.211,18.427,18.427,0,0,1-3.084.066,7.207,7.207,0,0,0-2.08.252c-.724.214-1.444.614-2.276.891a7.474,7.474,0,0,1-5.553-.422l-.278-.136.3-.083.267-.073a10.193,10.193,0,0,0,2.655-1.208,17.372,17.372,0,0,0,2.133-1.715,10.928,10.928,0,0,1,4.095-2.249,24.514,24.514,0,0,1,3.068-.73l.844-.141a1.448,1.448,0,0,1,.3-.032,1.443,1.443,0,0,1-.289.078l-.836.185a28.836,28.836,0,0,0-3.034.8,10.951,10.951,0,0,0-4,2.254,17.244,17.244,0,0,1-2.151,1.746,10.3,10.3,0,0,1-2.714,1.239l-.273.076.022-.219a7.313,7.313,0,0,0,5.383.428c.808-.261,1.537-.658,2.288-.872a7.244,7.244,0,0,1,2.137-.231,21,21,0,0,0,3.069.009,10.085,10.085,0,0,0,1.1-.241" transform="translate(-7.812 -50.031)" fill="#7c4b43"/>
        <path id="Trazado_206190" data-name="Trazado 206190" d="M297.987,200.069,290.328,217.8l-7.107,22.836,68.855.324L350.9,197.709l-33.842-3.45Z" transform="translate(-59.818 -41.029)" fill="#263238"/>
        <path id="Trazado_206191" data-name="Trazado 206191" d="M247.361,205.078s-5.547,2.108-9.883,3.386-12.085,6.056-12.085,6.056-7.871,7.1-7.6,8.032,1.219,1.391,2.417.431,7.1-4.452,7.1-4.452.38,1.975,1.66,2.2a3.442,3.442,0,0,0,1.948-.092,3.826,3.826,0,0,0,3.215,3.215,1.493,1.493,0,0,0,1.219,1.391,7.785,7.785,0,0,0,2.442.289s4.113-2.493,4.768-3.7,1.454-2.821,1.454-2.821l1.7-.85,5.214-.887Z" transform="translate(-45.999 -43.314)" fill="#db8a76"/>
        <path id="Trazado_206192" data-name="Trazado 206192" d="M244.231,216.521a3.311,3.311,0,0,1-.51.626,6.612,6.612,0,0,1-1.834,1.29,9.25,9.25,0,0,1-3.28.925,7.187,7.187,0,0,1-2.069-.088,5.4,5.4,0,0,1-2.1-.862l.133-.184a13.717,13.717,0,0,1,1.456,1.233,5.418,5.418,0,0,1,.656.764,2.608,2.608,0,0,1,.4.969,2.978,2.978,0,0,1-.566,2.361l-.054.069-.079-.032a11.184,11.184,0,0,1-2.216-1.237c-.668-.463-1.28-.941-1.856-1.4s-1.115-.881-1.624-1.309a2.026,2.026,0,0,1-.6-1.7,2.936,2.936,0,0,1,.233-.76c.095-.229.192-.439.29-.633a10.34,10.34,0,0,1,.548-.962c.164-.254.3-.443.4-.568a.924.924,0,0,1,.159-.181,1.165,1.165,0,0,1-.125.207c-.086.132-.212.327-.364.586s-.33.583-.51.971q-.138.291-.271.631a2.794,2.794,0,0,0-.208.727,1.868,1.868,0,0,0,.577,1.552c.488.4,1.054.826,1.626,1.279s1.192.923,1.855,1.376a11.1,11.1,0,0,0,2.173,1.2l-.133.037a2.752,2.752,0,0,0,.517-2.174,2.368,2.368,0,0,0-.359-.883,5.25,5.25,0,0,0-.626-.73,13.714,13.714,0,0,0-1.425-1.215l.133-.183a5.2,5.2,0,0,0,2.007.836,7.053,7.053,0,0,0,2.011.1,9.33,9.33,0,0,0,3.234-.861,6.968,6.968,0,0,0,1.843-1.216c.38-.351.543-.587.563-.571" transform="translate(-48.592 -45.376)" fill="#a35b4a"/>
        <path id="Trazado_206193" data-name="Trazado 206193" d="M238.622,223.519a4.09,4.09,0,0,1,.678-.27,4.966,4.966,0,0,0,1.47-.869,1.514,1.514,0,0,0,.464-.756,1.056,1.056,0,0,0-.1-.7c-.2-.383-.521-.409-.506-.446,0-.012.076-.028.207.007a.836.836,0,0,1,.442.353,1.165,1.165,0,0,1,.174.826,1.647,1.647,0,0,1-.514.887,4.129,4.129,0,0,1-1.578.856,1.622,1.622,0,0,1-.732.113" transform="translate(-50.398 -46.563)" fill="#a35b4a"/>
        <path id="Trazado_206194" data-name="Trazado 206194" d="M240.087,227.063a9.706,9.706,0,0,1,1-.65c.308-.2.669-.445,1.057-.734a7.867,7.867,0,0,0,1.175-1.018,1.578,1.578,0,0,0,.355-.667,1.045,1.045,0,0,0-.081-.674,1.471,1.471,0,0,0-.9-.756,2.541,2.541,0,0,0-.838-.1,1.189,1.189,0,0,1-.321,0c0-.014.1-.058.312-.092a2.193,2.193,0,0,1,.892.033,1.6,1.6,0,0,1,1.054.82,1.26,1.26,0,0,1,.113.816,1.775,1.775,0,0,1-.4.771,7.16,7.16,0,0,1-1.227,1.042c-.4.284-.776.518-1.1.7a4.38,4.38,0,0,1-1.086.508" transform="translate(-50.708 -46.96)" fill="#a35b4a"/>
        <path id="Trazado_206195" data-name="Trazado 206195" d="M246.426,227.224a4.512,4.512,0,0,0,.195-.61,1.326,1.326,0,0,0-1.9-1.455c-.358.154-.506.372-.539.345-.022-.006.082-.278.465-.495a1.445,1.445,0,0,1,2.132,1.637c-.11.427-.346.6-.358.577" transform="translate(-51.573 -47.483)" fill="#a35b4a"/>
        <path id="Trazado_206196" data-name="Trazado 206196" d="M283.363,235.411l-1.446,2.14-10.807-.022-13.758,5.544h35.54c.3-.375,1.226-1.794,1.226-1.794l-10.754-5.869" transform="translate(-54.354 -49.72)" fill="#db8a76"/>
        <path id="Trazado_206197" data-name="Trazado 206197" d="M332.463,143.811c-7.759-12.556-24.435-27.9-25.852-28.608s-24.212-2.138-24.212-2.138l-18.006,12.774-5.978,8.935c-.816,2.544-2.253,6.459-1.6,9.049l.557,4.405,18.78,12.125L285.5,165.8l5.2,7.378-.417,12.318,7.359-1.4s11.334,1.119,22.2,1.384,25.8-3.18,25.8-3.18-4.521-24.487-13.176-38.494" transform="translate(-54.206 -23.88)" fill="#455a64"/>
        <path id="Trazado_206198" data-name="Trazado 206198" d="M296.008,136.172l6.375,35.367L289.16,210.554l13.223,7.215s9.445-16.621,13.7-26.675a143.463,143.463,0,0,0,5.8-15.672s-.021-38.225-1.377-42.631-5.843-13.143-10.565-12.671-15.865,5.322-13.931,16.052" transform="translate(-61.072 -25.366)" fill="#455a64"/>
        <path id="Trazado_206199" data-name="Trazado 206199" d="M256.45,157.643l11.393,27.895a11.57,11.57,0,0,0-1.372,3.282l-14.192,7.03,4.171,13.43s17.725-5.888,20.235-7.244,9.752-6.514,11.007-10.7-5.7-19.013-5.7-19.013Z" transform="translate(-53.283 -33.295)" fill="#455a64"/>
        <path id="Trazado_206200" data-name="Trazado 206200" d="M287.568,175.647a1.18,1.18,0,0,1-.244-.118l-.674-.377c-.583-.334-1.422-.822-2.449-1.443s-2.24-1.379-3.551-2.277c-.654-.452-1.332-.939-2.008-1.483l-2.056-1.705-7.187-6.021-2.161-1.845-.58-.511a1.217,1.217,0,0,1-.193-.191,1.164,1.164,0,0,1,.222.154l.608.477,2.208,1.787,7.231,5.967,2.053,1.709c.667.54,1.339,1.029,1.987,1.484,1.3.9,2.5,1.673,3.515,2.314l2.408,1.506.652.416a1.179,1.179,0,0,1,.219.159" transform="translate(-56.279 -33.724)" fill="#263238"/>
        <path id="Trazado_206201" data-name="Trazado 206201" d="M289.044,115.136a6.328,6.328,0,0,1,.869,1.312,9.417,9.417,0,0,1,1.014,4.155,11.233,11.233,0,0,1-.356,2.954,12.464,12.464,0,0,1-1.343,3.139,17.12,17.12,0,0,1-5.488,5.494,14.553,14.553,0,0,1-7.354,2.444,9.664,9.664,0,0,1-6.032-1.821,8.059,8.059,0,0,1-2.708-3.3,5.122,5.122,0,0,1-.237-.633,3.14,3.14,0,0,1-.129-.477l-.061-.3a.353.353,0,0,1-.013-.1,12.676,12.676,0,0,0,.524,1.473,8.154,8.154,0,0,0,2.721,3.2,9.566,9.566,0,0,0,5.929,1.738,14.458,14.458,0,0,0,7.234-2.425,17.083,17.083,0,0,0,5.428-5.408,12.321,12.321,0,0,0,1.34-3.077,11.187,11.187,0,0,0,.378-2.9,9.592,9.592,0,0,0-.929-4.117,6.451,6.451,0,0,0-.314-.59,4.892,4.892,0,0,0-.257-.419l-.166-.252a.372.372,0,0,1-.05-.091" transform="translate(-56.435 -24.317)" fill="#263238"/>
        <path id="Trazado_206202" data-name="Trazado 206202" d="M288.134,135.014c-.065.026-.391-.707-.948-1.511s-1.119-1.376-1.072-1.427a5.288,5.288,0,0,1,2.02,2.937" transform="translate(-60.429 -27.895)" fill="#263238"/>
        <path id="Trazado_206203" data-name="Trazado 206203" d="M293.244,130.239a6.344,6.344,0,0,0-3.283-1.719,3.611,3.611,0,0,1,3.283,1.719" transform="translate(-61.242 -27.137)" fill="#263238"/>
        <path id="Trazado_206204" data-name="Trazado 206204" d="M296.289,124.486a30.264,30.264,0,0,0-3.057-.43,4.477,4.477,0,0,1,3.057.43" transform="translate(-61.932 -26.178)" fill="#263238"/>
        <path id="Trazado_206205" data-name="Trazado 206205" d="M295.862,117.549a94.366,94.366,0,0,0-2.724.773,4.2,4.2,0,0,1,2.724-.773" transform="translate(-61.913 -24.819)" fill="#263238"/>
        <path id="Trazado_206206" data-name="Trazado 206206" d="M279.353,138.459a3.11,3.11,0,0,1,.017-2.893c.065.024-.13.652-.13,1.446s.18,1.425.114,1.447" transform="translate(-58.927 -28.632)" fill="#263238"/>
        <path id="Trazado_206207" data-name="Trazado 206207" d="M270.216,136.96c-.05-.043.241-.463.649-.939s.779-.829.827-.786-.241.462-.649.939-.779.829-.827.786" transform="translate(-57.07 -28.562)" fill="#263238"/>
        <path id="Trazado_206208" data-name="Trazado 206208" d="M320.465,136.189s.021.063.054.189a5.109,5.109,0,0,1,.127.57c.1.506.189,1.265.29,2.258.188,1.985.359,4.908.5,8.634.279,7.454.465,18.126.506,30.981v.014l0,.012c-.951,3.236-2.156,6.553-3.48,9.974s-2.772,6.946-4.476,10.484c-3.386,7.084-7.322,14.414-11.536,21.921l-.056.1-.1-.056-1.221-.667-12-6.55-.086-.047.032-.092c4.958-14.6,9.492-27.956,13.245-39.008l0,.047c-1.929-10.794-3.508-19.636-4.607-25.786-.543-3.07-.966-5.467-1.255-7.1l-.321-1.858c-.071-.42-.1-.637-.1-.637s.048.214.128.632.2,1.044.348,1.854l1.3,7.094,4.686,25.771,0,.024-.008.023-13.2,39.022-.054-.139,12,6.547,1.221.667-.159.046c4.211-7.5,8.15-14.829,11.537-21.9,1.7-3.531,3.139-7.055,4.48-10.465s2.535-6.731,3.488-9.95l0,.027c-.02-12.853-.176-23.524-.421-30.977-.124-3.726-.277-6.648-.445-8.633-.091-.992-.17-1.752-.261-2.258-.033-.256-.084-.443-.111-.571s-.039-.193-.039-.193" transform="translate(-61.034 -28.764)" fill="#263238"/>
        <path id="Trazado_206209" data-name="Trazado 206209" d="M314.187,123.55a19.866,19.866,0,0,0-2.141-.909,10.688,10.688,0,0,0-10.463,2.142,19.523,19.523,0,0,0-1.611,1.677,2.723,2.723,0,0,1,.344-.528,9.442,9.442,0,0,1,1.156-1.273,10.42,10.42,0,0,1,10.627-2.175,9.334,9.334,0,0,1,1.563.716,2.807,2.807,0,0,1,.524.349" transform="translate(-63.356 -25.741)" fill="#263238"/>
        <g id="Grupo_147004" data-name="Grupo 147004" transform="translate(256.199 120.846)" opacity="0.3">
          <g id="Grupo_147003" data-name="Grupo 147003">
            <g id="Grupo_147002" data-name="Grupo 147002" clip-path="url(#clip-path-4)">
              <path id="Trazado_206210" data-name="Trazado 206210" d="M324.8,206.413c.071-.188.141-.376.212-.565-.039.026-.077.055-.117.08Z" transform="translate(-324.798 -164.322)"/>
              <path id="Trazado_206211" data-name="Trazado 206211" d="M331.987,170.422A106.22,106.22,0,0,0,329.16,153.2c-1.275,9.768,1.23,19.785-.443,29.493a66.45,66.45,0,0,1-3.65,12.034c3.692-2.415,5.918-6.64,6.8-10.968.888-4.375.558-8.9.122-13.34" transform="translate(-324.855 -153.203)"/>
            </g>
          </g>
        </g>
        <g id="Grupo_147007" data-name="Grupo 147007" transform="translate(214.083 129.175)" opacity="0.3">
          <g id="Grupo_147006" data-name="Grupo 147006">
            <g id="Grupo_147005" data-name="Grupo 147005" clip-path="url(#clip-path-5)">
              <path id="Trazado_206212" data-name="Trazado 206212" d="M287.085,175.6l-15.678-11.833c.175,4.412,3.531,8.032,7.019,10.739s8.231,5.824,11.538,8.749c-1.092-2.438-1.788-5.219-2.88-7.656" transform="translate(-271.406 -163.763)"/>
            </g>
          </g>
        </g>
        <path id="Trazado_206213" data-name="Trazado 206213" d="M291.114,151.329a2.493,2.493,0,0,1-.253.3c-.171.191-.43.469-.771.817a18.809,18.809,0,0,1-3.157,2.668,9.1,9.1,0,0,1-2.611,1.182,6.6,6.6,0,0,1-3.286-.009,12.216,12.216,0,0,1-3.3-1.525c-1.074-.656-2.127-1.418-3.3-2.028a8.5,8.5,0,0,0-3.635-1.09,5.336,5.336,0,0,0-3.307,1.079,26.175,26.175,0,0,0-2.468,2.122,10.3,10.3,0,0,1-2.325,1.675,4.306,4.306,0,0,1-2.31.483,3.543,3.543,0,0,1-1.692-.564,2.4,2.4,0,0,1-.779-.815,1.581,1.581,0,0,1-.16-.359c.013-.006.062.121.2.334a2.457,2.457,0,0,0,.788.763,3.5,3.5,0,0,0,1.652.51,4.2,4.2,0,0,0,2.227-.5,10.277,10.277,0,0,0,2.268-1.67,25.557,25.557,0,0,1,2.475-2.155,6.527,6.527,0,0,1,1.582-.843,5.1,5.1,0,0,1,1.854-.289,8.682,8.682,0,0,1,3.738,1.112c1.189.621,2.246,1.387,3.309,2.04a12.121,12.121,0,0,0,3.232,1.511,5.89,5.89,0,0,0,1.637.213,6.5,6.5,0,0,0,1.548-.184,9.01,9.01,0,0,0,2.568-1.133,20.125,20.125,0,0,0,3.182-2.593l.8-.785a2.439,2.439,0,0,1,.288-.267" transform="translate(-54.442 -31.962)" fill="#fff"/>
        <path id="Trazado_206214" data-name="Trazado 206214" d="M322.876,146.791a1.056,1.056,0,0,1-.189.181,2.681,2.681,0,0,1-.648.376,4.245,4.245,0,0,1-2.724.082c-2.349-.543-4.436-3.415-7.953-4.067a12.579,12.579,0,0,0-2.519-.319,13.394,13.394,0,0,0-2.36.182,12.637,12.637,0,0,0-3.793,1.273,13.53,13.53,0,0,0-2.982,2.2,1.129,1.129,0,0,1,.167-.2l.513-.541c.246-.209.54-.478.906-.756l.605-.423c.213-.152.463-.273.712-.422a12.43,12.43,0,0,1,3.834-1.341,13.3,13.3,0,0,1,2.4-.2,12.557,12.557,0,0,1,2.568.321,11.789,11.789,0,0,1,2.444.855c.364.207.734.39,1.074.607s.659.443.969.666a11.822,11.822,0,0,0,3.457,2.008,4.257,4.257,0,0,0,2.645-.007,4.194,4.194,0,0,0,.87-.472" transform="translate(-63.3 -30.163)" fill="#fff"/>
        <path id="Trazado_206215" data-name="Trazado 206215" d="M341.12,139.826c.01.021-.208.117-.542.375a4.338,4.338,0,0,0-1.122,1.367,9.142,9.142,0,0,0-.855,2.5,17.118,17.118,0,0,1-.863,3.185,5.434,5.434,0,0,1-2.175,2.482,6.051,6.051,0,0,1-2.56.864,5.129,5.129,0,0,1-1.816-.143,3.139,3.139,0,0,1-.47-.155.526.526,0,0,1-.156-.074c.008-.022.232.057.647.14a5.549,5.549,0,0,0,1.777.066,6.072,6.072,0,0,0,2.464-.882,5.308,5.308,0,0,0,2.074-2.392,18.078,18.078,0,0,0,.867-3.139,8.835,8.835,0,0,1,.922-2.537,4.13,4.13,0,0,1,1.212-1.36,2.484,2.484,0,0,1,.432-.244.509.509,0,0,1,.164-.057" transform="translate(-69.817 -29.532)" fill="#fff"/>
        <path id="Trazado_206216" data-name="Trazado 206216" d="M274.567,168.17a1.919,1.919,0,0,1-.09.48,3.743,3.743,0,0,1-.162.55,6.365,6.365,0,0,1-.275.709,7.347,7.347,0,0,1-.416.823,8.639,8.639,0,0,1-.573.892,10.364,10.364,0,0,1-1.658,1.77,10.5,10.5,0,0,1-2.043,1.31,8.976,8.976,0,0,1-1.873.644,5.923,5.923,0,0,1-.749.13,3.523,3.523,0,0,1-.571.047,1.972,1.972,0,0,1-.488-.01c0-.05.695-.052,1.769-.329a9.716,9.716,0,0,0,1.817-.678,11.047,11.047,0,0,0,1.986-1.3,10.9,10.9,0,0,0,1.635-1.719,9.461,9.461,0,0,0,.578-.861,8.041,8.041,0,0,0,.434-.794c.48-1,.629-1.682.677-1.668" transform="translate(-56.111 -35.519)" fill="#fff"/>
        <path id="Trazado_206217" data-name="Trazado 206217" d="M362.354,213.663a4.637,4.637,0,0,1-.74.131,7.1,7.1,0,0,1-.878.088,11.631,11.631,0,0,1-1.169.037,12.8,12.8,0,0,1-1.417-.069c-.511-.03-1.047-.129-1.615-.219a17.854,17.854,0,0,1-6.853-2.845c-.465-.338-.913-.648-1.3-.989a12.828,12.828,0,0,1-1.049-.954,11.431,11.431,0,0,1-.8-.853,7.114,7.114,0,0,1-.557-.685,4.55,4.55,0,0,1-.43-.616,4.609,4.609,0,0,1,.5.558,8.394,8.394,0,0,0,.584.654c.238.245.492.54.816.823a13.819,13.819,0,0,0,1.058.923c.383.331.831.632,1.293.961a18.494,18.494,0,0,0,6.773,2.811c.559.095,1.089.2,1.593.237a13.748,13.748,0,0,0,1.4.1c.43.03.818,0,1.16,0a8.452,8.452,0,0,0,.876-.049,4.7,4.7,0,0,1,.749-.039" transform="translate(-72.983 -43.654)" fill="#455a64"/>
        <path id="Trazado_206218" data-name="Trazado 206218" d="M320.967,239.1c-.063-.014.9-4.491,2.16-10s2.327-9.959,2.39-9.945-.9,4.49-2.161,10-2.327,9.959-2.39,9.944" transform="translate(-67.79 -46.286)" fill="#455a64"/>
        <path id="Trazado_206219" data-name="Trazado 206219" d="M281.934,109.98h0a5.2,5.2,0,0,0-.457-2.538l-13.7-29.993c-3.194-8.613-10.868-13.932-19.389-10.5l-.768.364a16.423,16.423,0,0,0-8.356,20.647c2.81,7.448,6.008,15.641,7.874,19.467,3.862,7.923,12.419,5.4,12.419,5.4l1.6,3.051s1.67,5.75,8.815,4.943c5.491-.62,9.558-5.952,11.145-8.386a5.168,5.168,0,0,0,.822-2.452" transform="translate(-50.31 -13.917)" fill="#db8a76"/>
        <path id="Trazado_206220" data-name="Trazado 206220" d="M265.183,123.277a21.383,21.383,0,0,0,9-7.987s.252,6.9-8.039,9.932Z" transform="translate(-56.008 -24.35)" fill="#a35b4a"/>
        <path id="Trazado_206221" data-name="Trazado 206221" d="M246,101.031a1.258,1.258,0,0,0,1.64.63,1.2,1.2,0,0,0,.689-1.58,1.26,1.26,0,0,0-1.639-.632,1.205,1.205,0,0,0-.689,1.582" transform="translate(-51.938 -20.984)" fill="#263238"/>
        <path id="Trazado_206222" data-name="Trazado 206222" d="M244.038,97.092c.211.082.771-.963,2-1.539,1.216-.592,2.412-.386,2.474-.6.034-.1-.236-.3-.762-.4a3.455,3.455,0,0,0-2.068.3,3.324,3.324,0,0,0-1.5,1.41c-.24.467-.241.8-.139.829" transform="translate(-51.529 -19.96)" fill="#263238"/>
        <path id="Trazado_206223" data-name="Trazado 206223" d="M260.269,94.419a1.259,1.259,0,0,0,1.64.63,1.2,1.2,0,0,0,.689-1.581,1.26,1.26,0,0,0-1.639-.631,1.2,1.2,0,0,0-.689,1.582" transform="translate(-54.951 -19.587)" fill="#263238"/>
        <path id="Trazado_206224" data-name="Trazado 206224" d="M259.437,90.174c.211.082.774-.964,2-1.539,1.217-.592,2.413-.386,2.475-.6.034-.1-.235-.3-.762-.4a3.458,3.458,0,0,0-2.068.3,3.319,3.319,0,0,0-1.5,1.41c-.239.466-.241.8-.14.829" transform="translate(-54.782 -18.499)" fill="#263238"/>
        <path id="Trazado_206225" data-name="Trazado 206225" d="M258.1,102.24a8.944,8.944,0,0,0-2.159.581c-.327.115-.653.192-.807,0a1.766,1.766,0,0,1-.229-1.025q-.095-1.343-.2-2.818a45.354,45.354,0,0,0-.864-7.21,45.17,45.17,0,0,0,.282,7.263q.128,1.473.245,2.814a2,2,0,0,0,.417,1.3.866.866,0,0,0,.73.215,2.364,2.364,0,0,0,.566-.177,8.823,8.823,0,0,0,2.018-.949" transform="translate(-53.598 -19.382)" fill="#263238"/>
        <path id="Trazado_206226" data-name="Trazado 206226" d="M263.7,103.957c-.2.083.42,1.413-.272,2.894s-2.176,2-2.1,2.194c.021.092.438.109,1.044-.157a3.666,3.666,0,0,0,1.788-1.756,3.19,3.19,0,0,0,.142-2.386c-.211-.581-.515-.839-.6-.789" transform="translate(-55.193 -21.955)" fill="#263238"/>
        <path id="Trazado_206227" data-name="Trazado 206227" d="M256.168,84.284c.278.276,1.426-.459,2.945-.965,1.508-.536,2.866-.662,2.915-1.051.017-.183-.332-.4-.953-.5a5.393,5.393,0,0,0-4.465,1.536c-.428.461-.57.849-.443.982" transform="translate(-54.095 -17.259)" fill="#263238"/>
        <path id="Trazado_206228" data-name="Trazado 206228" d="M242.471,92.323c.347.177,1.054-.511,2.063-1,.991-.528,1.962-.7,2.022-1.082.021-.182-.246-.4-.746-.483a3.322,3.322,0,0,0-3.292,1.68c-.223.455-.206.8-.047.888" transform="translate(-51.186 -18.95)" fill="#263238"/>
        <path id="Trazado_206229" data-name="Trazado 206229" d="M238.047,83.562s-.255-5.984,1.6-8.285c2.248-2.786,5.013-.181,7.423-2.268s4.553-4.753,8.4-3.947c4.215.883,3.539,3.218,5.4,6.665,7.548,13.97,12.081,16.789,9.637,9.683-.267-.779,1.508-2.336.336-5.606-1.519-4.24-3.688-9.235-5.95-11.684-1.908-2.065-4.081-3.087-7.432-3.763-5.29-1.068-10.694,1.407-14.171,3.5s-8.532,9.615-5.248,15.707" transform="translate(-50.053 -13.538)" fill="#263238"/>
        <path id="Trazado_206230" data-name="Trazado 206230" d="M278.664,90.219a2.392,2.392,0,0,1,1.351-3.188c1.553-.561,3.606-.5,4.958,2.62,2.4,5.531-3.649,6.8-3.727,6.644-.054-.1-1.6-3.753-2.582-6.077" transform="translate(-58.815 -18.324)" fill="#db8a76"/>
        <path id="Trazado_206231" data-name="Trazado 206231" d="M282.018,94.234c.017-.028.125.026.321.03a1.052,1.052,0,0,0,.726-.3,2.6,2.6,0,0,0,.175-2.617,3.469,3.469,0,0,0-.868-1.263,1.215,1.215,0,0,0-1.045-.425.534.534,0,0,0-.454.511c-.007.187.076.282.05.3-.009.021-.159-.042-.213-.289a.668.668,0,0,1,.067-.441.79.79,0,0,1,.472-.372,1.478,1.478,0,0,1,1.379.42,3.569,3.569,0,0,1,1,1.4,2.725,2.725,0,0,1-.37,3,1.125,1.125,0,0,1-.945.236c-.23-.062-.313-.174-.3-.192" transform="translate(-59.285 -18.866)" fill="#a35b4a"/>
        <path id="Trazado_206232" data-name="Trazado 206232" d="M265.129,74.348a5.73,5.73,0,0,1-1.8,2.156,1.966,1.966,0,0,1-2.562-.319c-.244-.349-.359-.833-.746-1.008-.463-.209-.96.159-1.394.424a3.848,3.848,0,0,1-4.788-.789,1.614,1.614,0,0,1-1.871,1.109,8.67,8.67,0,0,1-2.233-.887,2.479,2.479,0,0,0-2.312-.053c-.376.248-.64.666-1.062.821-.745.274-1.49-.4-1.934-1.058S243.5,73.3,242.714,73.2c-.73-.092-1.361.458-1.974.866s-1.537.655-2.009.091a1.429,1.429,0,0,1-.223-1.1,3.9,3.9,0,0,1,3.535-3.3,5.289,5.289,0,0,1,8.35-5.077,5.369,5.369,0,0,1,8.6-1.895,3.891,3.891,0,0,1,6.384,3.245,3.7,3.7,0,0,1,3.094,1.793,2.115,2.115,0,0,1-1.243,2.978,2.155,2.155,0,0,1-2.453,3.535" transform="translate(-50.37 -12.96)" fill="#263238"/>
        <path id="Trazado_206233" data-name="Trazado 206233" d="M243.441,73.58a.32.32,0,0,0,.048.1c.039.062.089.159.173.274a3.774,3.774,0,0,0,.891.863,4.3,4.3,0,0,0,1.817.718,4.011,4.011,0,0,0,2.532-.417l-.149-.077a2.184,2.184,0,0,0,.82,1.453,6.268,6.268,0,0,0,1.566.9,4.52,4.52,0,0,0,.9.337,2.1,2.1,0,0,0,1.015-.087,2.2,2.2,0,0,0,1.457-1.457l-.231.038a4.519,4.519,0,0,0,3.068,2.009,3.3,3.3,0,0,0,2.067-.258A5.966,5.966,0,0,0,261,76.755l-.176,0a4.749,4.749,0,0,0,2.084,1.074,2.531,2.531,0,0,0,2.142-.379,3.319,3.319,0,0,0,1.2-3.441l-.1.116a3.107,3.107,0,0,0,2-.609,3.368,3.368,0,0,0,1.031-1.2,2.927,2.927,0,0,0,.295-.954,1.487,1.487,0,0,0,0-.347,3.62,3.62,0,0,1-.39,1.253,3.338,3.338,0,0,1-1.025,1.127,2.975,2.975,0,0,1-1.9.544l-.129-.009.033.125a3.131,3.131,0,0,1-1.16,3.209,2.294,2.294,0,0,1-1.954.324,4.529,4.529,0,0,1-1.966-1.023l-.091-.08-.085.084a5.741,5.741,0,0,1-1.513,1.165,3.04,3.04,0,0,1-1.91.234,4.272,4.272,0,0,1-2.9-1.891l-.156-.241-.076.28a1.955,1.955,0,0,1-1.287,1.286,1.87,1.87,0,0,1-.9.084,4.329,4.329,0,0,1-.851-.315,6.048,6.048,0,0,1-1.518-.852,1.975,1.975,0,0,1-.761-1.305l-.017-.151-.133.074a3.875,3.875,0,0,1-2.411.433,4.284,4.284,0,0,1-1.776-.652,4.669,4.669,0,0,1-1.175-1.144" transform="translate(-51.416 -15)" fill="#455a64"/>
        <path id="Trazado_206234" data-name="Trazado 206234" d="M249.967,98.365a10.916,10.916,0,0,0-.333-1.422,5.934,5.934,0,0,0-2.4-3.06,5.848,5.848,0,0,0-5.586-.426,5.858,5.858,0,0,0-2.558,2.227,5.815,5.815,0,0,0,.492,6.882,5.858,5.858,0,0,0,2.849,1.841,5.9,5.9,0,0,0,7.4-4.588,10.812,10.812,0,0,0,.127-1.455,2.283,2.283,0,0,1,.032.379,2.747,2.747,0,0,1,0,.462,4.226,4.226,0,0,1-.066.629,5.993,5.993,0,0,1-4.362,4.8,6.048,6.048,0,0,1-3.191-.022,6.065,6.065,0,0,1-2.965-1.9,6.027,6.027,0,0,1-.512-7.155,6.062,6.062,0,0,1,2.665-2.3,6.058,6.058,0,0,1,3.155-.476,5.995,5.995,0,0,1,5,4.132,4.208,4.208,0,0,1,.155.613,2.664,2.664,0,0,1,.068.458,2.328,2.328,0,0,1,.023.38" transform="translate(-50.259 -19.588)" fill="#263238"/>
        <path id="Trazado_206235" data-name="Trazado 206235" d="M267.755,89.9a11.2,11.2,0,0,0-.334-1.422,5.93,5.93,0,0,0-2.4-3.06A5.848,5.848,0,0,0,259.439,85a5.473,5.473,0,0,0-1.416.9,5.534,5.534,0,0,0-1.142,1.326,5.816,5.816,0,0,0,.493,6.882,5.848,5.848,0,0,0,2.849,1.841,5.9,5.9,0,0,0,7.4-4.588,11.088,11.088,0,0,0,.128-1.455,2.474,2.474,0,0,1,.031.379,2.748,2.748,0,0,1,0,.462,4.1,4.1,0,0,1-.066.629,5.992,5.992,0,0,1-4.362,4.8,6.048,6.048,0,0,1-3.191-.022,6.064,6.064,0,0,1-2.965-1.9,6.029,6.029,0,0,1-.511-7.155,6.066,6.066,0,0,1,2.664-2.3,6.058,6.058,0,0,1,3.155-.476,5.991,5.991,0,0,1,5,4.132,4.185,4.185,0,0,1,.155.613,2.52,2.52,0,0,1,.068.458,2.4,2.4,0,0,1,.024.38" transform="translate(-54.016 -17.801)" fill="#263238"/>
        <path id="Trazado_206236" data-name="Trazado 206236" d="M255.181,94.094a4.082,4.082,0,0,0-3.315,1.608c-.024-.013.048-.228.266-.521a3.1,3.1,0,0,1,2.475-1.2c.364.01.579.087.573.114" transform="translate(-53.195 -19.849)" fill="#263238"/>
        <path id="Trazado_206237" data-name="Trazado 206237" d="M276.7,89.03a40.486,40.486,0,0,1-6.175.155,40.761,40.761,0,0,1,6.175-.155" transform="translate(-57.137 -18.79)" fill="#263238"/>
        <path id="Trazado_206238" data-name="Trazado 206238" d="M217.923,241.677h27.287a1.361,1.361,0,0,1,0,2.721H217.923a1.361,1.361,0,1,1,0-2.721" transform="translate(-45.739 -51.044)" fill="#e0e0e0"/>
        <path id="Trazado_206239" data-name="Trazado 206239" d="M208.612,234.878H157L151.9,200.019a2.973,2.973,0,0,1,2.94-3.419l45.316.368c1.47,0,2.874.706,3.094,2.16Z" transform="translate(-32.075 -41.523)" fill="#e0e0e0"/>
        <path id="Trazado_206240" data-name="Trazado 206240" d="M188.876,219.571a2.837,2.837,0,1,1-2.837-2.837,2.837,2.837,0,0,1,2.837,2.837" transform="translate(-38.693 -45.776)" fill="#fff"/>
        <path id="Trazado_206241" data-name="Trazado 206241" d="M219.3,234.671c-.064.01-1.507-8.4-3.221-18.782s-3.053-18.812-2.99-18.823,1.506,8.4,3.221,18.784,3.053,18.81,2.99,18.821" transform="translate(-45.005 -41.622)" fill="#263238"/>
        <rect id="Rectángulo_38357" data-name="Rectángulo 38357" width="304.076" height="7.476" transform="translate(3.674 193.354)" fill="#455a64"/>
        <path id="Trazado_206242" data-name="Trazado 206242" d="M69.2,245.267c.006,0-.028.029-.1.081s-.171.129-.318.224a7.017,7.017,0,0,1-1.529.688,13.569,13.569,0,0,1-2.937.555,36.893,36.893,0,0,1-4.1.1c-1.523-.028-3.176-.159-4.932-.319s-3.632-.344-5.618-.377A59.448,59.448,0,0,0,37.034,247.6c-4.339.872-8.393,1.864-12.27,2.467-1.935.3-3.813.521-5.6.624a41.872,41.872,0,0,1-4.973-.006,26.855,26.855,0,0,1-6.818-1.227,12.166,12.166,0,0,1-2.108-.887.92.92,0,0,1,.147.053l.405.17c.355.15.893.362,1.629.592a27.734,27.734,0,0,0,6.773,1.149,42.159,42.159,0,0,0,4.912-.02c1.759-.11,3.617-.33,5.534-.637,3.844-.609,7.88-1.6,12.24-2.478a59.245,59.245,0,0,1,12.778-1.373c2.019.039,3.9.236,5.656.4s3.389.305,4.894.342a37.436,37.436,0,0,0,4.054-.069,13.83,13.83,0,0,0,2.9-.51,8.12,8.12,0,0,0,2.014-.921" transform="translate(-1.113 -51.802)" fill="#263238"/>
        <path id="Trazado_206243" data-name="Trazado 206243" d="M36.7,245.4a7.846,7.846,0,0,1-.921.441,26.586,26.586,0,0,1-2.774,1,36.955,36.955,0,0,1-4.537,1.038,42.675,42.675,0,0,1-5.927.521,38.152,38.152,0,0,1-10.6-1.23A7.183,7.183,0,0,1,9.388,246a2,2,0,0,1-.418-.45c-.064-.111-.091-.17-.078-.172a5,5,0,0,0,.614.575,7.84,7.84,0,0,0,2.557,1.089A39.673,39.673,0,0,0,22.533,248.2a43.8,43.8,0,0,0,5.846-.5,39.618,39.618,0,0,0,4.509-.984c1.227-.355,2.174-.693,2.811-.939A9.514,9.514,0,0,1,36.7,245.4" transform="translate(-1.877 -51.826)" fill="#263238"/>
        <path id="Trazado_206244" data-name="Trazado 206244" d="M128.105,250.549c0-.006.164.029.472.1s.777.148,1.4.21a14.171,14.171,0,0,0,5.321-.468l-.016.095a19.2,19.2,0,0,0-6.6-1.445,20.992,20.992,0,0,0-8.583,1.253c-.321.131-.633.291-.664.486s.219.372.57.482a6.162,6.162,0,0,0,1.178.232l1.3.166c1.74.218,3.537.434,5.4.587a56.571,56.571,0,0,0,5.742.22c.979-.013,1.964-.068,2.947-.159.491-.047.981-.1,1.466-.173a11.892,11.892,0,0,0,1.421-.258,5.515,5.515,0,0,0,1.841-.749c.465-.326.613-.768.354-1.148a2.992,2.992,0,0,0-1.446-.908,16.463,16.463,0,0,0-2.019-.555,46.9,46.9,0,0,0-8.446-.985,60.2,60.2,0,0,0-14.416,1.257,48.531,48.531,0,0,0-8.679,2.665c-.928.4-1.641.722-2.1.956l-.536.256a1.442,1.442,0,0,1-.192.083.889.889,0,0,1,.165-.1l.512-.273c.441-.245,1.141-.575,2.06-.99a46.5,46.5,0,0,1,8.673-2.739,59.933,59.933,0,0,1,14.53-1.311,47.178,47.178,0,0,1,8.561.987,17.005,17.005,0,0,1,2.086.572A3.288,3.288,0,0,1,142,249.9c.31.446.124.981-.406,1.349a5.907,5.907,0,0,1-1.988.813,12.412,12.412,0,0,1-1.48.27c-.5.073-1,.129-1.5.176-1,.092-2,.148-3,.16a56.972,56.972,0,0,1-5.806-.226c-1.875-.157-3.678-.377-5.421-.6l-1.3-.167a6.678,6.678,0,0,1-1.274-.256,1.776,1.776,0,0,1-.534-.263.421.421,0,0,1-.195-.4c.065-.3.472-.477.8-.615a21.442,21.442,0,0,1,8.8-1.257,19.262,19.262,0,0,1,6.7,1.509l.122.055-.138.039a14.209,14.209,0,0,1-5.438.428,9.482,9.482,0,0,1-1.855-.365" transform="translate(-21.928 -52.233)" fill="#263238"/>
        <path id="Trazado_206245" data-name="Trazado 206245" d="M181.386,245.513a1.051,1.051,0,0,1,.3.376,1.7,1.7,0,0,1,.2,1.122c-.1.963-1.15,2.228-2.961,3.262a16,16,0,0,1-2.766,1.322,17.807,17.807,0,0,1-2.669.728c-.8.152-1.472.227-1.934.272a4.576,4.576,0,0,1-.729.035c-.013-.039,1.021-.119,2.572-.447a18.691,18.691,0,0,0,2.57-.749,16.645,16.645,0,0,0,2.683-1.3c1.772-1.014,2.806-2.213,2.971-3.134a2.431,2.431,0,0,0-.237-1.484" transform="translate(-36.08 -51.854)" fill="#263238"/>
        <path id="Trazado_206246" data-name="Trazado 206246" d="M241.566,252.786c-.035.017-.428-.316-1.4-.764a14.34,14.34,0,0,0-4.756-1.206,18.74,18.74,0,0,0-3.621.059,27.331,27.331,0,0,1-4.244.219,12.065,12.065,0,0,1-4.225-1.164,18.922,18.922,0,0,0-4.245-1.416,27.233,27.233,0,0,0-9.428-.082,31.442,31.442,0,0,0-6.975,1.987,40.378,40.378,0,0,0-4.045,1.94l-1.032.573a2.689,2.689,0,0,1-.373.193,2.018,2.018,0,0,1,.318-.222c.217-.142.547-.345.984-.6a34.655,34.655,0,0,1,3.99-2,30.883,30.883,0,0,1,7.038-2.054,27.569,27.569,0,0,1,9.65.071,19.267,19.267,0,0,1,4.342,1.45,11.579,11.579,0,0,0,4.042,1.136,27.273,27.273,0,0,0,4.154-.2,19,19,0,0,1,3.713-.033,13.829,13.829,0,0,1,4.808,1.29,5.322,5.322,0,0,1,1.3.826" transform="translate(-41.655 -52.348)" fill="#263238"/>
        <path id="Trazado_206247" data-name="Trazado 206247" d="M302.387,245.217a2.205,2.205,0,0,1-.332.256c-.237.159-.548.413-1.04.695a29.219,29.219,0,0,1-4.439,2.217,48.5,48.5,0,0,1-7.7,2.4c-1.539.352-3.2.667-4.966.891a44.717,44.717,0,0,1-5.556.4,46.438,46.438,0,0,1-10.542-1.233,47.271,47.271,0,0,1-7.661-2.443,30.377,30.377,0,0,1-4.407-2.237c-.489-.283-.8-.535-1.041-.693a2.2,2.2,0,0,1-.334-.255,2.993,2.993,0,0,1,.392.227c.256.15.588.392,1.09.665a34.016,34.016,0,0,0,4.458,2.173,48.712,48.712,0,0,0,7.633,2.383,46.538,46.538,0,0,0,10.407,1.2,44.728,44.728,0,0,0,5.478-.392c1.748-.219,3.393-.527,4.921-.87a50.112,50.112,0,0,0,7.676-2.341,32.536,32.536,0,0,0,4.487-2.153c.5-.272.832-.517,1.088-.666a2.919,2.919,0,0,1,.39-.229" transform="translate(-53.724 -51.791)" fill="#263238"/>
        <path id="Trazado_206248" data-name="Trazado 206248" d="M298.284,245.127a1.165,1.165,0,0,1-.259.118c-.178.07-.437.177-.788.3-.691.254-1.724.6-3.046.969a49.123,49.123,0,0,1-4.812,1.1,36.494,36.494,0,0,1-6.278.6,42.546,42.546,0,0,1-11.148-1.584c-1.322-.375-2.344-.73-3.02-1-.345-.128-.594-.243-.768-.316a1.071,1.071,0,0,1-.25-.124c.018-.013.4.129,1.1.372s1.731.577,3.056.932a44.36,44.36,0,0,0,11.031,1.507,37.074,37.074,0,0,0,6.177-.578c1.856-.315,3.471-.7,4.8-1.05s2.373-.674,3.086-.906,1.105-.362,1.122-.348" transform="translate(-56.585 -51.772)" fill="#263238"/>
        <path id="Trazado_206249" data-name="Trazado 206249" d="M359.626,246.041c0,.007-.211.008-.605,0l-1.716-.035-1.236-.031-1.476,0c-1.058,0-2.261-.015-3.59.02l-2.085.037-2.249.085c-1.559.044-3.195.164-4.928.259-3.436.244-7.163.588-10.951,1.066s-7.224,1.066-10.258,1.647c-1.476.312-2.924.586-4.171.9l-1.839.431-1.623.429c-1.057.265-1.929.536-2.712.769l-1.092.323-.865.29-1.212.4a3.417,3.417,0,0,1-.457.129,1.627,1.627,0,0,1,.359-.158l1.128-.426.828-.3,1.063-.338c.764-.243,1.621-.524,2.668-.8l1.611-.443,1.832-.445c1.244-.318,2.694-.6,4.175-.92,3.045-.6,6.521-1.182,10.331-1.677s7.594-.824,11.069-1.06c1.753-.091,3.406-.205,4.984-.242l2.273-.074,2.105-.023c1.341-.026,2.554,0,3.619.011l1.482.021,1.24.049,1.709.076a5.842,5.842,0,0,1,.589.04" transform="translate(-64.748 -51.921)" fill="#263238"/>
        <path id="Trazado_206250" data-name="Trazado 206250" d="M243.985,252.27a11.308,11.308,0,0,0-1.673-1.119,20.67,20.67,0,0,0-6.127-1.925c-1.427-.252-3.038-.439-4.782-.593s-3.623-.278-5.59-.469-4-.5-6.072-.856-4.215-.72-6.477-.879a46.562,46.562,0,0,0-12.618.98c-1.861.383-3.559.844-5.133,1.3s-3.014.9-4.323,1.316c-2.617.833-4.7,1.541-6.137,2.034l-1.652.569-.433.146a.882.882,0,0,1-.154.043.623.623,0,0,1,.133-.062l.413-.163c.365-.141.908-.346,1.615-.6,1.414-.514,3.478-1.243,6.082-2.094,1.3-.424,2.741-.88,4.313-1.342s3.279-.932,5.155-1.323a46.726,46.726,0,0,1,12.785-1.007c2.3.162,4.467.54,6.537.891s4.069.677,6.026.862,3.83.323,5.58.487,3.373.36,4.813.625a19.947,19.947,0,0,1,6.149,2.008,5.583,5.583,0,0,1,1.571,1.177" transform="translate(-38.611 -51.983)" fill="#263238"/>
        <path id="Trazado_206251" data-name="Trazado 206251" d="M169.443,245.267c.02,0,.028.172-.044.477a3.816,3.816,0,0,1-.595,1.262,9.751,9.751,0,0,1-4.674,3.362,45.933,45.933,0,0,1-6.927,1.793c-.926.173-1.683.3-2.211.374a6.1,6.1,0,0,1-.831.1,5.893,5.893,0,0,1,.788-.175l2.166-.436a51.933,51.933,0,0,0,6.81-1.828,10.316,10.316,0,0,0,4.633-3.242,7.06,7.06,0,0,0,.885-1.683" transform="translate(-32.56 -51.802)" fill="#263238"/>
        <path id="Trazado_206252" data-name="Trazado 206252" d="M84.045,252.632a5.033,5.033,0,0,1,.74-.4c.489-.25,1.229-.591,2.165-1a79.2,79.2,0,0,1,7.755-2.809c3.16-.977,6.112-1.757,8.255-2.311,1.072-.276,1.944-.494,2.549-.641a8.288,8.288,0,0,1,.958-.208,7.2,7.2,0,0,1-.9.282l-2.5.7c-2.112.588-5.04,1.388-8.188,2.361s-5.875,1.967-7.778,2.745c-.952.387-1.714.71-2.23.939a6.571,6.571,0,0,1-.833.337" transform="translate(-17.751 -51.802)" fill="#263238"/>
        <path id="Trazado_206253" data-name="Trazado 206253" d="M89.545,245.633c0,.024-.7-.05-1.962,0a22.5,22.5,0,0,0-5.073.867,57.849,57.849,0,0,0-6.59,2.486c-1.214.5-2.515,1.01-3.968,1.446a34.205,34.205,0,0,1-4.746,1.027,77.221,77.221,0,0,1-9.713.656c-3.007.05-5.708.016-7.971.068s-4.084.17-5.33.293c-.622.065-1.105.118-1.429.161a4.554,4.554,0,0,1-.5.051,4.072,4.072,0,0,1,.484-.092c.319-.057.8-.123,1.42-.2,1.245-.15,3.075-.3,5.346-.361s4.978-.054,7.971-.114a78.872,78.872,0,0,0,9.63-.666,34.235,34.235,0,0,0,4.669-1.006c1.431-.426,2.723-.929,3.938-1.421a55.971,55.971,0,0,1,6.676-2.463,22.05,22.05,0,0,1,5.18-.816c.639-.014,1.135,0,1.468.028a4.535,4.535,0,0,1,.5.051" transform="translate(-8.926 -51.861)" fill="#263238"/>
      </g>
    </g>
    <g id="Grupo_147325" data-name="Grupo 147325">
      <rect id="Rectángulo_38359" data-name="Rectángulo 38359" width="315" height="200.833" fill="none"/>
    </g>
  </g>
</svg>
