<svg id="Grupo_146987" data-name="Grupo 146987" xmlns="http://www.w3.org/2000/svg" xmlns:xlink="http://www.w3.org/1999/xlink" width="263.922" height="75.778" viewBox="0 0 263.922 75.778">
  <defs>
    <clipPath id="clip-path">
      <rect id="Rectángulo_37566" data-name="Rectángulo 37566" width="263.922" height="75.778" fill="none"/>
    </clipPath>
  </defs>
  <g id="Grupo_145774" data-name="Grupo 145774" transform="translate(0 0)">
    <g id="Grupo_145773" data-name="Grupo 145773" clip-path="url(#clip-path)">
      <path id="Trazado_202261" data-name="Trazado 202261" d="M282.4,72.711H94.546A13.666,13.666,0,0,1,80.88,59.044V26.506A13.666,13.666,0,0,1,94.546,12.84H282.4a13.666,13.666,0,0,1,13.666,13.666V59.044A13.666,13.666,0,0,1,282.4,72.711" transform="translate(-32.145 -5.103)" fill="#3740a5"/>
      <path id="Trazado_202262" data-name="Trazado 202262" d="M37.889,0A37.889,37.889,0,1,0,75.778,37.889,37.89,37.89,0,0,0,37.889,0m0,62a3.445,3.445,0,1,1,3.445-3.445A3.445,3.445,0,0,1,37.889,62m6.49-40.989L41.313,48.588a3.444,3.444,0,0,1-6.848,0L31.4,21.011a6.544,6.544,0,0,1,1.629-5.074,6.73,6.73,0,0,1,9.516-.2c.07.067.138.134.2.2A6.544,6.544,0,0,1,44.379,21.011Z" transform="translate(0 0)" fill="#0043ff"/>
    </g>
  </g>
  <text id="_Importante_" data-name="¡Importante!" transform="translate(90.967 43.427)" fill="#fff" font-size="22" font-family="Roboto-Bold, Roboto" font-weight="700"><tspan x="0" y="0" letter-spacing="0.049em">¡Impo</tspan><tspan y="0" letter-spacing="0.058em">r</tspan><tspan y="0" letter-spacing="0.049em">tant</tspan><tspan y="0" letter-spacing="0.05em">e</tspan><tspan y="0">!</tspan></text>
</svg>
