<svg xmlns="http://www.w3.org/2000/svg" width="1240" height="348.334" viewBox="0 0 1240 348.334">
  <g id="Grupo_147321" data-name="Grupo 147321" transform="translate(0)">
    <path id="Trazado_205303" data-name="Trazado 205303" d="M310.325,127.854H310.3l-21.871-16.295-21.9,16.295h-.025A84.037,84.037,0,0,0,182.5,43.82h-.1L166.15,21.974,181.243,1.637,179.12.051c1.1-.026,2.2-.051,3.3-.051h.077A127.826,127.826,0,0,1,310.325,127.854" fill="#b1eee9"/>
    <path id="Trazado_205304" data-name="Trazado 205304" d="M182.4,43.823a84.045,84.045,0,0,0-77.718,52.263l-26.37,6.72L64.073,79.583A127.875,127.875,0,0,1,179.119.048l2.125,1.591-15.09,20.338Z" fill="#7de2db"/>
    <path id="Trazado_205305" data-name="Trazado 205305" d="M170.749,211.049h-85.3a127.172,127.172,0,0,1-30.8-83.061v-.131a127.466,127.466,0,0,1,9.427-48.274l14.236,23.223,26.369-6.72a83.853,83.853,0,0,0-6.21,31.771v.131a84.049,84.049,0,0,0,72.281,83.061" fill="#c4fbf8"/>
    <path id="Trazado_205306" data-name="Trazado 205306" d="M310.325,127.854A127.829,127.829,0,0,1,182.548,255.683v.2H84.738v-.128l16.295-21.923-16.295-21.9v-.895h86.017a84.618,84.618,0,0,0,11.742.818h.051a83.958,83.958,0,0,0,83.957-84.008h.025l21.9-16.295L310.3,127.854Z" fill="#5ddbd2"/>
    <path id="Trazado_205307" data-name="Trazado 205307" d="M101.034,233.837l-16.3,21.923v.128H0V211.044H84.739v.9Z" fill="#0ccbc3"/>
    <path id="Trazado_205308" data-name="Trazado 205308" d="M329.9,267.789v-8.478a3.424,3.424,0,0,0-3.424-3.424H182.548v-.2a127.553,127.553,0,0,0,97-44.639h46.921a3.424,3.424,0,0,0,3.424-3.424v-8.452a3.424,3.424,0,0,1,5.291-2.87l52.741,34.31a3.425,3.425,0,0,1,0,5.741l-52.741,34.31a3.424,3.424,0,0,1-5.291-2.87" fill="#73b9b6"/>
    <path id="Trazado_205309" data-name="Trazado 205309" d="M63.652,79.853l-.106-.166.841-.539.107.166Z"/>
    <path id="Trazado_205310" data-name="Trazado 205310" d="M725.435,127.854h-.026l-21.871-16.295-21.9,16.295h-.025A84.037,84.037,0,0,0,597.607,43.82h-.1L581.26,21.974,596.353,1.637,594.23.051c1.1-.026,2.2-.051,3.3-.051h.077A127.826,127.826,0,0,1,725.435,127.854" fill="#daeec6"/>
    <path id="Trazado_205311" data-name="Trazado 205311" d="M597.505,43.823a84.045,84.045,0,0,0-77.718,52.263l-26.37,6.72L479.182,79.583A127.875,127.875,0,0,1,594.228.048l2.126,1.591L581.263,21.977Z" fill="#b9e291"/>
    <path id="Trazado_205312" data-name="Trazado 205312" d="M585.858,211.049h-85.3a127.172,127.172,0,0,1-30.8-83.061v-.131a127.466,127.466,0,0,1,9.427-48.274l14.236,23.223,26.369-6.72a83.853,83.853,0,0,0-6.21,31.771v.131a84.049,84.049,0,0,0,72.281,83.061" fill="#e8fbd7"/>
    <path id="Trazado_205313" data-name="Trazado 205313" d="M725.435,127.854A127.829,127.829,0,0,1,597.658,255.683v.2H491.7v-.128L508,233.836l-16.3-21.9v-.895h94.164a84.619,84.619,0,0,0,11.742.818h.051a83.958,83.958,0,0,0,83.957-84.008h.025l21.9-16.295,21.871,16.295Z" fill="#a5db70"/>
    <path id="Trazado_205314" data-name="Trazado 205314" d="M508,233.837,491.7,255.76v.128H415.109V211.044H491.7v.9Z" fill="#d1f7af"/>
    <path id="Trazado_205315" data-name="Trazado 205315" d="M745.005,267.789v-8.478a3.424,3.424,0,0,0-3.424-3.424H597.657v-.2a127.553,127.553,0,0,0,97-44.639h46.921a3.424,3.424,0,0,0,3.424-3.424v-8.452a3.424,3.424,0,0,1,5.291-2.87l52.741,34.31a3.425,3.425,0,0,1,0,5.741L750.3,270.659a3.424,3.424,0,0,1-5.291-2.87" fill="#9db983"/>
    <path id="Trazado_205316" data-name="Trazado 205316" d="M1160.841,127.854h-.026l-21.871-16.295-21.9,16.295h-.025a84.037,84.037,0,0,0-84.008-84.034h-.1l-16.244-21.846,15.093-20.337L1029.636.051c1.1-.026,2.2-.051,3.3-.051h.077a127.826,127.826,0,0,1,127.828,127.854" fill="#003dc8"/>
    <path id="Trazado_205317" data-name="Trazado 205317" d="M1032.912,43.823a84.045,84.045,0,0,0-77.718,52.263l-26.37,6.72L914.589,79.583A127.875,127.875,0,0,1,1029.635.048l2.126,1.591L1016.67,21.977Z" fill="#265edb"/>
    <path id="Trazado_205318" data-name="Trazado 205318" d="M1021.265,211.049H935.959a127.172,127.172,0,0,1-30.8-83.061v-.131a127.467,127.467,0,0,1,9.428-48.274l14.236,23.223,26.368-6.72a83.871,83.871,0,0,0-6.209,31.771v.131a84.048,84.048,0,0,0,72.281,83.061" fill="#003dc8"/>
    <path id="Trazado_205319" data-name="Trazado 205319" d="M1160.841,127.854a127.829,127.829,0,0,1-127.777,127.829v.2H927.107v-.128L943.4,233.836l-16.295-21.9v-.895h94.164a84.618,84.618,0,0,0,11.742.818h.051a83.958,83.958,0,0,0,83.957-84.008h.025l21.9-16.295,21.871,16.295Z" fill="#265edb"/>
    <path id="Trazado_205320" data-name="Trazado 205320" d="M943.4,233.837l-16.3,21.923v.128H850.516V211.044h76.591v.9Z" fill="#16328b"/>
    <path id="Trazado_205321" data-name="Trazado 205321" d="M1180.412,267.789v-8.478a3.424,3.424,0,0,0-3.424-3.424H1033.064v-.2a127.553,127.553,0,0,0,97-44.639h46.921a3.424,3.424,0,0,0,3.424-3.424v-8.452a3.424,3.424,0,0,1,5.291-2.87l52.74,34.31a3.424,3.424,0,0,1,0,5.741l-52.74,34.31a3.424,3.424,0,0,1-5.291-2.87" fill="#002a93"/>
    <path id="Trazado_205322" data-name="Trazado 205322" d="M1144.629,348.334a3.589,3.589,0,0,1-3.586-3.587v-5.164a.587.587,0,0,0-.586-.586H65.714v-.286a6.069,6.069,0,0,1-3.587-2.863c-3.3-5.235-3.3-17.271.012-23.416,1.644-3.053,3.651-3.727,5.046-3.754H1140.457a.587.587,0,0,0,.586-.586v-5.149a3.586,3.586,0,0,1,5.542-3.005l32.13,20.9a3.586,3.586,0,0,1,0,6.012l-32.129,20.9a3.575,3.575,0,0,1-1.956.581M68.714,336H1140.457a3.589,3.589,0,0,1,3.586,3.586v5.164a.567.567,0,0,0,.307.516.574.574,0,0,0,.6-.025l32.129-20.9a.586.586,0,0,0,0-.983l-32.13-20.9a.554.554,0,0,0-.6-.024.562.562,0,0,0-.307.514v5.149a3.59,3.59,0,0,1-3.586,3.586H67.214c-1.049.02-1.9,1.195-2.434,2.176-2.794,5.189-2.856,16.052-.116,20.392,1.072,1.7,2.141,1.644,2.476,1.628l1.574-.078Z" fill="#213b82"/>
    <rect id="Rectángulo_38217" data-name="Rectángulo 38217" width="0.999" height="0.197" transform="translate(478.655 79.686) rotate(-32.567)"/>
    <path id="Trazado_205323" data-name="Trazado 205323" d="M146.158,128.88a2.023,2.023,0,0,0-.764-1.682,9.507,9.507,0,0,0-2.682-1.246,25.567,25.567,0,0,1-3.138-1.247q-3.966-1.947-3.965-5.351a4.8,4.8,0,0,1,.988-2.991,6.392,6.392,0,0,1,2.794-2.017,10.877,10.877,0,0,1,4.063-.722,9.51,9.51,0,0,1,3.943.785,6.239,6.239,0,0,1,2.711,2.235,5.824,5.824,0,0,1,.967,3.312h-4.9a2.463,2.463,0,0,0-.764-1.932,2.973,2.973,0,0,0-2.066-.687,3.35,3.35,0,0,0-2.08.581,1.711,1.711,0,0,0,.077,2.9,10.564,10.564,0,0,0,2.956,1.318,18.013,18.013,0,0,1,3.473,1.464,5.837,5.837,0,0,1,3.307,5.253,4.979,4.979,0,0,1-2.018,4.2,8.97,8.97,0,0,1-5.533,1.527,11,11,0,0,1-4.49-.889,6.762,6.762,0,0,1-3.025-2.438,6.353,6.353,0,0,1-1.016-3.565h4.931a3.131,3.131,0,0,0,.847,2.417,4.011,4.011,0,0,0,2.753.777,3.165,3.165,0,0,0,1.926-.525,1.735,1.735,0,0,0,.708-1.478"/>
    <path id="Trazado_205324" data-name="Trazado 205324" d="M167.451,126.834a9.15,9.15,0,0,1-1.59,5.639,5.1,5.1,0,0,1-4.294,2.108,4.369,4.369,0,0,1-3.432-1.527v7.074h-4.721V119.144h4.413l.139,1.4a4.372,4.372,0,0,1,3.573-1.682,5.138,5.138,0,0,1,4.356,2.067,9.251,9.251,0,0,1,1.556,5.68Zm-4.721-.294q0-4.034-2.354-4.034a2.22,2.22,0,0,0-2.241,1.2v5.968a2.291,2.291,0,0,0,2.269,1.26q2.256,0,2.326-3.894Z"/>
    <path id="Trazado_205325" data-name="Trazado 205325" d="M178.7,123.416l-1.555-.112q-2.228,0-2.857,1.4v9.6h-4.722V119.144h4.427l.154,1.947a3.656,3.656,0,0,1,3.321-2.228,4.64,4.64,0,0,1,1.316.168Z"/>
    <path id="Trazado_205326" data-name="Trazado 205326" d="M180.367,115.222a2.119,2.119,0,0,1,.729-1.663,3.079,3.079,0,0,1,3.782,0,2.263,2.263,0,0,1,0,3.326,3.087,3.087,0,0,1-3.782,0,2.125,2.125,0,0,1-.729-1.663m5.015,19.079h-4.734V119.144h4.734Z"/>
    <path id="Trazado_205327" data-name="Trazado 205327" d="M192.624,119.144l.154,1.779a5.14,5.14,0,0,1,4.329-2.059,4.325,4.325,0,0,1,3.538,1.415,6.735,6.735,0,0,1,1.21,4.259V134.3h-4.734v-9.567a2.557,2.557,0,0,0-.463-1.689,2.137,2.137,0,0,0-1.68-.539,2.253,2.253,0,0,0-2.06,1.093v10.7H188.2V119.144Z"/>
    <path id="Trazado_205328" data-name="Trazado 205328" d="M209.967,115.375v3.769h2.493v3.278h-2.493v6.933a1.776,1.776,0,0,0,.308,1.192,1.654,1.654,0,0,0,1.218.336,7.033,7.033,0,0,0,1.177-.084v3.376a8.728,8.728,0,0,1-2.661.406,4.952,4.952,0,0,1-3.6-1.148,4.711,4.711,0,0,1-1.162-3.489v-7.522h-1.933v-3.278h1.933v-3.769Z"/>
    <path id="Trazado_205329" data-name="Trazado 205329" d="M231.848,134.3h-4.734V119.228l-4.652,1.359V117l8.951-3.1h.435Z"/>
    <path id="Trazado_205330" data-name="Trazado 205330" d="M559.98,128.88a2.023,2.023,0,0,0-.764-1.682,9.507,9.507,0,0,0-2.682-1.246,25.569,25.569,0,0,1-3.138-1.247q-3.966-1.947-3.965-5.351a4.8,4.8,0,0,1,.988-2.991,6.392,6.392,0,0,1,2.794-2.017,10.877,10.877,0,0,1,4.063-.722,9.509,9.509,0,0,1,3.943.785,6.239,6.239,0,0,1,2.711,2.235,5.824,5.824,0,0,1,.967,3.312h-4.9a2.463,2.463,0,0,0-.764-1.932,2.973,2.973,0,0,0-2.066-.687,3.35,3.35,0,0,0-2.08.581,1.711,1.711,0,0,0,.077,2.9,10.564,10.564,0,0,0,2.956,1.318,18.015,18.015,0,0,1,3.473,1.464,5.837,5.837,0,0,1,3.307,5.253,4.979,4.979,0,0,1-2.018,4.2,8.97,8.97,0,0,1-5.533,1.527,11,11,0,0,1-4.49-.889,6.762,6.762,0,0,1-3.025-2.438,6.353,6.353,0,0,1-1.016-3.565h4.931a3.131,3.131,0,0,0,.847,2.417,4.01,4.01,0,0,0,2.753.777,3.165,3.165,0,0,0,1.926-.525,1.734,1.734,0,0,0,.708-1.478"/>
    <path id="Trazado_205331" data-name="Trazado 205331" d="M581.274,126.834a9.151,9.151,0,0,1-1.59,5.639,5.1,5.1,0,0,1-4.294,2.108,4.369,4.369,0,0,1-3.432-1.527v7.074h-4.721V119.144h4.413l.139,1.4a4.372,4.372,0,0,1,3.573-1.682,5.138,5.138,0,0,1,4.356,2.067,9.251,9.251,0,0,1,1.556,5.68Zm-4.721-.294q0-4.034-2.354-4.034a2.22,2.22,0,0,0-2.241,1.2v5.968a2.291,2.291,0,0,0,2.269,1.26q2.256,0,2.326-3.894Z"/>
    <path id="Trazado_205332" data-name="Trazado 205332" d="M592.521,123.416l-1.555-.112q-2.227,0-2.857,1.4v9.6h-4.722V119.144h4.427l.154,1.947a3.655,3.655,0,0,1,3.321-2.228,4.64,4.64,0,0,1,1.316.168Z"/>
    <path id="Trazado_205333" data-name="Trazado 205333" d="M594.189,115.222a2.119,2.119,0,0,1,.729-1.663,3.079,3.079,0,0,1,3.782,0,2.261,2.261,0,0,1,0,3.326,3.087,3.087,0,0,1-3.782,0,2.125,2.125,0,0,1-.729-1.663M599.2,134.3H594.47V119.144H599.2Z"/>
    <path id="Trazado_205334" data-name="Trazado 205334" d="M606.446,119.144l.154,1.779a5.14,5.14,0,0,1,4.329-2.059,4.325,4.325,0,0,1,3.538,1.415,6.735,6.735,0,0,1,1.21,4.259V134.3h-4.734v-9.567a2.556,2.556,0,0,0-.463-1.689,2.137,2.137,0,0,0-1.68-.539,2.253,2.253,0,0,0-2.06,1.093v10.7h-4.721V119.144Z"/>
    <path id="Trazado_205335" data-name="Trazado 205335" d="M623.789,115.375v3.769h2.493v3.278h-2.493v6.933a1.776,1.776,0,0,0,.308,1.192,1.654,1.654,0,0,0,1.218.336,7.033,7.033,0,0,0,1.177-.084v3.376a8.728,8.728,0,0,1-2.661.406,4.952,4.952,0,0,1-3.6-1.148,4.711,4.711,0,0,1-1.162-3.489v-7.522h-1.933v-3.278h1.933v-3.769Z"/>
    <path id="Trazado_205336" data-name="Trazado 205336" d="M649.438,134.3H635.206v-3.082l6.555-6.892q2.422-2.759,2.424-4.384a3.052,3.052,0,0,0-.575-2,2.053,2.053,0,0,0-1.667-.686,2.077,2.077,0,0,0-1.751.917,3.773,3.773,0,0,0-.672,2.291h-4.735a6.709,6.709,0,0,1,.938-3.468,6.584,6.584,0,0,1,2.607-2.486,7.727,7.727,0,0,1,3.725-.9,7.607,7.607,0,0,1,5.092,1.527,5.448,5.448,0,0,1,1.786,4.384,6.358,6.358,0,0,1-.448,2.346,10.264,10.264,0,0,1-1.394,2.4,34.91,34.91,0,0,1-3.047,3.355l-2.633,3.039h8.027Z"/>
    <path id="Trazado_205337" data-name="Trazado 205337" d="M995.188,128.88a2.023,2.023,0,0,0-.764-1.682,9.507,9.507,0,0,0-2.682-1.246,25.565,25.565,0,0,1-3.138-1.247q-3.966-1.947-3.965-5.351a4.8,4.8,0,0,1,.988-2.991,6.392,6.392,0,0,1,2.794-2.017,10.877,10.877,0,0,1,4.063-.722,9.509,9.509,0,0,1,3.943.785,6.239,6.239,0,0,1,2.711,2.235,5.824,5.824,0,0,1,.967,3.312h-4.9a2.463,2.463,0,0,0-.764-1.932,2.973,2.973,0,0,0-2.066-.687,3.35,3.35,0,0,0-2.08.581,1.711,1.711,0,0,0,.077,2.9,10.564,10.564,0,0,0,2.956,1.318A18.013,18.013,0,0,1,996.8,123.6a5.837,5.837,0,0,1,3.307,5.253,4.979,4.979,0,0,1-2.018,4.2,8.969,8.969,0,0,1-5.533,1.527,11,11,0,0,1-4.49-.889,6.762,6.762,0,0,1-3.025-2.438,6.353,6.353,0,0,1-1.016-3.565h4.931a3.131,3.131,0,0,0,.847,2.417,4.01,4.01,0,0,0,2.753.777,3.165,3.165,0,0,0,1.926-.525,1.734,1.734,0,0,0,.708-1.478"/>
    <path id="Trazado_205338" data-name="Trazado 205338" d="M1016.482,126.834a9.151,9.151,0,0,1-1.59,5.639,5.1,5.1,0,0,1-4.294,2.108,4.369,4.369,0,0,1-3.432-1.527v7.074h-4.721V119.144h4.413l.139,1.4a4.372,4.372,0,0,1,3.573-1.682,5.138,5.138,0,0,1,4.356,2.067,9.251,9.251,0,0,1,1.556,5.68Zm-4.721-.294q0-4.034-2.354-4.034a2.22,2.22,0,0,0-2.241,1.2v5.968a2.291,2.291,0,0,0,2.269,1.26q2.256,0,2.326-3.894Z"/>
    <path id="Trazado_205339" data-name="Trazado 205339" d="M1027.729,123.416l-1.555-.112q-2.227,0-2.857,1.4v9.6h-4.722V119.144h4.427l.154,1.947a3.655,3.655,0,0,1,3.321-2.228,4.64,4.64,0,0,1,1.316.168Z"/>
    <path id="Trazado_205340" data-name="Trazado 205340" d="M1029.4,115.222a2.119,2.119,0,0,1,.729-1.663,3.079,3.079,0,0,1,3.782,0,2.263,2.263,0,0,1,0,3.326,3.087,3.087,0,0,1-3.782,0,2.125,2.125,0,0,1-.729-1.663m5.015,19.079h-4.734V119.144h4.734Z"/>
    <path id="Trazado_205341" data-name="Trazado 205341" d="M1041.654,119.144l.154,1.779a5.14,5.14,0,0,1,4.329-2.059,4.325,4.325,0,0,1,3.538,1.415,6.736,6.736,0,0,1,1.21,4.259V134.3h-4.734v-9.567a2.557,2.557,0,0,0-.463-1.689,2.137,2.137,0,0,0-1.68-.539,2.253,2.253,0,0,0-2.06,1.093v10.7h-4.721V119.144Z"/>
    <path id="Trazado_205342" data-name="Trazado 205342" d="M1059,115.375v3.769h2.493v3.278H1059v6.933a1.776,1.776,0,0,0,.308,1.192,1.654,1.654,0,0,0,1.218.336,7.031,7.031,0,0,0,1.177-.084v3.376a8.727,8.727,0,0,1-2.661.406,4.952,4.952,0,0,1-3.6-1.148,4.71,4.71,0,0,1-1.162-3.489v-7.522h-1.933v-3.278h1.933v-3.769Z"/>
    <path id="Trazado_205343" data-name="Trazado 205343" d="M1074.728,122.128h2.228a2.316,2.316,0,0,0,2.647-2.592,2.238,2.238,0,0,0-.631-1.646,2.391,2.391,0,0,0-1.779-.637,2.563,2.563,0,0,0-1.632.546,1.666,1.666,0,0,0-.693,1.358h-4.721a4.838,4.838,0,0,1,.9-2.871,5.925,5.925,0,0,1,2.487-1.969,8.527,8.527,0,0,1,3.495-.707,8.355,8.355,0,0,1,5.351,1.555,5.171,5.171,0,0,1,1.948,4.273,4.31,4.31,0,0,1-.806,2.487,5.738,5.738,0,0,1-2.347,1.9,5.5,5.5,0,0,1,2.55,1.786,4.709,4.709,0,0,1,.925,2.963,5.259,5.259,0,0,1-2.1,4.371,8.723,8.723,0,0,1-5.519,1.639,9.045,9.045,0,0,1-3.719-.764,5.814,5.814,0,0,1-2.6-2.115,5.5,5.5,0,0,1-.882-3.075h4.749a2.123,2.123,0,0,0,.757,1.625,2.665,2.665,0,0,0,1.862.687,2.793,2.793,0,0,0,1.989-.694,2.317,2.317,0,0,0,.743-1.771,2.713,2.713,0,0,0-.77-2.186,3.221,3.221,0,0,0-2.13-.644h-2.3Z"/>
    <path id="Trazado_205344" data-name="Trazado 205344" d="M8.042,235.349H6.889v3.127H4.758v-8.841h3.48a3.881,3.881,0,0,1,2.458.7,2.366,2.366,0,0,1,.886,1.972,2.887,2.887,0,0,1-.372,1.528,2.659,2.659,0,0,1-1.17.982l1.847,3.571v.091H9.6Zm-1.153-1.64H8.238a1.212,1.212,0,0,0,.913-.319,1.456,1.456,0,0,0,0-1.79,1.2,1.2,0,0,0-.91-.326H6.889Z"/>
    <path id="Trazado_205345" data-name="Trazado 205345" d="M15.954,238.6a3.374,3.374,0,0,1-2.447-.9,3.114,3.114,0,0,1-.935-2.347v-.17a4.036,4.036,0,0,1,.374-1.779,2.724,2.724,0,0,1,1.09-1.193,3.288,3.288,0,0,1,1.7-.422,2.84,2.84,0,0,1,2.185.859,3.378,3.378,0,0,1,.8,2.4v.795H14.655a1.473,1.473,0,0,0,.479.868,1.428,1.428,0,0,0,.96.316,1.838,1.838,0,0,0,1.518-.68l.935,1.1a2.6,2.6,0,0,1-1.084.841,3.654,3.654,0,0,1-1.509.312m-.231-5.234q-.9,0-1.068,1.19h2.064V234.4a1.014,1.014,0,0,0-.249-.762.992.992,0,0,0-.747-.271"/>
    <path id="Trazado_205346" data-name="Trazado 205346" d="M19.288,235.124a3.938,3.938,0,0,1,.681-2.453,2.23,2.23,0,0,1,1.876-.887,1.909,1.909,0,0,1,1.615.825l.146-.7h1.773V241H23.326v-3.073a1.9,1.9,0,0,1-1.493.668,2.212,2.212,0,0,1-1.855-.9,4.165,4.165,0,0,1-.69-2.571m2.047.127q0,1.768,1.02,1.768a.988.988,0,0,0,.971-.535v-2.6a.967.967,0,0,0-.959-.523q-.954,0-1.026,1.525Z"/>
    <path id="Trazado_205347" data-name="Trazado 205347" d="M30.449,237.765a2.111,2.111,0,0,1-1.755.832,2.07,2.07,0,0,1-1.637-.628,2.645,2.645,0,0,1-.555-1.807v-4.256h2.047v4.268a.735.735,0,0,0,.819.845,1.069,1.069,0,0,0,1-.5v-4.609h2.058v6.57H30.51Z"/>
    <path id="Trazado_205348" data-name="Trazado 205348" d="M36.728,238.6a3.374,3.374,0,0,1-2.447-.9,3.114,3.114,0,0,1-.935-2.347v-.17a4.036,4.036,0,0,1,.374-1.779,2.724,2.724,0,0,1,1.09-1.193,3.288,3.288,0,0,1,1.7-.422,2.84,2.84,0,0,1,2.185.859,3.378,3.378,0,0,1,.8,2.4v.795H35.429a1.473,1.473,0,0,0,.479.868,1.428,1.428,0,0,0,.96.316,1.838,1.838,0,0,0,1.518-.68l.935,1.1a2.6,2.6,0,0,1-1.084.841,3.654,3.654,0,0,1-1.509.312m-.231-5.234q-.9,0-1.068,1.19h2.064V234.4a1.014,1.014,0,0,0-.249-.762.992.992,0,0,0-.747-.271"/>
    <path id="Trazado_205349" data-name="Trazado 205349" d="M44.294,233.758l-.674-.049a1.209,1.209,0,0,0-1.238.608v4.159H40.335V231.9h1.919l.066.844a1.588,1.588,0,0,1,1.44-.965,2.016,2.016,0,0,1,.571.073Z"/>
    <path id="Trazado_205350" data-name="Trazado 205350" d="M45.016,230.205a.925.925,0,0,1,.316-.721,1.336,1.336,0,0,1,1.639,0,.978.978,0,0,1,0,1.442,1.335,1.335,0,0,1-1.639,0,.923.923,0,0,1-.316-.721m2.174,8.271H45.137v-6.57H47.19Z"/>
    <path id="Trazado_205351" data-name="Trazado 205351" d="M50.385,231.9l.066.771a2.261,2.261,0,0,1,1.877-.892,1.664,1.664,0,0,1,1.682.989,2.188,2.188,0,0,1,1.931-.989q2,0,2.052,2.417v4.274H55.941v-4.147a1.256,1.256,0,0,0-.17-.735.724.724,0,0,0-.619-.231.971.971,0,0,0-.9.541l.006.085v4.487H52.2v-4.134a1.313,1.313,0,0,0-.164-.748.72.72,0,0,0-.625-.231.982.982,0,0,0-.9.541v4.572H48.466V231.9Z"/>
    <path id="Trazado_205352" data-name="Trazado 205352" d="M59.146,230.205a.925.925,0,0,1,.316-.721,1.336,1.336,0,0,1,1.639,0,.978.978,0,0,1,0,1.442,1.335,1.335,0,0,1-1.639,0,.923.923,0,0,1-.316-.721m2.174,8.271H59.267v-6.57H61.32Z"/>
    <path id="Trazado_205353" data-name="Trazado 205353" d="M65.759,238.6a3.374,3.374,0,0,1-2.447-.9,3.114,3.114,0,0,1-.935-2.347v-.17a4.036,4.036,0,0,1,.374-1.779,2.724,2.724,0,0,1,1.09-1.193,3.288,3.288,0,0,1,1.7-.422,2.84,2.84,0,0,1,2.185.859,3.378,3.378,0,0,1,.8,2.4v.795H64.46a1.473,1.473,0,0,0,.479.868,1.428,1.428,0,0,0,.96.316,1.838,1.838,0,0,0,1.518-.68l.935,1.1a2.6,2.6,0,0,1-1.084.841,3.654,3.654,0,0,1-1.509.312m-.231-5.234q-.9,0-1.068,1.19h2.064V234.4a1.014,1.014,0,0,0-.249-.762.992.992,0,0,0-.747-.271"/>
    <path id="Trazado_205354" data-name="Trazado 205354" d="M71.23,231.9l.066.771a2.232,2.232,0,0,1,1.877-.892,1.876,1.876,0,0,1,1.534.613,2.933,2.933,0,0,1,.525,1.846v4.232H73.179v-4.147a1.109,1.109,0,0,0-.2-.732.927.927,0,0,0-.728-.234.975.975,0,0,0-.893.474v4.639H69.311V231.9Z"/>
    <path id="Trazado_205355" data-name="Trazado 205355" d="M78.747,230.273v1.633h1.081v1.421H78.747v3.006a.767.767,0,0,0,.134.516.715.715,0,0,0,.528.146,3.154,3.154,0,0,0,.51-.036v1.462a3.755,3.755,0,0,1-1.153.176,2.144,2.144,0,0,1-1.561-.5,2.038,2.038,0,0,1-.5-1.512v-3.26h-.838v-1.421H76.7v-1.633Z"/>
    <path id="Trazado_205356" data-name="Trazado 205356" d="M80.192,235.13a3.878,3.878,0,0,1,.383-1.752,2.734,2.734,0,0,1,1.1-1.181,3.309,3.309,0,0,1,1.681-.413,3.019,3.019,0,0,1,2.325.914,3.5,3.5,0,0,1,.851,2.487v.072a3.4,3.4,0,0,1-.854,2.438,3.023,3.023,0,0,1-2.31.9,3.063,3.063,0,0,1-2.253-.841,3.289,3.289,0,0,1-.916-2.28Zm2.047.127a2.447,2.447,0,0,0,.285,1.336.951.951,0,0,0,.844.426q1.092,0,1.117-1.683v-.206q0-1.767-1.129-1.768-1.026,0-1.111,1.525Z"/>
    <path id="Trazado_205357" data-name="Trazado 205357" d="M90.874,236.63a.474.474,0,0,0-.273-.419,4.158,4.158,0,0,0-1.039-.328,4.735,4.735,0,0,1-1.262-.446,2.145,2.145,0,0,1-.76-.671,1.607,1.607,0,0,1-.261-.906,1.817,1.817,0,0,1,.747-1.49,3.081,3.081,0,0,1,1.955-.586,3.412,3.412,0,0,1,2.089.589,1.841,1.841,0,0,1,.789,1.549H90.808q0-.789-.832-.79a.823.823,0,0,0-.541.18.551.551,0,0,0-.218.446.51.51,0,0,0,.266.443,2.544,2.544,0,0,0,.854.28,7.289,7.289,0,0,1,1.029.26,1.872,1.872,0,0,1,1.482,1.828,1.721,1.721,0,0,1-.8,1.463,3.5,3.5,0,0,1-2.068.565,3.562,3.562,0,0,1-1.505-.3,2.512,2.512,0,0,1-1.033-.825,1.873,1.873,0,0,1-.37-1.1h1.912a.793.793,0,0,0,.3.665,1.246,1.246,0,0,0,.747.21.981.981,0,0,0,.629-.17.542.542,0,0,0,.209-.443"/>
    <path id="Trazado_205358" data-name="Trazado 205358" d="M128.345,240.749v-10.73H131.8a5.1,5.1,0,0,1,2.558.645,4.529,4.529,0,0,1,1.772,1.821,5.493,5.493,0,0,1,.645,2.635v.493a5.521,5.521,0,0,1-.623,2.642,4.538,4.538,0,0,1-1.754,1.827,4.959,4.959,0,0,1-2.524.667Zm2.587-8.732v6.742h.9a2.007,2.007,0,0,0,1.709-.792,3.872,3.872,0,0,0,.6-2.354v-.464a3.842,3.842,0,0,0-.6-2.344,2.047,2.047,0,0,0-1.739-.788Z"/>
    <path id="Trazado_205359" data-name="Trazado 205359" d="M137.97,230.712a1.114,1.114,0,0,1,.383-.875,1.622,1.622,0,0,1,1.99,0,1.191,1.191,0,0,1,0,1.75,1.622,1.622,0,0,1-1.99,0,1.119,1.119,0,0,1-.383-.875m2.638,10.037h-2.491v-7.974h2.491Z"/>
    <path id="Trazado_205360" data-name="Trazado 205360" d="M146.312,238.509a.575.575,0,0,0-.331-.509,5.042,5.042,0,0,0-1.261-.4,5.784,5.784,0,0,1-1.533-.542,2.572,2.572,0,0,1-.921-.815,1.943,1.943,0,0,1-.316-1.1,2.2,2.2,0,0,1,.906-1.81,3.733,3.733,0,0,1,2.373-.711,4.135,4.135,0,0,1,2.535.715,2.235,2.235,0,0,1,.958,1.879h-2.491q0-.959-1.01-.958a.994.994,0,0,0-.655.218.671.671,0,0,0-.266.541.618.618,0,0,0,.325.538,3.055,3.055,0,0,0,1.035.339,8.878,8.878,0,0,1,1.249.317,2.27,2.27,0,0,1,1.8,2.218,2.09,2.09,0,0,1-.97,1.776,4.25,4.25,0,0,1-2.509.686,4.347,4.347,0,0,1-1.828-.368,3.079,3.079,0,0,1-1.253-1,2.274,2.274,0,0,1-.449-1.334h2.321a.96.96,0,0,0,.369.807,1.517,1.517,0,0,0,.906.254,1.191,1.191,0,0,0,.763-.206.662.662,0,0,0,.254-.538"/>
    <path id="Trazado_205361" data-name="Trazado 205361" d="M153.726,240.9a4.1,4.1,0,0,1-2.97-1.1,3.782,3.782,0,0,1-1.135-2.848v-.207a4.9,4.9,0,0,1,.453-2.159,3.323,3.323,0,0,1,1.323-1.448,4,4,0,0,1,2.064-.512,3.452,3.452,0,0,1,2.653,1.043,4.1,4.1,0,0,1,.973,2.907v.965h-4.938a1.785,1.785,0,0,0,.582,1.054,1.731,1.731,0,0,0,1.164.384,2.234,2.234,0,0,0,1.843-.826l1.135,1.341a3.17,3.17,0,0,1-1.316,1.021,4.441,4.441,0,0,1-1.831.38m-.28-6.353q-1.092,0-1.3,1.444h2.506V235.8a1.23,1.23,0,0,0-.3-.925,1.2,1.2,0,0,0-.906-.328"/>
    <path id="Trazado_205362" data-name="Trazado 205362" d="M160.366,232.775l.081.936a2.7,2.7,0,0,1,2.277-1.083,2.277,2.277,0,0,1,1.861.744,3.54,3.54,0,0,1,.637,2.24v5.137h-2.491v-5.033a1.347,1.347,0,0,0-.243-.889,1.125,1.125,0,0,0-.884-.283,1.184,1.184,0,0,0-1.084.575v5.63h-2.483v-7.974Zm4.119-3.287a2.146,2.146,0,0,1-.49,1.426,1.521,1.521,0,0,1-1.212.586,2.381,2.381,0,0,1-1.083-.31,2.267,2.267,0,0,0-.966-.309.552.552,0,0,0-.4.162.672.672,0,0,0-.166.5l-1.378-.075a2.161,2.161,0,0,1,.49-1.415,1.5,1.5,0,0,1,1.2-.6,2.5,2.5,0,0,1,.966.272,5.971,5.971,0,0,0,.756.31,1.5,1.5,0,0,0,.335.037.563.563,0,0,0,.405-.164.679.679,0,0,0,.17-.507Z"/>
    <path id="Trazado_205363" data-name="Trazado 205363" d="M166.283,236.689a4.711,4.711,0,0,1,.464-2.126,3.32,3.32,0,0,1,1.334-1.434,4.018,4.018,0,0,1,2.041-.5,3.665,3.665,0,0,1,2.823,1.11,4.253,4.253,0,0,1,1.032,3.017v.088a4.136,4.136,0,0,1-1.035,2.959,4.155,4.155,0,0,1-5.539.074,3.991,3.991,0,0,1-1.113-2.767Zm2.484.154a2.969,2.969,0,0,0,.346,1.622,1.153,1.153,0,0,0,1.024.516q1.328,0,1.357-2.041v-.251q0-2.145-1.372-2.145-1.245,0-1.348,1.85Z"/>
    <path id="Trazado_205364" data-name="Trazado 205364" d="M280.278,238.759h4.5v1.99h-7.09v-10.73h2.587Z"/>
    <path id="Trazado_205365" data-name="Trazado 205365" d="M290.249,240.749a2.817,2.817,0,0,1-.237-.715,2.309,2.309,0,0,1-1.916.863,2.831,2.831,0,0,1-1.916-.682,2.17,2.17,0,0,1-.788-1.714,2.232,2.232,0,0,1,.958-1.96,4.881,4.881,0,0,1,2.785-.663h.767v-.422q0-1.1-.951-1.1a.777.777,0,0,0-.884.874h-2.483a2.226,2.226,0,0,1,.983-1.877,4.128,4.128,0,0,1,2.51-.722,3.625,3.625,0,0,1,2.409.744,2.585,2.585,0,0,1,.907,2.041v3.53a3.61,3.61,0,0,0,.339,1.681v.125Zm-1.556-1.621a1.387,1.387,0,0,0,.771-.2,1.251,1.251,0,0,0,.438-.449V237.2h-.723q-1.3,0-1.3,1.165a.714.714,0,0,0,.229.549.827.827,0,0,0,.582.21"/>
    <path id="Trazado_205366" data-name="Trazado 205366" d="M296.049,232.775l.081.936a2.7,2.7,0,0,1,2.277-1.083,2.276,2.276,0,0,1,1.861.744,3.54,3.54,0,0,1,.637,2.24v5.137h-2.491v-5.034a1.346,1.346,0,0,0-.243-.888,1.125,1.125,0,0,0-.884-.283,1.185,1.185,0,0,0-1.084.575v5.63H293.72v-7.974Z"/>
    <path id="Trazado_205367" data-name="Trazado 205367" d="M305.209,238.833h3.633v1.916h-6.773v-1.386l3.537-4.672h-3.381v-1.916h6.536v1.341Z"/>
    <path id="Trazado_205368" data-name="Trazado 205368" d="M314.539,240.749a2.817,2.817,0,0,1-.237-.715,2.309,2.309,0,0,1-1.916.863,2.831,2.831,0,0,1-1.916-.682,2.17,2.17,0,0,1-.788-1.714,2.232,2.232,0,0,1,.958-1.96,4.881,4.881,0,0,1,2.785-.663h.767v-.422q0-1.1-.951-1.1a.777.777,0,0,0-.884.874h-2.483a2.226,2.226,0,0,1,.983-1.877,4.128,4.128,0,0,1,2.51-.722,3.625,3.625,0,0,1,2.409.744,2.585,2.585,0,0,1,.907,2.041v3.53a3.609,3.609,0,0,0,.339,1.681v.125Zm-1.556-1.621a1.387,1.387,0,0,0,.771-.2,1.251,1.251,0,0,0,.438-.449V237.2h-.723q-1.3,0-1.3,1.165a.714.714,0,0,0,.229.549.827.827,0,0,0,.582.21"/>
    <path id="Trazado_205369" data-name="Trazado 205369" d="M320.4,232.775l.081.936a2.74,2.74,0,0,1,2.276-1.083,2.018,2.018,0,0,1,2.042,1.2,2.653,2.653,0,0,1,2.344-1.2q2.424,0,2.49,2.932v5.189h-2.49v-5.034a1.512,1.512,0,0,0-.207-.891.877.877,0,0,0-.751-.28,1.175,1.175,0,0,0-1.1.656l.007.1v5.447h-2.491V235.73a1.591,1.591,0,0,0-.2-.906.876.876,0,0,0-.759-.28,1.191,1.191,0,0,0-1.091.656v5.549h-2.483v-7.974Z"/>
    <path id="Trazado_205370" data-name="Trazado 205370" d="M331.039,230.712a1.115,1.115,0,0,1,.384-.875,1.621,1.621,0,0,1,1.989,0,1.189,1.189,0,0,1,0,1.75,1.621,1.621,0,0,1-1.989,0,1.12,1.12,0,0,1-.384-.875m2.639,10.037h-2.491v-7.974h2.491Z"/>
    <path id="Trazado_205371" data-name="Trazado 205371" d="M339.065,240.9a4.1,4.1,0,0,1-2.97-1.1,3.782,3.782,0,0,1-1.135-2.848v-.207a4.9,4.9,0,0,1,.453-2.159,3.323,3.323,0,0,1,1.323-1.448,4,4,0,0,1,2.064-.512,3.452,3.452,0,0,1,2.653,1.043,4.1,4.1,0,0,1,.973,2.907v.965h-4.938a1.785,1.785,0,0,0,.582,1.054,1.731,1.731,0,0,0,1.164.384,2.234,2.234,0,0,0,1.843-.826l1.135,1.341a3.17,3.17,0,0,1-1.316,1.021,4.441,4.441,0,0,1-1.831.38m-.28-6.353q-1.092,0-1.3,1.444h2.506V235.8a1.23,1.23,0,0,0-.3-.925,1.2,1.2,0,0,0-.906-.328"/>
    <path id="Trazado_205372" data-name="Trazado 205372" d="M345.7,232.775l.081.936a2.7,2.7,0,0,1,2.277-1.083,2.276,2.276,0,0,1,1.861.744,3.54,3.54,0,0,1,.637,2.24v5.137H348.07v-5.034a1.346,1.346,0,0,0-.243-.888,1.125,1.125,0,0,0-.884-.283,1.185,1.185,0,0,0-1.084.575v5.63h-2.483v-7.974Z"/>
    <path id="Trazado_205373" data-name="Trazado 205373" d="M354.828,230.793v1.982h1.312V234.5h-1.312v3.647a.933.933,0,0,0,.162.627.872.872,0,0,0,.642.177,3.5,3.5,0,0,0,.619-.045v1.777a4.6,4.6,0,0,1-1.4.214,2.6,2.6,0,0,1-1.894-.6,2.479,2.479,0,0,1-.611-1.835V234.5h-1.017v-1.725h1.017v-1.982Z"/>
    <path id="Trazado_205374" data-name="Trazado 205374" d="M356.582,236.689a4.711,4.711,0,0,1,.464-2.126,3.32,3.32,0,0,1,1.334-1.434,4.018,4.018,0,0,1,2.041-.5,3.664,3.664,0,0,1,2.823,1.11,4.253,4.253,0,0,1,1.032,3.017v.088a4.136,4.136,0,0,1-1.035,2.959,4.155,4.155,0,0,1-5.539.074,3.991,3.991,0,0,1-1.113-2.767Zm2.484.154a2.969,2.969,0,0,0,.346,1.622,1.153,1.153,0,0,0,1.024.516q1.328,0,1.357-2.041v-.251q0-2.145-1.372-2.145-1.245,0-1.348,1.85Z"/>
    <path id="Trazado_205375" data-name="Trazado 205375" d="M691.962,238.759h4.5v1.99h-7.09v-10.73h2.587Z"/>
    <path id="Trazado_205376" data-name="Trazado 205376" d="M701.933,240.749a2.817,2.817,0,0,1-.237-.715,2.309,2.309,0,0,1-1.916.863,2.831,2.831,0,0,1-1.916-.682,2.17,2.17,0,0,1-.788-1.714,2.232,2.232,0,0,1,.958-1.96,4.881,4.881,0,0,1,2.785-.663h.767v-.422q0-1.1-.951-1.1a.777.777,0,0,0-.884.874h-2.483a2.226,2.226,0,0,1,.983-1.877,4.128,4.128,0,0,1,2.51-.722,3.625,3.625,0,0,1,2.409.744,2.585,2.585,0,0,1,.907,2.041v3.53a3.609,3.609,0,0,0,.339,1.681v.125Zm-1.556-1.621a1.387,1.387,0,0,0,.771-.2,1.251,1.251,0,0,0,.438-.449V237.2h-.723q-1.3,0-1.3,1.165a.714.714,0,0,0,.229.549.827.827,0,0,0,.582.21"/>
    <path id="Trazado_205377" data-name="Trazado 205377" d="M707.732,232.775l.081.936a2.7,2.7,0,0,1,2.277-1.083,2.276,2.276,0,0,1,1.861.744,3.54,3.54,0,0,1,.637,2.24v5.137H710.1v-5.034a1.346,1.346,0,0,0-.243-.888,1.125,1.125,0,0,0-.884-.283,1.185,1.185,0,0,0-1.084.575v5.63H705.4v-7.974Z"/>
    <path id="Trazado_205378" data-name="Trazado 205378" d="M716.892,238.833h3.633v1.916h-6.773v-1.386l3.537-4.672h-3.381v-1.916h6.536v1.341Z"/>
    <path id="Trazado_205379" data-name="Trazado 205379" d="M726.223,240.749a2.814,2.814,0,0,1-.237-.715,2.309,2.309,0,0,1-1.916.863,2.831,2.831,0,0,1-1.916-.682,2.17,2.17,0,0,1-.788-1.714,2.232,2.232,0,0,1,.958-1.96,4.882,4.882,0,0,1,2.785-.663h.767v-.422q0-1.1-.951-1.1a.777.777,0,0,0-.884.874h-2.483a2.226,2.226,0,0,1,.983-1.877,4.128,4.128,0,0,1,2.51-.722,3.625,3.625,0,0,1,2.409.744,2.585,2.585,0,0,1,.907,2.041v3.53a3.61,3.61,0,0,0,.339,1.681v.125Zm-1.556-1.621a1.387,1.387,0,0,0,.771-.2,1.251,1.251,0,0,0,.438-.449V237.2h-.723q-1.3,0-1.3,1.165a.714.714,0,0,0,.229.549.827.827,0,0,0,.582.21"/>
    <path id="Trazado_205380" data-name="Trazado 205380" d="M732.089,232.775l.081.936a2.74,2.74,0,0,1,2.276-1.083,2.018,2.018,0,0,1,2.042,1.2,2.653,2.653,0,0,1,2.344-1.2q2.424,0,2.49,2.932v5.189h-2.49v-5.034a1.512,1.512,0,0,0-.207-.891.877.877,0,0,0-.751-.28,1.175,1.175,0,0,0-1.1.656l.007.1v5.447h-2.491V235.73a1.591,1.591,0,0,0-.2-.906.876.876,0,0,0-.759-.28,1.191,1.191,0,0,0-1.091.656v5.549H729.76v-7.974Z"/>
    <path id="Trazado_205381" data-name="Trazado 205381" d="M742.722,230.712a1.115,1.115,0,0,1,.384-.875,1.622,1.622,0,0,1,1.99,0,1.191,1.191,0,0,1,0,1.75,1.622,1.622,0,0,1-1.99,0,1.12,1.12,0,0,1-.384-.875m2.639,10.037H742.87v-7.974h2.491Z"/>
    <path id="Trazado_205382" data-name="Trazado 205382" d="M750.749,240.9a4.1,4.1,0,0,1-2.97-1.1,3.782,3.782,0,0,1-1.135-2.848v-.207a4.9,4.9,0,0,1,.453-2.159,3.323,3.323,0,0,1,1.323-1.448,4,4,0,0,1,2.064-.512,3.452,3.452,0,0,1,2.653,1.043,4.1,4.1,0,0,1,.973,2.907v.965h-4.938a1.785,1.785,0,0,0,.582,1.054,1.731,1.731,0,0,0,1.164.384,2.234,2.234,0,0,0,1.843-.826L753.9,239.5a3.17,3.17,0,0,1-1.316,1.021,4.441,4.441,0,0,1-1.831.38m-.28-6.353q-1.092,0-1.3,1.444h2.506V235.8a1.23,1.23,0,0,0-.3-.925,1.2,1.2,0,0,0-.906-.328"/>
    <path id="Trazado_205383" data-name="Trazado 205383" d="M757.388,232.775l.081.936a2.7,2.7,0,0,1,2.277-1.083,2.276,2.276,0,0,1,1.861.744,3.54,3.54,0,0,1,.637,2.24v5.137h-2.491v-5.034a1.346,1.346,0,0,0-.243-.888,1.125,1.125,0,0,0-.884-.283,1.185,1.185,0,0,0-1.084.575v5.63h-2.483v-7.974Z"/>
    <path id="Trazado_205384" data-name="Trazado 205384" d="M766.511,230.793v1.982h1.312V234.5h-1.312v3.647a.934.934,0,0,0,.162.627.872.872,0,0,0,.642.177,3.5,3.5,0,0,0,.619-.045v1.777a4.6,4.6,0,0,1-1.4.214,2.6,2.6,0,0,1-1.894-.6,2.479,2.479,0,0,1-.611-1.835V234.5h-1.017v-1.725h1.017v-1.982Z"/>
    <path id="Trazado_205385" data-name="Trazado 205385" d="M768.266,236.689a4.711,4.711,0,0,1,.464-2.126,3.32,3.32,0,0,1,1.334-1.434,4.018,4.018,0,0,1,2.041-.5,3.664,3.664,0,0,1,2.823,1.11,4.253,4.253,0,0,1,1.032,3.017v.088a4.136,4.136,0,0,1-1.035,2.959,4.155,4.155,0,0,1-5.539.074,3.991,3.991,0,0,1-1.113-2.767Zm2.484.154a2.969,2.969,0,0,0,.346,1.622,1.153,1.153,0,0,0,1.024.516q1.328,0,1.357-2.041v-.251q0-2.145-1.372-2.145-1.245,0-1.348,1.85Z"/>
    <path id="Trazado_205386" data-name="Trazado 205386" d="M1125.031,238.759h4.5v1.99h-7.09v-10.73h2.587Z" fill="#fff"/>
    <path id="Trazado_205387" data-name="Trazado 205387" d="M1135,240.749a2.814,2.814,0,0,1-.237-.715,2.309,2.309,0,0,1-1.916.863,2.832,2.832,0,0,1-1.916-.682,2.17,2.17,0,0,1-.788-1.714,2.232,2.232,0,0,1,.958-1.96,4.881,4.881,0,0,1,2.785-.663h.767v-.422q0-1.1-.951-1.1a.777.777,0,0,0-.884.874h-2.483a2.226,2.226,0,0,1,.983-1.877,4.128,4.128,0,0,1,2.51-.722,3.625,3.625,0,0,1,2.409.744,2.585,2.585,0,0,1,.907,2.041v3.53a3.609,3.609,0,0,0,.339,1.681v.125Zm-1.556-1.621a1.387,1.387,0,0,0,.771-.2,1.251,1.251,0,0,0,.438-.449V237.2h-.723q-1.3,0-1.3,1.165a.714.714,0,0,0,.229.549.827.827,0,0,0,.582.21" fill="#fff"/>
    <path id="Trazado_205388" data-name="Trazado 205388" d="M1140.8,232.775l.08.936a2.7,2.7,0,0,1,2.277-1.083,2.278,2.278,0,0,1,1.862.744,3.546,3.546,0,0,1,.636,2.24v5.137h-2.49v-5.034a1.346,1.346,0,0,0-.244-.888,1.125,1.125,0,0,0-.884-.283,1.186,1.186,0,0,0-1.084.575v5.63h-2.483v-7.974Z" fill="#fff"/>
    <path id="Trazado_205389" data-name="Trazado 205389" d="M1149.962,238.833h3.633v1.916h-6.773v-1.386l3.537-4.672h-3.381v-1.916h6.536v1.341Z" fill="#fff"/>
    <path id="Trazado_205390" data-name="Trazado 205390" d="M1159.292,240.749a2.814,2.814,0,0,1-.237-.715,2.309,2.309,0,0,1-1.916.863,2.831,2.831,0,0,1-1.916-.682,2.17,2.17,0,0,1-.788-1.714,2.232,2.232,0,0,1,.958-1.96,4.882,4.882,0,0,1,2.785-.663h.767v-.422q0-1.1-.951-1.1a.777.777,0,0,0-.884.874h-2.483a2.226,2.226,0,0,1,.983-1.877,4.128,4.128,0,0,1,2.51-.722,3.625,3.625,0,0,1,2.409.744,2.585,2.585,0,0,1,.907,2.041v3.53a3.609,3.609,0,0,0,.339,1.681v.125Zm-1.556-1.621a1.387,1.387,0,0,0,.771-.2,1.25,1.25,0,0,0,.438-.449V237.2h-.723q-1.3,0-1.3,1.165a.713.713,0,0,0,.229.549.827.827,0,0,0,.582.21" fill="#fff"/>
    <path id="Trazado_205391" data-name="Trazado 205391" d="M1165.158,232.775l.081.936a2.74,2.74,0,0,1,2.276-1.083,2.018,2.018,0,0,1,2.042,1.2,2.653,2.653,0,0,1,2.344-1.2q2.424,0,2.49,2.932v5.189h-2.49v-5.034a1.511,1.511,0,0,0-.207-.891.877.877,0,0,0-.751-.28,1.175,1.175,0,0,0-1.1.656l.007.1v5.447h-2.491V235.73a1.59,1.59,0,0,0-.2-.906.876.876,0,0,0-.759-.28,1.191,1.191,0,0,0-1.091.656v5.549h-2.483v-7.974Z" fill="#fff"/>
    <path id="Trazado_205392" data-name="Trazado 205392" d="M1175.792,230.712a1.115,1.115,0,0,1,.384-.875,1.621,1.621,0,0,1,1.989,0,1.189,1.189,0,0,1,0,1.75,1.621,1.621,0,0,1-1.989,0,1.12,1.12,0,0,1-.384-.875m2.638,10.037h-2.491v-7.974h2.491Z" fill="#fff"/>
    <path id="Trazado_205393" data-name="Trazado 205393" d="M1183.818,240.9a4.1,4.1,0,0,1-2.97-1.1,3.782,3.782,0,0,1-1.135-2.848v-.207a4.9,4.9,0,0,1,.453-2.159,3.323,3.323,0,0,1,1.323-1.448,4,4,0,0,1,2.064-.512,3.452,3.452,0,0,1,2.653,1.043,4.1,4.1,0,0,1,.973,2.907v.965h-4.938a1.785,1.785,0,0,0,.582,1.054,1.731,1.731,0,0,0,1.164.384,2.234,2.234,0,0,0,1.843-.826l1.135,1.341a3.169,3.169,0,0,1-1.316,1.021,4.441,4.441,0,0,1-1.831.38m-.28-6.353q-1.092,0-1.3,1.444h2.506V235.8a1.23,1.23,0,0,0-.3-.925,1.2,1.2,0,0,0-.906-.328" fill="#fff"/>
    <path id="Trazado_205394" data-name="Trazado 205394" d="M1190.458,232.775l.081.936a2.7,2.7,0,0,1,2.277-1.083,2.276,2.276,0,0,1,1.861.744,3.539,3.539,0,0,1,.637,2.24v5.137h-2.491v-5.034a1.346,1.346,0,0,0-.243-.888,1.125,1.125,0,0,0-.884-.283,1.185,1.185,0,0,0-1.084.575v5.63h-2.483v-7.974Z" fill="#fff"/>
    <path id="Trazado_205395" data-name="Trazado 205395" d="M1199.581,230.793v1.982h1.312V234.5h-1.312v3.647a.933.933,0,0,0,.162.627.872.872,0,0,0,.642.177,3.5,3.5,0,0,0,.619-.045v1.777a4.6,4.6,0,0,1-1.4.214,2.6,2.6,0,0,1-1.894-.6,2.479,2.479,0,0,1-.611-1.835V234.5h-1.017v-1.725h1.017v-1.982Z" fill="#fff"/>
    <path id="Trazado_205396" data-name="Trazado 205396" d="M1201.335,236.689a4.711,4.711,0,0,1,.464-2.126,3.32,3.32,0,0,1,1.334-1.434,4.017,4.017,0,0,1,2.041-.5,3.664,3.664,0,0,1,2.823,1.11,4.253,4.253,0,0,1,1.032,3.017v.088a4.136,4.136,0,0,1-1.035,2.959,4.155,4.155,0,0,1-5.539.074,3.99,3.99,0,0,1-1.113-2.767Zm2.484.154a2.969,2.969,0,0,0,.346,1.622,1.153,1.153,0,0,0,1.024.516q1.328,0,1.357-2.041v-.251q0-2.145-1.372-2.145-1.245,0-1.348,1.85Z" fill="#fff"/>
    <path id="Trazado_205397" data-name="Trazado 205397" d="M444.952,237.108v3.641h-2.587V230.018h4.282a4.984,4.984,0,0,1,2.177.454,3.412,3.412,0,0,1,1.467,1.289,3.519,3.519,0,0,1,.519,1.9,3.1,3.1,0,0,1-1.124,2.51,4.664,4.664,0,0,1-3.084.939Zm0-2h1.7a1.6,1.6,0,0,0,1.146-.376,1.394,1.394,0,0,0,.394-1.061,1.73,1.73,0,0,0-.4-1.2,1.437,1.437,0,0,0-1.105-.456h-1.725Z"/>
    <rect id="Rectángulo_38218" data-name="Rectángulo 38218" width="2.491" height="11.319" transform="translate(452.203 229.43)"/>
    <path id="Trazado_205398" data-name="Trazado 205398" d="M460.716,240.749a2.817,2.817,0,0,1-.237-.715,2.309,2.309,0,0,1-1.916.863,2.831,2.831,0,0,1-1.916-.682,2.17,2.17,0,0,1-.788-1.714,2.232,2.232,0,0,1,.958-1.96,4.881,4.881,0,0,1,2.785-.663h.767v-.422q0-1.1-.951-1.1a.777.777,0,0,0-.884.874h-2.483a2.226,2.226,0,0,1,.983-1.877,4.128,4.128,0,0,1,2.51-.722,3.625,3.625,0,0,1,2.409.744,2.584,2.584,0,0,1,.907,2.041v3.53a3.61,3.61,0,0,0,.339,1.681v.125Zm-1.556-1.621a1.387,1.387,0,0,0,.771-.2,1.251,1.251,0,0,0,.438-.449V237.2h-.723q-1.3,0-1.3,1.165a.714.714,0,0,0,.229.549.827.827,0,0,0,.582.21"/>
    <path id="Trazado_205399" data-name="Trazado 205399" d="M466.515,232.775l.081.936a2.7,2.7,0,0,1,2.277-1.083,2.276,2.276,0,0,1,1.861.744,3.54,3.54,0,0,1,.637,2.24v5.137H468.88v-5.034a1.346,1.346,0,0,0-.243-.888,1.125,1.125,0,0,0-.884-.283,1.185,1.185,0,0,0-1.084.575v5.63h-2.483v-7.974Z"/>
    <path id="Trazado_205400" data-name="Trazado 205400" d="M876.952,237.108v3.641h-2.587V230.018h4.282a4.983,4.983,0,0,1,2.177.454,3.413,3.413,0,0,1,1.467,1.289,3.52,3.52,0,0,1,.519,1.9,3.1,3.1,0,0,1-1.124,2.51,4.664,4.664,0,0,1-3.084.939Zm0-2h1.695a1.6,1.6,0,0,0,1.146-.376,1.394,1.394,0,0,0,.394-1.061,1.73,1.73,0,0,0-.405-1.2,1.437,1.437,0,0,0-1.1-.456h-1.725Z" fill="#fff"/>
    <rect id="Rectángulo_38219" data-name="Rectángulo 38219" width="2.491" height="11.319" transform="translate(884.203 229.43)" fill="#fff"/>
    <path id="Trazado_205401" data-name="Trazado 205401" d="M892.716,240.749a2.817,2.817,0,0,1-.237-.715,2.309,2.309,0,0,1-1.916.863,2.831,2.831,0,0,1-1.916-.682,2.17,2.17,0,0,1-.788-1.714,2.232,2.232,0,0,1,.958-1.96,4.881,4.881,0,0,1,2.785-.663h.767v-.422q0-1.1-.951-1.1a.777.777,0,0,0-.884.874h-2.483a2.226,2.226,0,0,1,.983-1.877,4.128,4.128,0,0,1,2.51-.722,3.625,3.625,0,0,1,2.409.744,2.584,2.584,0,0,1,.907,2.041v3.53a3.61,3.61,0,0,0,.339,1.681v.125Zm-1.556-1.621a1.387,1.387,0,0,0,.771-.2,1.251,1.251,0,0,0,.438-.449V237.2h-.723q-1.3,0-1.3,1.165a.714.714,0,0,0,.229.549.827.827,0,0,0,.582.21" fill="#fff"/>
    <path id="Trazado_205402" data-name="Trazado 205402" d="M898.515,232.775l.081.936a2.7,2.7,0,0,1,2.277-1.083,2.276,2.276,0,0,1,1.861.744,3.54,3.54,0,0,1,.637,2.24v5.137H900.88v-5.034a1.346,1.346,0,0,0-.243-.888,1.125,1.125,0,0,0-.884-.283,1.185,1.185,0,0,0-1.084.575v5.63h-2.483v-7.974Z" fill="#fff"/>
    <path id="Trazado_205403" data-name="Trazado 205403" d="M528.617,240.749v-10.73h3.456a5.1,5.1,0,0,1,2.558.645,4.529,4.529,0,0,1,1.772,1.821,5.492,5.492,0,0,1,.645,2.635v.493a5.52,5.52,0,0,1-.623,2.642,4.538,4.538,0,0,1-1.754,1.827,4.959,4.959,0,0,1-2.524.667Zm2.587-8.732v6.742h.9a2.007,2.007,0,0,0,1.709-.792,3.872,3.872,0,0,0,.6-2.354v-.464a3.843,3.843,0,0,0-.6-2.344,2.047,2.047,0,0,0-1.739-.788Z"/>
    <path id="Trazado_205404" data-name="Trazado 205404" d="M538.241,230.712a1.115,1.115,0,0,1,.384-.875,1.621,1.621,0,0,1,1.989,0,1.189,1.189,0,0,1,0,1.75,1.621,1.621,0,0,1-1.989,0,1.12,1.12,0,0,1-.384-.875m2.639,10.037h-2.491v-7.974h2.491Z"/>
    <path id="Trazado_205405" data-name="Trazado 205405" d="M546.584,238.509a.574.574,0,0,0-.331-.509,5.041,5.041,0,0,0-1.261-.4,5.784,5.784,0,0,1-1.533-.542,2.572,2.572,0,0,1-.921-.815,1.943,1.943,0,0,1-.316-1.1,2.2,2.2,0,0,1,.906-1.81,3.733,3.733,0,0,1,2.373-.711,4.135,4.135,0,0,1,2.535.715,2.235,2.235,0,0,1,.958,1.879H546.5q0-.959-1.01-.958a.994.994,0,0,0-.655.218.671.671,0,0,0-.266.541.619.619,0,0,0,.325.538,3.056,3.056,0,0,0,1.035.339,8.879,8.879,0,0,1,1.249.317,2.27,2.27,0,0,1,1.8,2.218,2.09,2.09,0,0,1-.97,1.776,4.25,4.25,0,0,1-2.509.686,4.347,4.347,0,0,1-1.828-.368,3.079,3.079,0,0,1-1.253-1,2.274,2.274,0,0,1-.449-1.334h2.321a.96.96,0,0,0,.369.807,1.517,1.517,0,0,0,.906.254,1.192,1.192,0,0,0,.763-.206.662.662,0,0,0,.254-.538"/>
    <path id="Trazado_205406" data-name="Trazado 205406" d="M554,240.9a4.1,4.1,0,0,1-2.97-1.1,3.782,3.782,0,0,1-1.135-2.848v-.207a4.9,4.9,0,0,1,.453-2.159,3.322,3.322,0,0,1,1.323-1.448,4,4,0,0,1,2.064-.512,3.452,3.452,0,0,1,2.653,1.043,4.1,4.1,0,0,1,.973,2.907v.965h-4.938A1.785,1.785,0,0,0,553,238.6a1.731,1.731,0,0,0,1.164.384,2.234,2.234,0,0,0,1.843-.826l1.135,1.341a3.17,3.17,0,0,1-1.316,1.021,4.441,4.441,0,0,1-1.831.38m-.28-6.353q-1.092,0-1.3,1.444h2.506V235.8a1.23,1.23,0,0,0-.3-.925,1.2,1.2,0,0,0-.906-.328"/>
    <path id="Trazado_205407" data-name="Trazado 205407" d="M560.638,232.775l.081.936A2.7,2.7,0,0,1,563,232.628a2.277,2.277,0,0,1,1.861.744,3.54,3.54,0,0,1,.637,2.24v5.137H563v-5.033a1.347,1.347,0,0,0-.243-.889,1.125,1.125,0,0,0-.884-.283,1.184,1.184,0,0,0-1.084.575v5.63h-2.483v-7.974Zm4.119-3.287a2.146,2.146,0,0,1-.49,1.426,1.521,1.521,0,0,1-1.212.586,2.381,2.381,0,0,1-1.083-.31,2.267,2.267,0,0,0-.966-.309.552.552,0,0,0-.4.162.672.672,0,0,0-.166.5l-1.378-.075a2.161,2.161,0,0,1,.49-1.415,1.5,1.5,0,0,1,1.2-.6,2.5,2.5,0,0,1,.966.272,5.973,5.973,0,0,0,.756.31,1.5,1.5,0,0,0,.335.037.563.563,0,0,0,.4-.164.679.679,0,0,0,.17-.507Z"/>
    <path id="Trazado_205408" data-name="Trazado 205408" d="M566.555,236.689a4.711,4.711,0,0,1,.464-2.126,3.32,3.32,0,0,1,1.334-1.434,4.018,4.018,0,0,1,2.041-.5,3.664,3.664,0,0,1,2.823,1.11,4.253,4.253,0,0,1,1.032,3.017v.088a4.136,4.136,0,0,1-1.035,2.959,4.155,4.155,0,0,1-5.539.074,3.991,3.991,0,0,1-1.113-2.767Zm2.484.154a2.969,2.969,0,0,0,.346,1.622,1.153,1.153,0,0,0,1.024.516q1.328,0,1.357-2.041v-.251q0-2.145-1.372-2.145-1.245,0-1.348,1.85Z"/>
    <path id="Trazado_205409" data-name="Trazado 205409" d="M964.024,240.749v-10.73h3.456a5.1,5.1,0,0,1,2.558.645,4.53,4.53,0,0,1,1.772,1.821,5.493,5.493,0,0,1,.645,2.635v.493a5.52,5.52,0,0,1-.623,2.642,4.538,4.538,0,0,1-1.754,1.827,4.959,4.959,0,0,1-2.524.667Zm2.587-8.732v6.742h.9a2.007,2.007,0,0,0,1.709-.792,3.872,3.872,0,0,0,.6-2.354v-.464a3.843,3.843,0,0,0-.6-2.344,2.046,2.046,0,0,0-1.739-.788Z" fill="#fff"/>
    <path id="Trazado_205410" data-name="Trazado 205410" d="M973.648,230.712a1.115,1.115,0,0,1,.384-.875,1.621,1.621,0,0,1,1.989,0,1.189,1.189,0,0,1,0,1.75,1.621,1.621,0,0,1-1.989,0,1.12,1.12,0,0,1-.384-.875m2.639,10.037H973.8v-7.974h2.491Z" fill="#fff"/>
    <path id="Trazado_205411" data-name="Trazado 205411" d="M981.991,238.509a.575.575,0,0,0-.331-.509,5.041,5.041,0,0,0-1.261-.4,5.784,5.784,0,0,1-1.533-.542,2.571,2.571,0,0,1-.921-.815,1.943,1.943,0,0,1-.316-1.1,2.2,2.2,0,0,1,.906-1.81,3.733,3.733,0,0,1,2.373-.711,4.135,4.135,0,0,1,2.535.715,2.235,2.235,0,0,1,.958,1.879H981.91q0-.959-1.01-.958a.994.994,0,0,0-.655.218.671.671,0,0,0-.266.541.618.618,0,0,0,.325.538,3.055,3.055,0,0,0,1.035.339,8.879,8.879,0,0,1,1.249.317,2.27,2.27,0,0,1,1.8,2.218,2.09,2.09,0,0,1-.97,1.776,4.25,4.25,0,0,1-2.509.686,4.347,4.347,0,0,1-1.828-.368,3.078,3.078,0,0,1-1.253-1,2.274,2.274,0,0,1-.449-1.334H979.7a.96.96,0,0,0,.369.807,1.517,1.517,0,0,0,.906.254,1.191,1.191,0,0,0,.763-.206.662.662,0,0,0,.254-.538" fill="#fff"/>
    <path id="Trazado_205412" data-name="Trazado 205412" d="M989.405,240.9a4.1,4.1,0,0,1-2.97-1.1,3.782,3.782,0,0,1-1.135-2.848v-.207a4.9,4.9,0,0,1,.453-2.159,3.323,3.323,0,0,1,1.323-1.448,4,4,0,0,1,2.064-.512,3.452,3.452,0,0,1,2.653,1.043,4.1,4.1,0,0,1,.973,2.907v.965h-4.938a1.785,1.785,0,0,0,.582,1.054,1.731,1.731,0,0,0,1.164.384,2.234,2.234,0,0,0,1.843-.826l1.135,1.341a3.17,3.17,0,0,1-1.316,1.021,4.441,4.441,0,0,1-1.831.38m-.28-6.353q-1.092,0-1.3,1.444h2.506V235.8a1.23,1.23,0,0,0-.3-.925,1.2,1.2,0,0,0-.906-.328" fill="#fff"/>
    <path id="Trazado_205413" data-name="Trazado 205413" d="M996.045,232.775l.081.936a2.7,2.7,0,0,1,2.277-1.083,2.277,2.277,0,0,1,1.861.744,3.539,3.539,0,0,1,.637,2.24v5.137H998.41v-5.033a1.347,1.347,0,0,0-.243-.889,1.125,1.125,0,0,0-.884-.283,1.184,1.184,0,0,0-1.084.575v5.63h-2.483v-7.974Zm4.119-3.287a2.146,2.146,0,0,1-.49,1.426,1.521,1.521,0,0,1-1.212.586,2.381,2.381,0,0,1-1.083-.31,2.267,2.267,0,0,0-.966-.309.551.551,0,0,0-.4.162.672.672,0,0,0-.166.5l-1.378-.075a2.161,2.161,0,0,1,.49-1.415,1.5,1.5,0,0,1,1.2-.6,2.5,2.5,0,0,1,.966.272,5.973,5.973,0,0,0,.756.31,1.5,1.5,0,0,0,.335.037.564.564,0,0,0,.405-.164.679.679,0,0,0,.17-.507Z" fill="#fff"/>
    <path id="Trazado_205414" data-name="Trazado 205414" d="M1001.962,236.689a4.711,4.711,0,0,1,.464-2.126,3.32,3.32,0,0,1,1.334-1.434,4.018,4.018,0,0,1,2.041-.5,3.665,3.665,0,0,1,2.823,1.11,4.253,4.253,0,0,1,1.032,3.017v.088a4.136,4.136,0,0,1-1.035,2.959,4.155,4.155,0,0,1-5.539.074,3.991,3.991,0,0,1-1.113-2.767Zm2.484.154a2.969,2.969,0,0,0,.346,1.622,1.153,1.153,0,0,0,1.024.516q1.328,0,1.357-2.041v-.251q0-2.145-1.372-2.145-1.245,0-1.348,1.85Z" fill="#fff"/>
    <path id="Trazado_205415" data-name="Trazado 205415" d="M237.534,36.281,234.9,38.789l-1.783-1.875,7.775-7.4,2.951,3.1a4.974,4.974,0,0,1,1.171,1.89,3.405,3.405,0,0,1,.077,1.952,3.51,3.51,0,0,1-1.017,1.683,3.1,3.1,0,0,1-2.594.916,4.66,4.66,0,0,1-2.8-1.588Zm1.447-1.377,1.168,1.229a1.6,1.6,0,0,0,1.061.572,1.4,1.4,0,0,0,1.042-.447,1.723,1.723,0,0,0,.591-1.122,1.438,1.438,0,0,0-.431-1.115l-1.189-1.25Z"/>
    <path id="Trazado_205416" data-name="Trazado 205416" d="M247.277,43.5l-.521-.633a1.472,1.472,0,0,0-1.571-.582l-3.658,3.479-1.711-1.8,5.777-5.5,1.606,1.689-.686.764a1.922,1.922,0,0,1,2.052.457,2.487,2.487,0,0,1,.415.564Z"/>
    <path id="Trazado_205417" data-name="Trazado 205417" d="M247.642,50.943a2.564,2.564,0,0,1-2.2-.848,2.511,2.511,0,0,1-.817-1.965,3.214,3.214,0,0,1,1.125-2l3.744-3.561,1.71,1.8-3.753,3.57a.891.891,0,0,0-.057,1.426,1.3,1.3,0,0,0,1.281.461l4.054-3.856,1.721,1.811-5.778,5.494-1.605-1.688Z"/>
    <path id="Trazado_205418" data-name="Trazado 205418" d="M252.162,57.16a4.1,4.1,0,0,1-1.254-2.906,3.782,3.782,0,0,1,1.281-2.785l.151-.143a4.91,4.91,0,0,1,1.877-1.16,3.32,3.32,0,0,1,1.96-.039,3.992,3.992,0,0,1,1.793,1.142,3.457,3.457,0,0,1,1.073,2.643,4.09,4.09,0,0,1-1.436,2.707l-.7.666-3.4-3.578a1.785,1.785,0,0,0-.364,1.148,1.739,1.739,0,0,0,.524,1.108,2.247,2.247,0,0,0,1.869.767l-.19,1.746a3.153,3.153,0,0,1-1.646-.251,4.427,4.427,0,0,1-1.537-1.065m4.41-4.58q-.751-.791-1.94.055l1.727,1.816.139-.133a1.228,1.228,0,0,0,.461-.855,1.2,1.2,0,0,0-.387-.883"/>
    <path id="Trazado_205419" data-name="Trazado 205419" d="M263.215,62.881a4.869,4.869,0,0,1-2.743,1.49,2.721,2.721,0,0,1-2.338-.929,2.357,2.357,0,0,1-.65-2.086l-.664.488-1.534-1.613,8.2-7.8,1.711,1.8-2.889,2.748a2.269,2.269,0,0,1,1.806.754,2.713,2.713,0,0,1,.81,2.4,4.88,4.88,0,0,1-1.621,2.66Zm-1.6-1.914a3.259,3.259,0,0,0,.977-1.35A1.033,1.033,0,0,0,262.3,58.6a1.193,1.193,0,0,0-1.267-.4l-2.292,2.181a1.194,1.194,0,0,0,.355,1.291,1.053,1.053,0,0,0,1.384.217,6.061,6.061,0,0,0,1.137-.918"/>
    <path id="Trazado_205420" data-name="Trazado 205420" d="M264.224,69.631a2.8,2.8,0,0,1,.356-.664,2.3,2.3,0,0,1-1.945-.8,2.82,2.82,0,0,1-.827-1.857,2.167,2.167,0,0,1,.7-1.752,2.228,2.228,0,0,1,2.081-.656,4.872,4.872,0,0,1,2.4,1.56l.529.557.3-.291q.8-.762.145-1.45a.776.776,0,0,0-1.242-.039l-1.711-1.8a2.225,2.225,0,0,1,2.037-.582,4.136,4.136,0,0,1,2.252,1.322,3.618,3.618,0,0,1,1.121,2.258,2.584,2.584,0,0,1-.854,2.064l-2.557,2.434a3.61,3.61,0,0,0-.986,1.4l-.09.086Zm.1-2.244a1.37,1.37,0,0,0,.675.42,1.254,1.254,0,0,0,.628.01l.925-.879-.5-.526a1.093,1.093,0,0,0-1.738-.136.71.71,0,0,0-.24.545.832.832,0,0,0,.249.566"/>
    <path id="Trazado_205421" data-name="Trazado 205421" d="M94.137,71.175l-6.469-8.562,2.758-2.083a5.093,5.093,0,0,1,2.43-1.027,4.528,4.528,0,0,1,2.512.384,5.5,5.5,0,0,1,2.1,1.714l.3.394a5.536,5.536,0,0,1,1.1,2.484,4.555,4.555,0,0,1-.3,2.516,4.965,4.965,0,0,1-1.611,2.052Zm-3.2-8.527L95,68.028l.719-.543a2.013,2.013,0,0,0,.887-1.661,3.893,3.893,0,0,0-.943-2.239l-.28-.371a3.842,3.842,0,0,0-1.889-1.509,2.046,2.046,0,0,0-1.863.419Z"/>
    <path id="Trazado_205422" data-name="Trazado 205422" d="M105,63.154a4.1,4.1,0,0,1-3.031.918,3.783,3.783,0,0,1-2.622-1.589l-.125-.165a4.9,4.9,0,0,1-.939-2,3.308,3.308,0,0,1,.184-1.953A3.978,3.978,0,0,1,99.8,56.717a3.449,3.449,0,0,1,2.747-.767,4.1,4.1,0,0,1,2.527,1.734l.582.769-3.941,2.977a1.79,1.79,0,0,0,1.1.489,1.735,1.735,0,0,0,1.161-.4,2.236,2.236,0,0,0,.973-1.769l1.713.386a3.175,3.175,0,0,1-.434,1.607A4.445,4.445,0,0,1,105,63.154m-4.053-4.9q-.87.658-.164,1.936l2-1.511-.115-.154a1.232,1.232,0,0,0-.8-.554,1.2,1.2,0,0,0-.921.283"/>
    <path id="Trazado_205423" data-name="Trazado 205423" d="M110.37,56.106a.577.577,0,0,0-.571-.207,5.038,5.038,0,0,0-1.245.443,5.809,5.809,0,0,1-1.551.493,2.58,2.58,0,0,1-1.226-.1,1.938,1.938,0,0,1-.914-.686,2.205,2.205,0,0,1-.368-1.99,3.742,3.742,0,0,1,1.465-2,4.137,4.137,0,0,1,2.455-.957,2.233,2.233,0,0,1,1.9.921l-1.988,1.5a.87.87,0,0,0-1.383-.156,1,1,0,0,0-.392.569.673.673,0,0,0,.115.592.614.614,0,0,0,.582.233,3.024,3.024,0,0,0,1.031-.353,8.915,8.915,0,0,1,1.188-.5,2.268,2.268,0,0,1,2.772.684,2.088,2.088,0,0,1,.3,2,4.253,4.253,0,0,1-1.589,2.061,4.352,4.352,0,0,1-1.679.807,3.056,3.056,0,0,1-1.606-.046,2.267,2.267,0,0,1-1.162-.793l1.852-1.4a.964.964,0,0,0,.782.423,1.522,1.522,0,0,0,.876-.344,1.2,1.2,0,0,0,.484-.625.661.661,0,0,0-.121-.582"/>
    <path id="Trazado_205424" data-name="Trazado 205424" d="M118.1,48.154a4.809,4.809,0,0,1,1.12,2.87,2.685,2.685,0,0,1-1.133,2.247,2.294,2.294,0,0,1-1.926.446l2.244,2.97-1.983,1.5-6.653-8.808,1.853-1.4.5.543a2.3,2.3,0,0,1,.966-1.838,2.7,2.7,0,0,1,2.485-.513,4.874,4.874,0,0,1,2.453,1.891Zm-2.076,1.373q-1.279-1.694-2.266-.948a1.168,1.168,0,0,0-.559,1.217l1.891,2.5a1.207,1.207,0,0,0,1.354-.19q.946-.716-.26-2.372Z"/>
    <rect id="Rectángulo_38220" data-name="Rectángulo 38220" width="2.491" height="11.319" transform="matrix(0.798, -0.603, 0.603, 0.798, 114.616, 41.521)"/>
    <path id="Trazado_205425" data-name="Trazado 205425" d="M127.814,45.92a4.1,4.1,0,0,1-3.031.917,3.776,3.776,0,0,1-2.622-1.588l-.124-.165a4.89,4.89,0,0,1-.939-2,3.322,3.322,0,0,1,.182-1.953,3.989,3.989,0,0,1,1.337-1.652,3.454,3.454,0,0,1,2.747-.768,4.1,4.1,0,0,1,2.529,1.735l.581.769-3.941,2.976a1.776,1.776,0,0,0,1.1.489,1.726,1.726,0,0,0,1.161-.394,2.24,2.24,0,0,0,.973-1.77l1.714.387a3.2,3.2,0,0,1-.435,1.607,4.444,4.444,0,0,1-1.232,1.406m-4.053-4.9q-.87.657-.164,1.935l2-1.511-.115-.153a1.231,1.231,0,0,0-.8-.555,1.2,1.2,0,0,0-.921.284"/>
    <path id="Trazado_205426" data-name="Trazado 205426" d="M128.532,40.122a5.4,5.4,0,0,1-.97-1.945,3.207,3.207,0,0,1,.047-1.832,3,3,0,0,1,1.078-1.447,2.4,2.4,0,0,1,2.059-.5l-.347-.6,1.8-1.36,4.625,6.122a3.371,3.371,0,0,1,.713,1.756,3.14,3.14,0,0,1-.414,1.808,5.2,5.2,0,0,1-1.465,1.629,4.487,4.487,0,0,1-1.556.76,3.08,3.08,0,0,1-1.522.069l-.051-1.791a2.278,2.278,0,0,0,1.952-.448,1.479,1.479,0,0,0,.295-2.348l-.151-.2a2.333,2.333,0,0,1-.965,1.718,2.879,2.879,0,0,1-2.555.53,4.621,4.621,0,0,1-2.518-1.842Zm2.082-1.378a2.84,2.84,0,0,0,1.229,1.016,1.165,1.165,0,0,0,1.167-.166,1.318,1.318,0,0,0,.61-1.135L131.6,35.783a1.277,1.277,0,0,0-1.25.262,1.169,1.169,0,0,0-.472,1.1,3.243,3.243,0,0,0,.738,1.6"/>
    <path id="Trazado_205427" data-name="Trazado 205427" d="M141.716,35.234a2.778,2.778,0,0,1-.619-.427,2.315,2.315,0,0,1-1.01,1.843,2.825,2.825,0,0,1-1.94.611,2.17,2.17,0,0,1-1.662-.893,2.229,2.229,0,0,1-.417-2.141,4.87,4.87,0,0,1,1.824-2.208l.611-.462-.255-.336q-.666-.882-1.424-.308a.777.777,0,0,0-.179,1.23l-1.98,1.5a2.23,2.23,0,0,1-.348-2.091,4.138,4.138,0,0,1,1.569-2.088,3.624,3.624,0,0,1,2.371-.859,2.59,2.59,0,0,1,1.953,1.082l2.128,2.817a3.594,3.594,0,0,0,1.284,1.137l.074.1Zm-2.219-.355a1.385,1.385,0,0,0,.494-.623,1.237,1.237,0,0,0,.079-.623l-.768-1.018-.576.436q-1.035.781-.333,1.711a.717.717,0,0,0,.513.3.83.83,0,0,0,.591-.184"/>
    <path id="Trazado_205428" data-name="Trazado 205428" d="M144.92,25.637l-.687.446c-.625.472-.875.97-.756,1.495l3.042,4.028-1.981,1.5-4.806-6.362,1.858-1.4.683.769a1.92,1.92,0,0,1,.686-1.988,2.418,2.418,0,0,1,.607-.347Z"/>
    <path id="Trazado_205429" data-name="Trazado 205429" d="M73.431,137.107l-.577-1.277L69.395,137.4l-1.067-2.357,9.776-4.425,1.742,3.846a4.722,4.722,0,0,1,.46,3.069,2.869,2.869,0,0,1-1.737,1.966,3.478,3.478,0,0,1-1.877.353,3.205,3.205,0,0,1-1.671-.8L72,142.875l-.1.046L70.754,140.4Zm1.235-2.1.674,1.49a1.468,1.468,0,0,0,.811.851,1.5,1.5,0,0,0,1.139-.108,1.52,1.52,0,0,0,.839-.792,1.456,1.456,0,0,0-.1-1.17l-.675-1.49Z"/>
    <path id="Trazado_205430" data-name="Trazado 205430" d="M73.8,147.48a4.1,4.1,0,0,1-.227-3.157,3.78,3.78,0,0,1,2.127-2.208l.188-.085a4.9,4.9,0,0,1,2.153-.479,3.324,3.324,0,0,1,1.866.609,3.991,3.991,0,0,1,1.316,1.669,3.451,3.451,0,0,1,.145,2.847,4.1,4.1,0,0,1-2.248,2.084l-.878.4-2.038-4.5a1.776,1.776,0,0,0-.719.965,1.728,1.728,0,0,0,.131,1.218,2.232,2.232,0,0,0,1.511,1.338l-.754,1.588a3.171,3.171,0,0,1-1.471-.778,4.446,4.446,0,0,1-1.1-1.512M79.47,144.6c-.3-.663-.916-.856-1.851-.586l1.035,2.283.173-.079a1.228,1.228,0,0,0,.718-.657,1.2,1.2,0,0,0-.075-.961"/>
    <path id="Trazado_205431" data-name="Trazado 205431" d="M79.7,152.981l5.092-.922,1.079,2.385-8.338.918-1.046-2.31,6.192-5.659,1.083,2.391Z"/>
    <path id="Trazado_205432" data-name="Trazado 205432" d="M79.987,160.792l-1.027-2.269,7.265-3.289,1.027,2.27Zm8.056-6.543a1.114,1.114,0,0,1,.955-.011,1.62,1.62,0,0,1,.821,1.813,1.187,1.187,0,0,1-1.594.72,1.621,1.621,0,0,1-.821-1.812,1.119,1.119,0,0,1,.639-.71"/>
    <path id="Trazado_205433" data-name="Trazado 205433" d="M84.381,165.065a.575.575,0,0,0,.327-.512,5.088,5.088,0,0,0-.157-1.312,5.776,5.776,0,0,1-.14-1.621,2.563,2.563,0,0,1,.363-1.175,1.952,1.952,0,0,1,.869-.74,2.2,2.2,0,0,1,2.022.08,3.715,3.715,0,0,1,1.626,1.867,4.133,4.133,0,0,1,.395,2.6A2.23,2.23,0,0,1,88.37,165.9l-1.028-2.27a.869.869,0,0,0,.456-1.314,1,1,0,0,0-.468-.507.67.67,0,0,0-.6-.019.615.615,0,0,0-.357.517,3.037,3.037,0,0,0,.117,1.083,8.565,8.565,0,0,1,.227,1.269,2.27,2.27,0,0,1-1.277,2.552,2.092,2.092,0,0,1-2.02-.149,4.242,4.242,0,0,1-1.658-2,4.361,4.361,0,0,1-.42-1.816,3.088,3.088,0,0,1,.4-1.556,2.274,2.274,0,0,1,1.031-.959l.957,2.114a.96.96,0,0,0-.583.67,1.508,1.508,0,0,0,.141.93,1.209,1.209,0,0,0,.5.61.665.665,0,0,0,.6.01"/>
    <path id="Trazado_205434" data-name="Trazado 205434" d="M84.886,171.615l-1.027-2.27,7.265-3.289,1.027,2.27Zm8.057-6.544a1.121,1.121,0,0,1,.955-.011,1.621,1.621,0,0,1,.82,1.813,1.187,1.187,0,0,1-1.594.72,1.625,1.625,0,0,1-.821-1.812,1.123,1.123,0,0,1,.64-.71"/>
    <path id="Trazado_205435" data-name="Trazado 205435" d="M89.087,171.047a4.71,4.71,0,0,1,2.129-.454,3.327,3.327,0,0,1,1.856.624,4,4,0,0,1,1.3,1.653,3.669,3.669,0,0,1,.155,3.029,4.253,4.253,0,0,1-2.325,2.185l-.08.036A4.135,4.135,0,0,1,89,178.4a3.679,3.679,0,0,1-2.153-2.1,3.718,3.718,0,0,1-.2-2.913,4,4,0,0,1,2.062-2.155Zm.884,2.327a2.972,2.972,0,0,0-1.335.983,1.16,1.16,0,0,0-.047,1.147q.546,1.208,2.419.393l.229-.1q1.953-.885,1.388-2.134-.515-1.134-2.241-.465Zm7.453-1.515,1.082,2.391-2.952-.912-.834-1.848Z"/>
    <path id="Trazado_205436" data-name="Trazado 205436" d="M97.218,179.518l-.819.461a2.7,2.7,0,0,1,1.925,1.627,2.273,2.273,0,0,1,.09,2,3.544,3.544,0,0,1-1.778,1.5l-4.68,2.119-1.027-2.27,4.586-2.076a1.346,1.346,0,0,0,.709-.587,1.129,1.129,0,0,0-.107-.923,1.186,1.186,0,0,0-.971-.75l-5.129,2.323-1.025-2.263,7.266-3.288Z"/>
    <path id="Trazado_205437" data-name="Trazado 205437" d="M653.494,36.281l-2.639,2.508-1.782-1.875,7.776-7.4,2.95,3.1a4.962,4.962,0,0,1,1.171,1.89,3.414,3.414,0,0,1,.077,1.952,3.508,3.508,0,0,1-1.016,1.683,3.1,3.1,0,0,1-2.594.916,4.659,4.659,0,0,1-2.807-1.588Zm1.447-1.377,1.168,1.229a1.6,1.6,0,0,0,1.062.572,1.4,1.4,0,0,0,1.041-.447,1.727,1.727,0,0,0,.591-1.122,1.435,1.435,0,0,0-.431-1.115l-1.189-1.25Z"/>
    <path id="Trazado_205438" data-name="Trazado 205438" d="M663.236,43.5l-.52-.633a1.472,1.472,0,0,0-1.571-.582l-3.657,3.479-1.712-1.8,5.778-5.5,1.6,1.689-.687.764a1.923,1.923,0,0,1,2.053.457,2.453,2.453,0,0,1,.414.564Z"/>
    <path id="Trazado_205439" data-name="Trazado 205439" d="M663.6,50.943a2.564,2.564,0,0,1-2.2-.848,2.51,2.51,0,0,1-.816-1.965,3.215,3.215,0,0,1,1.123-2l3.745-3.561,1.71,1.8-3.753,3.57a.892.892,0,0,0-.057,1.426,1.3,1.3,0,0,0,1.281.461l4.053-3.856,1.722,1.811-5.779,5.494-1.6-1.688Z"/>
    <path id="Trazado_205440" data-name="Trazado 205440" d="M668.122,57.16a4.1,4.1,0,0,1-1.253-2.906,3.775,3.775,0,0,1,1.281-2.785l.15-.143a4.911,4.911,0,0,1,1.877-1.16,3.323,3.323,0,0,1,1.961-.039,3.99,3.99,0,0,1,1.792,1.142A3.458,3.458,0,0,1,675,53.912a4.092,4.092,0,0,1-1.437,2.707l-.7.666-3.4-3.578a1.776,1.776,0,0,0-.362,1.148,1.734,1.734,0,0,0,.524,1.108,2.241,2.241,0,0,0,1.867.767l-.19,1.746a3.15,3.15,0,0,1-1.645-.251,4.417,4.417,0,0,1-1.537-1.065m4.411-4.58q-.753-.791-1.941.055l1.726,1.816.139-.133a1.228,1.228,0,0,0,.463-.855,1.211,1.211,0,0,0-.387-.883"/>
    <path id="Trazado_205441" data-name="Trazado 205441" d="M679.176,62.881a4.873,4.873,0,0,1-2.745,1.49,2.716,2.716,0,0,1-2.336-.929,2.359,2.359,0,0,1-.652-2.086l-.664.488-1.533-1.613,8.2-7.8,1.711,1.8-2.889,2.748a2.267,2.267,0,0,1,1.8.754,2.719,2.719,0,0,1,.811,2.4,4.894,4.894,0,0,1-1.622,2.66Zm-1.6-1.914a3.255,3.255,0,0,0,.976-1.35,1.037,1.037,0,0,0-.294-1.019,1.192,1.192,0,0,0-1.266-.4L674.7,60.377a1.2,1.2,0,0,0,.354,1.291,1.055,1.055,0,0,0,1.385.217,6.088,6.088,0,0,0,1.138-.918"/>
    <path id="Trazado_205442" data-name="Trazado 205442" d="M680.183,69.631a2.872,2.872,0,0,1,.356-.664,2.306,2.306,0,0,1-1.945-.8,2.835,2.835,0,0,1-.827-1.857,2.166,2.166,0,0,1,.7-1.752,2.225,2.225,0,0,1,2.08-.656,4.874,4.874,0,0,1,2.4,1.56l.528.557.306-.291q.8-.762.145-1.45a.777.777,0,0,0-1.243-.039l-1.712-1.8a2.226,2.226,0,0,1,2.038-.582,4.135,4.135,0,0,1,2.253,1.322,3.628,3.628,0,0,1,1.121,2.258,2.59,2.59,0,0,1-.854,2.064l-2.558,2.434a3.606,3.606,0,0,0-.985,1.4l-.091.086Zm.1-2.244a1.362,1.362,0,0,0,.675.42,1.254,1.254,0,0,0,.628.01l.924-.879-.5-.526q-.894-.937-1.738-.136a.722.722,0,0,0-.241.545.833.833,0,0,0,.25.566"/>
    <path id="Trazado_205443" data-name="Trazado 205443" d="M1093.733,36.281l-2.638,2.508-1.783-1.875,7.775-7.4,2.951,3.1a4.973,4.973,0,0,1,1.171,1.89,3.4,3.4,0,0,1,.077,1.952,3.511,3.511,0,0,1-1.017,1.683,3.1,3.1,0,0,1-2.594.916,4.66,4.66,0,0,1-2.805-1.588Zm1.447-1.377,1.168,1.229a1.6,1.6,0,0,0,1.061.572,1.4,1.4,0,0,0,1.042-.447,1.724,1.724,0,0,0,.591-1.122,1.438,1.438,0,0,0-.431-1.115l-1.189-1.25Z" fill="#fff"/>
    <path id="Trazado_205444" data-name="Trazado 205444" d="M1103.476,43.5l-.521-.633a1.472,1.472,0,0,0-1.571-.582l-3.658,3.479-1.711-1.8,5.777-5.5,1.606,1.689-.686.764a1.922,1.922,0,0,1,2.052.457,2.487,2.487,0,0,1,.415.564Z" fill="#fff"/>
    <path id="Trazado_205445" data-name="Trazado 205445" d="M1103.842,50.943a2.565,2.565,0,0,1-2.2-.848,2.511,2.511,0,0,1-.817-1.965,3.22,3.22,0,0,1,1.125-2l3.744-3.561,1.711,1.8-3.754,3.57a.891.891,0,0,0-.057,1.426,1.3,1.3,0,0,0,1.281.461l4.054-3.856,1.722,1.811-5.779,5.494-1.6-1.688Z" fill="#fff"/>
    <path id="Trazado_205446" data-name="Trazado 205446" d="M1108.361,57.16a4.1,4.1,0,0,1-1.254-2.906,3.782,3.782,0,0,1,1.281-2.785l.151-.143a4.911,4.911,0,0,1,1.877-1.16,3.32,3.32,0,0,1,1.96-.039,3.992,3.992,0,0,1,1.793,1.142,3.457,3.457,0,0,1,1.073,2.643,4.09,4.09,0,0,1-1.436,2.707l-.7.666-3.4-3.578a1.785,1.785,0,0,0-.364,1.148,1.739,1.739,0,0,0,.524,1.108,2.247,2.247,0,0,0,1.869.767l-.19,1.746a3.154,3.154,0,0,1-1.646-.251,4.428,4.428,0,0,1-1.537-1.065m4.41-4.58q-.751-.791-1.94.055l1.727,1.816.139-.133a1.228,1.228,0,0,0,.461-.855,1.2,1.2,0,0,0-.387-.883" fill="#fff"/>
    <path id="Trazado_205447" data-name="Trazado 205447" d="M1119.414,62.881a4.869,4.869,0,0,1-2.743,1.49,2.721,2.721,0,0,1-2.338-.929,2.358,2.358,0,0,1-.65-2.086l-.664.488-1.534-1.613,8.2-7.8,1.711,1.8-2.889,2.748a2.269,2.269,0,0,1,1.806.754,2.712,2.712,0,0,1,.81,2.4,4.879,4.879,0,0,1-1.621,2.66Zm-1.6-1.914a3.259,3.259,0,0,0,.977-1.35,1.033,1.033,0,0,0-.294-1.019,1.193,1.193,0,0,0-1.267-.4l-2.292,2.181a1.194,1.194,0,0,0,.355,1.291,1.053,1.053,0,0,0,1.384.217,6.061,6.061,0,0,0,1.137-.918" fill="#fff"/>
    <path id="Trazado_205448" data-name="Trazado 205448" d="M1120.423,69.631a2.8,2.8,0,0,1,.356-.664,2.3,2.3,0,0,1-1.945-.8,2.821,2.821,0,0,1-.827-1.857,2.168,2.168,0,0,1,.7-1.752,2.228,2.228,0,0,1,2.081-.656,4.872,4.872,0,0,1,2.4,1.56l.529.557.305-.291q.8-.762.145-1.45a.776.776,0,0,0-1.242-.039l-1.711-1.8a2.224,2.224,0,0,1,2.037-.582,4.136,4.136,0,0,1,2.252,1.322,3.618,3.618,0,0,1,1.121,2.258,2.583,2.583,0,0,1-.854,2.064l-2.557,2.434a3.612,3.612,0,0,0-.986,1.4l-.09.086Zm.1-2.244a1.37,1.37,0,0,0,.675.42,1.253,1.253,0,0,0,.628.01l.925-.879-.5-.526a1.093,1.093,0,0,0-1.738-.136.711.711,0,0,0-.24.545.832.832,0,0,0,.249.566" fill="#fff"/>
    <path id="Trazado_205449" data-name="Trazado 205449" d="M510.1,71.175l-6.469-8.562,2.758-2.083a5.1,5.1,0,0,1,2.43-1.027,4.526,4.526,0,0,1,2.512.384,5.5,5.5,0,0,1,2.1,1.714l.3.394a5.536,5.536,0,0,1,1.1,2.484,4.546,4.546,0,0,1-.3,2.516,4.965,4.965,0,0,1-1.611,2.052Zm-3.2-8.527,4.062,5.38.719-.543a2.01,2.01,0,0,0,.887-1.661,3.886,3.886,0,0,0-.943-2.239l-.28-.371a3.84,3.84,0,0,0-1.888-1.509,2.048,2.048,0,0,0-1.864.419Z"/>
    <path id="Trazado_205450" data-name="Trazado 205450" d="M520.959,63.154a4.1,4.1,0,0,1-3.03.918,3.785,3.785,0,0,1-2.623-1.589l-.125-.165a4.91,4.91,0,0,1-.939-2,3.308,3.308,0,0,1,.184-1.953,3.986,3.986,0,0,1,1.337-1.652,3.449,3.449,0,0,1,2.747-.767,4.092,4.092,0,0,1,2.527,1.734l.582.769-3.94,2.977a1.785,1.785,0,0,0,1.1.489,1.735,1.735,0,0,0,1.16-.4,2.236,2.236,0,0,0,.973-1.769l1.713.386a3.164,3.164,0,0,1-.434,1.607,4.445,4.445,0,0,1-1.232,1.406m-4.053-4.9q-.87.658-.164,1.936l2-1.511-.115-.154a1.234,1.234,0,0,0-.8-.554,1.2,1.2,0,0,0-.922.283"/>
    <path id="Trazado_205451" data-name="Trazado 205451" d="M526.33,56.106a.575.575,0,0,0-.57-.207,5.042,5.042,0,0,0-1.246.443,5.809,5.809,0,0,1-1.551.493,2.575,2.575,0,0,1-1.225-.1,1.934,1.934,0,0,1-.914-.686,2.2,2.2,0,0,1-.369-1.99,3.742,3.742,0,0,1,1.465-2,4.142,4.142,0,0,1,2.455-.957,2.233,2.233,0,0,1,1.9.921l-1.988,1.5a.87.87,0,0,0-1.383-.156,1,1,0,0,0-.392.569.673.673,0,0,0,.115.592.614.614,0,0,0,.582.233,3.024,3.024,0,0,0,1.031-.353,8.972,8.972,0,0,1,1.188-.5,2.27,2.27,0,0,1,2.773.684,2.091,2.091,0,0,1,.3,2,4.261,4.261,0,0,1-1.59,2.061,4.351,4.351,0,0,1-1.679.807,3.056,3.056,0,0,1-1.606-.046,2.267,2.267,0,0,1-1.162-.793l1.852-1.4a.965.965,0,0,0,.783.423,1.52,1.52,0,0,0,.875-.344,1.2,1.2,0,0,0,.484-.625.658.658,0,0,0-.121-.582"/>
    <path id="Trazado_205452" data-name="Trazado 205452" d="M534.056,48.154a4.817,4.817,0,0,1,1.121,2.87,2.688,2.688,0,0,1-1.134,2.247,2.293,2.293,0,0,1-1.926.446l2.244,2.97-1.983,1.5-6.652-8.808,1.852-1.4.5.543a2.3,2.3,0,0,1,.966-1.838,2.7,2.7,0,0,1,2.485-.513,4.874,4.874,0,0,1,2.453,1.891Zm-2.076,1.373q-1.278-1.694-2.266-.948a1.166,1.166,0,0,0-.558,1.217l1.89,2.5a1.207,1.207,0,0,0,1.354-.19q.946-.716-.26-2.372Z"/>
    <rect id="Rectángulo_38221" data-name="Rectángulo 38221" width="2.491" height="11.319" transform="matrix(0.798, -0.603, 0.603, 0.798, 530.577, 41.52)"/>
    <path id="Trazado_205453" data-name="Trazado 205453" d="M543.775,45.92a4.1,4.1,0,0,1-3.032.917,3.776,3.776,0,0,1-2.621-1.588L538,45.084a4.89,4.89,0,0,1-.939-2,3.322,3.322,0,0,1,.182-1.953,3.989,3.989,0,0,1,1.337-1.652,3.454,3.454,0,0,1,2.747-.768,4.1,4.1,0,0,1,2.529,1.735l.582.769-3.942,2.976a1.781,1.781,0,0,0,1.1.489,1.73,1.73,0,0,0,1.162-.394,2.24,2.24,0,0,0,.973-1.77l1.713.387a3.194,3.194,0,0,1-.434,1.607,4.456,4.456,0,0,1-1.232,1.406m-4.053-4.9q-.87.657-.164,1.935l2-1.511-.115-.153a1.231,1.231,0,0,0-.8-.555,1.2,1.2,0,0,0-.92.284"/>
    <path id="Trazado_205454" data-name="Trazado 205454" d="M544.492,40.122a5.4,5.4,0,0,1-.969-1.945,3.2,3.2,0,0,1,.047-1.832,2.988,2.988,0,0,1,1.078-1.447,2.394,2.394,0,0,1,2.059-.5l-.348-.6,1.8-1.36,4.625,6.122a3.363,3.363,0,0,1,.713,1.756,3.14,3.14,0,0,1-.414,1.808,5.2,5.2,0,0,1-1.465,1.629,4.491,4.491,0,0,1-1.555.76,3.084,3.084,0,0,1-1.523.069l-.051-1.791a2.281,2.281,0,0,0,1.953-.448,1.481,1.481,0,0,0,.3-2.348l-.152-.2a2.333,2.333,0,0,1-.965,1.718,2.878,2.878,0,0,1-2.555.53,4.616,4.616,0,0,1-2.517-1.842Zm2.082-1.378A2.846,2.846,0,0,0,547.8,39.76a1.165,1.165,0,0,0,1.167-.166,1.316,1.316,0,0,0,.61-1.135l-2.022-2.676a1.277,1.277,0,0,0-1.25.262,1.171,1.171,0,0,0-.472,1.1,3.243,3.243,0,0,0,.738,1.6"/>
    <path id="Trazado_205455" data-name="Trazado 205455" d="M557.676,35.234a2.8,2.8,0,0,1-.619-.427,2.313,2.313,0,0,1-1.01,1.843,2.823,2.823,0,0,1-1.94.611,2.171,2.171,0,0,1-1.662-.893,2.226,2.226,0,0,1-.416-2.141,4.86,4.86,0,0,1,1.823-2.208l.611-.462-.254-.336c-.445-.588-.918-.69-1.424-.308a.777.777,0,0,0-.18,1.23l-1.98,1.5a2.23,2.23,0,0,1-.348-2.091,4.139,4.139,0,0,1,1.569-2.088,3.624,3.624,0,0,1,2.371-.859,2.588,2.588,0,0,1,1.953,1.082L558.3,32.5a3.592,3.592,0,0,0,1.283,1.137l.074.1Zm-2.219-.355a1.378,1.378,0,0,0,.494-.623,1.239,1.239,0,0,0,.08-.623l-.769-1.018-.576.436q-1.035.781-.333,1.711a.717.717,0,0,0,.514.3.829.829,0,0,0,.59-.184"/>
    <path id="Trazado_205456" data-name="Trazado 205456" d="M560.881,25.637l-.687.446c-.625.472-.875.97-.756,1.495l3.041,4.028L560.5,33.1l-4.806-6.362,1.859-1.4.682.769a1.919,1.919,0,0,1,.687-1.988,2.4,2.4,0,0,1,.606-.347Z"/>
    <path id="Trazado_205457" data-name="Trazado 205457" d="M944.048,71.175l-6.469-8.562,2.758-2.083a5.094,5.094,0,0,1,2.43-1.027,4.527,4.527,0,0,1,2.512.384,5.5,5.5,0,0,1,2.1,1.714l.3.394a5.537,5.537,0,0,1,1.1,2.484,4.555,4.555,0,0,1-.3,2.516,4.964,4.964,0,0,1-1.611,2.052Zm-3.2-8.527,4.063,5.38.719-.543a2.013,2.013,0,0,0,.887-1.661,3.893,3.893,0,0,0-.943-2.239l-.28-.371a3.842,3.842,0,0,0-1.889-1.509,2.046,2.046,0,0,0-1.863.419Z" fill="#fff"/>
    <path id="Trazado_205458" data-name="Trazado 205458" d="M954.91,63.154a4.1,4.1,0,0,1-3.031.918,3.783,3.783,0,0,1-2.622-1.589l-.125-.165a4.9,4.9,0,0,1-.939-2,3.308,3.308,0,0,1,.184-1.953,3.978,3.978,0,0,1,1.337-1.652,3.449,3.449,0,0,1,2.747-.767,4.1,4.1,0,0,1,2.527,1.734l.582.769-3.941,2.977a1.79,1.79,0,0,0,1.1.489,1.736,1.736,0,0,0,1.161-.4,2.236,2.236,0,0,0,.973-1.769l1.713.386a3.175,3.175,0,0,1-.434,1.607,4.445,4.445,0,0,1-1.232,1.406m-4.053-4.9q-.87.658-.164,1.936l2-1.511-.115-.154a1.232,1.232,0,0,0-.8-.554,1.2,1.2,0,0,0-.921.283" fill="#fff"/>
    <path id="Trazado_205459" data-name="Trazado 205459" d="M960.281,56.106a.577.577,0,0,0-.571-.207,5.038,5.038,0,0,0-1.245.443,5.81,5.81,0,0,1-1.551.493,2.58,2.58,0,0,1-1.226-.1,1.938,1.938,0,0,1-.914-.686,2.205,2.205,0,0,1-.368-1.99,3.742,3.742,0,0,1,1.465-2,4.137,4.137,0,0,1,2.455-.957,2.233,2.233,0,0,1,1.9.921l-1.988,1.5a.87.87,0,0,0-1.383-.156,1,1,0,0,0-.392.569.673.673,0,0,0,.115.592.614.614,0,0,0,.582.233,3.024,3.024,0,0,0,1.031-.353,8.914,8.914,0,0,1,1.188-.5,2.268,2.268,0,0,1,2.772.684,2.088,2.088,0,0,1,.3,2,4.252,4.252,0,0,1-1.589,2.061,4.352,4.352,0,0,1-1.679.807,3.056,3.056,0,0,1-1.606-.046,2.267,2.267,0,0,1-1.162-.793l1.852-1.4a.964.964,0,0,0,.782.423,1.523,1.523,0,0,0,.876-.344,1.2,1.2,0,0,0,.484-.625.661.661,0,0,0-.121-.582" fill="#fff"/>
    <path id="Trazado_205460" data-name="Trazado 205460" d="M968.008,48.154a4.822,4.822,0,0,1,1.12,2.87,2.687,2.687,0,0,1-1.133,2.247,2.3,2.3,0,0,1-1.927.446l2.245,2.97-1.984,1.5-6.652-8.808,1.852-1.4.5.543A2.306,2.306,0,0,1,963,46.681a2.7,2.7,0,0,1,2.485-.513,4.865,4.865,0,0,1,2.453,1.891Zm-2.076,1.373q-1.281-1.694-2.267-.948a1.167,1.167,0,0,0-.558,1.217L965,52.3a1.209,1.209,0,0,0,1.355-.19q.945-.716-.261-2.372Z" fill="#fff"/>
    <rect id="Rectángulo_38222" data-name="Rectángulo 38222" width="2.491" height="11.319" transform="translate(964.527 41.521) rotate(-37.086)" fill="#fff"/>
    <path id="Trazado_205461" data-name="Trazado 205461" d="M977.726,45.92a4.1,4.1,0,0,1-3.031.917,3.776,3.776,0,0,1-2.622-1.588l-.124-.165a4.89,4.89,0,0,1-.939-2,3.322,3.322,0,0,1,.182-1.953,3.989,3.989,0,0,1,1.337-1.652,3.454,3.454,0,0,1,2.747-.768A4.1,4.1,0,0,1,977.8,40.45l.581.769-3.941,2.976a1.776,1.776,0,0,0,1.1.489,1.726,1.726,0,0,0,1.161-.394,2.24,2.24,0,0,0,.973-1.77l1.714.387a3.2,3.2,0,0,1-.435,1.607,4.443,4.443,0,0,1-1.232,1.406m-4.053-4.9q-.87.657-.164,1.935l2-1.511-.115-.153a1.231,1.231,0,0,0-.8-.555,1.2,1.2,0,0,0-.921.284" fill="#fff"/>
    <path id="Trazado_205462" data-name="Trazado 205462" d="M978.443,40.122a5.4,5.4,0,0,1-.97-1.945,3.207,3.207,0,0,1,.047-1.832A3,3,0,0,1,978.6,34.9a2.4,2.4,0,0,1,2.059-.5l-.347-.6,1.8-1.36,4.625,6.122a3.372,3.372,0,0,1,.713,1.756,3.141,3.141,0,0,1-.414,1.808,5.2,5.2,0,0,1-1.465,1.629,4.487,4.487,0,0,1-1.556.76,3.081,3.081,0,0,1-1.522.069l-.051-1.791a2.278,2.278,0,0,0,1.952-.448,1.479,1.479,0,0,0,.295-2.348l-.151-.2a2.333,2.333,0,0,1-.965,1.718,2.879,2.879,0,0,1-2.555.53,4.621,4.621,0,0,1-2.518-1.842Zm2.082-1.378a2.84,2.84,0,0,0,1.229,1.016,1.165,1.165,0,0,0,1.167-.166,1.318,1.318,0,0,0,.61-1.135l-2.022-2.676a1.277,1.277,0,0,0-1.25.262,1.169,1.169,0,0,0-.472,1.1,3.243,3.243,0,0,0,.738,1.6" fill="#fff"/>
    <path id="Trazado_205463" data-name="Trazado 205463" d="M991.627,35.234a2.778,2.778,0,0,1-.619-.427A2.315,2.315,0,0,1,990,36.65a2.825,2.825,0,0,1-1.94.611,2.169,2.169,0,0,1-1.662-.893,2.229,2.229,0,0,1-.417-2.141,4.869,4.869,0,0,1,1.824-2.208l.611-.462-.255-.336q-.666-.882-1.424-.308a.777.777,0,0,0-.179,1.23l-1.98,1.5a2.23,2.23,0,0,1-.348-2.091,4.138,4.138,0,0,1,1.569-2.088,3.624,3.624,0,0,1,2.371-.859,2.59,2.59,0,0,1,1.953,1.082l2.128,2.817a3.593,3.593,0,0,0,1.284,1.137l.074.1Zm-2.219-.355a1.384,1.384,0,0,0,.494-.623,1.237,1.237,0,0,0,.079-.623l-.768-1.018-.576.436q-1.035.781-.333,1.711a.717.717,0,0,0,.513.3.83.83,0,0,0,.591-.184" fill="#fff"/>
    <path id="Trazado_205464" data-name="Trazado 205464" d="M994.831,25.637l-.687.446c-.625.472-.875.97-.756,1.495l3.042,4.028-1.981,1.5-4.806-6.362,1.858-1.4.683.769a1.92,1.92,0,0,1,.686-1.988,2.418,2.418,0,0,1,.607-.347Z" fill="#fff"/>
    <path id="Trazado_205465" data-name="Trazado 205465" d="M489.391,137.107l-.577-1.277-3.459,1.566-1.067-2.357,9.776-4.425,1.743,3.846a4.728,4.728,0,0,1,.459,3.069,2.869,2.869,0,0,1-1.737,1.966,3.478,3.478,0,0,1-1.877.353,3.205,3.205,0,0,1-1.671-.8l-3.024,3.828-.1.046-1.142-2.524Zm1.235-2.1.675,1.49a1.464,1.464,0,0,0,.81.851,1.765,1.765,0,0,0,1.977-.9,1.448,1.448,0,0,0-.1-1.17l-.674-1.49Z"/>
    <path id="Trazado_205466" data-name="Trazado 205466" d="M489.759,147.48a4.1,4.1,0,0,1-.228-3.157,3.779,3.779,0,0,1,2.128-2.208l.187-.085a4.9,4.9,0,0,1,2.153-.479,3.33,3.33,0,0,1,1.867.609,4,4,0,0,1,1.315,1.669,3.451,3.451,0,0,1,.146,2.847,4.1,4.1,0,0,1-2.25,2.084l-.878.4-2.036-4.5a1.788,1.788,0,0,0-.72.965,1.728,1.728,0,0,0,.131,1.218,2.232,2.232,0,0,0,1.512,1.338l-.755,1.588a3.159,3.159,0,0,1-1.47-.778,4.446,4.446,0,0,1-1.1-1.512m5.672-2.875c-.3-.663-.918-.856-1.852-.586l1.036,2.283.173-.079a1.229,1.229,0,0,0,.717-.657,1.206,1.206,0,0,0-.074-.961"/>
    <path id="Trazado_205467" data-name="Trazado 205467" d="M495.654,152.981l5.093-.922,1.079,2.385-8.338.918-1.045-2.31,6.191-5.659,1.082,2.391Z"/>
    <path id="Trazado_205468" data-name="Trazado 205468" d="M495.947,160.792l-1.027-2.269,7.265-3.289,1.027,2.27ZM504,154.249a1.114,1.114,0,0,1,.955-.011,1.618,1.618,0,0,1,.82,1.813,1.187,1.187,0,0,1-1.594.72,1.627,1.627,0,0,1-.822-1.812,1.127,1.127,0,0,1,.641-.71"/>
    <path id="Trazado_205469" data-name="Trazado 205469" d="M500.341,165.065a.575.575,0,0,0,.327-.512,5.011,5.011,0,0,0-.158-1.312,5.772,5.772,0,0,1-.139-1.621,2.563,2.563,0,0,1,.363-1.175,1.954,1.954,0,0,1,.87-.74,2.2,2.2,0,0,1,2.021.08,3.721,3.721,0,0,1,1.627,1.867,4.139,4.139,0,0,1,.394,2.6,2.23,2.23,0,0,1-1.316,1.648l-1.027-2.27a.869.869,0,0,0,.455-1.314,1,1,0,0,0-.469-.507.668.668,0,0,0-.6-.019.615.615,0,0,0-.357.517,3.038,3.038,0,0,0,.117,1.083,8.7,8.7,0,0,1,.227,1.269,2.268,2.268,0,0,1-1.278,2.552,2.091,2.091,0,0,1-2.019-.149,4.249,4.249,0,0,1-1.659-2,4.357,4.357,0,0,1-.418-1.816,3.088,3.088,0,0,1,.4-1.556,2.282,2.282,0,0,1,1.03-.959l.958,2.114a.96.96,0,0,0-.583.67,1.51,1.51,0,0,0,.142.93,1.194,1.194,0,0,0,.5.61.663.663,0,0,0,.6.01"/>
    <path id="Trazado_205470" data-name="Trazado 205470" d="M500.846,171.615l-1.027-2.27,7.265-3.289,1.027,2.27Zm8.056-6.544a1.123,1.123,0,0,1,.956-.011,1.624,1.624,0,0,1,.82,1.813,1.187,1.187,0,0,1-1.594.72,1.621,1.621,0,0,1-.821-1.812,1.119,1.119,0,0,1,.639-.71"/>
    <path id="Trazado_205471" data-name="Trazado 205471" d="M505.047,171.047a4.713,4.713,0,0,1,2.129-.454,3.327,3.327,0,0,1,1.856.624,4.014,4.014,0,0,1,1.3,1.653,3.668,3.668,0,0,1,.153,3.029,4.252,4.252,0,0,1-2.323,2.185l-.08.036a4.138,4.138,0,0,1-3.123.277,3.679,3.679,0,0,1-2.153-2.1,3.723,3.723,0,0,1-.2-2.913,4,4,0,0,1,2.062-2.155Zm.884,2.327a2.972,2.972,0,0,0-1.335.983,1.157,1.157,0,0,0-.047,1.147q.547,1.208,2.419.393l.228-.1q1.954-.885,1.388-2.134-.513-1.134-2.24-.465Zm7.453-1.515,1.082,2.391-2.952-.912-.834-1.848Z"/>
    <path id="Trazado_205472" data-name="Trazado 205472" d="M513.178,179.518l-.818.461a2.7,2.7,0,0,1,1.924,1.627,2.273,2.273,0,0,1,.09,2,3.544,3.544,0,0,1-1.778,1.5l-4.68,2.119-1.027-2.27,4.586-2.076a1.346,1.346,0,0,0,.709-.587,1.13,1.13,0,0,0-.107-.923,1.186,1.186,0,0,0-.971-.75l-5.129,2.323-1.024-2.263,7.264-3.288Z"/>
    <path id="Trazado_205473" data-name="Trazado 205473" d="M920.026,137.107l-.577-1.277L915.99,137.4l-1.067-2.357,9.776-4.425,1.743,3.846a4.728,4.728,0,0,1,.459,3.069,2.869,2.869,0,0,1-1.737,1.966,3.478,3.478,0,0,1-1.877.353,3.205,3.205,0,0,1-1.671-.8l-3.024,3.828-.1.046-1.142-2.524Zm1.235-2.1.675,1.49a1.464,1.464,0,0,0,.81.851,1.765,1.765,0,0,0,1.977-.9,1.448,1.448,0,0,0-.1-1.17l-.674-1.49Z" fill="#fff"/>
    <path id="Trazado_205474" data-name="Trazado 205474" d="M920.394,147.48a4.1,4.1,0,0,1-.228-3.157,3.78,3.78,0,0,1,2.127-2.208l.188-.085a4.9,4.9,0,0,1,2.153-.479,3.324,3.324,0,0,1,1.866.609,3.991,3.991,0,0,1,1.316,1.669,3.451,3.451,0,0,1,.145,2.847,4.1,4.1,0,0,1-2.249,2.084l-.878.4-2.037-4.5a1.786,1.786,0,0,0-.719.965,1.723,1.723,0,0,0,.131,1.218,2.232,2.232,0,0,0,1.511,1.338l-.754,1.588a3.166,3.166,0,0,1-1.471-.778,4.431,4.431,0,0,1-1.1-1.512m5.671-2.875c-.3-.663-.917-.856-1.851-.586l1.035,2.283.173-.079a1.228,1.228,0,0,0,.718-.657,1.2,1.2,0,0,0-.075-.961" fill="#fff"/>
    <path id="Trazado_205475" data-name="Trazado 205475" d="M926.289,152.981l5.093-.922,1.079,2.385-8.338.918-1.045-2.31,6.191-5.659,1.082,2.391Z" fill="#fff"/>
    <path id="Trazado_205476" data-name="Trazado 205476" d="M926.581,160.792l-1.027-2.269,7.265-3.289,1.027,2.27Zm8.057-6.543a1.114,1.114,0,0,1,.955-.011,1.618,1.618,0,0,1,.82,1.813,1.187,1.187,0,0,1-1.594.72,1.627,1.627,0,0,1-.822-1.812,1.127,1.127,0,0,1,.641-.71" fill="#fff"/>
    <path id="Trazado_205477" data-name="Trazado 205477" d="M930.975,165.065a.575.575,0,0,0,.327-.512,5.011,5.011,0,0,0-.158-1.312,5.772,5.772,0,0,1-.139-1.621,2.564,2.564,0,0,1,.363-1.175,1.955,1.955,0,0,1,.87-.74,2.2,2.2,0,0,1,2.021.08,3.721,3.721,0,0,1,1.627,1.867,4.139,4.139,0,0,1,.394,2.6,2.23,2.23,0,0,1-1.316,1.648l-1.027-2.27a.869.869,0,0,0,.455-1.314,1,1,0,0,0-.469-.507.668.668,0,0,0-.6-.019.615.615,0,0,0-.357.517,3.036,3.036,0,0,0,.117,1.083,8.7,8.7,0,0,1,.227,1.269,2.269,2.269,0,0,1-1.278,2.552,2.091,2.091,0,0,1-2.019-.149,4.249,4.249,0,0,1-1.659-2,4.357,4.357,0,0,1-.418-1.816,3.088,3.088,0,0,1,.4-1.556,2.282,2.282,0,0,1,1.03-.959l.958,2.114a.96.96,0,0,0-.583.67,1.509,1.509,0,0,0,.142.93,1.2,1.2,0,0,0,.5.61.663.663,0,0,0,.595.01" fill="#fff"/>
    <path id="Trazado_205478" data-name="Trazado 205478" d="M931.481,171.615l-1.027-2.27,7.265-3.289,1.027,2.27Zm8.056-6.544a1.123,1.123,0,0,1,.956-.011,1.624,1.624,0,0,1,.82,1.813,1.187,1.187,0,0,1-1.594.72,1.621,1.621,0,0,1-.821-1.812,1.119,1.119,0,0,1,.639-.71" fill="#fff"/>
    <path id="Trazado_205479" data-name="Trazado 205479" d="M935.681,171.047a4.712,4.712,0,0,1,2.129-.454,3.327,3.327,0,0,1,1.856.624,4.014,4.014,0,0,1,1.3,1.653,3.668,3.668,0,0,1,.153,3.029,4.252,4.252,0,0,1-2.323,2.185l-.08.036a4.138,4.138,0,0,1-3.123.277,3.679,3.679,0,0,1-2.153-2.1,3.723,3.723,0,0,1-.2-2.913,4,4,0,0,1,2.062-2.155Zm.884,2.327a2.972,2.972,0,0,0-1.335.983,1.16,1.16,0,0,0-.047,1.147q.547,1.208,2.419.393l.229-.1q1.953-.885,1.387-2.134-.513-1.134-2.24-.465Zm7.453-1.515,1.082,2.391-2.952-.912-.834-1.848Z" fill="#fff"/>
    <path id="Trazado_205480" data-name="Trazado 205480" d="M943.812,179.518l-.818.461a2.7,2.7,0,0,1,1.924,1.627,2.273,2.273,0,0,1,.09,2,3.544,3.544,0,0,1-1.778,1.5l-4.68,2.119-1.027-2.27,4.586-2.076a1.346,1.346,0,0,0,.709-.587,1.129,1.129,0,0,0-.107-.923,1.186,1.186,0,0,0-.971-.75l-5.129,2.323-1.024-2.263,7.264-3.288Z" fill="#fff"/>
    <path id="Trazado_205481" data-name="Trazado 205481" d="M230.617,227.92c-2.694-3.475-4-5.233-6.534-8.786,1.333-.795,1.992-1.2,3.3-2.016a6.646,6.646,0,0,1,2.794-1.009,5.583,5.583,0,0,1,2.784.375,5.657,5.657,0,0,1,2.273,1.69l.317.389a4.868,4.868,0,0,1,1.116,2.482,4.2,4.2,0,0,1-.5,2.562,5.823,5.823,0,0,1-2.035,2.126c-1.391.887-2.094,1.325-3.514,2.187m-2.853-8.656c1.637,2.2,2.472,3.294,4.173,5.463.353-.222.53-.334.881-.558a2.19,2.19,0,0,0,1.158-1.7,3.394,3.394,0,0,0-.923-2.252l-.292-.371a3.965,3.965,0,0,0-2.032-1.514,2.648,2.648,0,0,0-2.135.411c-.331.208-.5.312-.83.518"/>
    <path id="Trazado_205482" data-name="Trazado 205482" d="M243.771,219.341a5.379,5.379,0,0,1-3.513,1.143A3.958,3.958,0,0,1,237.32,219l-.134-.163a4.288,4.288,0,0,1-.974-1.985,3.165,3.165,0,0,1,.285-1.984,4.683,4.683,0,0,1,1.54-1.725,4.383,4.383,0,0,1,3.057-.928,4.326,4.326,0,0,1,2.813,1.568c.261.292.392.439.655.73-1.772,1.342-2.672,2-4.5,3.3a1.973,1.973,0,0,0,1.239.431,2.281,2.281,0,0,0,1.333-.482,2.41,2.41,0,0,0,1.126-1.87c.775.1,1.163.149,1.942.241a3.1,3.1,0,0,1-.5,1.671,5.21,5.21,0,0,1-1.431,1.534m-4.5-4.7c-.661.475-.743,1.129-.236,1.967.921-.653,1.378-.982,2.285-1.646l-.128-.149a1.27,1.27,0,0,0-.886-.511,1.531,1.531,0,0,0-1.035.339"/>
    <path id="Trazado_205483" data-name="Trazado 205483" d="M249.8,211.653a.644.644,0,0,0-.644-.142,6.8,6.8,0,0,0-1.378.587,7.159,7.159,0,0,1-1.723.654,3.081,3.081,0,0,1-1.369.017,1.958,1.958,0,0,1-1.023-.617,2.006,2.006,0,0,1-.423-1.982,4.232,4.232,0,0,1,1.57-2.142,5.139,5.139,0,0,1,2.642-1.2,2.414,2.414,0,0,1,2.113.718c-.841.7-1.265,1.048-2.121,1.739a1,1,0,0,0-1.528-.02,1.116,1.116,0,0,0-.417.611.613.613,0,0,0,.139.589.676.676,0,0,0,.65.18,3.814,3.814,0,0,0,1.131-.461,11.892,11.892,0,0,1,1.295-.635,2.615,2.615,0,0,1,3.1.353,1.881,1.881,0,0,1,.427,1.984,4.787,4.787,0,0,1-1.712,2.292,5.514,5.514,0,0,1-1.885,1.017,3.8,3.8,0,0,1-1.819.125,2.331,2.331,0,0,1-1.319-.692c.832-.636,1.244-.956,2.064-1.6a1.033,1.033,0,0,0,.886.342,1.945,1.945,0,0,0,.976-.448,1.35,1.35,0,0,0,.524-.689.6.6,0,0,0-.156-.575"/>
    <path id="Trazado_205484" data-name="Trazado 205484" d="M258.254,207.417a2.851,2.851,0,0,1-.722-.326,2.461,2.461,0,0,1-.972,2.029,3.55,3.55,0,0,1-2.119.919,2.292,2.292,0,0,1-1.9-.664,2.032,2.032,0,0,1-.583-2.1,5.653,5.653,0,0,1,1.837-2.482c.251-.221.377-.333.627-.555l-.3-.3a1.023,1.023,0,0,0-1.565-.1c-.481.422-.518.843-.1,1.263-.818.712-1.231,1.066-2.064,1.769a2.062,2.062,0,0,1-.5-2.065,4.633,4.633,0,0,1,1.545-2.3A4.344,4.344,0,0,1,253.9,201.3a2.746,2.746,0,0,1,2.2.783c1.025.994,1.542,1.488,2.583,2.47a3.51,3.51,0,0,0,1.522.91l.092.086c-.809.751-1.218,1.125-2.042,1.867m-2.48.009a1.565,1.565,0,0,0,.5-.708,1.2,1.2,0,0,0,.036-.64c-.372-.36-.557-.541-.926-.9-.237.212-.356.318-.6.528-.712.631-.795,1.221-.236,1.777a.754.754,0,0,0,.587.225,1.034,1.034,0,0,0,.638-.279"/>
    <path id="Trazado_205485" data-name="Trazado 205485" d="M260.647,197.2c-.267.23-.4.345-.668.574-.6.588-.8,1.131-.615,1.636,1.495,1.389,2.251,2.077,3.777,3.442-.788.765-1.186,1.145-1.99,1.9-2.385-2.187-3.557-3.3-5.862-5.543.728-.679,1.089-1.021,1.8-1.708.324.262.487.392.813.652a1.964,1.964,0,0,1,.472-2.108,2.829,2.829,0,0,1,.589-.455c.668.646,1,.968,1.679,1.61"/>
    <path id="Trazado_205486" data-name="Trazado 205486" d="M264.9,192.823c-.255.238-.383.356-.64.593q-.858.9-.548,1.648c1.532,1.343,2.306,2.009,3.869,3.327-.754.785-1.134,1.175-1.9,1.952-2.445-2.116-3.648-3.189-6.013-5.366.7-.7,1.042-1.049,1.726-1.754l.829.627a1.958,1.958,0,0,1,.391-2.114,2.8,2.8,0,0,1,.567-.472c.686.626,1.03.938,1.722,1.559"/>
    <path id="Trazado_205487" data-name="Trazado 205487" d="M266.408,193.668a4.381,4.381,0,0,1-1.294-1.753,3.26,3.26,0,0,1-.143-1.972,4.361,4.361,0,0,1,1.046-1.909,4.1,4.1,0,0,1,2.8-1.5A4.4,4.4,0,0,1,271.9,187.6l.069.054a3.581,3.581,0,0,1,.526,5.635,4.333,4.333,0,0,1-2.791,1.556,4.045,4.045,0,0,1-2.966-.906l-.33-.267m1.916-1.855a2.9,2.9,0,0,0,1.516.762,1.334,1.334,0,0,0,1.138-.495c.632-.71.408-1.5-.649-2.373l-.2-.158c-1.125-.9-2-1-2.635-.281-.58.652-.426,1.4.483,2.251l.344.294"/>
    <path id="Trazado_205488" data-name="Trazado 205488" d="M277.634,186.973c-.67.832-1.009,1.246-1.694,2.071-3.664-2.738-5.459-4.141-8.973-7.013.652-.778.975-1.168,1.611-1.953,3.548,2.826,5.36,4.206,9.056,6.9"/>
    <path id="Trazado_205489" data-name="Trazado 205489" d="M280.37,183.486c-.644.843-.97,1.263-1.63,2.1-3.717-2.657-5.54-4.021-9.109-6.816.626-.788.936-1.183,1.547-1.978,3.6,2.748,5.443,4.088,9.192,6.695"/>
    <path id="Trazado_205490" data-name="Trazado 205490" d="M277.8,180.116a4.509,4.509,0,0,1-1.449-1.626,3.316,3.316,0,0,1-.351-1.936,4.213,4.213,0,0,1,.815-1.969,3.87,3.87,0,0,1,2.567-1.71,4.382,4.382,0,0,1,3.121.8l.074.048a3.977,3.977,0,0,1,1.89,2.5,3.758,3.758,0,0,1-.773,3.016,4.106,4.106,0,0,1-2.557,1.764,3.984,3.984,0,0,1-2.988-.654l-.349-.237m1.667-1.987a2.916,2.916,0,0,0,1.559.63,1.266,1.266,0,0,0,1.059-.581c.539-.754.236-1.516-.888-2.292l-.21-.14c-1.193-.8-2.051-.823-2.6-.062-.5.69-.267,1.42.71,2.183l.367.262"/>
    <path id="Trazado_205491" data-name="Trazado 205491" d="M643.2,227.92c-2.694-3.475-4-5.233-6.534-8.786,1.333-.795,1.992-1.2,3.3-2.016a6.646,6.646,0,0,1,2.794-1.009,5.585,5.585,0,0,1,2.784.375,5.657,5.657,0,0,1,2.273,1.69l.317.389a4.868,4.868,0,0,1,1.116,2.482,4.2,4.2,0,0,1-.5,2.562,5.823,5.823,0,0,1-2.035,2.126c-1.391.887-2.094,1.325-3.514,2.187m-2.853-8.656c1.637,2.2,2.472,3.294,4.173,5.463.353-.222.53-.334.881-.558a2.19,2.19,0,0,0,1.158-1.7,3.394,3.394,0,0,0-.923-2.252l-.292-.371a3.966,3.966,0,0,0-2.032-1.514,2.648,2.648,0,0,0-2.135.411c-.331.208-.5.312-.83.518"/>
    <path id="Trazado_205492" data-name="Trazado 205492" d="M656.35,219.341a5.379,5.379,0,0,1-3.513,1.143A3.958,3.958,0,0,1,649.9,219l-.134-.163a4.288,4.288,0,0,1-.974-1.985,3.165,3.165,0,0,1,.285-1.984,4.683,4.683,0,0,1,1.54-1.725,4.383,4.383,0,0,1,3.057-.928,4.326,4.326,0,0,1,2.813,1.568c.261.292.392.439.655.73-1.772,1.342-2.672,2-4.5,3.3a1.973,1.973,0,0,0,1.239.431,2.281,2.281,0,0,0,1.333-.482,2.413,2.413,0,0,0,1.126-1.87c.775.1,1.163.149,1.942.241a3.1,3.1,0,0,1-.5,1.671,5.21,5.21,0,0,1-1.431,1.534m-4.5-4.7c-.661.475-.743,1.129-.236,1.967.921-.653,1.378-.982,2.285-1.646l-.128-.149a1.27,1.27,0,0,0-.886-.511,1.531,1.531,0,0,0-1.035.339"/>
    <path id="Trazado_205493" data-name="Trazado 205493" d="M662.38,211.653a.645.645,0,0,0-.645-.142,6.8,6.8,0,0,0-1.378.587,7.158,7.158,0,0,1-1.723.654,3.076,3.076,0,0,1-1.368.017,1.961,1.961,0,0,1-1.024-.617,2,2,0,0,1-.423-1.982,4.226,4.226,0,0,1,1.57-2.142,5.143,5.143,0,0,1,2.642-1.2,2.414,2.414,0,0,1,2.113.718c-.841.7-1.264,1.048-2.121,1.739a1,1,0,0,0-1.528-.02,1.121,1.121,0,0,0-.417.611.613.613,0,0,0,.139.589.676.676,0,0,0,.65.18A3.814,3.814,0,0,0,660,210.18a11.888,11.888,0,0,1,1.3-.635,2.615,2.615,0,0,1,3.1.353,1.88,1.88,0,0,1,.427,1.984,4.774,4.774,0,0,1-1.712,2.292,5.51,5.51,0,0,1-1.884,1.017,3.805,3.805,0,0,1-1.82.125,2.325,2.325,0,0,1-1.318-.692c.831-.636,1.243-.956,2.063-1.6a1.033,1.033,0,0,0,.886.342,1.938,1.938,0,0,0,.976-.448,1.344,1.344,0,0,0,.524-.689.594.594,0,0,0-.155-.575"/>
    <path id="Trazado_205494" data-name="Trazado 205494" d="M670.832,207.417a2.852,2.852,0,0,1-.722-.326,2.46,2.46,0,0,1-.972,2.029,3.55,3.55,0,0,1-2.119.919,2.293,2.293,0,0,1-1.9-.664,2.034,2.034,0,0,1-.583-2.1,5.669,5.669,0,0,1,1.837-2.482c.251-.221.377-.333.627-.555l-.3-.3a1.023,1.023,0,0,0-1.565-.1c-.481.422-.517.843-.1,1.263-.819.712-1.232,1.066-2.065,1.769a2.062,2.062,0,0,1-.5-2.065,4.633,4.633,0,0,1,1.545-2.3,4.347,4.347,0,0,1,2.466-1.194,2.745,2.745,0,0,1,2.2.783c1.025.994,1.542,1.488,2.583,2.47a3.51,3.51,0,0,0,1.522.91l.092.086c-.809.751-1.218,1.125-2.042,1.867m-2.48.009a1.565,1.565,0,0,0,.5-.708,1.191,1.191,0,0,0,.036-.64c-.372-.36-.557-.541-.926-.9-.237.212-.356.318-.6.528-.712.631-.795,1.221-.235,1.777a.751.751,0,0,0,.586.225,1.037,1.037,0,0,0,.638-.279"/>
    <path id="Trazado_205495" data-name="Trazado 205495" d="M673.226,197.2c-.267.23-.4.345-.668.574-.6.588-.8,1.131-.614,1.636,1.494,1.389,2.25,2.077,3.776,3.442-.788.765-1.186,1.145-1.989,1.9-2.385-2.187-3.558-3.3-5.863-5.543.729-.679,1.09-1.021,1.806-1.708.324.262.486.392.812.652a1.964,1.964,0,0,1,.472-2.108,2.829,2.829,0,0,1,.589-.455c.669.646,1,.968,1.679,1.61"/>
    <path id="Trazado_205496" data-name="Trazado 205496" d="M677.479,192.823c-.255.238-.384.356-.64.593-.572.6-.757,1.151-.548,1.648,1.532,1.343,2.306,2.009,3.869,3.327-.754.785-1.134,1.175-1.9,1.952-2.445-2.116-3.648-3.189-6.013-5.366.7-.7,1.042-1.049,1.726-1.754l.829.627a1.958,1.958,0,0,1,.391-2.114,2.8,2.8,0,0,1,.567-.472c.686.626,1.03.938,1.722,1.559"/>
    <path id="Trazado_205497" data-name="Trazado 205497" d="M678.987,193.668a4.381,4.381,0,0,1-1.294-1.753,3.26,3.26,0,0,1-.143-1.972,4.366,4.366,0,0,1,1.046-1.909,4.1,4.1,0,0,1,2.8-1.5,4.4,4.4,0,0,1,3.082,1.066l.069.054a3.581,3.581,0,0,1,.526,5.635,4.333,4.333,0,0,1-2.791,1.556,4.045,4.045,0,0,1-2.966-.906l-.33-.267m1.916-1.855a2.9,2.9,0,0,0,1.516.762,1.334,1.334,0,0,0,1.138-.495c.632-.71.408-1.5-.649-2.373l-.2-.158c-1.125-.9-2-1-2.635-.281-.58.652-.426,1.4.483,2.251l.344.294"/>
    <path id="Trazado_205498" data-name="Trazado 205498" d="M690.212,186.973c-.67.832-1.009,1.246-1.694,2.071-3.664-2.738-5.459-4.141-8.973-7.013.652-.778.974-1.168,1.611-1.953,3.548,2.826,5.36,4.206,9.056,6.9"/>
    <path id="Trazado_205499" data-name="Trazado 205499" d="M692.948,183.486c-.644.843-.97,1.263-1.63,2.1-3.717-2.657-5.54-4.021-9.109-6.816.626-.788.936-1.183,1.547-1.978,3.6,2.748,5.443,4.088,9.192,6.695"/>
    <path id="Trazado_205500" data-name="Trazado 205500" d="M690.376,180.116a4.509,4.509,0,0,1-1.449-1.626,3.316,3.316,0,0,1-.351-1.936,4.214,4.214,0,0,1,.815-1.969,3.868,3.868,0,0,1,2.567-1.71,4.382,4.382,0,0,1,3.121.8l.074.048a3.977,3.977,0,0,1,1.89,2.5,3.758,3.758,0,0,1-.773,3.016,4.106,4.106,0,0,1-2.557,1.764,3.984,3.984,0,0,1-2.988-.654l-.349-.237m1.667-1.987a2.916,2.916,0,0,0,1.559.63,1.266,1.266,0,0,0,1.059-.581c.539-.754.236-1.516-.888-2.292l-.21-.14c-1.193-.8-2.051-.823-2.6-.062-.5.69-.267,1.42.71,2.183l.367.262"/>
    <path id="Trazado_205501" data-name="Trazado 205501" d="M1076.265,227.92c-2.7-3.475-4-5.233-6.534-8.786,1.332-.794,1.992-1.2,3.3-2.015a6.655,6.655,0,0,1,2.794-1.009,5.572,5.572,0,0,1,2.784.374,5.642,5.642,0,0,1,2.273,1.691l.317.389a4.854,4.854,0,0,1,1.115,2.482,4.2,4.2,0,0,1-.5,2.562,5.823,5.823,0,0,1-2.035,2.126c-1.392.887-2.094,1.325-3.514,2.186m-2.853-8.655c1.637,2.2,2.472,3.294,4.172,5.462.354-.222.531-.333.882-.556a2.195,2.195,0,0,0,1.158-1.7,3.394,3.394,0,0,0-.923-2.251l-.293-.371a3.962,3.962,0,0,0-2.031-1.515,2.648,2.648,0,0,0-2.135.412c-.331.208-.5.311-.83.518" fill="#fff"/>
    <path id="Trazado_205502" data-name="Trazado 205502" d="M1089.42,219.342a5.384,5.384,0,0,1-3.514,1.142,3.957,3.957,0,0,1-2.938-1.48l-.134-.163a4.3,4.3,0,0,1-.974-1.986,3.156,3.156,0,0,1,.286-1.983,4.691,4.691,0,0,1,1.539-1.727,4.388,4.388,0,0,1,3.057-.927,4.32,4.32,0,0,1,2.813,1.568c.261.292.393.438.655.73-1.772,1.343-2.672,2-4.5,3.3a1.979,1.979,0,0,0,1.239.43,2.268,2.268,0,0,0,1.333-.482,2.411,2.411,0,0,0,1.127-1.869c.774.1,1.163.149,1.941.241a3.093,3.093,0,0,1-.5,1.671,5.218,5.218,0,0,1-1.43,1.534m-4.5-4.7c-.66.476-.743,1.13-.236,1.968.921-.653,1.379-.983,2.285-1.647l-.127-.148a1.275,1.275,0,0,0-.887-.512,1.533,1.533,0,0,0-1.035.339" fill="#fff"/>
    <path id="Trazado_205503" data-name="Trazado 205503" d="M1095.448,211.653a.649.649,0,0,0-.644-.142,6.84,6.84,0,0,0-1.378.588,7.111,7.111,0,0,1-1.722.654,3.069,3.069,0,0,1-1.37.016,1.954,1.954,0,0,1-1.022-.616,2.006,2.006,0,0,1-.424-1.982,4.232,4.232,0,0,1,1.57-2.142,5.138,5.138,0,0,1,2.643-1.205,2.417,2.417,0,0,1,2.112.718c-.841.7-1.265,1.048-2.121,1.739a1,1,0,0,0-1.528-.019,1.121,1.121,0,0,0-.417.611.616.616,0,0,0,.139.588.676.676,0,0,0,.65.181,3.829,3.829,0,0,0,1.131-.462,11.769,11.769,0,0,1,1.3-.634,2.619,2.619,0,0,1,3.1.352,1.882,1.882,0,0,1,.426,1.985,4.774,4.774,0,0,1-1.712,2.291,5.517,5.517,0,0,1-1.885,1.018,3.812,3.812,0,0,1-1.819.124,2.338,2.338,0,0,1-1.319-.692c.832-.635,1.245-.955,2.064-1.6a1.037,1.037,0,0,0,.886.342,1.931,1.931,0,0,0,.977-.448,1.351,1.351,0,0,0,.523-.689.592.592,0,0,0-.156-.576" fill="#fff"/>
    <path id="Trazado_205504" data-name="Trazado 205504" d="M1103.9,207.417a2.851,2.851,0,0,1-.722-.326,2.458,2.458,0,0,1-.972,2.028,3.551,3.551,0,0,1-2.119.92,2.293,2.293,0,0,1-1.9-.664,2.033,2.033,0,0,1-.583-2.1,5.655,5.655,0,0,1,1.837-2.482c.251-.222.377-.333.627-.556l-.3-.3a1.021,1.021,0,0,0-1.564-.1c-.481.422-.518.842-.1,1.262-.818.712-1.231,1.066-2.064,1.769a2.062,2.062,0,0,1-.5-2.065,4.631,4.631,0,0,1,1.545-2.3,4.354,4.354,0,0,1,2.466-1.194,2.742,2.742,0,0,1,2.2.783c1.026.994,1.543,1.488,2.584,2.471a3.511,3.511,0,0,0,1.522.91l.092.086c-.809.751-1.218,1.125-2.042,1.867m-2.48.009a1.562,1.562,0,0,0,.5-.708,1.2,1.2,0,0,0,.036-.641c-.372-.36-.557-.541-.926-.9-.237.212-.356.317-.595.528-.712.631-.8,1.221-.236,1.776a.75.75,0,0,0,.587.225,1.038,1.038,0,0,0,.638-.278" fill="#fff"/>
    <path id="Trazado_205505" data-name="Trazado 205505" d="M1106.3,197.2c-.266.231-.4.346-.668.575-.6.588-.8,1.131-.614,1.636,1.5,1.389,2.25,2.077,3.777,3.442-.788.765-1.187,1.145-1.99,1.9-2.385-2.188-3.558-3.3-5.863-5.544.729-.68,1.089-1.022,1.806-1.709.324.262.486.392.812.652a1.961,1.961,0,0,1,.473-2.107,2.81,2.81,0,0,1,.588-.456c.669.646,1,.968,1.679,1.61" fill="#fff"/>
    <path id="Trazado_205506" data-name="Trazado 205506" d="M1110.548,192.823c-.256.238-.384.356-.641.592-.571.6-.756,1.151-.548,1.648,1.532,1.344,2.306,2.009,3.87,3.328-.754.784-1.135,1.175-1.9,1.951-2.444-2.115-3.647-3.188-6.013-5.365.7-.7,1.043-1.049,1.727-1.754.331.251.5.377.829.627a1.958,1.958,0,0,1,.391-2.114,2.746,2.746,0,0,1,.567-.472c.686.626,1.03.938,1.722,1.559" fill="#fff"/>
    <path id="Trazado_205507" data-name="Trazado 205507" d="M1112.056,193.668a4.381,4.381,0,0,1-1.294-1.753,3.263,3.263,0,0,1-.144-1.973,4.359,4.359,0,0,1,1.046-1.909,4.1,4.1,0,0,1,2.8-1.5,4.406,4.406,0,0,1,3.081,1.065l.069.054a3.579,3.579,0,0,1,.526,5.635,4.325,4.325,0,0,1-2.79,1.557,4.044,4.044,0,0,1-2.966-.906l-.33-.267m1.916-1.855a2.891,2.891,0,0,0,1.515.761,1.331,1.331,0,0,0,1.139-.494c.632-.711.408-1.5-.649-2.374l-.2-.158c-1.124-.9-1.994-1-2.634-.28-.581.652-.426,1.4.483,2.25l.344.295" fill="#fff"/>
    <path id="Trazado_205508" data-name="Trazado 205508" d="M1123.281,186.973c-.67.832-1.009,1.246-1.695,2.07-3.663-2.737-5.459-4.141-8.972-7.013.652-.778.974-1.168,1.611-1.952,3.548,2.826,5.36,4.206,9.056,6.9" fill="#fff"/>
    <path id="Trazado_205509" data-name="Trazado 205509" d="M1126.018,183.486c-.644.843-.971,1.263-1.629,2.1-3.718-2.657-5.541-4.021-9.11-6.816.626-.788.935-1.184,1.547-1.978,3.6,2.748,5.443,4.088,9.192,6.695" fill="#fff"/>
    <path id="Trazado_205510" data-name="Trazado 205510" d="M1123.445,180.116a4.5,4.5,0,0,1-1.449-1.627,3.312,3.312,0,0,1-.351-1.935,4.21,4.21,0,0,1,.815-1.97,3.868,3.868,0,0,1,2.567-1.71,4.383,4.383,0,0,1,3.121.8l.074.047a3.983,3.983,0,0,1,1.89,2.5,3.761,3.761,0,0,1-.773,3.016,4.1,4.1,0,0,1-2.557,1.765,3.985,3.985,0,0,1-2.988-.655l-.349-.236m1.667-1.987a2.921,2.921,0,0,0,1.56.63,1.265,1.265,0,0,0,1.058-.581c.539-.754.236-1.516-.888-2.292l-.21-.14c-1.194-.8-2.051-.823-2.6-.063-.5.691-.267,1.421.711,2.184l.366.262" fill="#fff"/>
    <rect id="Rectángulo_38223" data-name="Rectángulo 38223" width="1240" height="348.334" fill="none"/>
  </g>
</svg>
