<svg xmlns="http://www.w3.org/2000/svg" xmlns:xlink="http://www.w3.org/1999/xlink" width="336.401" height="315.313" viewBox="0 0 336.401 315.313"><defs><clipPath id="a"><rect width="336.401" height="315.313" fill="none"/></clipPath><clipPath id="c"><rect width="22.34" height="22.339" fill="none"/></clipPath><clipPath id="d"><rect width="22.339" height="22.339" fill="none"/></clipPath><clipPath id="f"><rect width="46.068" height="114.523" fill="none"/></clipPath></defs><g clip-path="url(#a)"><rect width="83.32" height="86.855" transform="translate(204.223 0.025)" fill="#e0e0e0"/><rect width="83.32" height="86.855" transform="translate(198.581 0.025)" fill="#fafafa"/><path d="M267.858.051h83.269v86.8H267.858Zm-.051,86.855h83.372V0H267.807Z" transform="translate(-69.252)" fill="#e0e0e0"/><rect width="60.919" height="63.502" transform="translate(209.781 11.702)" fill="#fff"/><g clip-path="url(#a)"><path d="M279.07,102a9.933,9.933,0,0,1-1.5,1.748c-.973,1.027-2.34,2.416-3.872,3.926s-2.942,2.855-3.98,3.809a9.71,9.71,0,0,1-1.761,1.467,9.71,9.71,0,0,1,1.495-1.74c.973-1.027,2.344-2.42,3.881-3.934s2.949-2.862,3.987-3.816A9.493,9.493,0,0,1,279.07,102" transform="translate(-69.289 -26.376)" fill="#e0e0e0"/><path d="M365.114,101.792a10,10,0,0,1,1.748,1.5c1.026.974,2.416,2.341,3.926,3.873s2.854,2.942,3.809,3.979a9.823,9.823,0,0,1,1.466,1.761,9.637,9.637,0,0,1-1.741-1.494c-1.027-.974-2.419-2.345-3.933-3.882s-2.862-2.948-3.817-3.987a9.52,9.52,0,0,1-1.459-1.753" transform="translate(-94.414 -26.322)" fill="#e0e0e0"/><path d="M364.889,12.192a9.913,9.913,0,0,1,1.5-1.748c.973-1.027,2.34-2.416,3.872-3.925s2.941-2.855,3.98-3.81a9.676,9.676,0,0,1,1.76-1.466,9.709,9.709,0,0,1-1.495,1.74c-.973,1.027-2.344,2.419-3.881,3.933s-2.949,2.862-3.987,3.817a9.534,9.534,0,0,1-1.753,1.459" transform="translate(-94.356 -0.32)" fill="#e0e0e0"/><path d="M278.9,12.344a9.86,9.86,0,0,1-1.748-1.5c-1.026-.973-2.416-2.341-3.925-3.873s-2.856-2.941-3.809-3.979a9.638,9.638,0,0,1-1.466-1.761,9.723,9.723,0,0,1,1.739,1.495c1.028.973,2.42,2.344,3.934,3.881s2.861,2.949,3.816,3.987a9.525,9.525,0,0,1,1.46,1.753" transform="translate(-69.29 -0.317)" fill="#e0e0e0"/><path d="M343.606,79.191a2.912,2.912,0,0,1-.013-.308c0-.216-.007-.509-.013-.886-.007-.8-.016-1.942-.027-3.428-.014-3.009-.035-7.385-.061-12.942-.029-11.123-.07-26.967-.119-45.938l.235.235-60.746.035h-.007l.27-.27c-.014,23.308-.027,45.113-.038,63.5l-.232-.231,43.989.118,12.356.061,3.269.027.844.013a2.8,2.8,0,0,1,.294.013,1.892,1.892,0,0,1-.268.013l-.82.013-3.224.027-12.3.06-44.136.119h-.231v-.233c-.011-18.389-.024-40.195-.039-63.5v-.27h.277l60.746.035h.236v.235c-.05,19.033-.09,34.929-.119,46.088-.027,5.535-.047,9.893-.062,12.889-.012,1.467-.022,2.6-.027,3.383-.006.367-.01.65-.013.861a2.087,2.087,0,0,1-.013.282" transform="translate(-73.073 -3.987)" fill="#e0e0e0"/><rect width="20.328" height="20.328" transform="translate(230.076 33.289)" fill="#1e3094"/><path d="M405.073,308.994c4.541-2.344,9.89-2.648,14.932-1.815,2.709.448,5.534,1.259,7.377,3.293s2.193,5.616.077,7.364a7.073,7.073,0,0,1-4.652,1.18c-3.947-.046-8.328-.741-11.48,1.634-1.8,1.355-3,3.608-5.148,4.274a5.087,5.087,0,0,1-5.6-2.49,8.685,8.685,0,0,1-.632-6.415,9.791,9.791,0,0,1,5.123-7.027" transform="translate(-103.339 -79.325)" fill="#ebebeb"/><path d="M392.022,268.31c2.777,3.967,8.176,2.654,10.679.232s3.561-5.931,4.523-9.277c2.2-7.646,4.419-15.667,2.783-23.453a13.035,13.035,0,0,0-3-6.377,6.807,6.807,0,0,0-6.45-2.146c-2.722.718-4.414,3.385-5.636,5.921A55.909,55.909,0,0,0,389.4,257.2c-.013,3.864.443,7.918,2.622,11.108" transform="translate(-100.695 -58.729)" fill="#ebebeb"/><path d="M370.693,293.953c3.015-3.579,3.588-8.8,2.246-13.282s-4.374-8.3-7.867-11.412a42.346,42.346,0,0,0-14.088-8.313,15.029,15.029,0,0,0-6.335-1.077,6.652,6.652,0,0,0-5.317,3.217c-1.482,2.828-.061,6.257,1.477,9.056a107.31,107.31,0,0,0,9.253,14.09c2.773,3.575,5.95,7.1,10.177,8.718s8.617,1.426,10.858-1.506" transform="translate(-87.586 -67.189)" fill="#ebebeb"/><path d="M392.665,350.665a8.66,8.66,0,0,0,.251-1.8c.128-1.312.288-2.96.479-4.919a71.141,71.141,0,0,1,1.106-7.215,55.682,55.682,0,0,1,2.622-8.516,31.4,31.4,0,0,1,4.349-7.705,16.23,16.23,0,0,1,5.5-4.571,15.374,15.374,0,0,1,4.63-1.442,8.668,8.668,0,0,0,1.795-.259,8.378,8.378,0,0,0-1.827-.028,14.021,14.021,0,0,0-4.827,1.256,16.212,16.212,0,0,0-5.8,4.611,30.649,30.649,0,0,0-4.507,7.86,51.932,51.932,0,0,0-2.6,8.655,60.822,60.822,0,0,0-.959,7.307c-.156,2.089-.216,3.78-.244,4.95a8.484,8.484,0,0,0,.038,1.82" transform="translate(-101.526 -81.246)" fill="#e0e0e0"/><path d="M393,329.923a3.54,3.54,0,0,0,.048-.836c0-.629,0-1.421-.006-2.392-.006-2.076,0-5.079.106-8.789.184-7.419.823-15.4,2.057-26.658,1.168-10.584,2.736-22.9,4.391-30.91.355-1.821.712-3.46,1.049-4.9.32-1.438.595-2.679.859-3.682.228-.945.412-1.714.559-2.325a3.583,3.583,0,0,0,.147-.825,3.481,3.481,0,0,0-.291.784l-.695,2.292c-.308.994-.624,2.226-.984,3.659-.376,1.429-.77,3.065-1.159,4.884a271.484,271.484,0,0,0-4.616,28.681c-1.237,11.28-1.793,21.55-1.842,28.987-.044,3.718.035,6.728.13,8.8.059.972.107,1.763.146,2.391a3.5,3.5,0,0,0,.1.83" transform="translate(-101.526 -64.288)" fill="#e0e0e0"/><path d="M383.165,327.726a15.8,15.8,0,0,0-.018-2.5c-.092-1.605-.312-3.926-.764-6.769a89.428,89.428,0,0,0-2.2-9.862,80.744,80.744,0,0,0-4.124-11.669,62.155,62.155,0,0,0-12.112-18.859,30.716,30.716,0,0,0-2.849-2.648c-.437-.369-.823-.738-1.217-1.03l-1.105-.762a15.9,15.9,0,0,0-2.1-1.346c-.119.162,2.98,1.986,6.894,6.151a65.507,65.507,0,0,1,11.809,18.79,92.276,92.276,0,0,1,4.147,11.562,100.287,100.287,0,0,1,2.342,9.764c.516,2.814.815,5.111.995,6.7a16.061,16.061,0,0,0,.306,2.475" transform="translate(-92.231 -70.408)" fill="#e0e0e0"/><path d="M367.384,378.694l1.985,27.193H404.3l1.985-27.193Z" transform="translate(-95.002 -97.927)" fill="#e0e0e0"/><rect width="46.446" height="10.718" transform="translate(269.008 270.05)" fill="#e0e0e0"/><path d="M362.833,413.968v2.971h45.678v-2.971Z" transform="translate(-93.825 -107.048)" fill="#ebebeb"/><path d="M367.916,423.2l-2.139-5.229h41.832l-2.5,5.229Z" transform="translate(-94.586 -108.084)" fill="#e0e0e0"/><path d="M405.844,389.349a1.1,1.1,0,0,1-.163.25l-.522.692-2.034,2.6-.09.116-.088-.121-5-6.914h.288l-4.922,6.969-.154.219-.173-.205-5.838-6.946.337,0-.321.4-5.22,6.544-.174.218-.16-.227-4.925-6.968.287.014L370.9,392.9l-.108.123-.082-.139-1.9-3.19-.487-.85a1.318,1.318,0,0,1-.149-.3,1.391,1.391,0,0,1,.2.27l.539.817,1.994,3.133-.19-.015,5.968-6.994.15-.177.136.191,4.969,6.937-.334-.009,5.208-6.554.321-.4.166-.208.171.2,5.822,6.96-.327.013,4.972-6.934.145-.2.142.2,4.894,6.989-.178-.005,2.117-2.538.567-.656a1.14,1.14,0,0,1,.21-.212" transform="translate(-95.207 -99.694)" fill="#f5f5f5"/><path d="M406.874,378.376c0,.12-8.753.217-19.548.217s-19.55-.1-19.55-.217,8.752-.217,19.55-.217,19.548.1,19.548.217" transform="translate(-95.103 -97.788)" fill="#f5f5f5"/><path d="M408.071,418.294c0,.12-9.513.217-21.245.217s-21.247-.1-21.247-.217,9.511-.217,21.247-.217,21.245.1,21.245.217" transform="translate(-94.535 -108.111)" fill="#f5f5f5"/><path d="M17.765,381.157v32.291h99.3V381.157Z" transform="translate(-4.594 -98.564)" fill="#f5f5f5"/><path d="M12.146,368.981v9.027H119.087v-9.027H12.146Z" transform="translate(-3.141 -95.415)" fill="#e0e0e0"/><path d="M83.539,410.3h50V378.008h3.472v-9.027H81.455v8.193Z" transform="translate(-21.064 -95.415)" fill="#e0e0e0"/><rect width="20.138" height="4.861" transform="translate(27.06 287.801)" fill="#e0e0e0"/><rect width="25.859" height="10.264" transform="translate(24.467 298.738)" fill="#fff"/><path d="M38.371,325.486v32.291h99.3V325.486Z" transform="translate(-9.922 -84.167)" fill="#f5f5f5"/><path d="M32.752,313.31v9.027h106.94V313.31H32.752Z" transform="translate(-8.469 -81.019)" fill="#e0e0e0"/><path d="M104.145,354.628h50V322.337h3.473V313.31H102.061V321.5Z" transform="translate(-26.392 -81.019)" fill="#e0e0e0"/><rect width="20.138" height="4.861" transform="translate(42.337 246.525)" fill="#e0e0e0"/><rect width="25.858" height="10.264" transform="translate(39.746 257.463)" fill="#fff"/><path d="M336.4,424.961c0,.107-75.312.193-168.193.193C75.3,425.154,0,425.068,0,424.961s75.3-.193,168.209-.193c92.881,0,168.193.086,168.193.193" transform="translate(0 -109.841)" fill="#263238"/><path d="M139.661,260.745l-86.767-.051a18.733,18.733,0,0,1-18.889-18.567l.041-213.653A18.735,18.735,0,0,1,52.957,9.913l86.766.051c10.435.006,18.891,8.318,18.17,18.567l-.041,213.654c.717,10.255-7.751,18.566-18.192,18.56" transform="translate(-8.793 -2.563)" fill="#263238"/><path d="M141.824,18.211,125,18.2a4.177,4.177,0,0,0-4.085,4.268v3.052a4.179,4.179,0,0,1-4.085,4.268L84.038,29.77A4.183,4.183,0,0,1,79.954,25.5V22.445a4.182,4.182,0,0,0-4.084-4.273l-5.916,0L55.23,18.16A13.238,13.238,0,0,0,41.986,31.395l-.042,212.321a13.237,13.237,0,0,0,13.229,13.24l86.594.05a13.238,13.238,0,0,0,13.245-13.234l.042-212.322a13.237,13.237,0,0,0-13.229-13.239" transform="translate(-10.846 -4.696)" fill="#f24dc3"/><path d="M179.7,51.167c0,.061-2.334.129-5.213.153s-5.215-.006-5.216-.067,2.333-.129,5.214-.153,5.214.006,5.215.067" transform="translate(-43.771 -13.212)" fill="#fff"/><path d="M179.726,54.766c0,.061-2.334.129-5.213.153s-5.215-.006-5.216-.067,2.333-.129,5.214-.153,5.214.006,5.215.067" transform="translate(-43.779 -14.143)" fill="#fff"/><path d="M179.756,58.365c0,.061-2.334.129-5.213.153s-5.215-.007-5.216-.067,2.333-.129,5.214-.153,5.214.006,5.215.067" transform="translate(-43.786 -15.073)" fill="#fff"/><path d="M55.39,59.572a1.705,1.705,0,0,1,.216-.014l.6-.02,2.226-.053-.062.063q-.012-.741-.026-1.615c0-.3-.026-.583,0-.93a.855.855,0,0,1,.747-.687c.36-.007.675-.023,1.064-.005a.865.865,0,0,1,.73.86c.009.753.018,1.539.027,2.355l-.1-.1,2.809-.028-.107.108c-.01-1.131-.021-2.3-.032-3.5,0-.3,0-.6-.007-.892a.908.908,0,0,0-.394-.664l-1.229-1.21-1.185-1.169L60.1,51.5c-.2-.19-.352-.387-.581-.434a.758.758,0,0,0-.645.123c-.17.144-.351.348-.523.515l-1.008,1.016c-.634.658-1.295,1.26-1.775,1.829a1.991,1.991,0,0,0-.141,1.048q0,.522,0,.99-.006.91-.01,1.594c-.005.407-.008.744-.012,1.019a3.576,3.576,0,0,1-.013.368,2.542,2.542,0,0,1-.019-.337c-.007-.272-.017-.6-.028-1q-.016-.69-.036-1.607-.009-.477-.019-1.009,0-.27-.009-.552a1.165,1.165,0,0,1,.155-.588c.52-.637,1.14-1.2,1.779-1.878l1-1.025c.18-.177.328-.353.542-.538a.956.956,0,0,1,.815-.16,1.511,1.511,0,0,1,.674.482l.577.565,1.188,1.165,1.231,1.208a2.35,2.35,0,0,1,.314.34.923.923,0,0,1,.147.474q0,.445.008.9c.01,1.2.018,2.369.027,3.5v.108h-.108l-2.809.018h-.1v-.1c0-.816-.009-1.6-.013-2.355a.677.677,0,0,0-.567-.682c-.323-.017-.7-.006-1.019,0a.689.689,0,0,0-.606.546c-.027.282-.007.612-.013.9q0,.873,0,1.615v.064h-.062l-2.264-.016-.589-.01a1.084,1.084,0,0,1-.194-.011" transform="translate(-14.295 -13.148)" fill="#fff"/><path d="M108.276,283.721a16.128,16.128,0,1,1,22.809,0,16.129,16.129,0,0,1-22.809,0" transform="translate(-26.778 -66.248)" fill="#fff"/><path d="M111.368,280.237l4.027-.948a1.1,1.1,0,0,0,.849-1.071v-.83s-.174-1.409,1.157-1.5c.953-.064,7.012,0,7.012,0s1.594-.03,1.566,1.226v1.206a.943.943,0,0,0,.669.9l4.368,1.321A.943.943,0,0,0,132.16,280l.558-1.347a1.8,1.8,0,0,0,.139-.779,3.782,3.782,0,0,0-.751-2.018c-.866-1.11-4.948-3.734-12.734-3.357-7.415.36-9.031,3.485-9.457,4.233a3.174,3.174,0,0,0-.138,2.082c.076.178.2.477.323.77a1.1,1.1,0,0,0,1.268.649" transform="translate(-28.357 -70.457)" fill="#f24dc3"/><g transform="translate(81.733 143.224)" opacity="0.2"><g clip-path="url(#c)"><path d="M132.58,204.347a11.17,11.17,0,1,1-11.17-11.17,11.17,11.17,0,0,1,11.17,11.17" transform="translate(-110.24 -193.178)" fill="#fff"/></g></g><path d="M122.034,207.811a1.3,1.3,0,1,1-1.3-1.3,1.3,1.3,0,0,1,1.3,1.3" transform="translate(-30.885 -53.402)" fill="#fff"/><path d="M126.152,207.811a1.3,1.3,0,1,1-1.3-1.3,1.3,1.3,0,0,1,1.3,1.3" transform="translate(-31.95 -53.402)" fill="#fff"/><path d="M130.27,207.811a1.3,1.3,0,1,1-1.3-1.3,1.3,1.3,0,0,1,1.3,1.3" transform="translate(-33.014 -53.402)" fill="#fff"/><path d="M122.034,203.629a1.3,1.3,0,1,1-1.3-1.3,1.3,1.3,0,0,1,1.3,1.3" transform="translate(-30.885 -52.32)" fill="#fff"/><path d="M126.152,203.629a1.3,1.3,0,1,1-1.3-1.3,1.3,1.3,0,0,1,1.3,1.3" transform="translate(-31.95 -52.32)" fill="#fff"/><path d="M130.27,203.629a1.3,1.3,0,1,1-1.3-1.3,1.3,1.3,0,0,1,1.3,1.3" transform="translate(-33.014 -52.32)" fill="#fff"/><path d="M122.034,211.952a1.3,1.3,0,1,1-1.3-1.3,1.3,1.3,0,0,1,1.3,1.3" transform="translate(-30.885 -54.473)" fill="#fff"/><path d="M126.152,211.952a1.3,1.3,0,1,1-1.3-1.3,1.3,1.3,0,0,1,1.3,1.3" transform="translate(-31.95 -54.473)" fill="#fff"/><path d="M130.27,211.952a1.3,1.3,0,1,1-1.3-1.3,1.3,1.3,0,0,1,1.3,1.3" transform="translate(-33.014 -54.473)" fill="#fff"/><g transform="translate(49.662 143.224)" opacity="0.2"><g clip-path="url(#d)"><path d="M89.322,204.347a11.17,11.17,0,1,1-11.17-11.17,11.17,11.17,0,0,1,11.17,11.17" transform="translate(-66.983 -193.178)" fill="#fff"/></g></g><path d="M74.976,205.621v2.646a.2.2,0,0,0,.2.2h1.459a.205.205,0,0,1,.125.043l2.275,1.779a.2.2,0,0,0,.329-.16v-6.18a.2.2,0,0,0-.323-.165l-2.2,1.584a.2.2,0,0,1-.117.038l-1.546.009a.2.2,0,0,0-.2.2" transform="translate(-19.388 -52.687)" fill="#fff"/><path d="M86.516,211.152a.253.253,0,0,1-.171-.065.257.257,0,0,1-.02-.362,6.029,6.029,0,0,0,1.793-4.359,5.914,5.914,0,0,0-1.772-3.7.255.255,0,1,1,.34-.382,6.341,6.341,0,0,1,1.943,4.053,6.51,6.51,0,0,1-1.922,4.73.256.256,0,0,1-.191.085" transform="translate(-22.306 -52.292)" fill="#fff"/><path d="M84.614,210.282a.256.256,0,0,1-.175-.443A3.759,3.759,0,0,0,85.8,207.1a4.632,4.632,0,0,0-1.362-2.972.256.256,0,1,1,.35-.373,5.068,5.068,0,0,1,1.524,3.341,4.246,4.246,0,0,1-1.524,3.117.258.258,0,0,1-.175.069" transform="translate(-21.814 -52.671)" fill="#fff"/><path d="M82.93,209.358a.256.256,0,0,1-.18-.438,2.461,2.461,0,0,0-.012-3.4.256.256,0,0,1,.383-.34c.019.022,1.908,2.2-.011,4.1a.255.255,0,0,1-.18.074" transform="translate(-21.379 -53.037)" fill="#fff"/><g transform="translate(111.059 143.224)" opacity="0.2"><g clip-path="url(#d)"><path d="M172.133,204.347a11.17,11.17,0,1,1-11.17-11.17,11.17,11.17,0,0,1,11.17,11.17" transform="translate(-149.794 -193.178)" fill="#fff"/></g></g><path d="M164.832,210.759a.34.34,0,0,1-.341-.34v-7.045a.341.341,0,1,1,.682,0v7.045a.34.34,0,0,1-.341.34" transform="translate(-42.536 -52.502)" fill="#fff"/><path d="M166.965,208.465h-6.833a.341.341,0,0,1,0-.683h6.833a.341.341,0,0,1,0,.683" transform="translate(-41.32 -53.73)" fill="#fff"/><path d="M97.016,104.93q4.582,4.942,4.583,14.217a24,24,0,0,1-2.457,11.263,16.71,16.71,0,0,1-6.929,7.122,21.285,21.285,0,0,1-10.325,2.43,24.753,24.753,0,0,1-5.908-.69,15.875,15.875,0,0,1-4.8-1.96l3.313-6.57a12.51,12.51,0,0,0,7.232,1.932,10.462,10.462,0,0,0,7.785-2.9q2.87-2.9,3.092-8.365-3.478,3.479-9.606,3.478a15.066,15.066,0,0,1-6.736-1.49,11.769,11.769,0,0,1-4.8-4.224,11.374,11.374,0,0,1-1.767-6.321,12.039,12.039,0,0,1,1.932-6.791,12.6,12.6,0,0,1,5.273-4.5,17.2,17.2,0,0,1,7.426-1.574q8.116,0,12.7,4.941m-7.261,11.65a5.648,5.648,0,0,0,.056-8.309,7.158,7.158,0,0,0-4.941-1.6,6.9,6.9,0,0,0-4.666,1.546,5.251,5.251,0,0,0-1.794,4.2,5.335,5.335,0,0,0,1.794,4.225,7.924,7.924,0,0,0,9.552-.056" transform="translate(-18.02 -25.856)" fill="#fff"/><path d="M132.382,100.883v38.648h-8.944V108.06h-7.729v-7.178Z" transform="translate(-29.921 -26.087)" fill="#fff"/><path d="M161.573,100.883v38.648h-8.944V108.06H144.9v-7.178Z" transform="translate(-37.47 -26.087)" fill="#fff"/><path d="M71.909,172.4v1.3H67.116v-5.97H71.8v1.3H68.788v1.006H71.44v1.263H68.788V172.4Z" transform="translate(-17.356 -43.375)" fill="#fff"/><path d="M80.235,173.705l-.017-3.164-1.535,2.576h-.75l-1.527-2.49v3.078H74.845v-5.97h1.39l2.1,3.445,2.046-3.445h1.39l.017,5.97Z" transform="translate(-19.354 -43.375)" fill="#fff"/><path d="M90.612,172.4v1.3H85.819v-5.97H90.5v1.3H87.49v1.006h2.652v1.263H87.49V172.4Z" transform="translate(-22.192 -43.375)" fill="#fff"/><path d="M96.158,172.119h-.922v1.587H93.548v-5.97h2.729a3.413,3.413,0,0,1,1.407.268,2.172,2.172,0,0,1,.942,3.07,2.047,2.047,0,0,1-.866.755l1.288,1.876H97.24Zm.8-2.823a1.166,1.166,0,0,0-.785-.231h-.938v1.748h.938a1.182,1.182,0,0,0,.785-.225.8.8,0,0,0,.265-.644.815.815,0,0,0-.265-.648" transform="translate(-24.191 -43.375)" fill="#fff"/><path d="M105.952,170.551h1.492v2.473a3.878,3.878,0,0,1-1.177.563,4.692,4.692,0,0,1-1.331.2,3.552,3.552,0,0,1-1.688-.4,2.948,2.948,0,0,1-1.177-1.1,3.223,3.223,0,0,1,0-3.207,2.941,2.941,0,0,1,1.185-1.1,3.643,3.643,0,0,1,1.714-.4,3.82,3.82,0,0,1,1.5.282,2.891,2.891,0,0,1,1.108.81l-1.074.972a1.9,1.9,0,0,0-1.45-.665,1.6,1.6,0,0,0-1.705,1.705,1.8,1.8,0,0,0,.213.883,1.53,1.53,0,0,0,.6.606,1.754,1.754,0,0,0,.879.217,2.16,2.16,0,0,0,.912-.2Z" transform="translate(-26.284 -43.333)" fill="#fff"/><path d="M115.709,172.4v1.3h-4.792v-5.97H115.6v1.3h-3.01v1.006h2.652v1.263h-2.652V172.4Z" transform="translate(-28.682 -43.375)" fill="#fff"/><path d="M124.325,167.736v5.97h-1.39l-2.635-3.181v3.181h-1.655v-5.97h1.39l2.636,3.181v-3.181Z" transform="translate(-30.681 -43.375)" fill="#fff"/><path d="M129.1,173.386a2.962,2.962,0,0,1-1.173-1.1,3.227,3.227,0,0,1,0-3.206,2.969,2.969,0,0,1,1.173-1.1,3.538,3.538,0,0,1,1.684-.4,3.626,3.626,0,0,1,1.475.29,2.842,2.842,0,0,1,1.091.836l-1.074.972a1.768,1.768,0,0,0-1.407-.7,1.735,1.735,0,0,0-.866.213,1.483,1.483,0,0,0-.589.6,2.01,2.01,0,0,0,0,1.782,1.483,1.483,0,0,0,.589.6,1.735,1.735,0,0,0,.866.213,1.767,1.767,0,0,0,1.407-.7l1.074.973a2.84,2.84,0,0,1-1.091.836,3.614,3.614,0,0,1-1.475.29,3.521,3.521,0,0,1-1.684-.4" transform="translate(-32.971 -43.333)" fill="#fff"/><path d="M139.3,171.565v2.14h-1.688v-2.166l-2.278-3.8h1.782l1.416,2.371,1.415-2.371h1.638Z" transform="translate(-34.996 -43.375)" fill="#fff"/><path d="M148.874,173.386a2.952,2.952,0,0,1-1.173-1.1,3.222,3.222,0,0,1,0-3.206,2.959,2.959,0,0,1,1.173-1.1,3.531,3.531,0,0,1,1.683-.4,3.627,3.627,0,0,1,1.476.29,2.842,2.842,0,0,1,1.091.836l-1.074.972a1.768,1.768,0,0,0-1.407-.7,1.739,1.739,0,0,0-.866.213,1.483,1.483,0,0,0-.589.6,2.017,2.017,0,0,0,0,1.782,1.483,1.483,0,0,0,.589.6,1.739,1.739,0,0,0,.866.213,1.767,1.767,0,0,0,1.407-.7l1.074.973a2.84,2.84,0,0,1-1.091.836,3.615,3.615,0,0,1-1.476.29,3.515,3.515,0,0,1-1.683-.4" transform="translate(-38.084 -43.333)" fill="#fff"/><path d="M159.789,172.546h-2.525l-.469,1.16h-1.723l2.635-5.97h1.664l2.643,5.97h-1.756Zm-.495-1.245-.767-1.911-.767,1.911Z" transform="translate(-40.1 -43.375)" fill="#fff"/><path d="M165.081,167.736h1.688v4.631h2.848v1.339h-4.537Z" transform="translate(-42.688 -43.375)" fill="#fff"/><path d="M172.1,167.736h1.688v4.631h2.848v1.339H172.1Z" transform="translate(-44.502 -43.375)" fill="#fff"/><path d="M369.336,39.437,354.3,28.418l-1.922,18.162-19.115,2,14.681,14.681L336.7,73.972l15.918,1.17,1.848,14.288,12.6-10.641,17.065,10.641,4.769-17.61,18.843-2.648L391.23,57.422l8.905-15.643-14.341,3.28-4.031-19.24Z" transform="translate(-86.178 -6.677)" fill="#fff"/><path d="M369.219,39.367s.277-.322.817-.925l2.394-2.656,9.147-10.1.123-.136.039.181c1.116,5.276,2.491,11.78,4.067,19.232l-.156-.1,14.337-3.3.331-.076-.168.3-8.89,15.652-.048-.217,16.522,11.739.367.261-.446.063L388.81,71.937l.155-.137L384.2,89.411l-.067.25-.219-.137L370.75,81.317l-3.9-2.433.227-.016-12.6,10.64-.268.226-.045-.348q-.94-7.282-1.845-14.289l.172.162-15.917-1.177-.406-.03.294-.281,11.245-10.7,0,.245L333.035,48.617l-.226-.227.318-.033,19.118-1.976-.114.114c.765-7.1,1.415-13.137,1.956-18.158l.018-.163.131.1,11.123,8.214,2.88,2.138c.649.483.981.742.981.742s-.329-.225-.978-.692l-2.89-2.09-11.226-8.161.149-.066c-.522,5.023-1.149,11.06-1.888,18.165l-.011.1-.1.011-19.113,2.023.092-.259,14.695,14.669.124.124-.127.121L336.711,74.033l-.111-.311,15.918,1.163.153.011.019.151q.908,7,1.853,14.288l-.313-.122,12.6-10.643.108-.09.119.074,3.9,2.433L384.117,89.2l-.287.113c1.641-6.057,3.251-12,4.773-17.608l.032-.119.123-.018L407.6,68.926l-.079.324L391.017,57.488l-.122-.087.074-.13,8.92-15.635.163.219-14.345,3.261-.13.03-.027-.13c-1.548-7.459-2.9-13.967-4-19.247l.162.044-9.258,10.068-2.414,2.611c-.544.586-.824.875-.824.875" transform="translate(-86.061 -6.607)" fill="#263238"/><path d="M376.185,52.516l-1,14.4a2.337,2.337,0,0,1-4.655.082l-1.515-14.484a1.834,1.834,0,0,1,1.86-2.024l3.513.07a1.833,1.833,0,0,1,1.793,1.96" transform="translate(-95.422 -13.055)" fill="#f24dc3"/><path d="M369.283,83.039a3.515,3.515,0,1,0,2.255-4.431,3.516,3.516,0,0,0-2.255,4.431" transform="translate(-95.448 -20.282)" fill="#f24dc3"/><path d="M392.241,52.516l-1,14.4A2.337,2.337,0,0,1,386.59,67l-1.515-14.484a1.834,1.834,0,0,1,1.86-2.024l3.513.07a1.833,1.833,0,0,1,1.793,1.96" transform="translate(-99.574 -13.055)" fill="#f24dc3"/><path d="M385.339,83.039a3.515,3.515,0,1,0,2.255-4.431,3.516,3.516,0,0,0-2.255,4.431" transform="translate(-99.6 -20.282)" fill="#f24dc3"/><path d="M321.154,236.542a4.344,4.344,0,0,0-2.052-3.408c-18.237-12.07-31.981-38.822-33.366-61.468-.037-1.29-.077-2.6-.12-3.917v-.017h0c-1.139-34.052-5.9-73.247-10.1-82.123-8.936-18.883-34.686-21.152-34.686-21.152-35.549-2.544-41.9,24.772-45.487,49.653-2.232,15.472-10.83,70.742-10.83,70.742l6.534,2.528A80.43,80.43,0,0,0,238.6,237.124c6.554,2.468,12.1,3.459,14.706,1.336a89.438,89.438,0,0,0,37.409,22.711c5.742,1.747,11.759,2.914,17.734,2.355,3.88-.363,7.972-1.645,10.285-4.781a8.916,8.916,0,0,0-7.646-14.2c1.347-4.37,10.212-3.084,10.061-8.006" transform="translate(-47.712 -16.625)" fill="#263238"/><path d="M277.6,179.891s12.992-5.582,19.7-6.848,53.6-13.353,53.6-13.353l-48.394-41.472,10.676-12.99s35.947,21.45,61.505,38.546a3.461,3.461,0,0,1,.477.328c14.535,11.438,9.446,31.373-5.475,40.733-7.43,4.662-40,18.712-46.321,21.789-12.614,6.143-12.414,5.937-12.414,5.937Z" transform="translate(-71.786 -27.211)" fill="#ffc09d"/><path d="M255.479,77.337l-2.224-2.12L229.22,84.9a6.709,6.709,0,0,0-6.335,6.5l.211,78.31c-.031,5.311,1.034,9.91,4.239,14.142l3.376,4.457c7.7,10.161,23.529,9.325,29.622-1.871a8.529,8.529,0,0,0,.85-2.025,15.689,15.689,0,0,0,.357-1.751c.715-6.3.756-11.763.756-11.763.429-6.917.569-9.756.571-9.691,0,0,14.721-1.693,18.7-20.588,1.979-9.4,1.606-22.326,1.049-35.051-.77-17.609-12.984-28.247-27.139-28.23" transform="translate(-57.636 -19.45)" fill="#ffc09d"/><path d="M263.138,132.285a2.446,2.446,0,0,1-2.479,2.347,2.338,2.338,0,0,1-2.407-2.329,2.447,2.447,0,0,1,2.476-2.348,2.341,2.341,0,0,1,2.41,2.33" transform="translate(-66.781 -33.605)" fill="#263238"/><path d="M295.3,133.2a2.446,2.446,0,0,1-2.479,2.347,2.338,2.338,0,0,1-2.407-2.329,2.446,2.446,0,0,1,2.476-2.347,2.34,2.34,0,0,1,2.41,2.33" transform="translate(-75.099 -33.842)" fill="#263238"/><path d="M296.7,121.959c-.319.3-2.1-1.159-4.73-1.284-2.624-.162-4.621,1.094-4.89.757-.133-.149.2-.709,1.075-1.278a6.714,6.714,0,0,1,3.935-1,6.444,6.444,0,0,1,3.745,1.42c.777.661,1.022,1.25.866,1.386" transform="translate(-74.228 -30.809)" fill="#263238"/><path d="M260.755,122.14c-.35.268-1.974-1.369-4.575-1.762-2.593-.432-4.709.612-4.942.251-.115-.163.274-.685,1.2-1.162a6.711,6.711,0,0,1,4.017-.591,6.451,6.451,0,0,1,3.58,1.8c.7.736.887,1.349.719,1.467" transform="translate(-64.962 -30.718)" fill="#263238"/><path d="M276.419,141.457c-.005-.15,1.643-.35,4.308-.556.674-.036,1.317-.137,1.452-.59a3.415,3.415,0,0,0-.348-2.011q-.824-2.484-1.729-5.211c-2.391-7.416-4.087-13.5-3.788-13.593s2.482,5.841,4.873,13.256q.86,2.741,1.644,5.237a3.887,3.887,0,0,1,.216,2.652,1.685,1.685,0,0,1-1.154.926,4.579,4.579,0,0,1-1.148.1c-2.671.01-4.325-.062-4.328-.211" transform="translate(-71.443 -30.9)" fill="#263238"/><path d="M268.035,188.377a48.522,48.522,0,0,1-25.169-8.083s5.753,13.507,24.906,12.68Z" transform="translate(-62.803 -46.622)" fill="#ff9b6c"/><path d="M251.569,108.079c.093-.755,2.731-1.011,5.657-2.063,2.949-.993,5.174-2.43,5.717-1.9.247.259-.026,1.011-.853,1.911a10.468,10.468,0,0,1-8.666,3.016c-1.207-.192-1.888-.613-1.856-.969" transform="translate(-65.053 -26.895)" fill="#263238"/><path d="M294.561,108.433c-.492.574-2.272-.136-4.448-.275-2.171-.214-4.041.2-4.434-.446-.171-.312.15-.9.983-1.421a6.453,6.453,0,0,1,7.158.581c.739.652.961,1.28.742,1.561" transform="translate(-73.862 -27.274)" fill="#263238"/><path d="M222.225,124.371s13.463,4.19,21.082-29.038c2.605-11.363,13.139-20.564,13.139-20.564l-4.272-1.285s-26.55,7.479-27,7.814-6.7,13.732-6.7,13.732Z" transform="translate(-56.497 -19.002)" fill="#263238"/><path d="M223.182,138.551c.067-1.418-1.4-4.845-2.794-5.134-3.712-.771-10.469-.809-11.008,8.689-.737,12.983,12.45,11.044,12.493,10.673.035-.29,1.075-9.33,1.309-14.228" transform="translate(-54.136 -34.421)" fill="#ffc09d"/><path d="M219.338,149.071c-.055-.044-.235.145-.627.3a2.265,2.265,0,0,1-1.693-.061c-1.343-.581-2.374-2.824-2.3-5.168a7.47,7.47,0,0,1,.816-3.2,2.613,2.613,0,0,1,1.8-1.639,1.154,1.154,0,0,1,1.3.7c.153.373.056.628.124.653.034.035.291-.2.216-.743a1.446,1.446,0,0,0-.465-.843,1.708,1.708,0,0,0-1.232-.4,3.184,3.184,0,0,0-2.476,1.879,7.69,7.69,0,0,0-.989,3.574c-.065,2.621,1.134,5.145,2.981,5.794a2.428,2.428,0,0,0,2.088-.226c.42-.3.5-.584.461-.61" transform="translate(-55.288 -35.856)" fill="#ff9b6c"/><path d="M235.849,118.9a18.972,18.972,0,0,0,1.945-.392,11.735,11.735,0,0,0,4.623-2.683A16.072,16.072,0,0,0,244.829,113a21.713,21.713,0,0,0,1.962-3.795,81.593,81.593,0,0,0,2.8-9.441,98.854,98.854,0,0,1,2.986-9.427A54.028,54.028,0,0,1,255.957,83a39.129,39.129,0,0,1,2.973-4.562c.383-.516.718-.889.93-1.151a2.866,2.866,0,0,1,.346-.383,2.812,2.812,0,0,1-.292.426c-.2.276-.511.661-.876,1.188a44.225,44.225,0,0,0-2.868,4.6,56.718,56.718,0,0,0-3.3,7.33c-1.064,2.837-2.04,6.025-2.95,9.4a78.09,78.09,0,0,1-2.836,9.472,21.64,21.64,0,0,1-2.019,3.834,16.07,16.07,0,0,1-2.485,2.846,11.52,11.52,0,0,1-4.751,2.631,7.19,7.19,0,0,1-1.981.262" transform="translate(-60.988 -19.887)" fill="#263238"/><path d="M209.777,172.677a3.74,3.74,0,0,1-.141-.627c-.081-.457-.189-1.068-.327-1.845-.277-1.667-.669-4.039-1.168-7.049l.314-.044c.066.472.139.993.214,1.533l-.014-.048.272.583-.326.12a125.061,125.061,0,0,1-4.163-20.9,126.659,126.659,0,0,1-.793-13.519c.046-4.746.012-9.786,1.283-14.821a23.388,23.388,0,0,1,2.361-5.893,32.134,32.134,0,0,1,3.59-5c2.641-3.05,5.484-5.673,8.081-8.277L232.9,83.175l9.434-9.209,2.585-2.482.683-.635a1.308,1.308,0,0,1,.248-.2,1.3,1.3,0,0,1-.2.245l-.641.677-2.507,2.561-9.3,9.342-13.849,13.8c-2.588,2.616-5.426,5.252-8.024,8.267a25.61,25.61,0,0,0-5.819,10.664c-1.247,4.924-1.227,9.944-1.282,14.67a129.348,129.348,0,0,0,.741,13.464,130.772,130.772,0,0,0,3.975,20.862l-.325.12c-.093-.206-.185-.409-.264-.586l-.011-.024,0-.024c-.067-.54-.132-1.064-.191-1.536l.314-.045c.436,3.02.779,5.4,1.02,7.072.1.783.185,1.4.247,1.858a3.627,3.627,0,0,1,.056.641" transform="translate(-52.66 -18.268)" fill="#455a64"/><path d="M198.128,112.339a2.235,2.235,0,0,1,.228-.549l.758-1.524c.658-1.323,1.7-3.195,3.058-5.46s3.09-4.9,5.136-7.737c2.071-2.817,4.467-5.83,7.157-8.841,2.708-3,5.45-5.7,8.032-8.058,2.6-2.336,5.033-4.343,7.148-5.93s3.859-2.826,5.1-3.62l1.435-.915a2.262,2.262,0,0,1,.522-.285,2.276,2.276,0,0,1-.455.384l-1.37,1.005c-1.2.851-2.911,2.132-4.979,3.762s-4.466,3.654-7.037,6c-2.549,2.37-5.265,5.07-7.959,8.051-2.676,3-5.072,5.982-7.158,8.767-2.06,2.805-3.826,5.4-5.22,7.634s-2.493,4.063-3.212,5.35l-.854,1.469a2.237,2.237,0,0,1-.334.494" transform="translate(-51.233 -17.951)" fill="#455a64"/><path d="M222.349,202.659l-.048-.016.048.016" transform="translate(-57.485 -52.402)" fill="#455a64"/><path d="M222.254,202.628l-.131-.043.131.043" transform="translate(-57.439 -52.386)" fill="#455a64"/><path d="M312.252,365.236,293.64,308.5l-1.466-53.918c-.459-9.3-1.143-22.893-1.143-22.893-6.072-18.995-25.38-35.033-25.38-35.033L254.694,198.3c-.42,11.855-18.512,22.62-31.524,14.763-4.812-3.454-8.517-11.948-8.517-11.948L192.541,211.8,207.725,320.33s-14.974,27.941-14.974,44.906Z" transform="translate(-49.789 -50.854)" fill="#455a64"/><path d="M222.08,202.57l-.128-.042.128.042" transform="translate(-57.395 -52.372)" fill="#455a64"/><path d="M221.929,202.52h0" transform="translate(-57.372 -52.364)" fill="#455a64"/><g transform="translate(156.455 158.87)" opacity="0.3"><g clip-path="url(#f)"><path d="M211.024,311.936c2.719,6.94,8.061,13.05,15.053,15.631s15.587,1.123,20.615-4.379c3.087-3.379,4.635-7.881,5.618-12.35a119.174,119.174,0,0,0,1.811-11.926c2.342-20.3,4.046-40.8,2.171-61.144l-2.776-23.486L245.5,218.8l-3.724,83.65Z" transform="translate(-211.024 -214.281)"/></g></g><path d="M276.661,194.852s16.112-4.047,29.213-4.394l21.728-5.483,3.712,38.821-20.716,13.3Z" transform="translate(-71.542 -47.832)" fill="#455a64"/><path d="M210.88,262.851,172.73,281.991s-10.568-56.614,13.994-64.9l1.42,8.042Z" transform="translate(-44.082 -56.137)" fill="#455a64"/><path d="M323.753,213.12a1.287,1.287,0,0,1,.033.256c.015.19.034.439.059.754.045.687.108,1.659.189,2.9.162,2.519.354,6.165.586,10.67.452,9.012.981,21.465,1.484,35.222s.9,26.221,1.149,35.24c.114,4.492.208,8.136.273,10.681.022,1.243.039,2.217.052,2.9,0,.316,0,.566,0,.755a1.3,1.3,0,0,1-.012.258,1.23,1.23,0,0,1-.027-.257c-.01-.19-.024-.44-.042-.755-.03-.687-.071-1.661-.125-2.9-.094-2.544-.229-6.186-.4-10.677-.324-9.037-.77-21.483-1.262-35.235-.535-13.744-1.02-26.188-1.372-35.224-.2-4.489-.352-8.13-.463-10.675-.05-1.242-.089-2.215-.116-2.9-.009-.316-.016-.565-.021-.756a1.245,1.245,0,0,1,.006-.258" transform="translate(-83.717 -55.111)" fill="#263238"/><path d="M173.518,288.736a.645.645,0,0,1,.153-.1l.466-.256,1.808-.948,6.685-3.423,22.118-11.16,4.637-2.325-.092.239a51.814,51.814,0,0,0-2.312-5.667c-.856-1.793-1.519-3.57-2.162-5.247-1.262-3.359-2.568-6.281-3.638-8.732s-1.912-4.427-2.453-5.8c-.268-.689-.472-1.223-.6-1.588a3.71,3.71,0,0,1-.182-.561,3.656,3.656,0,0,1,.248.535l.663,1.561c.579,1.358,1.449,3.319,2.557,5.753s2.436,5.354,3.723,8.715c.652,1.671,1.323,3.442,2.175,5.208a51.1,51.1,0,0,1,2.339,5.689l.062.162-.154.078-4.635,2.328-22.17,11.06-6.739,3.313-1.841.883-.483.221a.638.638,0,0,1-.171.064" transform="translate(-44.87 -62.881)" fill="#263238"/><path d="M277.676,157.09a10.187,10.187,0,0,0-4.97-1.779,3.6,3.6,0,0,0-1.654.173,2.943,2.943,0,0,0-1.571,1.889,8.728,8.728,0,0,0-.278,2.512,1.94,1.94,0,0,0,.147.943,1.815,1.815,0,0,0,1.533.722,11.432,11.432,0,0,0,5.864-1.079" transform="translate(-69.613 -40.156)" fill="#ff9b6c"/><path d="M180.064,278.4c7.794,18.12,22.615,36.511,31.748,39.877,13.609,5.014,24.874,2.522,30.088-14.07s1.873-90.3,1.873-90.3l-22.688-1.3-4.2,63.506s-2.506-4.931-6.917-12.712" transform="translate(-46.563 -54.976)" fill="#ffc09d"/><path d="M302.348,109.024l-5.71-4.165-.876-7.163s-10.322.266-10.954-5.264c0,0-5.951,1.58-5.662-4.267,0,0-3.029-2.054-1.922-3.95s9.655-4.717,10.13-4.875S293.417,78,293.417,78l-1.655-1.844-4.425.474s-2.686,2.528-4.9,2.844-2.37-.632-2.37-.632-2.528-2.686.79-5.372a18.8,18.8,0,0,1,9.8-3.792c2.212-.158,5.177,4.105,5.177,4.105l2.407,4.269s4.74-.632,6.32,3v2.528s3.476-.475,4.9,3.634l.948,3.634s4.109,5.373,4.267,7.585" transform="translate(-71.625 -18.017)" fill="#ffc09d"/><path d="M314.615,98.376c-.016,0-.033-.2-.134-.561a9.574,9.574,0,0,0-.655-1.555,40.385,40.385,0,0,0-3.554-5.41l-.012-.016,0-.019c-.289-1.085-.614-2.31-.965-3.629l0,.008a5.746,5.746,0,0,0-1.656-2.529,4.367,4.367,0,0,0-3.118-1.008l-.153.013v-.148c0-.779,0-1.642-.007-2.528l.012.057a4.617,4.617,0,0,0-2.449-2.385,7.7,7.7,0,0,0-3.719-.515l-.11.01-.051-.09-2.415-4.265.008.013a18.878,18.878,0,0,0-1.719-2.06,8.6,8.6,0,0,0-2.137-1.679,2.474,2.474,0,0,0-1.28-.274c-.469.036-.94.106-1.412.186a20.383,20.383,0,0,0-2.814.715,17.02,17.02,0,0,0-5.268,2.783,4.307,4.307,0,0,0-1.673,2.393,3.37,3.37,0,0,0,.817,2.768l.032.038.017.062a.837.837,0,0,0,.583.438,3.02,3.02,0,0,0,.909.094,5.03,5.03,0,0,0,1.863-.416,13.672,13.672,0,0,0,3.337-2.209l.256-.229.05-.044.062-.007,4.424-.474.1-.01.066.073,1.655,1.845.22.245-.323.071-5.749,1.266c-1.851.546-3.628,1.243-5.352,1.944q-1.292.532-2.51,1.148a9.223,9.223,0,0,0-2.217,1.448,1.614,1.614,0,0,0-.46,1.077,2.252,2.252,0,0,0,.342,1.157,6.409,6.409,0,0,0,1.734,1.795l.072.053,0,.1c.013.367-.006.737.033,1.1a4.5,4.5,0,0,0,.237,1.039,2.851,2.851,0,0,0,1.246,1.591,5.558,5.558,0,0,0,3.935.381l.179-.039.017.172a4.26,4.26,0,0,0,1.768,2.944,9.376,9.376,0,0,0,3.029,1.434,21.957,21.957,0,0,0,6,.784h.109l.013.1c.334,2.837.612,5.2.842,7.166l-.034-.059,4.226,3.133,1.078.813c.24.185.355.287.355.287s-.133-.078-.383-.251l-1.1-.777-4.275-3.067-.03-.022-.005-.037c-.248-1.961-.549-4.325-.909-7.159l.122.1A22.066,22.066,0,0,1,289.625,97a9.619,9.619,0,0,1-3.131-1.465,4.568,4.568,0,0,1-1.9-3.145l.2.133a7.31,7.31,0,0,1-2.093.188,4.555,4.555,0,0,1-2.094-.591,3.188,3.188,0,0,1-1.391-1.756,4.869,4.869,0,0,1-.259-1.117c-.042-.38-.024-.764-.038-1.15l.076.151a6.716,6.716,0,0,1-1.844-1.9A2.6,2.6,0,0,1,276.754,85a1.975,1.975,0,0,1,.557-1.319,9.506,9.506,0,0,1,2.309-1.523q1.233-.627,2.535-1.165a56.975,56.975,0,0,1,5.377-1.963l5.787-1.282-.1.316-1.656-1.844.163.063-4.424.475.112-.052-.266.239a14.016,14.016,0,0,1-3.441,2.272,5.41,5.41,0,0,1-2,.446,3.362,3.362,0,0,1-1.032-.111,1.141,1.141,0,0,1-.849-.742l.049.1a3.741,3.741,0,0,1-.91-3.1,4.087,4.087,0,0,1,.685-1.484c.172-.206.343-.417.531-.6s.389-.365.6-.526a17.355,17.355,0,0,1,5.388-2.836,20.648,20.648,0,0,1,2.867-.722c.481-.081.962-.152,1.445-.188a2.827,2.827,0,0,1,1.465.314,8.894,8.894,0,0,1,2.23,1.756,19.377,19.377,0,0,1,1.747,2.108l0,.006,0,.008c.836,1.487,1.647,2.935,2.4,4.273l-.16-.08a7.978,7.978,0,0,1,3.882.554,4.911,4.911,0,0,1,2.59,2.55l.012.027v.03c0,.886-.005,1.749-.007,2.528l-.154-.134a4.61,4.61,0,0,1,3.316,1.086,5.97,5.97,0,0,1,1.708,2.645l0,.005v0l.932,3.638-.017-.034a38.1,38.1,0,0,1,3.492,5.482,8.639,8.639,0,0,1,.614,1.587,2.792,2.792,0,0,1,.085.575" transform="translate(-71.566 -17.957)" fill="#ff9b6c"/><path d="M311.046,111.087a13.991,13.991,0,0,1-1.131-.862,12.561,12.561,0,0,0-3-1.57,24.947,24.947,0,0,0-3.261-1c-.853-.162-1.4-.145-1.4-.208a3.109,3.109,0,0,1,1.444-.062,16.382,16.382,0,0,1,3.356.9,10.156,10.156,0,0,1,3.031,1.717,3.325,3.325,0,0,1,.962,1.077" transform="translate(-78.16 -27.76)" fill="#ff9b6c"/><path d="M308.784,98.347a3.722,3.722,0,0,1-.859.1l-2.343.133c-1.979.1-4.714.2-7.734.294l-4.259.115a30.95,30.95,0,0,0-3.453.2,13.26,13.26,0,0,0-2.278.45c-.525.16-.8.3-.813.273a2.255,2.255,0,0,1,.762-.414,10.751,10.751,0,0,1,2.29-.579,26.69,26.69,0,0,1,3.485-.282l4.258-.145c3.021-.093,5.756-.155,7.736-.181l2.346-.01a3.677,3.677,0,0,1,.861.049" transform="translate(-74.227 -25.419)" fill="#ff9b6c"/><path d="M302.246,89.39a3.9,3.9,0,0,1-.87.175l-2.382.356c-2.011.3-4.787.731-7.836,1.294s-5.8,1.15-7.783,1.59l-2.352.518a3.874,3.874,0,0,1-.874.147,3.962,3.962,0,0,1,.837-.292c.546-.165,1.34-.384,2.327-.638,1.972-.509,4.718-1.139,7.775-1.7s5.847-.956,7.871-1.185c1.012-.115,1.832-.194,2.4-.234a3.872,3.872,0,0,1,.887-.026" transform="translate(-72.444 -23.112)" fill="#ff9b6c"/><path d="M297.227,74.679c.1-.033.37.59.327,1.41s-.372,1.413-.465,1.37.047-.642.079-1.389-.049-1.361.059-1.391" transform="translate(-76.815 -19.311)" fill="#ff9b6c"/><path d="M201.934,134.975c6.272,8.306,22.6,32.348,29.255,40.952,1.4,1.813,5.485,1.143,7.287-.274,4.285-3.372,11.789-9.228,16.265-12.441a4.124,4.124,0,0,0,.865-5.869L223.79,116.015a4.127,4.127,0,0,0-6.052-.53l-15.29,13.961a4.122,4.122,0,0,0-.514,5.529" transform="translate(-52.003 -29.584)" fill="#455a64"/><path d="M231.166,264.843l-3.625-9.751,4.2-63.505s-8.368-15.249-9.3-18.6-1.163-13.047-1.163-13.047l5.848,6.785s.161-11.662.161-15.567c0,0,.835-14.663.977-16.7a3.634,3.634,0,0,1,3.533-3.127c1.329,0,2.617,2.424,2.617,2.424l1.789,23.979s2.949-12.609,4.064-14.283,4.97-2.472,7.574-2.287l.078.007a2.2,2.2,0,0,1,1.014,3.994l-3.433,2.4L244.2,159.6s3.161-10.415,4.835-11.716,4.649,0,5.207,1.488-1.488,4.463-1.488,4.463l-.558,7.439s2.232-3.161,3.328-4.835,3.924,0,4.266.744-2.016,8.77-2.016,8.77l-3.347,26.935,1.054,38.781" transform="translate(-57.221 -33.962)" fill="#ffc09d"/><path d="M255.419,231.6s-.018-.226-.036-.669-.039-1.109-.07-1.972c-.054-1.745-.135-4.311-.239-7.634-.194-6.665-.477-16.356-.83-28.5v-.019c.981-7.964,2.094-17,3.318-26.939v-.011l0-.013c.431-1.494.856-3.021,1.252-4.577.2-.778.391-1.565.555-2.361.082-.4.154-.8.205-1.2a2.1,2.1,0,0,0,0-.529,1.627,1.627,0,0,0-.364-.412,4.121,4.121,0,0,0-2.172-.939,1.611,1.611,0,0,0-1.091.266,4.07,4.07,0,0,0-.753.945l-2.932,4.265-.348.507.046-.615c.171-2.3.36-4.851.553-7.439l0-.044.027-.041a12.008,12.008,0,0,0,1.283-2.481,3.9,3.9,0,0,0,.264-1.338,1.708,1.708,0,0,0-.533-1.165,4.271,4.271,0,0,0-2.464-1.2,2.388,2.388,0,0,0-2.425.942,15.728,15.728,0,0,0-1.338,2.605q-.577,1.37-1.092,2.785c-.692,1.884-1.329,3.812-1.933,5.763l-.357-.073,1.3-12.028.01-.085.07-.049,3.248-2.273a2.031,2.031,0,0,0-1.172-3.8,13.133,13.133,0,0,0-1.988.09,11,11,0,0,0-3.82,1.094,3.076,3.076,0,0,0-1.377,1.309,15.778,15.778,0,0,0-.71,1.893c-.417,1.3-.79,2.626-1.149,3.959-.718,2.667-1.389,5.37-2.033,8.1l-.287,1.214-.093-1.244c-.241-3.234-.5-6.7-.761-10.192q-.518-6.963-1.028-13.787l.021.076a6.5,6.5,0,0,0-1.615-2,2.151,2.151,0,0,0-2.315.061,3.348,3.348,0,0,0-1.684,1.774,3.866,3.866,0,0,0-.2,1.242l-.077,1.313q-.308,5.249-.61,10.389c-.088,1.713-.228,3.416-.272,5.111q-.028,2.545-.054,5.059-.053,5.028-.106,9.925l-.005.485-.317-.368-5.844-6.788.314-.121c.088,3.012.234,5.984.514,8.891a25.831,25.831,0,0,0,.687,4.262,36.552,36.552,0,0,0,1.673,3.911c2.464,5.09,5.052,9.9,7.548,14.509l.022.041,0,.046c-1.981,29.291-3.5,51.744-4.3,63.5l0-.027c1.2,3.266,2.094,5.705,2.694,7.335l.661,1.827c.145.406.209.611.209.611s-.085-.2-.24-.6l-.692-1.816-2.752-7.314,0-.013v-.014c.761-11.758,2.213-34.215,4.107-63.511l.019.087c-2.506-4.606-5.1-9.414-7.577-14.515a36.83,36.83,0,0,1-1.7-3.959,26.186,26.186,0,0,1-.7-4.326c-.283-2.921-.432-5.895-.523-8.916l-.015-.5.33.383,5.85,6.782-.321.117q.049-4.9.1-9.93.026-2.514.051-5.061c.043-1.7.182-3.4.271-5.115q.3-5.144.606-10.4l.076-1.315a4.259,4.259,0,0,1,.225-1.349,3.727,3.727,0,0,1,1.871-1.983,4.1,4.1,0,0,1,1.329-.407,1.747,1.747,0,0,1,.735.047,2.183,2.183,0,0,1,.648.33,6.85,6.85,0,0,1,1.73,2.128l.019.033,0,.043q.509,6.819,1.03,13.788c.26,3.491.519,6.958.76,10.192l-.38-.03c.646-2.731,1.317-5.435,2.037-8.108.36-1.337.734-2.665,1.156-3.977a15.981,15.981,0,0,1,.735-1.951,3.459,3.459,0,0,1,1.533-1.467,11.363,11.363,0,0,1,3.958-1.137,13.592,13.592,0,0,1,2.047-.092,2.5,2.5,0,0,1,1.951.762,2.454,2.454,0,0,1,.6,2.014,2.41,2.41,0,0,1-.4,1,2.975,2.975,0,0,1-.774.716l-3.25,2.272.079-.133c-.451,4.156-.895,8.25-1.3,12.027l-.357-.073c.609-1.96,1.248-3.889,1.944-5.781q.516-1.421,1.1-2.8a16.028,16.028,0,0,1,1.379-2.673,2.719,2.719,0,0,1,.532-.583,2.91,2.91,0,0,1,.7-.367,3.358,3.358,0,0,1,1.529-.133,4.613,4.613,0,0,1,2.674,1.306,2.067,2.067,0,0,1,.627,1.4,4.208,4.208,0,0,1-.285,1.462,12.341,12.341,0,0,1-1.326,2.561l.03-.085c-.2,2.588-.389,5.136-.563,7.438l-.3-.108,2.932-4.253.361-.524a2.049,2.049,0,0,1,.472-.5,1.934,1.934,0,0,1,1.306-.326,4.431,4.431,0,0,1,2.355,1.019,1.049,1.049,0,0,1,.47,1.219c-.053.417-.128.824-.212,1.226-.166.8-.363,1.593-.561,2.374-.4,1.562-.827,3.088-1.263,4.586l.005-.024c-1.246,9.933-2.378,18.969-3.377,26.932v-.019c.307,12.149.551,21.841.719,28.506.076,3.324.136,5.89.176,7.636q.024,1.295.037,1.972c.006.444,0,.67,0,.67" transform="translate(-57.154 -33.896)" fill="#ff9b6c"/><path d="M229.527,191.1a17.8,17.8,0,0,1-.21-2.633c-.081-1.629-.165-3.881-.235-6.368s-.11-4.741-.121-6.372a17.871,17.871,0,0,1,.063-2.641,18.144,18.144,0,0,1,.21,2.636c.081,1.629.165,3.88.234,6.367s.11,4.738.122,6.369a17.909,17.909,0,0,1-.063,2.643" transform="translate(-59.206 -44.759)" fill="#ff9b6c"/><path d="M276.681,160.415a2.712,2.712,0,0,1-.724.4,10.454,10.454,0,0,1-2.149.673,10.869,10.869,0,0,1-3.353.145,2.215,2.215,0,0,1-.971-.357,1.3,1.3,0,0,1-.524-.988,13.3,13.3,0,0,1,.079-2.141,4.165,4.165,0,0,1,.785-2.028,2.571,2.571,0,0,1,1.767-1.026,8.62,8.62,0,0,1,3.33.476,9.264,9.264,0,0,1,2.037.966,2.6,2.6,0,0,1,.655.5,17.316,17.316,0,0,0-2.774-1.209,8.848,8.848,0,0,0-3.2-.383,2.215,2.215,0,0,0-1.515.9,3.848,3.848,0,0,0-.7,1.851,13.918,13.918,0,0,0-.084,2.053c.005.642.588.945,1.175,1.028a11.321,11.321,0,0,0,3.247-.062,21.225,21.225,0,0,0,2.923-.8" transform="translate(-69.547 -40.099)" fill="#263238"/><path d="M389.568,182.8a7.523,7.523,0,0,1-2.006.033,22.738,22.738,0,0,1-9.262-2.662,7.581,7.581,0,0,1-1.683-1.093,16.189,16.189,0,0,1,1.807.85,28.793,28.793,0,0,0,9.162,2.633,16.218,16.218,0,0,1,1.982.24" transform="translate(-97.389 -46.306)" fill="#ff9b6c"/></g></g></svg>