<svg xmlns="http://www.w3.org/2000/svg" width="61.256" height="83.114" viewBox="0 0 61.256 83.114"><g transform="translate(-67.326)"><path d="M113.219,0H67.326V83.114h61.256V15.363Zm-.871,6.016,10.219,10.218H112.347ZM72.2,78.244V4.87h35.281V21.1h16.234v57.14Z" fill="#402466"/><path d="M198.153,210.59a9.087,9.087,0,1,0-18.174,0v2.253h-3.884v23.94h25.943v-23.94h-3.884V210.59Zm-13.3,0a4.217,4.217,0,1,1,8.434,0v2.253h-8.434V210.59Zm12.318,21.323H191.5v-9.732h-4.87v9.732h-5.666v-14.2h16.2v14.2Z" transform="translate(-91.111 -168.793)" fill="#402466"/><path d="M143.5,56.5h20.535v4.87H143.5Z" transform="translate(-63.809 -47.328)" fill="#402466"/><path d="M143.5,118h20.535v4.87H143.5Z" transform="translate(-63.809 -98.845)" fill="#402466"/></g></svg>