<svg xmlns="http://www.w3.org/2000/svg" width="61.256" height="61.256" viewBox="0 0 61.256 61.256"><path d="M305,60.333h3.589v3.589H305Z" transform="translate(-268.51 -53.115)" fill="#402466"/><path d="M365.667,60.333h3.589v3.589h-3.589Z" transform="translate(-321.918 -53.115)" fill="#402466"/><path d="M426.333,60.333h3.589v3.589h-3.589Z" transform="translate(-375.326 -53.115)" fill="#402466"/><path d="M0,0V61.256H61.256V0ZM57.667,14.835H3.589V11.166H20.242l3.727-7.577h33.7ZM19.969,3.589,18.007,7.577H3.589V3.589ZM3.589,57.667V18.425H57.667V57.667Z" fill="#402466"/><path d="M80.684,212.485a5.914,5.914,0,1,0-5.914,5.914A5.92,5.92,0,0,0,80.684,212.485Zm-5.914,2.324a2.324,2.324,0,1,1,2.324-2.324A2.327,2.327,0,0,1,74.771,214.809Z" transform="translate(-60.619 -181.857)" fill="#402466"/><path d="M143.628,344.286a5.914,5.914,0,1,0,5.914,5.914A5.92,5.92,0,0,0,143.628,344.286Zm0,8.238a2.324,2.324,0,1,1,2.324-2.324A2.327,2.327,0,0,1,143.628,352.524Z" transform="translate(-121.238 -303.095)" fill="#402466"/><path d="M350.2,344.286a5.914,5.914,0,1,0,5.914,5.914A5.92,5.92,0,0,0,350.2,344.286Zm0,8.238a2.324,2.324,0,1,1,2.324-2.324A2.327,2.327,0,0,1,350.2,352.524Z" transform="translate(-303.095 -303.095)" fill="#402466"/><path d="M287.256,212.485a5.914,5.914,0,1,0-5.914,5.914,5.92,5.92,0,0,0,5.914-5.914Zm-5.914,2.324a2.324,2.324,0,1,1,2.324-2.324A2.327,2.327,0,0,1,281.343,214.809Z" transform="translate(-242.477 -181.857)" fill="#402466"/><path d="M206.571,206.563h3.589V218.4h-3.589Z" transform="translate(-181.857 -181.85)" fill="#402466"/><path d="M275.429,344.245h3.589v11.837h-3.589Z" transform="translate(-242.477 -303.059)" fill="#402466"/><path d="M68.857,344.245h3.589v11.837H68.857Z" transform="translate(-60.619 -303.059)" fill="#402466"/><path d="M413.143,206.563h3.589V218.4h-3.589Z" transform="translate(-363.714 -181.85)" fill="#402466"/></svg>