<svg xmlns="http://www.w3.org/2000/svg" width="61.359" height="61.358" viewBox="0 0 61.359 61.358"><path d="M57.524,50.389V43H50.061A27.254,27.254,0,0,0,52,32.934v-.457h7.56v-3.6H52V18.356h5.522V10.969a5.633,5.633,0,1,0-3.6,0v3.791H51.036L30.679,4.082,10.323,14.761H7.43V10.969a5.633,5.633,0,1,0-3.6,0v7.387H9.357V28.882H1.8v3.6h7.56v.457A27.252,27.252,0,0,0,11.3,43H3.835v7.387a5.633,5.633,0,1,0,3.6,0V46.6h5.613a26.984,26.984,0,0,0,2.171,3.2,27.308,27.308,0,0,0,15.049,9.6l.416.1.416-.1a27.308,27.308,0,0,0,15.049-9.6,26.994,26.994,0,0,0,2.171-3.2h5.613v3.791a5.633,5.633,0,1,0,3.6,0ZM55.726,3.6a2.037,2.037,0,1,1-2.037,2.037A2.04,2.04,0,0,1,55.726,3.6ZM5.633,3.6A2.037,2.037,0,1,1,3.6,5.633,2.04,2.04,0,0,1,5.633,3.6Zm0,54.168A2.037,2.037,0,1,1,7.67,55.726,2.04,2.04,0,0,1,5.633,57.763ZM39.485,30.222a9.09,9.09,0,0,1,0,3.639l-.2.982L40.942,36.4l-1.352,2.342L37.4,38.091l-.75.668a8.925,8.925,0,0,1-3.144,1.818l-.954.316-.523,2.218h-2.7L28.8,40.893l-.953-.316a8.926,8.926,0,0,1-3.144-1.818l-.75-.668-2.186.657L20.417,36.4l1.658-1.562-.2-.983a9.094,9.094,0,0,1,0-3.639l.2-.983-1.658-1.562,1.352-2.342,2.186.657.75-.668a8.926,8.926,0,0,1,3.144-1.818l.953-.316.523-2.218h2.7l.523,2.218.954.316a8.928,8.928,0,0,1,3.144,1.818l.75.668,2.186-.657,1.352,2.342L39.283,29.24ZM12.953,32.934V17.441L28.882,9.085v8.292h-2.4l-.727,3.08a12.454,12.454,0,0,0-2.642,1.528l-3.034-.911-4.2,7.271,2.306,2.171a12.7,12.7,0,0,0,0,3.051l-2.306,2.171,4.2,7.271,3.034-.911a12.457,12.457,0,0,0,2.642,1.528l.727,3.08h2.4v8.549a23.509,23.509,0,0,1-15.929-22.32Zm19.524,22.32V46.706h2.4l.727-3.08A12.452,12.452,0,0,0,38.246,42.1l3.034.911,4.2-7.271-2.306-2.171a12.688,12.688,0,0,0,0-3.051l2.306-2.171-4.2-7.271-3.034.911A12.447,12.447,0,0,0,35.6,20.457l-.727-3.08h-2.4V9.085l15.929,8.356V32.934a23.509,23.509,0,0,1-15.929,22.32Zm23.249,2.509a2.037,2.037,0,1,1,2.037-2.037A2.04,2.04,0,0,1,55.726,57.763Z" fill="#402466"/><path d="M213.7,219.31a5.759,5.759,0,1,0,5.759,5.759A5.766,5.766,0,0,0,213.7,219.31Zm0,7.923a2.164,2.164,0,1,1,2.164-2.164A2.166,2.166,0,0,1,213.7,227.233Z" transform="translate(-183.024 -193.028)" fill="#402466"/></svg>