<svg xmlns="http://www.w3.org/2000/svg" width="61.256" height="61.532" viewBox="0 0 61.256 61.532"><g transform="translate(-1.147 0)"><path d="M57.218,5.184a17.75,17.75,0,0,0-25.074,0A17.541,17.541,0,0,0,27.065,15.71a17.849,17.849,0,0,0,1.767,9.965L1.147,53.36l7.895,7.895,3.216-3.216,3.492,3.492,7.493-7.493-3.492-3.492,2.569-2.569,3.492,3.492,7.493-7.493-3.492-3.492,6.914-6.914a17.849,17.849,0,0,0,9.965,1.767,17.541,17.541,0,0,0,10.526-5.079,17.75,17.75,0,0,0,0-25.074Zm-2.55,22.524A14.082,14.082,0,0,1,37.348,29.8l-1.21-.736L24.714,40.484l3.492,3.492-2.393,2.393L22.32,42.877l-7.669,7.669,3.492,3.492-2.393,2.393L12.258,52.94,9.042,56.156l-2.795-2.8,27.1-27.1-.736-1.21a14.125,14.125,0,1,1,22.062,2.655Z" fill="#402466"/><path d="M344.43,71.55a5.906,5.906,0,0,0,8.353,8.353h0a5.906,5.906,0,0,0-8.353-8.353Zm5.8,5.8a2.3,2.3,0,1,1,0-3.253A2.3,2.3,0,0,1,350.233,77.353Z" transform="translate(-300.5 -61.43)" fill="#402466"/></g></svg>