<svg xmlns="http://www.w3.org/2000/svg" width="61.359" height="83.254" viewBox="0 0 61.359 83.254"><g transform="translate(-67.326)"><path d="M113.3,0H67.326V83.254h61.359V15.389Zm-.873,6.026,10.236,10.235H112.423ZM72.2,78.376V4.878h35.341V21.14h16.262V78.376Z" transform="translate(0)" fill="#402466"/><path d="M198.19,210.605a9.1,9.1,0,0,0-18.2,0v2.257h-3.891v23.981H202.08V212.862h-3.891v-2.257Zm-13.327,0a4.224,4.224,0,0,1,8.449,0v2.257h-8.448v-2.257ZM197.2,231.965h-5.676v-9.749h-4.878v9.749h-5.676V217.74H197.2v14.224Z" transform="translate(-91.082 -168.738)" fill="#402466"/><path d="M143.5,56.5h20.57v4.878H143.5Z" transform="translate(-63.788 -47.313)" fill="#402466"/><path d="M143.5,118h20.57v4.878H143.5Z" transform="translate(-63.788 -98.813)" fill="#402466"/></g></svg>