<svg id="Grupo_147185" data-name="Grupo 147185" xmlns="http://www.w3.org/2000/svg" xmlns:xlink="http://www.w3.org/1999/xlink" width="295" height="200.098" viewBox="0 0 295 200.098">
  <defs>
    <clipPath id="clip-path">
      <rect id="Rectángulo_38567" data-name="Rectángulo 38567" width="295" height="200.098" fill="none"/>
    </clipPath>
    <clipPath id="clip-path-2">
      <rect id="Rectángulo_38547" data-name="Rectángulo 38547" width="315" height="200.098" fill="none"/>
    </clipPath>
    <clipPath id="clip-path-3">
      <rect id="Rectángulo_38520" data-name="Rectángulo 38520" width="68.157" height="6.728" fill="none"/>
    </clipPath>
    <clipPath id="clip-path-4">
      <path id="Trazado_207435" data-name="Trazado 207435" d="M150.93,24.827,140.794,30.5v4.186a8.947,8.947,0,0,0-2.8.133l.01.056s-1.494,8.841,7.435,8.841c8.506,0,9.588-8.271,9.666-9.064a18.4,18.4,0,0,0-3.8-.056V24.827Z" transform="translate(-137.909 -24.827)" fill="none"/>
    </clipPath>
    <radialGradient id="radial-gradient" cx="0.538" cy="0.5" r="0.478" gradientTransform="matrix(1.016, 0, 0, -1, 0.146, 17.857)" gradientUnits="objectBoundingBox">
      <stop offset="0" stop-color="#ffc8af"/>
      <stop offset="1" stop-color="#ffbb9c"/>
    </radialGradient>
    <clipPath id="clip-path-5">
      <path id="Trazado_207436" data-name="Trazado 207436" d="M130.959,17.041c-1.105,5.848-.043,17.283,5.478,21.23,1.432,1.024,8.938.134,10.157-.932q2.7-2.363,5.406-4.716a7.2,7.2,0,0,0,1.11-1.122A6.53,6.53,0,0,0,154,29.484c1.246-4.138,2.161-8.682,1.188-12.975a11.578,11.578,0,0,0-3.046-5.649,12.593,12.593,0,0,0-21.186,6.181" transform="translate(-130.569 -7.183)" fill="none"/>
    </clipPath>
    <radialGradient id="radial-gradient-2" cx="0.511" cy="0.486" r="0.386" gradientTransform="matrix(1.137, 0, 0, -1, 0.682, 10.474)" xlink:href="#radial-gradient"/>
    <clipPath id="clip-path-7">
      <path id="Trazado_207448" data-name="Trazado 207448" d="M124.772,139.587l2.96,6.742,9.029-3.962-2.946-6.72Z" transform="translate(-124.772 -135.646)" fill="none"/>
    </clipPath>
    <radialGradient id="radial-gradient-3" cx="0.5" r="0.531" gradientTransform="matrix(0.891, 0, 0, -1, -1.438, 5.275)" xlink:href="#radial-gradient"/>
    <clipPath id="clip-path-9">
      <path id="Trazado_207450" data-name="Trazado 207450" d="M97.673,147.11h9.856l-.7-10.1-9.857-.023Z" transform="translate(-96.967 -136.992)" fill="none"/>
    </clipPath>
    <radialGradient id="radial-gradient-4" cx="0.5" r="0.511" gradientTransform="matrix(0.958, 0, 0, -1, -0.489, 5.231)" xlink:href="#radial-gradient"/>
    <clipPath id="clip-path-11">
      <path id="Trazado_207456" data-name="Trazado 207456" d="M105.1,71.435h17.86l.146-4.89-4.7.469s-1.864-2.556-6.7-2.556-6.607,6.977-6.607,6.977" transform="translate(-105.098 -64.458)" fill="none"/>
    </clipPath>
    <radialGradient id="radial-gradient-5" cx="1.142" cy="1.383" r="1.533" gradientTransform="matrix(0, 1, 1.938, 0, -26.858, 20.681)" xlink:href="#radial-gradient"/>
    <clipPath id="clip-path-13">
      <path id="Trazado_207460" data-name="Trazado 207460" d="M144.641,63.431c-2.043.536-6.977,1.463-11.956,2.333-.659.122-1.318.234-1.976.357-5.927,1.027-11.374,1.908-11.374,1.908l-.011.292v.189l-.134,4.409v1.119a123.558,123.558,0,0,1,13.429.221c10.482.748,24,1.2,28.476-.915,2.1-.994,3.772-4.254,5.09-8.271-.023.011-.044.023-.067.033l-17.492-6.2c-1.273,2.378-2.634,4.164-3.984,4.521" transform="translate(-119.189 -58.91)" fill="none"/>
    </clipPath>
    <radialGradient id="radial-gradient-6" cx="0.454" cy="0.196" r="0.591" gradientTransform="matrix(0, 1, 2.061, 0, -12.796, 9.729)" xlink:href="#radial-gradient"/>
    <clipPath id="clip-path-15">
      <rect id="Rectángulo_38560" data-name="Rectángulo 38560" width="6.984" height="17.591" fill="none"/>
    </clipPath>
  </defs>
  <g id="Grupo_147184" data-name="Grupo 147184" clip-path="url(#clip-path)">
    <g id="Grupo_147158" data-name="Grupo 147158">
      <g id="Grupo_147157" data-name="Grupo 147157" clip-path="url(#clip-path-2)">
        <path id="Trazado_207422" data-name="Trazado 207422" d="M291.63,113.446l-10.28,77.348H19.939l-7.721-59.005a14.875,14.875,0,0,1,8.31-15.582l23.2-10.317V81.165c0-7.284,4.978-13.46,11.7-14.509l5.486-.859,9.215-33.389A13.836,13.836,0,0,1,83.252,21.9h94.259a13.182,13.182,0,0,1,9.318,3.919,15.086,15.086,0,0,1,4.326,9.678l44.883,5.077c6.663.759,11.831,6.56,12.229,13.725l1.812,33.362,31.717,9.6c6.6,1.992,10.8,8.91,9.836,16.178" transform="translate(3.233 5.859)" fill="#d1efef"/>
        <path id="Trazado_207423" data-name="Trazado 207423" d="M32,122.048l8.744,61.4H263.077l6.567-46.837a11.656,11.656,0,0,0-7.066-12.368l-19.733-8.189V96.425a11.627,11.627,0,0,0-9.955-11.516l-4.666-.683-7.838-26.5a11.632,11.632,0,0,0-11.159-8.339H129.06a11.621,11.621,0,0,0-11.6,10.792L79.281,64.209a11.648,11.648,0,0,0-10.4,10.9l-1.541,26.481-26.975,7.621A11.642,11.642,0,0,0,32,122.048" transform="translate(8.527 13.209)" fill="#c3dfe2"/>
        <path id="Trazado_207424" data-name="Trazado 207424" d="M215.358,148.466a13.309,13.309,0,0,0-11.393-13.18l-5.34-.782-8.97-30.332a13.313,13.313,0,0,0-12.771-9.543H85.132a13.3,13.3,0,0,0-13.282,12.353l-39.724,4.194L40.7,171.343H216.364l-1.006-.417Z" transform="translate(8.593 25.31)" fill="#b4d7d8"/>
        <rect id="Rectángulo_38518" data-name="Rectángulo 38518" width="68.158" height="63.616" transform="translate(21.691 8.553)" fill="#112b46"/>
        <g id="Grupo_147156" data-name="Grupo 147156" transform="translate(21.692 8.553)" style="mix-blend-mode: screen;isolation: isolate">
          <g id="Grupo_147155" data-name="Grupo 147155">
            <g id="Grupo_147154" data-name="Grupo 147154" clip-path="url(#clip-path-3)">
              <rect id="Rectángulo_38519" data-name="Rectángulo 38519" width="68.158" height="6.728" transform="translate(-0.001)" fill="#1d262d"/>
            </g>
          </g>
        </g>
        <path id="Trazado_207425" data-name="Trazado 207425" d="M59.785,9.722a1.233,1.233,0,1,1-1.233-1.233,1.234,1.234,0,0,1,1.233,1.233" transform="translate(15.331 2.27)" fill="#606bf1"/>
        <path id="Trazado_207426" data-name="Trazado 207426" d="M63.848,9.722a1.233,1.233,0,1,1-1.233-1.233,1.234,1.234,0,0,1,1.233,1.233" transform="translate(16.417 2.27)" fill="#fbd15b"/>
        <path id="Trazado_207427" data-name="Trazado 207427" d="M67.621,9.825a1.233,1.233,0,1,1-1.233-1.233,1.234,1.234,0,0,1,1.233,1.233" transform="translate(17.427 2.298)" fill="#ff8578"/>
        <rect id="Rectángulo_38521" data-name="Rectángulo 38521" width="9.653" height="0.811" transform="translate(33.812 21.535)" fill="#9eeae7"/>
        <rect id="Rectángulo_38522" data-name="Rectángulo 38522" width="9.653" height="0.811" transform="translate(45.142 21.535)" fill="#9eeae7"/>
        <rect id="Rectángulo_38523" data-name="Rectángulo 38523" width="14.97" height="0.811" transform="translate(36.797 25.906)" fill="#9eeae7"/>
        <rect id="Rectángulo_38524" data-name="Rectángulo 38524" width="7.609" height="0.811" transform="translate(54.242 25.906)" fill="#9eeae7"/>
        <rect id="Rectángulo_38525" data-name="Rectángulo 38525" width="6.574" height="0.811" transform="translate(41.991 30.277)" fill="#9eeae7"/>
        <rect id="Rectángulo_38526" data-name="Rectángulo 38526" width="21.811" height="0.811" transform="translate(52.364 30.277)" fill="#9eeae7"/>
        <rect id="Rectángulo_38527" data-name="Rectángulo 38527" width="24.926" height="0.811" transform="translate(47.096 34.647)" fill="#9eeae7"/>
        <rect id="Rectángulo_38528" data-name="Rectángulo 38528" width="7.672" height="0.811" transform="translate(40.864 39.018)" fill="#9eeae7"/>
        <rect id="Rectángulo_38529" data-name="Rectángulo 38529" width="7.672" height="0.811" transform="translate(51.818 39.018)" fill="#9eeae7"/>
        <rect id="Rectángulo_38530" data-name="Rectángulo 38530" width="11.16" height="0.811" transform="translate(33.812 61.694)" fill="#9eeae7"/>
        <rect id="Rectángulo_38531" data-name="Rectángulo 38531" width="11.16" height="0.811" transform="translate(48.88 61.694)" fill="#9eeae7"/>
        <rect id="Rectángulo_38532" data-name="Rectángulo 38532" width="11.16" height="0.811" transform="translate(63.543 61.694)" fill="#9eeae7"/>
        <rect id="Rectángulo_38533" data-name="Rectángulo 38533" width="21.811" height="0.811" transform="translate(36.797 57.322)" fill="#9eeae7"/>
        <rect id="Rectángulo_38534" data-name="Rectángulo 38534" width="21.811" height="0.811" transform="translate(62.008 57.322)" fill="#9eeae7"/>
        <rect id="Rectángulo_38535" data-name="Rectángulo 38535" width="21.643" height="0.811" transform="translate(41.99 52.952)" fill="#9eeae7"/>
        <rect id="Rectángulo_38536" data-name="Rectángulo 38536" width="6.024" height="0.811" transform="translate(65.52 52.952)" fill="#9eeae7"/>
        <rect id="Rectángulo_38537" data-name="Rectángulo 38537" width="8.147" height="0.811" transform="translate(40.577 48.582)" fill="#9eeae7"/>
        <rect id="Rectángulo_38538" data-name="Rectángulo 38538" width="8.147" height="0.811" transform="translate(53.052 48.582)" fill="#9eeae7"/>
        <rect id="Rectángulo_38539" data-name="Rectángulo 38539" width="8.147" height="0.811" transform="translate(66.439 48.582)" fill="#9eeae7"/>
        <rect id="Rectángulo_38540" data-name="Rectángulo 38540" width="11.425" height="0.811" transform="translate(50.022 44.21)" fill="#9eeae7"/>
        <rect id="Rectángulo_38541" data-name="Rectángulo 38541" width="11.425" height="0.811" transform="translate(34.286 44.21)" fill="#9eeae7"/>
        <rect id="Rectángulo_38542" data-name="Rectángulo 38542" width="1.038" height="1.038" transform="translate(27.494 20.757)" fill="#f9fbfc"/>
        <path id="Trazado_207428" data-name="Trazado 207428" d="M22.73,53.593H21.692V51.475H22.73Zm0-5.3H21.692V46.179H22.73Zm0-5.3H21.692V40.884H22.73Zm0-5.3H21.692V35.588H22.73Zm0-5.3H21.692V30.293H22.73Zm0-5.3H21.692V25H22.73Zm0-5.3H21.692V19.7H22.73Z" transform="translate(5.802 5.27)" fill="#f9fbfc"/>
        <rect id="Rectángulo_38543" data-name="Rectángulo 38543" width="1.038" height="1.038" transform="translate(27.494 62.04)" fill="#f9fbfc"/>
        <rect id="Rectángulo_38544" data-name="Rectángulo 38544" width="41.677" height="25.69" transform="translate(244.353 6.982)" fill="#0ccbc3"/>
        <path id="Trazado_207429" data-name="Trazado 207429" d="M216.652,33.653l-4.958,2.116,4.958,2.086-.648,1.5L210.056,36.7V34.858L216,32.186Z" transform="translate(43.888 -16.338)" fill="#f9fbfc"/>
        <path id="Trazado_207430" data-name="Trazado 207430" d="M224.5,28.518l-3.6,13.825-1.714-.4L222.8,28.133Z" transform="translate(43.351 -16.1)" fill="#f9fbfc"/>
        <path id="Trazado_207431" data-name="Trazado 207431" d="M233.559,34.858V36.7l-5.948,2.657-.648-1.5,4.943-2.086-4.943-2.116.648-1.467Z" transform="translate(42.894 -16.338)" fill="#f9fbfc"/>
        <rect id="Rectángulo_38545" data-name="Rectángulo 38545" width="31.967" height="22.774" transform="translate(210.519 29.258)" fill="#3369ff"/>
        <path id="Trazado_207432" data-name="Trazado 207432" d="M177.578,27.28c-1.028,0-1.371.278-1.371,1.044v3.427a1.747,1.747,0,0,1-1.485,2.008,1.715,1.715,0,0,1,1.485,1.975v3.428c0,.767.36,1.044,1.371,1.044v1.5c-2.594,0-3.33-.833-3.33-2.563V35.9c0-.93-.245-1.289-1.094-1.289V32.895c.849,0,1.094-.375,1.094-1.305V28.341c0-1.747.735-2.563,3.33-2.563Z" transform="translate(46.313 6.895)" fill="#f1f2f2"/>
        <path id="Trazado_207433" data-name="Trazado 207433" d="M184.1,28.341v3.249c0,.93.245,1.305,1.11,1.305v1.714c-.866,0-1.11.359-1.11,1.289v3.249c0,1.73-.734,2.563-3.33,2.563v-1.5c1.011,0,1.371-.278,1.371-1.044V35.734a1.716,1.716,0,0,1,1.485-1.975,1.748,1.748,0,0,1-1.485-2.008V28.324c0-.767-.343-1.044-1.371-1.044v-1.5c2.6,0,3.33.816,3.33,2.563" transform="translate(48.348 6.895)" fill="#f1f2f2"/>
        <rect id="Rectángulo_38546" data-name="Rectángulo 38546" width="35.862" height="23.987" fill="#0043ff"/>
        <path id="Trazado_207434" data-name="Trazado 207434" d="M9.633,5.9a5.886,5.886,0,0,0,7.876,8.557l3.763,3.763a.405.405,0,0,0,.575,0L22.9,17.165a.405.405,0,0,0,0-.575l-3.763-3.763A5.886,5.886,0,0,0,9.633,5.9m7.554,6.6a4.162,4.162,0,1,1,0-5.886,4.168,4.168,0,0,1,0,5.886" transform="translate(2.237 0.984)" fill="#f9fbfc"/>
      </g>
    </g>
    <g id="Grupo_147160" data-name="Grupo 147160" transform="translate(174.794 31.467)">
      <g id="Grupo_147159" data-name="Grupo 147159" clip-path="url(#clip-path-4)">
        <rect id="Rectángulo_38548" data-name="Rectángulo 38548" width="18.595" height="18.886" transform="translate(-1.4 0)" fill="url(#radial-gradient)"/>
      </g>
    </g>
    <g id="Grupo_147162" data-name="Grupo 147162" transform="translate(165.491 9.104)">
      <g id="Grupo_147161" data-name="Grupo 147161" clip-path="url(#clip-path-5)">
        <rect id="Rectángulo_38549" data-name="Rectángulo 38549" width="32.48" height="36.931" transform="translate(-7.323 1.423) rotate(-12.152)" fill="url(#radial-gradient-2)"/>
      </g>
    </g>
    <g id="Grupo_147164" data-name="Grupo 147164">
      <g id="Grupo_147163" data-name="Grupo 147163" clip-path="url(#clip-path-2)">
        <path id="Trazado_207437" data-name="Trazado 207437" d="M145.152,20.2c.073-.934,1.033-1.956,2-1.35,1,.627.763,2.285.35,3.2-.324.716-1.408,1.5-2.142.834-.616-.558.341-1.215.371-1.725.029-.458-.888-.786-.513-1.276" transform="translate(38.815 4.993)" fill="#f7b094"/>
        <path id="Trazado_207438" data-name="Trazado 207438" d="M145.295,24.31a2.851,2.851,0,0,0,3.142-1.867,10.748,10.748,0,0,0,.385-3,7.185,7.185,0,0,1,.246,3.309c-.261,2.042-.976,3.986-2.578,4.012s-1.2-2.453-1.2-2.453" transform="translate(38.849 5.2)" fill="#f7b094"/>
        <path id="Trazado_207439" data-name="Trazado 207439" d="M149.283,27.11a.368.368,0,0,1-.113.034c-.624.086-.872-.667-.965-1.138a20.93,20.93,0,0,1-.219-3.332,2.561,2.561,0,0,0-.1-.89c-.351-.8-1.283-1.322-1.568-2.15-.331-.963.6-1.924.233-2.979-.569-1.613-2.641-1.985-4.141-1.967a47.066,47.066,0,0,0-6.664.788c-2.344.364-5.34.709-7.4-.774-2.491-1.786-3.53-6.443-1.672-8.991a6.028,6.028,0,0,1,4.616-2.169c1.783-.041,3.29,1.023,4.925,1.558,1.3.426,2.564-.82,3.782-1.065,1.531-.305,2.181,1.366,3.535,1.412,1.316.044,2.607-.984,3.886-1.217,2.55-.465,2.4,2.1,4.112,2.971,1.063.544,2.437.214,3.513.767.817.421.932,1.157,1.11,1.994a19.293,19.293,0,0,0,.4,2.243,5.062,5.062,0,0,0,1.137,1.491,5.477,5.477,0,0,1,.948,1.8,11.25,11.25,0,0,1,.47,4.581,31.136,31.136,0,0,1-1.915,7.536,26.634,26.634,0,0,1-1.625,4.7c-.231.4-1.255,1.569-1.636.7a1.285,1.285,0,0,1-.055-.6c.113-1.622,1.624-12.078-2.336-10.822a2.809,2.809,0,0,0-1.7,1.744,6.792,6.792,0,0,0-.349,2.894c.006.142.01.285,0,.428a.487.487,0,0,1-.21.45" transform="translate(33.626 0.947)" fill="#3d3d7a"/>
        <path id="Trazado_207440" data-name="Trazado 207440" d="M140.242,32.751a13.639,13.639,0,0,0,7.475-4.281,8.21,8.21,0,0,1-7.745,6.313Z" transform="translate(37.437 7.615)" fill="#f7b094"/>
        <path id="Trazado_207441" data-name="Trazado 207441" d="M146.017,96.326h6.446V157.25a2.061,2.061,0,0,1-2.061,2.061h-2.325a2.061,2.061,0,0,1-2.061-2.061Z" transform="translate(39.054 25.764)" fill="#0a2033"/>
        <path id="Trazado_207442" data-name="Trazado 207442" d="M134.575,97.023h35.452a5.38,5.38,0,0,1-5.38,5.379H139.954A5.379,5.379,0,0,1,134.575,97.023Z" transform="translate(35.994 25.95)" fill="#30475e"/>
        <path id="Trazado_207443" data-name="Trazado 207443" d="M146.017,140.234h6.446v13.407A2.061,2.061,0,0,1,150.4,155.7h-2.325a2.061,2.061,0,0,1-2.061-2.061Z" transform="translate(39.054 37.507)" fill="#0a2033"/>
        <path id="Trazado_207444" data-name="Trazado 207444" d="M122.168,150.257a3.773,3.773,0,1,0,3.773-3.773,3.773,3.773,0,0,0-3.773,3.773" transform="translate(32.675 39.179)" fill="#0a2033"/>
        <path id="Trazado_207445" data-name="Trazado 207445" d="M169,150.257a3.773,3.773,0,1,0,3.773-3.773A3.773,3.773,0,0,0,169,150.257" transform="translate(45.201 39.179)" fill="#0a2033"/>
        <rect id="Rectángulo_38550" data-name="Rectángulo 38550" width="12.969" height="11.332" transform="translate(181.81 172.938)" fill="#30475e"/>
        <path id="Trazado_207446" data-name="Trazado 207446" d="M122.168,148.614h66.9a5.332,5.332,0,0,0-5.332-5.333H127.5A5.334,5.334,0,0,0,122.168,148.614Z" transform="translate(32.675 38.322)" fill="#0ccbc3"/>
        <rect id="Rectángulo_38551" data-name="Rectángulo 38551" width="2.236" height="42.303" transform="translate(186.058 129.623)" fill="#30475e"/>
        <path id="Trazado_207447" data-name="Trazado 207447" d="M178.165,60.955a2.63,2.63,0,0,0-2.715,2.777c.442,7.678-1.185,26.409-8.337,32.8-8.744,7.814-33.528,6.749-33.528,6.749s-4.093,5.023,4.094,6.14,31.254.371,36.836-4.838c5.4-5.042,8.61-18.253,6.193-41.247a2.647,2.647,0,0,0-2.543-2.382" transform="translate(35.455 16.303)" fill="#0ccbc3"/>
      </g>
    </g>
    <g id="Grupo_147166" data-name="Grupo 147166" transform="translate(158.144 171.926)">
      <g id="Grupo_147165" data-name="Grupo 147165" clip-path="url(#clip-path-7)">
        <rect id="Rectángulo_38553" data-name="Rectángulo 38553" width="11.989" height="10.682" transform="translate(0)" fill="url(#radial-gradient-3)"/>
      </g>
    </g>
    <g id="Grupo_147168" data-name="Grupo 147168">
      <g id="Grupo_147167" data-name="Grupo 147167" clip-path="url(#clip-path-2)">
        <path id="Trazado_207449" data-name="Trazado 207449" d="M180.9,76.718c-.558,1.117-40.682.023-44.471.369,0,0-24.558,11.72-28.086,22.693a11.989,11.989,0,0,0-.346,4.309c.982,15.449,18.575,52.441,18.575,52.441l2.7-1.183,9.042-3.941,1.284-.558s-13.954-41.582-11.163-43.814,34.414-7.814,45.387-10.784S180.9,76.718,180.9,76.718" transform="translate(28.873 20.519)" fill="#56548c"/>
      </g>
    </g>
    <g id="Grupo_147170" data-name="Grupo 147170" transform="translate(122.902 173.632)">
      <g id="Grupo_147169" data-name="Grupo 147169" clip-path="url(#clip-path-9)">
        <rect id="Rectángulo_38555" data-name="Rectángulo 38555" width="10.562" height="10.118" fill="url(#radial-gradient-4)"/>
      </g>
    </g>
    <g id="Grupo_147172" data-name="Grupo 147172">
      <g id="Grupo_147171" data-name="Grupo 147171" clip-path="url(#clip-path-2)">
        <path id="Trazado_207451" data-name="Trazado 207451" d="M140.688,76.736l-.357.156s-41.111,5.772-47.809,17.3c-4.354,7.5,4.072,62.314,4.072,62.314l14.545.033s-2.176-45.658-1.45-48.2c.815-2.9,2.21-3.952,2.768-4.254a11.981,11.981,0,0,1,.346-4.308c3.527-10.974,28.084-22.694,28.084-22.694a.711.711,0,0,1-.2-.346" transform="translate(24.412 20.524)" fill="#3d3d7a"/>
        <path id="Trazado_207452" data-name="Trazado 207452" d="M170.095,46.765l-2.757.379a135.046,135.046,0,0,1-2.311,14.869L130.679,75.051l-.469,2.489-.423-.033c.01.513.01,1.015.033,1.484a24.77,24.77,0,0,0,.569,5.759.7.7,0,0,0,.2.346c.933.762,13.081-.714,26.214,4.109,11.391,4.183,17.775,8.751,18.069,8.137,3.581-7.443-2.937-36.647-4.778-50.578" transform="translate(34.713 12.508)" fill="#9eeae7"/>
        <path id="Trazado_207453" data-name="Trazado 207453" d="M166.512,63.719c-.915,4.4-3.281,13.15-7.925,14.321-6.061,1.541-17.782,1.463-28.766.871-.022-.468-.022-.971-.033-1.484.134.011.279.023.423.033l.469-2.488,34.348-13.038a135.094,135.094,0,0,0,2.311-14.869.953.953,0,0,0,.011.123c.066,1.15.535,10.035-.838,16.532" transform="translate(34.713 12.588)" fill="#3dd5cf"/>
        <path id="Trazado_207454" data-name="Trazado 207454" d="M133.5,38.108c-.613,1.117-1.5,13.06-1.976,24.915l-7.02-6.552c2.98-5.772,9-18.363,9-18.363" transform="translate(33.299 10.192)" fill="#3dd5cf"/>
        <path id="Trazado_207455" data-name="Trazado 207455" d="M134.191,69.358c-5.928,1.027-11.374,1.909-11.374,1.909l-.011.29c-6.6-5.269-16.633-20.193-16.633-20.193s3-3.606,3.75-4.554c.113-.146,16.477,11.118,17.314,11.017.213-.022,1.049-1.5,2.166-3.683l7.02,6.553c-.112,2.824-.2,5.636-.256,8.3-.659.123-1.317.234-1.976.357" transform="translate(28.397 12.52)" fill="#f7b094"/>
      </g>
    </g>
    <g id="Grupo_147174" data-name="Grupo 147174" transform="translate(133.208 81.698)">
      <g id="Grupo_147173" data-name="Grupo 147173" clip-path="url(#clip-path-11)">
        <rect id="Rectángulo_38557" data-name="Rectángulo 38557" width="9.743" height="18.884" transform="matrix(0.159, -0.987, 0.987, 0.159, -1.092, 6.802)" fill="url(#radial-gradient-5)"/>
      </g>
    </g>
    <g id="Grupo_147176" data-name="Grupo 147176">
      <g id="Grupo_147175" data-name="Grupo 147175" clip-path="url(#clip-path-2)">
        <path id="Trazado_207457" data-name="Trazado 207457" d="M112.186,47.782l.134.112c-.748.949-3.75,4.554-3.75,4.554l-1.864-1.317a4.635,4.635,0,0,1-4.444-.056c-2.488-1.351-.948-4.576-.82-4.958-.483.137-3.465,2.548-3.934,2.29s-.815-1.105,2.522-4.4,7.858.938,7.993.938Z" transform="translate(26 11.435)" fill="#f7b094"/>
        <path id="Trazado_207458" data-name="Trazado 207458" d="M101.546,49.258a1.362,1.362,0,0,0,.56,1.933,12.744,12.744,0,0,0,4.837.906c1.07-.1,1.919-1.6,1.919-1.6l-3.238-3.038h-2.588Z" transform="translate(27.106 12.694)" fill="#f7b094"/>
        <path id="Trazado_207459" data-name="Trazado 207459" d="M101.5,49.931c.191-.66,2.03-.308,3.17-.28.84.019,1.3-.2,1.559-.84s-.959-1.659-1.2-1.338.44.768.46,1.194-1.2.565-2.139.565a22.869,22.869,0,0,0-2.56.245Z" transform="translate(26.958 12.681)" fill="#e8987c"/>
      </g>
    </g>
    <g id="Grupo_147178" data-name="Grupo 147178" transform="translate(151.068 74.666)">
      <g id="Grupo_147177" data-name="Grupo 147177" clip-path="url(#clip-path-13)">
        <rect id="Rectángulo_38559" data-name="Rectángulo 38559" width="23.785" height="49.023" transform="translate(-2.589 16.128) rotate(-80.879)" fill="url(#radial-gradient-6)"/>
      </g>
    </g>
    <g id="Grupo_147183" data-name="Grupo 147183">
      <g id="Grupo_147182" data-name="Grupo 147182" clip-path="url(#clip-path-2)">
        <path id="Trazado_207461" data-name="Trazado 207461" d="M142.542,58.91l17.492,6.2-.792,2.337L141.93,60.017Z" transform="translate(37.961 15.756)" fill="#f7b094"/>
        <path id="Trazado_207462" data-name="Trazado 207462" d="M145.777,65.953c-1.273,2.378-2.635,4.164-3.985,4.521-2.043.536-6.977,1.463-11.956,2.333.057-2.668.146-5.482.257-8.306.48-11.855,1.363-23.8,1.976-24.915,1.005-1.864,3.75-5.917,8.081-6.843l.011.056s-1.5,8.841,7.435,8.841c8.506,0,9.588-8.271,9.666-9.064,4.377.491,11.085,2.679,12.012,11.476.19,1.74.458,3.973.8,6.507l-2.757.38s-1.117,12.389-3.985,21.174l-.067.034Z" transform="translate(34.726 8.713)" fill="#9eeae7"/>
        <g id="Grupo_147181" data-name="Grupo 147181" transform="translate(180.323 56.146)" style="mix-blend-mode: screen;isolation: isolate">
          <g id="Grupo_147180" data-name="Grupo 147180">
            <g id="Grupo_147179" data-name="Grupo 147179" clip-path="url(#clip-path-15)">
              <path id="Trazado_207463" data-name="Trazado 207463" d="M142.27,61.206,149.255,44.3,144.11,61.89Z" transform="translate(-142.271 -44.298)" fill="#6d4b35"/>
            </g>
          </g>
        </g>
        <path id="Trazado_207464" data-name="Trazado 207464" d="M156.9,32.577H153.1s-5.417,5.948-8.9,5.948-1.606-5.915-1.606-5.915h-1.7a9.6,9.6,0,0,0-9.539,8.514c-.063.556-.122,1.082-.17,1.559-.373,3.6,14.2,6.217,14.2,6.217l7.5-.42,4.558-8.893.907-3.641Z" transform="translate(35.086 8.713)" fill="#9eeae7"/>
        <path id="Trazado_207465" data-name="Trazado 207465" d="M115.24,151.278c.34,1.819,1.6,3.112,3.418,2.772l24.244-4.521a1.131,1.131,0,0,0,.9-1.318l-.4-2.151s-25.5,4.461-28.177,5.2Z" transform="translate(30.819 39.066)" fill="#f1f2f2"/>
        <path id="Trazado_207466" data-name="Trazado 207466" d="M122.452,146.667c.253-.219.5-.437.749-.657.487-.435.965-.859,1.426-1.269.243-.218.485-.436.711-.64l1.234-1.1.745-.677.99-.887a.548.548,0,0,1,.721-.014c1,.838,4.218,2.753,10.052-.857a.561.561,0,0,1,.795.207l3.527,6.781s-25.5,4.461-28.177,5.2c.881-.549,4.136-3.365,7.226-6.09" transform="translate(30.819 37.573)" fill="#3d3d7a"/>
        <path id="Trazado_207467" data-name="Trazado 207467" d="M85.114,150.129c.044,1.849,1.082,3.327,2.932,3.281l24.656-.6a1.129,1.129,0,0,0,1.1-1.157l-.053-2.186s-25.882.342-28.645.649Z" transform="translate(22.762 39.976)" fill="#f1f2f2"/>
        <path id="Trazado_207468" data-name="Trazado 207468" d="M93.207,147.053c.285-.176.559-.352.844-.529.55-.352,1.089-.695,1.61-1.027l.8-.517c.5-.322.971-.622,1.393-.891.3-.2.588-.384.844-.549l1.118-.719a.549.549,0,0,1,.715.1c.85.986,3.725,3.39,10.061.755a.561.561,0,0,1,.75.331l2.4,7.257s-25.883.342-28.646.649c.957-.4,4.619-2.664,8.1-4.862" transform="translate(22.762 38.176)" fill="#3d3d7a"/>
        <path id="Trazado_207469" data-name="Trazado 207469" d="M74.053,78.256,60.885,43.139H98.371l13.166,35.118Z" transform="translate(16.284 11.538)" fill="#abb5ba"/>
        <path id="Trazado_207470" data-name="Trazado 207470" d="M105.945,78.256h-2.317L90.461,43.139l2.105.094,12.178,31.787Z" transform="translate(24.195 11.538)" fill="#8495a0"/>
        <path id="Trazado_207471" data-name="Trazado 207471" d="M102.211,71.313h24.77l-.067-2.214H101.7" transform="translate(27.202 18.481)" fill="#8495a0"/>
        <rect id="Rectángulo_38561" data-name="Rectángulo 38561" width="5.963" height="97.976" transform="translate(228.977 96.492)" fill="#8495a0"/>
        <rect id="Rectángulo_38562" data-name="Rectángulo 38562" width="5.963" height="97.976" transform="translate(196.605 96.492)" fill="#abb5ba"/>
        <rect id="Rectángulo_38563" data-name="Rectángulo 38563" width="5.963" height="97.976" transform="translate(92.897 96.492)" fill="#8495a0"/>
        <rect id="Rectángulo_38564" data-name="Rectángulo 38564" width="5.963" height="97.976" transform="translate(60.526 96.492)" fill="#abb5ba"/>
        <path id="Trazado_207472" data-name="Trazado 207472" d="M229.318,77.916H44.495a3.535,3.535,0,1,1,0-7.07H229.318a3.535,3.535,0,1,1,0,7.07" transform="translate(10.955 18.949)" fill="#141b56"/>
        <path id="Trazado_207473" data-name="Trazado 207473" d="M65.824,46.051l.641,1.71h7.468l-.641-1.71Z" transform="translate(17.605 12.317)" fill="#8495a0"/>
        <path id="Trazado_207474" data-name="Trazado 207474" d="M124.613,52.6l-.536,1.036,7.558,7.81V59.148Z" transform="translate(33.186 14.067)" fill="#e8987c"/>
        <rect id="Rectángulo_38565" data-name="Rectángulo 38565" width="284.718" height="6.89" transform="translate(10.282 193.208)" fill="#9dc1c6"/>
      </g>
    </g>
  </g>
</svg>
