<svg xmlns="http://www.w3.org/2000/svg" xmlns:xlink="http://www.w3.org/1999/xlink" width="1235.06" height="541.797" viewBox="0 0 1235.06 541.797">
  <defs>
    <clipPath id="clip-path">
      <rect id="Rectángulo_38472" data-name="Rectángulo 38472" width="1235.06" height="541.797" fill="none"/>
    </clipPath>
    <clipPath id="clip-path-2">
      <rect id="Rectángulo_38471" data-name="Rectángulo 38471" width="1235.056" height="541.797" fill="none"/>
    </clipPath>
    <clipPath id="clip-path-3">
      <rect id="Rectángulo_38463" data-name="Rectángulo 38463" width="164.766" height="164.766" transform="translate(53.149 59.128)" fill="none"/>
    </clipPath>
    <clipPath id="clip-path-4">
      <rect id="Rectángulo_38464" data-name="Rectángulo 38464" width="164.8" height="164.8" transform="translate(294.965 321.54)" fill="none"/>
    </clipPath>
    <clipPath id="clip-path-5">
      <rect id="Rectángulo_38465" data-name="Rectángulo 38465" width="164.766" height="164.766" transform="translate(537.48 59.128)" fill="none"/>
    </clipPath>
    <clipPath id="clip-path-6">
      <rect id="Rectángulo_38466" data-name="Rectángulo 38466" width="164.76" height="164.766" transform="translate(1017.81 59.128)" fill="none"/>
    </clipPath>
    <clipPath id="clip-path-7">
      <rect id="Rectángulo_38467" data-name="Rectángulo 38467" width="164.8" height="164.8" transform="translate(779.296 321.54)" fill="none"/>
    </clipPath>
  </defs>
  <g id="Grupo_147319" data-name="Grupo 147319" transform="translate(-183 -2359.602)">
    <g id="Grupo_147073" data-name="Grupo 147073" transform="translate(183 2359.602)">
      <g id="Grupo_147090" data-name="Grupo 147090" clip-path="url(#clip-path)">
        <g id="Grupo_147089" data-name="Grupo 147089">
          <g id="Grupo_147088" data-name="Grupo 147088" clip-path="url(#clip-path-2)">
            <path id="Trazado_206782" data-name="Trazado 206782" d="M965.322,271.728h27.9V137.143c0-58.2,45.549-107.464,103.726-109.191a107.08,107.08,0,0,1,110.2,106.916V257.776a13.952,13.952,0,0,0,27.9,0V137.554c0-75.457-61.749-138.818-137.2-137.534-73.3,1.247-132.539,61.26-132.539,134.848Z" fill="#0032bf"/>
            <path id="Trazado_206783" data-name="Trazado 206783" d="M269.735,271.728h-27.9V137.143c0-58.2-45.549-107.464-103.726-109.191A107.08,107.08,0,0,0,27.9,134.868V257.776a13.952,13.952,0,0,1-27.9,0V137.554C0,62.1,61.749-1.264,137.2.02c73.3,1.247,132.539,61.26,132.539,134.848Z" fill="#99b4ff"/>
            <path id="Trazado_206784" data-name="Trazado 206784" d="M241.824,270.069h27.9v136.86a106.964,106.964,0,1,0,213.927,0V270.069h27.9v136.86c0,74.365-60.5,134.868-134.868,134.868s-134.866-60.5-134.866-134.868Z" fill="#668eff"/>
            <path id="Trazado_206785" data-name="Trazado 206785" d="M753.383,271.728h-27.9V134.868a106.964,106.964,0,1,0-213.927,0v136.86h-27.9V134.868C483.648,60.5,544.151,0,618.516,0S753.383,60.5,753.383,134.868Z" fill="#3369ff"/>
            <path id="Trazado_206786" data-name="Trazado 206786" d="M725.472,270.069h27.9V404.654c0,58.2,45.548,107.464,103.726,109.191A107.08,107.08,0,0,0,967.3,406.929V284.021a13.952,13.952,0,1,1,27.9,0V404.243c0,75.457-61.749,138.818-137.2,137.534-73.295-1.247-132.539-61.26-132.539-134.848Z" fill="#0043ff"/>
            <path id="Trazado_206787" data-name="Trazado 206787" d="M39.861,141.511a95.67,95.67,0,1,0,95.67-95.67,95.669,95.669,0,0,0-95.67,95.67" fill="#ccd9ff"/>
            <g id="Grupo_147075" data-name="Grupo 147075" style="mix-blend-mode: overlay;isolation: isolate">
              <g id="Grupo_147074" data-name="Grupo 147074">
                <g id="Grupo_147073-2" data-name="Grupo 147073" clip-path="url(#clip-path-3)">
                  <path id="Trazado_206788" data-name="Trazado 206788" d="M53.149,141.511a82.383,82.383,0,1,0,82.383-82.383,82.383,82.383,0,0,0-82.383,82.383" fill="#fff"/>
                </g>
              </g>
            </g>
            <path id="Trazado_206789" data-name="Trazado 206789" d="M281.694,403.94a95.671,95.671,0,1,0,95.67-95.67,95.67,95.67,0,0,0-95.67,95.67" fill="#ccd9ff"/>
            <g id="Grupo_147078" data-name="Grupo 147078" style="mix-blend-mode: overlay;isolation: isolate">
              <g id="Grupo_147077" data-name="Grupo 147077">
                <g id="Grupo_147076" data-name="Grupo 147076" clip-path="url(#clip-path-4)">
                  <path id="Trazado_206790" data-name="Trazado 206790" d="M296.912,386.214a82.383,82.383,0,1,0,98.179-62.728,82.383,82.383,0,0,0-98.179,62.728" fill="#fff"/>
                </g>
              </g>
            </g>
            <path id="Trazado_206791" data-name="Trazado 206791" d="M524.193,141.511a95.671,95.671,0,1,0,95.67-95.67,95.669,95.669,0,0,0-95.67,95.67" fill="#ccd9ff"/>
            <g id="Grupo_147081" data-name="Grupo 147081" style="mix-blend-mode: overlay;isolation: isolate">
              <g id="Grupo_147080" data-name="Grupo 147080">
                <g id="Grupo_147079" data-name="Grupo 147079" clip-path="url(#clip-path-5)">
                  <path id="Trazado_206792" data-name="Trazado 206792" d="M537.48,141.511a82.383,82.383,0,1,0,82.383-82.383,82.383,82.383,0,0,0-82.383,82.383" fill="#fff"/>
                </g>
              </g>
            </g>
            <path id="Trazado_206793" data-name="Trazado 206793" d="M1004.519,141.511a95.671,95.671,0,1,0,95.67-95.67,95.67,95.67,0,0,0-95.67,95.67" fill="#ccd9ff"/>
            <g id="Grupo_147084" data-name="Grupo 147084" style="mix-blend-mode: overlay;isolation: isolate">
              <g id="Grupo_147083" data-name="Grupo 147083">
                <g id="Grupo_147082" data-name="Grupo 147082" clip-path="url(#clip-path-6)">
                  <path id="Trazado_206794" data-name="Trazado 206794" d="M1017.806,141.511a82.383,82.383,0,1,0,82.383-82.383,82.383,82.383,0,0,0-82.383,82.383" fill="#fff"/>
                </g>
              </g>
            </g>
            <path id="Trazado_206795" data-name="Trazado 206795" d="M766.026,403.94a95.671,95.671,0,1,0,95.67-95.67,95.67,95.67,0,0,0-95.67,95.67" fill="#ccd9ff"/>
            <g id="Grupo_147087" data-name="Grupo 147087" style="mix-blend-mode: overlay;isolation: isolate">
              <g id="Grupo_147086" data-name="Grupo 147086">
                <g id="Grupo_147085" data-name="Grupo 147085" clip-path="url(#clip-path-7)">
                  <path id="Trazado_206796" data-name="Trazado 206796" d="M781.106,386.847a82.383,82.383,0,1,0,97.683-63.5,82.383,82.383,0,0,0-97.683,63.5" fill="#fff"/>
                </g>
              </g>
            </g>
            <path id="Trazado_206797" data-name="Trazado 206797" d="M234.524,275.881a21.094,21.094,0,1,0,21.094-21.094,21.094,21.094,0,0,0-21.094,21.094" fill="#668eff"/>
            <path id="Trazado_206798" data-name="Trazado 206798" d="M475.693,275.881a21.094,21.094,0,1,0,21.094-21.094,21.094,21.094,0,0,0-21.094,21.094" fill="#3369ff"/>
            <path id="Trazado_206799" data-name="Trazado 206799" d="M957.366,275.881a21.094,21.094,0,1,0,21.094-21.094,21.094,21.094,0,0,0-21.094,21.094" fill="#0032bf"/>
            <path id="Trazado_206800" data-name="Trazado 206800" d="M717.859,274.885a21.094,21.094,0,1,0,21.094-21.094,21.093,21.093,0,0,0-21.094,21.094" fill="#0043ff"/>
            <path id="Trazado_206801" data-name="Trazado 206801" d="M173.984,140.007a2.083,2.083,0,0,1-1.471-.61l-7.714-7.714H153.175a2.08,2.08,0,1,1,0-4.161H165.66a2.075,2.075,0,0,1,1.472.609L171.9,132.9v-3.3a2.08,2.08,0,0,1,2.081-2.08h2.08a2.082,2.082,0,0,0,2.081-2.081V100.47a2.082,2.082,0,0,0-2.081-2.081h-43.7a2.084,2.084,0,0,0-2.08,2.081v24.971a2.084,2.084,0,0,0,2.08,2.081h4.162a2.08,2.08,0,1,1,0,4.161h-4.162a6.25,6.25,0,0,1-6.242-6.242V100.47a6.25,6.25,0,0,1,6.242-6.242h43.7a6.25,6.25,0,0,1,6.243,6.242v24.971a6.25,6.25,0,0,1-6.243,6.242v6.243a2.081,2.081,0,0,1-2.08,2.081" fill="#0037b2"/>
            <path id="Trazado_206802" data-name="Trazado 206802" d="M99.073,148.33a2.053,2.053,0,0,1-.8-.158,2.081,2.081,0,0,1-1.284-1.922v-6.243a6.251,6.251,0,0,1-6.243-6.243v-24.97a6.251,6.251,0,0,1,6.243-6.243h22.889a2.081,2.081,0,1,1,0,4.162H96.992a2.084,2.084,0,0,0-2.081,2.081v24.97a2.084,2.084,0,0,0,2.081,2.081h2.081a2.082,2.082,0,0,1,2.08,2.081v3.3l4.772-4.772a2.076,2.076,0,0,1,1.471-.609H140.69a2.083,2.083,0,0,0,2.081-2.081v-24.97a2.083,2.083,0,0,0-2.081-2.081h-4.161a2.081,2.081,0,1,1,0-4.162h4.161a6.251,6.251,0,0,1,6.243,6.243v24.97a6.251,6.251,0,0,1-6.243,6.243H108.258l-7.714,7.713a2.078,2.078,0,0,1-1.471.61" fill="#0037b2"/>
            <path id="Trazado_206803" data-name="Trazado 206803" d="M109.477,173.3a10.416,10.416,0,0,1-10.4-10.4v-4.161a10.4,10.4,0,1,1,20.808,0V162.9a10.416,10.416,0,0,1-10.4,10.4m0-20.808a6.251,6.251,0,0,0-6.243,6.243V162.9a6.243,6.243,0,1,0,12.486,0v-4.161a6.251,6.251,0,0,0-6.243-6.243" fill="#0037b2"/>
            <path id="Trazado_206804" data-name="Trazado 206804" d="M115.723,194.109H103.23a17.987,17.987,0,0,1-11.872-4.771,2.073,2.073,0,0,1-.609-1.472v-7.21a4.143,4.143,0,0,1,1.856-3.464l10.629-7.086v-.967h4.161v2.081a2.083,2.083,0,0,1-.925,1.731l-11.56,7.705v6.259a13.868,13.868,0,0,0,8.322,3.033h12.491a13.732,13.732,0,0,0,8.32-3.024v-6.268l-11.559-7.705a2.082,2.082,0,0,1-.926-1.731v-2.081h4.161v.967l10.634,7.087a4.155,4.155,0,0,1,1.851,3.463v7.21a2.073,2.073,0,0,1-.609,1.472,17.993,17.993,0,0,1-11.872,4.771" fill="#0037b2"/>
            <path id="Trazado_206805" data-name="Trazado 206805" d="M163.579,173.3a10.416,10.416,0,0,1-10.4-10.4v-4.161a10.4,10.4,0,1,1,20.809,0V162.9a10.416,10.416,0,0,1-10.4,10.4m0-20.808a6.251,6.251,0,0,0-6.243,6.243V162.9a6.243,6.243,0,1,0,12.486,0v-4.161a6.251,6.251,0,0,0-6.243-6.243" fill="#0037b2"/>
            <path id="Trazado_206806" data-name="Trazado 206806" d="M169.827,194.109H157.333a17.986,17.986,0,0,1-11.871-4.771,2.07,2.07,0,0,1-.61-1.472v-7.21a4.141,4.141,0,0,1,1.858-3.464l10.627-7.086v-.967H161.5v2.081a2.083,2.083,0,0,1-.925,1.731l-11.56,7.705v6.259a13.841,13.841,0,0,0,8.319,3.033h12.494a13.729,13.729,0,0,0,8.319-3.024v-6.268l-11.559-7.705a2.082,2.082,0,0,1-.926-1.731v-2.081h4.161v.967l10.632,7.087a4.155,4.155,0,0,1,1.853,3.463v7.21a2.07,2.07,0,0,1-.61,1.472,17.979,17.979,0,0,1-11.87,4.771" fill="#0037b2"/>
            <rect id="Rectángulo_38468" data-name="Rectángulo 38468" width="4.161" height="4.162" transform="translate(134.447 148.33)" fill="#0037b2"/>
            <rect id="Rectángulo_38469" data-name="Rectángulo 38469" width="4.162" height="4.162" transform="translate(126.124 148.33)" fill="#0037b2"/>
            <rect id="Rectángulo_38470" data-name="Rectángulo 38470" width="4.161" height="4.162" transform="translate(142.771 148.33)" fill="#0037b2"/>
            <path id="Trazado_206807" data-name="Trazado 206807" d="M429.817,401.809l-29.144-31.226a3.123,3.123,0,0,0-5.406,2.131v9.368H378.45l-24.066-24.066a3.122,3.122,0,0,0-2.208-.915H327.2a3.122,3.122,0,1,0,0,6.245h23.687l24.067,24.066a3.118,3.118,0,0,0,2.207.915H398.39a3.123,3.123,0,0,0,3.123-3.123v-4.568l21.75,23.3-21.75,23.3v-4.569a3.123,3.123,0,0,0-3.123-3.122H377.156a3.125,3.125,0,0,0-2.208.914l-24.066,24.066H327.2a3.123,3.123,0,1,0,0,6.245h24.981a3.121,3.121,0,0,0,2.208-.914L378.45,425.8h16.817v9.368a3.123,3.123,0,0,0,5.406,2.13l29.144-31.226a3.122,3.122,0,0,0,0-4.261" fill="#0037b2"/>
            <path id="Trazado_206808" data-name="Trazado 206808" d="M327.2,407.063h42.423l-3,3a3.123,3.123,0,1,0,4.416,4.416l8.327-8.327a3.123,3.123,0,0,0,0-4.416l-8.327-8.327a3.123,3.123,0,1,0-4.416,4.416l3,3H327.2a3.122,3.122,0,1,0,0,6.245" fill="#0037b2"/>
            <path id="Trazado_206809" data-name="Trazado 206809" d="M324.073,381.041a3.123,3.123,0,0,0,3.123,3.123h19.523l-3,3a3.123,3.123,0,1,0,4.416,4.416l8.327-8.327a3.122,3.122,0,0,0,0-4.416l-8.327-8.327a3.123,3.123,0,0,0-4.416,4.416l3,3H327.2a3.123,3.123,0,0,0-3.123,3.123" fill="#0037b2"/>
            <path id="Trazado_206810" data-name="Trazado 206810" d="M327.2,429.962h19.524l-3,3a3.123,3.123,0,0,0,4.416,4.416l8.327-8.327a3.123,3.123,0,0,0,0-4.416l-8.327-8.327a3.123,3.123,0,0,0-4.416,4.416l3,3H327.2a3.122,3.122,0,1,0,0,6.245Z" fill="#0037b2"/>
            <path id="Trazado_206811" data-name="Trazado 206811" d="M643.478,170.473l-.84-.839Z" fill="#0037b2"/>
            <path id="Trazado_206812" data-name="Trazado 206812" d="M643.483,170.478l-.005,0,.005,0" fill="#0037b2"/>
            <path id="Trazado_206813" data-name="Trazado 206813" d="M642.638,169.634l-.715-.715.715.715" fill="#0037b2"/>
            <path id="Trazado_206814" data-name="Trazado 206814" d="M640.152,167.147l-.387-.387.387.387" fill="#0037b2"/>
            <path id="Trazado_206815" data-name="Trazado 206815" d="M641.923,168.918l-1.771-1.771Z" fill="#0037b2"/>
            <path id="Trazado_206816" data-name="Trazado 206816" d="M643.892,170.887l-.409-.409Z" fill="#0037b2"/>
            <path id="Trazado_206817" data-name="Trazado 206817" d="M645.168,172.163l-.7-.7Z" fill="#0037b2"/>
            <path id="Trazado_206818" data-name="Trazado 206818" d="M645.505,172.5l-.338-.338.338.338" fill="#0037b2"/>
            <path id="Trazado_206819" data-name="Trazado 206819" d="M644.469,171.464l-.578-.577.578.577" fill="#0037b2"/>
            <path id="Trazado_206820" data-name="Trazado 206820" d="M630.879,157.877l-.409-.409.409.409" fill="#0037b2"/>
            <path id="Trazado_206821" data-name="Trazado 206821" d="M629.893,156.89l-.7-.7.7.7" fill="#0037b2"/>
            <path id="Trazado_206822" data-name="Trazado 206822" d="M630.47,157.468l-.578-.577Z" fill="#0037b2"/>
            <path id="Trazado_206823" data-name="Trazado 206823" d="M639.765,166.76c-.957-.955-1.963-1.961-2.962-2.961Z" fill="#0037b2"/>
            <path id="Trazado_206824" data-name="Trazado 206824" d="M628.857,155.854l-.022-.022.022.022" fill="#0037b2"/>
            <path id="Trazado_206825" data-name="Trazado 206825" d="M659.494,188.058a1.636,1.636,0,0,0-1.636,1.635v3.917h-62.2v-2.281h51.5a1.635,1.635,0,0,0,1.636-1.636V172.118l7.22-7.218a1.636,1.636,0,0,0,0-2.313l-7.22-7.219V103.952h9.059V182.38a1.636,1.636,0,0,0,3.272,0V102.317a1.636,1.636,0,0,0-1.636-1.636H648.8V96.765a1.635,1.635,0,0,0-1.636-1.635h-6.425a1.635,1.635,0,0,0,0,3.27h4.79v53.7l-6.48-6.478-5.306-5.305h0L624.6,131.17a1.636,1.636,0,0,0-2.314,0l-.505.505-3.938-3.938A27.147,27.147,0,0,0,618.8,98.4h14.146a1.636,1.636,0,0,0,0-3.271H616.48q-.836-1.014-1.778-1.958a27.1,27.1,0,0,0-42.813,32.4,1.635,1.635,0,0,0,2.853-1.6,23.834,23.834,0,0,1,39.615-26.26c.026.035.052.071.08.1a23.835,23.835,0,0,1,0,29.034q-.048.057-.09.117a24.147,24.147,0,0,1-4.234,4.217c-.013.01-.027.019-.039.029a23.865,23.865,0,0,1-31.382-2.034,1.635,1.635,0,0,0-2.313,2.312,27.4,27.4,0,0,0,3.685,3.09v55.114a1.635,1.635,0,0,0,1.635,1.636h10.689v3.916a1.636,1.636,0,0,0,1.636,1.636h65.47a1.636,1.636,0,0,0,1.636-1.636v-5.552a1.635,1.635,0,0,0-1.636-1.635m-6.945-24.315-5.588,5.587L632.3,154.675l5.587-5.587Zm-16.971-16.968-5.588,5.587L627,149.37l5.588-5.587ZM623.44,134.639l6.832,6.831-5.588,5.587-6.832-6.831ZM614.7,131.49q.57-.57,1.1-1.167l3.665,3.665-2.264,2.264-3.665-3.664c.4-.354.787-.719,1.166-1.1m-31.367,56.568V136.536a27.174,27.174,0,0,0,27.613-1.91l3.939,3.939-.505.505a1.636,1.636,0,0,0,0,2.313L645.506,172.5h0l.022.023v15.535Z" fill="#0037b2"/>
            <path id="Trazado_206826" data-name="Trazado 206826" d="M630.884,157.882l0-.005Z" fill="#0037b2"/>
            <path id="Trazado_206827" data-name="Trazado 206827" d="M629.194,156.192l-.338-.338Z" fill="#0037b2"/>
            <path id="Trazado_206828" data-name="Trazado 206828" d="M634.6,161.594l-.387-.387Z" fill="#0037b2"/>
            <path id="Trazado_206829" data-name="Trazado 206829" d="M636.8,163.8l-2.205-2.205L636.8,163.8" fill="#0037b2"/>
            <path id="Trazado_206830" data-name="Trazado 206830" d="M634.21,161.207l-1.771-1.771,1.771,1.771" fill="#0037b2"/>
            <path id="Trazado_206831" data-name="Trazado 206831" d="M632.439,159.436l-.808-.808Z" fill="#0037b2"/>
            <path id="Trazado_206832" data-name="Trazado 206832" d="M631.631,158.628l-.747-.747.747.747" fill="#0037b2"/>
            <path id="Trazado_206833" data-name="Trazado 206833" d="M615.107,152.664H590.586a1.635,1.635,0,1,0,0,3.271h24.521a1.635,1.635,0,1,0,0-3.271" fill="#0037b2"/>
            <path id="Trazado_206834" data-name="Trazado 206834" d="M615.107,161.441H590.586a1.636,1.636,0,1,0,0,3.271h24.521a1.636,1.636,0,1,0,0-3.271" fill="#0037b2"/>
            <path id="Trazado_206835" data-name="Trazado 206835" d="M615.107,170.217H590.586a1.636,1.636,0,1,0,0,3.271h24.521a1.636,1.636,0,1,0,0-3.271" fill="#0037b2"/>
            <path id="Trazado_206836" data-name="Trazado 206836" d="M615.107,178.994H590.586a1.635,1.635,0,1,0,0,3.271h24.521a1.635,1.635,0,1,0,0-3.271" fill="#0037b2"/>
            <path id="Trazado_206837" data-name="Trazado 206837" d="M638.489,103.5h-8.772a1.636,1.636,0,0,0-1.635,1.636v13.1a1.635,1.635,0,0,0,1.635,1.635h8.772a1.635,1.635,0,0,0,1.636-1.635v-13.1a1.636,1.636,0,0,0-1.636-1.636m-1.635,13.1h-5.5v-9.833h5.5Z" fill="#0037b2"/>
            <path id="Trazado_206838" data-name="Trazado 206838" d="M638.489,122.547h-8.772a1.636,1.636,0,1,0,0,3.271h8.772a1.636,1.636,0,1,0,0-3.271" fill="#0037b2"/>
            <path id="Trazado_206839" data-name="Trazado 206839" d="M638.489,178.994h-8.772a1.635,1.635,0,1,0,0,3.271h8.772a1.635,1.635,0,1,0,0-3.271" fill="#0037b2"/>
            <path id="Trazado_206840" data-name="Trazado 206840" d="M638.489,169.912h-8.772a1.635,1.635,0,1,0,0,3.271h8.772a1.635,1.635,0,1,0,0-3.271" fill="#0037b2"/>
            <path id="Trazado_206841" data-name="Trazado 206841" d="M610.377,97.5a20.969,20.969,0,1,0,0,29.668,21.007,21.007,0,0,0,0-29.668m-2.313,27.356a17.7,17.7,0,1,1,0-25.043,17.734,17.734,0,0,1,0,25.043" fill="#0037b2"/>
            <path id="Trazado_206842" data-name="Trazado 206842" d="M595.541,97.893a14.43,14.43,0,0,0-14.409,15.274,1.635,1.635,0,0,0,1.631,1.541c.032,0,.064,0,.1,0a1.637,1.637,0,0,0,1.539-1.727,11.157,11.157,0,0,1,11.143-11.815,1.636,1.636,0,1,0,0-3.271" fill="#0037b2"/>
            <path id="Trazado_206843" data-name="Trazado 206843" d="M844.061,428.012a1.38,1.38,0,0,0-2.07,1.827l4.459,5.051V449.4a1.38,1.38,0,1,0,2.761,0v-15.03a1.383,1.383,0,0,0-.346-.914Z" fill="#0037b2"/>
            <path id="Trazado_206844" data-name="Trazado 206844" d="M834.316,416.972a14.388,14.388,0,0,1-2.178-15.8L834,397.3a1.381,1.381,0,1,0-2.487-1.2l-1.866,3.869a17.146,17.146,0,0,0,2.6,18.832l5.768,6.535a1.381,1.381,0,0,0,2.071-1.828Z" fill="#0037b2"/>
            <path id="Trazado_206845" data-name="Trazado 206845" d="M880.485,378.881a6.586,6.586,0,0,0-4.579,1.849,6.6,6.6,0,0,0-10.537-1.681,6.6,6.6,0,0,0-10.453-1.56,6.611,6.611,0,0,0-12.438,3.126V386.4a9.374,9.374,0,0,0-8.17,4.138,1.38,1.38,0,1,0,2.288,1.545,6.631,6.631,0,0,1,8.658-2.13l16.569,8.894a2.642,2.642,0,0,1,0,4.654l-2.174,1.169a10.823,10.823,0,0,1-9.938.153l-5.023-2.5a1.381,1.381,0,1,0-1.232,2.471l5.023,2.5a13.587,13.587,0,0,0,12.478-.192l.165-.089,2.754,3.315a8.469,8.469,0,0,1,1.952,5.4v7.95a1.381,1.381,0,1,0,2.761,0v-7.95A11.243,11.243,0,0,0,866,408.565l-2.415-2.907a5.386,5.386,0,0,0,1.867-6.791,6.593,6.593,0,0,0,9.266-.13,6.6,6.6,0,0,0,8.7,2.694v3.291a1.381,1.381,0,1,0,2.762,0v-5.858a6.573,6.573,0,0,0,.919-3.358V385.494a6.62,6.62,0,0,0-6.613-6.613m-35.246,8.057v-6.323a3.852,3.852,0,1,1,7.7,0v10.333l-6.383-3.426a9.455,9.455,0,0,0-1.321-.584m10.465,5.493V382.2a3.852,3.852,0,1,1,7.7,0v11.9a3.856,3.856,0,0,1-.644,2.129Zm14.316,5.513a3.855,3.855,0,0,1-3.851-3.852V383.741a3.852,3.852,0,0,1,7.7,0v10.351a3.856,3.856,0,0,1-3.852,3.852m10.465,1.413a3.856,3.856,0,0,1-3.852-3.852V385.494a3.852,3.852,0,0,1,7.7,0v10.011a3.856,3.856,0,0,1-3.852,3.852" fill="#0037b2"/>
            <path id="Trazado_206846" data-name="Trazado 206846" d="M884.8,409.225a1.381,1.381,0,0,0-1.381,1.381v12.512a11.691,11.691,0,0,1-1.6,5.9l-2.093,3.574a3.414,3.414,0,0,0-.467,1.722V449.4a1.38,1.38,0,1,0,2.761,0V434.312a.648.648,0,0,1,.089-.327l2.092-3.574a14.438,14.438,0,0,0,1.979-7.293V410.606a1.381,1.381,0,0,0-1.381-1.381" fill="#0037b2"/>
            <path id="Trazado_206847" data-name="Trazado 206847" d="M877.167,370.339a1.379,1.379,0,0,0,1.908-.414l6.883-10.7a1.38,1.38,0,1,0-2.321-1.494l-6.884,10.7a1.381,1.381,0,0,0,.414,1.908" fill="#0037b2"/>
            <path id="Trazado_206848" data-name="Trazado 206848" d="M891.344,379.6a1.379,1.379,0,0,0,1.938-.234l15.3-19.51a1.381,1.381,0,0,0-2.173-1.705l-15.3,19.511a1.38,1.38,0,0,0,.234,1.938" fill="#0037b2"/>
            <path id="Trazado_206849" data-name="Trazado 206849" d="M906.829,393.377l-6.141,3.415a1.381,1.381,0,0,0,1.342,2.413l6.141-3.415a1.381,1.381,0,1,0-1.342-2.413" fill="#0037b2"/>
            <path id="Trazado_206850" data-name="Trazado 206850" d="M908.027,418.861l-5.954-3.593a1.381,1.381,0,1,0-1.427,2.364l5.954,3.593a1.381,1.381,0,1,0,1.427-2.364" fill="#0037b2"/>
            <path id="Trazado_206851" data-name="Trazado 206851" d="M891.527,427.975a1.381,1.381,0,1,0-2.1,1.794l2.213,2.59a1.381,1.381,0,1,0,2.1-1.794Z" fill="#0037b2"/>
            <path id="Trazado_206852" data-name="Trazado 206852" d="M897.679,435.175a1.381,1.381,0,1,0-2.1,1.794l7.707,9.02a1.381,1.381,0,0,0,2.1-1.794Z" fill="#0037b2"/>
            <path id="Trazado_206853" data-name="Trazado 206853" d="M866.538,366.649a1.379,1.379,0,0,0,1.746-.875l1.524-4.584a1.381,1.381,0,1,0-2.621-.871l-1.524,4.584a1.381,1.381,0,0,0,.875,1.746" fill="#0037b2"/>
            <path id="Trazado_206854" data-name="Trazado 206854" d="M844.317,369.925a1.381,1.381,0,1,0,2.322-1.494l-6.883-10.7a1.381,1.381,0,1,0-2.322,1.495Z" fill="#0037b2"/>
            <path id="Trazado_206855" data-name="Trazado 206855" d="M830.484,379.368a1.38,1.38,0,1,0,2.16-1.719l-15.672-19.695a1.381,1.381,0,1,0-2.16,1.72Z" fill="#0037b2"/>
            <path id="Trazado_206856" data-name="Trazado 206856" d="M821.76,399.221a1.38,1.38,0,0,0,1.282-2.445l-6.508-3.415a1.381,1.381,0,1,0-1.284,2.445Z" fill="#0037b2"/>
            <path id="Trazado_206857" data-name="Trazado 206857" d="M823.583,415.737a1.38,1.38,0,0,0-1.9-.469l-5.955,3.594a1.38,1.38,0,1,0,1.427,2.363l5.954-3.593a1.38,1.38,0,0,0,.469-1.895" fill="#0037b2"/>
            <path id="Trazado_206858" data-name="Trazado 206858" d="M834.18,427.822a1.38,1.38,0,0,0-1.946.153l-2.214,2.59a1.381,1.381,0,0,0,2.1,1.794l2.213-2.591a1.38,1.38,0,0,0-.153-1.946" fill="#0037b2"/>
            <path id="Trazado_206859" data-name="Trazado 206859" d="M828.028,435.022a1.38,1.38,0,0,0-1.946.154l-7.707,9.02a1.38,1.38,0,1,0,2.1,1.793l7.707-9.02a1.381,1.381,0,0,0-.153-1.947" fill="#0037b2"/>
            <path id="Trazado_206860" data-name="Trazado 206860" d="M855.108,365.774a1.38,1.38,0,1,0,2.62-.87l-1.524-4.586a1.38,1.38,0,0,0-2.62.871Z" fill="#0037b2"/>
            <path id="Trazado_206861" data-name="Trazado 206861" d="M1138.893,146.166l-9.987,9.987c-.131-.158-.269-.311-.417-.459l-12.9-12.9a1.826,1.826,0,0,0-2.582,2.582l12.9,12.9a2.844,2.844,0,0,1-4.022,4.021l-7.167-7.167a1.826,1.826,0,1,0-2.582,2.582l7.167,7.167h0a2.844,2.844,0,0,1-4.022,4.021l-7.167-7.167a1.826,1.826,0,0,0-2.582,2.582l7.167,7.167a2.843,2.843,0,1,1-4.021,4.021l-7.168-7.167a1.826,1.826,0,0,0-2.582,2.582l7.167,7.167a2.844,2.844,0,1,1-4.021,4.022l-4.643-4.643a6.43,6.43,0,0,0-.964-7.841l-.11-.11a6.41,6.41,0,0,0-5.182-1.843,6.407,6.407,0,0,0-4.861-5.79,6.422,6.422,0,0,0-8.764-8.1,6.414,6.414,0,0,0-10.71-2.788l-.753.753-.549-.549a4.644,4.644,0,0,1-1.369-3.306v-4.761a1.821,1.821,0,0,0-.535-1.291l-7.794-7.795,2.192-2.192a1.826,1.826,0,0,0-2.583-2.582l-2.936,2.936a1.421,1.421,0,0,1-2.008,0l-9.4-9.4a1.826,1.826,0,1,0-2.582,2.582l9.4,9.4a5.038,5.038,0,0,0,4.822,1.325l7.772,7.773v4.005a8.272,8.272,0,0,0,2.439,5.887l.549.549-.611.612a6.414,6.414,0,0,0,4.538,10.952l.078,0c0,.027,0,.054,0,.081a6.417,6.417,0,0,0,6.418,6.417l.081,0a6.4,6.4,0,0,0,6.413,6.493l.08,0a6.4,6.4,0,0,0,1.875,4.619l.11.11a6.417,6.417,0,0,0,9.076,0l3.424-3.424,4.508,4.508a6.491,6.491,0,0,0,11.082-4.7c.038,0,.075,0,.114,0a6.487,6.487,0,0,0,6.489-6.609l.114,0a6.489,6.489,0,0,0,6.495-6.492c0-.038,0-.076,0-.114.037,0,.073,0,.11,0a6.484,6.484,0,0,0,6.477-6.928l11.1-11.1a1.826,1.826,0,0,0-2.582-2.583Zm-73.416,15.267a2.765,2.765,0,0,1,0-3.911l3.946-3.946a2.765,2.765,0,0,1,3.911,3.911l-3.946,3.946a2.768,2.768,0,0,1-3.911,0m8.449,7.3a2.766,2.766,0,0,1-1.955-4.722l3.946-3.946,2.453-2.453a2.766,2.766,0,1,1,3.911,3.912l-6.4,6.4a2.75,2.75,0,0,1-1.956.81m4.538,5.683a2.769,2.769,0,0,1,0-3.911l4.355-4.356a2.766,2.766,0,0,1,3.913,3.911l-4.357,4.356A2.767,2.767,0,0,1,1078.464,174.42Zm10.515,6.6a2.766,2.766,0,0,1-3.911,0l-.11-.11a2.767,2.767,0,0,1,0-3.911l4.355-4.356,0,0,.547-.546a2.768,2.768,0,0,1,3.911,0l.11.109a2.769,2.769,0,0,1,0,3.912Z" fill="#0037b2"/>
            <path id="Trazado_206862" data-name="Trazado 206862" d="M1161.85,130.505a1.826,1.826,0,0,0-2.582,0l-6.842,6.842a.25.25,0,0,1-.346,0l-24.189-23.106a.243.243,0,0,1-.076-.176.236.236,0,0,1,.073-.177l14.346-14.347a1.826,1.826,0,0,0-2.583-2.582l-14.346,14.347a3.891,3.891,0,0,0-.338,5.121l-6.566,6.439-6.186-3.45a5.452,5.452,0,0,0-2.65-.69h-17.577l-1.337-1.337a12.336,12.336,0,0,0-4.349-2.817l-4.866-1.853-2.248-2.249a5.076,5.076,0,0,0-.763-6.184l-7.326-7.327a1.826,1.826,0,0,0-2.582,2.582l7.326,7.326a1.422,1.422,0,0,1,0,2.009l-14.89,14.889a1.826,1.826,0,0,0,2.583,2.582l13.182-13.182,2.412,2.412a1.836,1.836,0,0,0,.641.415l5.231,1.993a8.681,8.681,0,0,1,3,1.921c-.111.093-.22.189-.324.293l-6.944,6.944a7.3,7.3,0,0,0,9.793,10.795l5.255-4.32h5.473l6.255,6.255a1.826,1.826,0,0,0,2.582-2.582l-4.518-4.519a1.823,1.823,0,0,0-1.539-2.805h-8.908a1.821,1.821,0,0,0-1.159.415l-5.76,4.736a3.645,3.645,0,0,1-4.892-5.392l6.945-6.945a1.364,1.364,0,0,1,.973-.4h18.332a1.8,1.8,0,0,1,.872.227l6.842,3.816a2.663,2.663,0,0,0,3.142-.421l7.152-7.014,19.69,18.808-2.867,2.867a1.826,1.826,0,0,0,2.583,2.582l2.949-2.949a3.919,3.919,0,0,0,5.081-.369l6.842-6.842a1.826,1.826,0,0,0,0-2.582" fill="#0037b2"/>
          </g>
        </g>
      </g>
    </g>
    <path id="Trazado_207376" data-name="Trazado 207376" d="M11.32-4.333a4.673,4.673,0,0,1-.721,2.36A4.35,4.35,0,0,1,8.75-.387a6.3,6.3,0,0,1-2.72.563A5.025,5.025,0,0,1,2.057-1.468,6.786,6.786,0,0,1,.606-6.108v-.633a7.746,7.746,0,0,1,.655-3.292,4.961,4.961,0,0,1,1.885-2.18,5.26,5.26,0,0,1,2.848-.769,5.516,5.516,0,0,1,3.744,1.226,4.844,4.844,0,0,1,1.608,3.379H8.271a2.292,2.292,0,0,0-.589-1.679,2.422,2.422,0,0,0-1.687-.51A1.843,1.843,0,0,0,4.307-9.7a5.536,5.536,0,0,0-.562,2.751v.905A6.125,6.125,0,0,0,4.258-3.12a1.882,1.882,0,0,0,1.771.879,2.369,2.369,0,0,0,1.626-.5,2.126,2.126,0,0,0,.6-1.591Zm.949-.51a5.613,5.613,0,0,1,.554-2.536,3.96,3.96,0,0,1,1.591-1.709,4.791,4.791,0,0,1,2.435-.6,4.373,4.373,0,0,1,3.366,1.323,5.076,5.076,0,0,1,1.23,3.6v.105A4.925,4.925,0,0,1,20.21-1.129,4.384,4.384,0,0,1,16.866.176a4.434,4.434,0,0,1-3.261-1.217,4.761,4.761,0,0,1-1.327-3.3Zm2.962.185a3.538,3.538,0,0,0,.413,1.934,1.376,1.376,0,0,0,1.222.615q1.582,0,1.617-2.435v-.3q0-2.558-1.635-2.558-1.485,0-1.608,2.206ZM25.55-9.51l.1,1.116a3.27,3.27,0,0,1,2.716-1.292A2.407,2.407,0,0,1,30.8-8.253a3.165,3.165,0,0,1,2.795-1.433q2.892,0,2.971,3.5V0H33.592V-6a1.813,1.813,0,0,0-.246-1.063,1.048,1.048,0,0,0-.9-.334,1.4,1.4,0,0,0-1.31.782l.009.123V0H28.178V-5.985a1.906,1.906,0,0,0-.237-1.081,1.045,1.045,0,0,0-.905-.334,1.42,1.42,0,0,0-1.3.782V0H22.772V-9.51ZM43.919-1.028a3.054,3.054,0,0,1-2.54,1.2,3,3,0,0,1-2.369-.91,3.826,3.826,0,0,1-.8-2.615V-9.51h2.962v6.179a1.065,1.065,0,0,0,1.187,1.222,1.548,1.548,0,0,0,1.45-.729V-9.51h2.979V0H44.007ZM51.126-9.51l.1,1.116a3.225,3.225,0,0,1,2.716-1.292,2.713,2.713,0,0,1,2.219.888,4.226,4.226,0,0,1,.76,2.672V0H53.947V-6a1.6,1.6,0,0,0-.29-1.059A1.342,1.342,0,0,0,52.6-7.4a1.413,1.413,0,0,0-1.292.686V0H48.349V-9.51ZM61.682,0H58.711V-9.51h2.971ZM58.535-11.971a1.334,1.334,0,0,1,.457-1.043,1.718,1.718,0,0,1,1.187-.407,1.718,1.718,0,0,1,1.187.407,1.334,1.334,0,0,1,.457,1.043,1.334,1.334,0,0,1-.457,1.043,1.718,1.718,0,0,1-1.187.407,1.718,1.718,0,0,1-1.187-.407A1.334,1.334,0,0,1,58.535-11.971Zm8.991,9.861a1.317,1.317,0,0,0,.967-.338,1.241,1.241,0,0,0,.334-.945H71.6A3.288,3.288,0,0,1,70.484-.826a4.168,4.168,0,0,1-2.887,1,4.22,4.22,0,0,1-3.27-1.3,5.125,5.125,0,0,1-1.2-3.6v-.123A5.792,5.792,0,0,1,63.664-7.4a3.872,3.872,0,0,1,1.534-1.7,4.573,4.573,0,0,1,2.373-.593,4.116,4.116,0,0,1,2.944,1.028A3.647,3.647,0,0,1,71.6-5.871H68.827A1.626,1.626,0,0,0,68.467-7a1.244,1.244,0,0,0-.967-.4q-1.151,0-1.345,1.468a10.357,10.357,0,0,0-.062,1.283,4.068,4.068,0,0,0,.343,1.986A1.187,1.187,0,0,0,67.526-2.109ZM78.214,0a3.344,3.344,0,0,1-.281-.853A2.754,2.754,0,0,1,75.647.176a3.374,3.374,0,0,1-2.285-.813,2.588,2.588,0,0,1-.94-2.043,2.66,2.66,0,0,1,1.143-2.338,5.821,5.821,0,0,1,3.322-.791H77.8v-.5q0-1.316-1.134-1.316a.927.927,0,0,0-1.055,1.042H72.65a2.655,2.655,0,0,1,1.173-2.239,4.931,4.931,0,0,1,2.993-.86A4.323,4.323,0,0,1,79.69-8.8a3.086,3.086,0,0,1,1.081,2.435v4.21a4.311,4.311,0,0,0,.4,2V0ZM76.359-1.934a1.652,1.652,0,0,0,.918-.237,1.487,1.487,0,0,0,.523-.536V-4.228h-.861q-1.547,0-1.547,1.389a.848.848,0,0,0,.272.655A.986.986,0,0,0,76.359-1.934Zm10.072-.176a1.317,1.317,0,0,0,.967-.338,1.241,1.241,0,0,0,.334-.945H90.51A3.288,3.288,0,0,1,89.389-.826a4.168,4.168,0,0,1-2.887,1,4.22,4.22,0,0,1-3.27-1.3,5.125,5.125,0,0,1-1.2-3.6v-.123A5.792,5.792,0,0,1,82.569-7.4a3.872,3.872,0,0,1,1.534-1.7,4.573,4.573,0,0,1,2.373-.593A4.116,4.116,0,0,1,89.42-8.657a3.647,3.647,0,0,1,1.09,2.786H87.732A1.626,1.626,0,0,0,87.372-7a1.244,1.244,0,0,0-.967-.4q-1.151,0-1.345,1.468A10.357,10.357,0,0,0,85-4.649a4.068,4.068,0,0,0,.343,1.986A1.187,1.187,0,0,0,86.432-2.109ZM94.887,0H91.916V-9.51h2.971ZM91.74-11.971a1.334,1.334,0,0,1,.457-1.043,1.718,1.718,0,0,1,1.187-.407,1.718,1.718,0,0,1,1.187.407,1.334,1.334,0,0,1,.457,1.043,1.334,1.334,0,0,1-.457,1.043,1.718,1.718,0,0,1-1.187.407,1.718,1.718,0,0,1-1.187-.407A1.334,1.334,0,0,1,91.74-11.971Zm4.6,7.128a5.613,5.613,0,0,1,.554-2.536,3.96,3.96,0,0,1,1.591-1.709,4.791,4.791,0,0,1,2.435-.6,4.373,4.373,0,0,1,3.366,1.323,5.076,5.076,0,0,1,1.23,3.6v.105a4.925,4.925,0,0,1-1.235,3.529A4.384,4.384,0,0,1,100.934.176a4.434,4.434,0,0,1-3.261-1.217,4.761,4.761,0,0,1-1.327-3.3Zm2.962.185a3.538,3.538,0,0,0,.413,1.934,1.376,1.376,0,0,0,1.222.615q1.582,0,1.617-2.435v-.3q0-2.558-1.635-2.558-1.485,0-1.608,2.206ZM101.32-13.5h3.129l-2.443,2.76-2.417,0Zm8.218,3.99.1,1.116a3.225,3.225,0,0,1,2.716-1.292,2.713,2.713,0,0,1,2.219.888,4.226,4.226,0,0,1,.76,2.672V0h-2.971V-6a1.6,1.6,0,0,0-.29-1.059,1.342,1.342,0,0,0-1.055-.338,1.413,1.413,0,0,0-1.292.686V0h-2.962V-9.51Z" transform="translate(264 2627)" fill="#12263f"/>
    <path id="Trazado_207380" data-name="Trazado 207380" d="M5.722-4.526H4.052V0H.967V-12.8H6a5.621,5.621,0,0,1,3.56,1.01,3.421,3.421,0,0,1,1.283,2.853,4.155,4.155,0,0,1-.541,2.213A3.837,3.837,0,0,1,8.613-5.3L11.285-.132V0H7.98ZM4.052-6.9H6a1.751,1.751,0,0,0,1.323-.463A1.788,1.788,0,0,0,7.77-8.653a1.809,1.809,0,0,0-.448-1.3A1.735,1.735,0,0,0,6-10.424H4.052ZM17.174.176a4.889,4.889,0,0,1-3.542-1.305,4.507,4.507,0,0,1-1.354-3.4v-.246a5.84,5.84,0,0,1,.541-2.575A3.955,3.955,0,0,1,14.4-9.075a4.763,4.763,0,0,1,2.461-.611,4.117,4.117,0,0,1,3.164,1.244,4.887,4.887,0,0,1,1.16,3.467v1.151H15.293a2.135,2.135,0,0,0,.694,1.257,2.066,2.066,0,0,0,1.389.457,2.662,2.662,0,0,0,2.2-.984l1.354,1.6A3.784,3.784,0,0,1,19.358-.277,5.3,5.3,0,0,1,17.174.176ZM16.84-7.4q-1.3,0-1.547,1.723h2.988v-.229a1.467,1.467,0,0,0-.36-1.1A1.434,1.434,0,0,0,16.84-7.4ZM27.352-2.672a.684.684,0,0,0-.4-.606,6.016,6.016,0,0,0-1.5-.475A6.853,6.853,0,0,1,23.625-4.4a3.062,3.062,0,0,1-1.1-.971,2.319,2.319,0,0,1-.378-1.31,2.628,2.628,0,0,1,1.081-2.158,4.453,4.453,0,0,1,2.83-.848,4.934,4.934,0,0,1,3.023.853,2.666,2.666,0,0,1,1.143,2.241H27.255q0-1.143-1.2-1.143a1.194,1.194,0,0,0-.782.259.8.8,0,0,0-.316.646.737.737,0,0,0,.387.642,3.654,3.654,0,0,0,1.235.4,10.671,10.671,0,0,1,1.49.378A2.706,2.706,0,0,1,30.208-2.76,2.491,2.491,0,0,1,29.052-.642,5.068,5.068,0,0,1,26.06.176a5.172,5.172,0,0,1-2.18-.439,3.645,3.645,0,0,1-1.494-1.2A2.707,2.707,0,0,1,21.85-3.05h2.769a1.145,1.145,0,0,0,.439.962,1.808,1.808,0,0,0,1.081.3,1.422,1.422,0,0,0,.91-.246A.787.787,0,0,0,27.352-2.672ZM40.421-4.685a5.735,5.735,0,0,1-1,3.538A3.2,3.2,0,0,1,36.729.176a2.742,2.742,0,0,1-2.153-.958V3.656H31.614V-9.51h2.769l.088.879a2.742,2.742,0,0,1,2.241-1.055,3.224,3.224,0,0,1,2.733,1.3,5.805,5.805,0,0,1,.976,3.564Zm-2.962-.185q0-2.531-1.477-2.531a1.394,1.394,0,0,0-1.406.756V-2.9A1.439,1.439,0,0,0,36-2.109q1.415,0,1.459-2.443ZM46.327.176a4.889,4.889,0,0,1-3.542-1.305,4.507,4.507,0,0,1-1.354-3.4v-.246a5.84,5.84,0,0,1,.541-2.575A3.955,3.955,0,0,1,43.55-9.075a4.763,4.763,0,0,1,2.461-.611,4.117,4.117,0,0,1,3.164,1.244,4.887,4.887,0,0,1,1.16,3.467v1.151H44.446a2.135,2.135,0,0,0,.694,1.257,2.066,2.066,0,0,0,1.389.457,2.662,2.662,0,0,0,2.2-.984l1.354,1.6A3.784,3.784,0,0,1,48.511-.277,5.3,5.3,0,0,1,46.327.176ZM45.993-7.4q-1.3,0-1.547,1.723h2.988v-.229a1.467,1.467,0,0,0-.36-1.1A1.434,1.434,0,0,0,45.993-7.4Zm8.982-4.474V-9.51H56.54v2.057H54.976V-3.1a1.111,1.111,0,0,0,.193.747,1.037,1.037,0,0,0,.765.211,4.345,4.345,0,0,0,.738-.053V-.079A5.466,5.466,0,0,1,55,.176a3.1,3.1,0,0,1-2.259-.721,2.954,2.954,0,0,1-.729-2.188v-4.72H50.8V-9.51h1.213v-2.364Zm2.092,7.031a5.613,5.613,0,0,1,.554-2.536,3.96,3.96,0,0,1,1.591-1.709,4.791,4.791,0,0,1,2.435-.6,4.373,4.373,0,0,1,3.366,1.323,5.076,5.076,0,0,1,1.23,3.6v.105a4.925,4.925,0,0,1-1.235,3.529A4.384,4.384,0,0,1,61.664.176,4.434,4.434,0,0,1,58.4-1.042a4.761,4.761,0,0,1-1.327-3.3Zm2.962.185a3.538,3.538,0,0,0,.413,1.934,1.376,1.376,0,0,0,1.222.615q1.582,0,1.617-2.435v-.3q0-2.558-1.635-2.558-1.485,0-1.608,2.206Z" transform="translate(1248 2627)" fill="#12263f"/>
    <path id="Trazado_207377" data-name="Trazado 207377" d="M7.567-3.4a1.268,1.268,0,0,0-.479-1.055,5.954,5.954,0,0,0-1.683-.782,16.147,16.147,0,0,1-1.969-.782Q.949-7.242.949-9.378a3.011,3.011,0,0,1,.62-1.876A4.008,4.008,0,0,1,3.322-12.52a6.823,6.823,0,0,1,2.549-.453,5.969,5.969,0,0,1,2.474.492,3.917,3.917,0,0,1,1.7,1.4A3.661,3.661,0,0,1,10.652-9H7.576A1.547,1.547,0,0,0,7.1-10.213a1.867,1.867,0,0,0-1.3-.431,2.106,2.106,0,0,0-1.305.365,1.119,1.119,0,0,0-.479.927,1.127,1.127,0,0,0,.527.892A6.65,6.65,0,0,0,6.4-7.633a11.36,11.36,0,0,1,2.18.918,3.663,3.663,0,0,1,2.074,3.3A3.125,3.125,0,0,1,9.387-.782,5.629,5.629,0,0,1,5.915.176,6.888,6.888,0,0,1,3.1-.382,4.247,4.247,0,0,1,1.2-1.912,3.985,3.985,0,0,1,.563-4.148H3.656a1.963,1.963,0,0,0,.532,1.516,2.513,2.513,0,0,0,1.727.488,1.985,1.985,0,0,0,1.208-.33A1.088,1.088,0,0,0,7.567-3.4ZM15.223,0H12.252V-9.51h2.971ZM12.076-11.971a1.334,1.334,0,0,1,.457-1.043,1.718,1.718,0,0,1,1.187-.407,1.718,1.718,0,0,1,1.187.407,1.334,1.334,0,0,1,.457,1.043,1.334,1.334,0,0,1-.457,1.043,1.718,1.718,0,0,1-1.187.407,1.718,1.718,0,0,1-1.187-.407A1.334,1.334,0,0,1,12.076-11.971Zm7.77,2.461.1,1.116a3.27,3.27,0,0,1,2.716-1.292,2.407,2.407,0,0,1,2.435,1.433,3.165,3.165,0,0,1,2.795-1.433q2.892,0,2.971,3.5V0H27.888V-6a1.813,1.813,0,0,0-.246-1.063,1.048,1.048,0,0,0-.9-.334,1.4,1.4,0,0,0-1.31.782l.009.123V0H22.474V-5.985a1.906,1.906,0,0,0-.237-1.081,1.045,1.045,0,0,0-.905-.334,1.42,1.42,0,0,0-1.3.782V0H17.068V-9.51ZM41.379-4.685a5.735,5.735,0,0,1-1,3.538A3.2,3.2,0,0,1,37.688.176a2.742,2.742,0,0,1-2.153-.958V3.656H32.572V-9.51h2.769l.088.879A2.742,2.742,0,0,1,37.67-9.686a3.224,3.224,0,0,1,2.733,1.3,5.805,5.805,0,0,1,.976,3.564Zm-2.962-.185q0-2.531-1.477-2.531a1.394,1.394,0,0,0-1.406.756V-2.9a1.439,1.439,0,0,0,1.424.791q1.415,0,1.459-2.443ZM45.809,0H42.838V-13.5h2.971Zm4.948,0H47.786V-9.51h2.971ZM47.61-11.971a1.334,1.334,0,0,1,.457-1.043,1.718,1.718,0,0,1,1.187-.407,1.718,1.718,0,0,1,1.187.407,1.334,1.334,0,0,1,.457,1.043,1.334,1.334,0,0,1-.457,1.043,1.718,1.718,0,0,1-1.187.407,1.718,1.718,0,0,1-1.187-.407A1.334,1.334,0,0,1,47.61-11.971ZM56.6-2.109a1.317,1.317,0,0,0,.967-.338,1.241,1.241,0,0,0,.334-.945H60.68A3.288,3.288,0,0,1,59.559-.826a4.168,4.168,0,0,1-2.887,1,4.22,4.22,0,0,1-3.27-1.3,5.125,5.125,0,0,1-1.2-3.6v-.123A5.792,5.792,0,0,1,52.739-7.4a3.872,3.872,0,0,1,1.534-1.7,4.573,4.573,0,0,1,2.373-.593A4.116,4.116,0,0,1,59.59-8.657a3.647,3.647,0,0,1,1.09,2.786H57.9A1.626,1.626,0,0,0,57.542-7a1.244,1.244,0,0,0-.967-.4q-1.151,0-1.345,1.468a10.357,10.357,0,0,0-.062,1.283,4.068,4.068,0,0,0,.343,1.986A1.187,1.187,0,0,0,56.6-2.109ZM65.057,0H62.086V-9.51h2.971ZM61.91-11.971a1.334,1.334,0,0,1,.457-1.043,1.718,1.718,0,0,1,1.187-.407,1.718,1.718,0,0,1,1.187.407,1.334,1.334,0,0,1,.457,1.043,1.334,1.334,0,0,1-.457,1.043,1.718,1.718,0,0,1-1.187.407,1.718,1.718,0,0,1-1.187-.407A1.334,1.334,0,0,1,61.91-11.971Zm4.6,7.146a5.809,5.809,0,0,1,.976-3.56,3.211,3.211,0,0,1,2.725-1.3,2.731,2.731,0,0,1,2.145,1V-13.5h2.971V0H72.659L72.51-1.02a2.8,2.8,0,0,1-2.32,1.2,3.205,3.205,0,0,1-2.689-1.3A5.993,5.993,0,0,1,66.507-4.825Zm2.962.185q0,2.531,1.477,2.531a1.458,1.458,0,0,0,1.406-.826V-6.557A1.419,1.419,0,0,0,70.963-7.4q-1.371,0-1.485,2.215ZM82.362,0a3.344,3.344,0,0,1-.281-.853A2.754,2.754,0,0,1,79.8.176a3.374,3.374,0,0,1-2.285-.813,2.588,2.588,0,0,1-.94-2.043,2.66,2.66,0,0,1,1.143-2.338,5.821,5.821,0,0,1,3.322-.791h.914v-.5q0-1.316-1.134-1.316a.927.927,0,0,0-1.055,1.042H76.8a2.655,2.655,0,0,1,1.173-2.239,4.931,4.931,0,0,1,2.993-.86,4.323,4.323,0,0,1,2.874.888A3.086,3.086,0,0,1,84.92-6.363v4.21a4.311,4.311,0,0,0,.4,2V0ZM80.508-1.934a1.652,1.652,0,0,0,.918-.237,1.487,1.487,0,0,0,.523-.536V-4.228h-.861q-1.547,0-1.547,1.389a.848.848,0,0,0,.272.655A.986.986,0,0,0,80.508-1.934Zm5.678-2.892a5.809,5.809,0,0,1,.976-3.56,3.211,3.211,0,0,1,2.725-1.3,2.731,2.731,0,0,1,2.145,1V-13.5H95V0H92.338l-.149-1.02a2.8,2.8,0,0,1-2.32,1.2,3.205,3.205,0,0,1-2.689-1.3A5.993,5.993,0,0,1,86.186-4.825Zm2.962.185q0,2.531,1.477,2.531a1.458,1.458,0,0,0,1.406-.826V-6.557A1.419,1.419,0,0,0,90.642-7.4q-1.371,0-1.485,2.215Z" transform="translate(511 2648)" fill="#12263f"/>
    <path id="Trazado_207379" data-name="Trazado 207379" d="M11.32-4.333a4.673,4.673,0,0,1-.721,2.36A4.35,4.35,0,0,1,8.75-.387a6.3,6.3,0,0,1-2.72.563A5.025,5.025,0,0,1,2.057-1.468,6.786,6.786,0,0,1,.606-6.108v-.633a7.746,7.746,0,0,1,.655-3.292,4.961,4.961,0,0,1,1.885-2.18,5.26,5.26,0,0,1,2.848-.769,5.516,5.516,0,0,1,3.744,1.226,4.844,4.844,0,0,1,1.608,3.379H8.271a2.292,2.292,0,0,0-.589-1.679,2.422,2.422,0,0,0-1.687-.51A1.843,1.843,0,0,0,4.307-9.7a5.536,5.536,0,0,0-.562,2.751v.905A6.125,6.125,0,0,0,4.258-3.12a1.882,1.882,0,0,0,1.771.879,2.369,2.369,0,0,0,1.626-.5,2.126,2.126,0,0,0,.6-1.591Zm.949-.51a5.613,5.613,0,0,1,.554-2.536,3.96,3.96,0,0,1,1.591-1.709,4.791,4.791,0,0,1,2.435-.6,4.373,4.373,0,0,1,3.366,1.323,5.076,5.076,0,0,1,1.23,3.6v.105A4.925,4.925,0,0,1,20.21-1.129,4.384,4.384,0,0,1,16.866.176a4.434,4.434,0,0,1-3.261-1.217,4.761,4.761,0,0,1-1.327-3.3Zm2.962.185a3.538,3.538,0,0,0,.413,1.934,1.376,1.376,0,0,0,1.222.615q1.582,0,1.617-2.435v-.3q0-2.558-1.635-2.558-1.485,0-1.608,2.206ZM28.5-6.829l-.976-.07a1.752,1.752,0,0,0-1.793.879V0H22.772V-9.51H25.55l.1,1.222a2.294,2.294,0,0,1,2.083-1.4,2.888,2.888,0,0,1,.826.105ZM34.664,0a3.344,3.344,0,0,1-.281-.853A2.754,2.754,0,0,1,32.1.176a3.374,3.374,0,0,1-2.285-.813,2.588,2.588,0,0,1-.94-2.043,2.66,2.66,0,0,1,1.143-2.338,5.821,5.821,0,0,1,3.322-.791h.914v-.5q0-1.316-1.134-1.316a.927.927,0,0,0-1.055,1.042H29.1a2.655,2.655,0,0,1,1.173-2.239,4.931,4.931,0,0,1,2.993-.86,4.323,4.323,0,0,1,2.874.888,3.086,3.086,0,0,1,1.081,2.435v4.21a4.311,4.311,0,0,0,.4,2V0ZM32.81-1.934a1.652,1.652,0,0,0,.918-.237,1.487,1.487,0,0,0,.523-.536V-4.228H33.39q-1.547,0-1.547,1.389a.848.848,0,0,0,.272.655A.986.986,0,0,0,32.81-1.934ZM42.047-9.51V.325a3.452,3.452,0,0,1-.967,2.6,3.714,3.714,0,0,1-2.672.914,6.308,6.308,0,0,1-1.4-.149V1.45a5.667,5.667,0,0,0,.835.079A1.084,1.084,0,0,0,39.076.308V-9.51Zm-3.19-2.461a1.334,1.334,0,0,1,.457-1.043,1.718,1.718,0,0,1,1.187-.407,1.718,1.718,0,0,1,1.187.407,1.334,1.334,0,0,1,.457,1.043,1.334,1.334,0,0,1-.457,1.043,1.718,1.718,0,0,1-1.187.407,1.718,1.718,0,0,1-1.187-.407A1.334,1.334,0,0,1,38.856-11.971ZM48.322.176A4.889,4.889,0,0,1,44.78-1.129a4.507,4.507,0,0,1-1.354-3.4v-.246a5.84,5.84,0,0,1,.541-2.575,3.955,3.955,0,0,1,1.578-1.727,4.763,4.763,0,0,1,2.461-.611A4.117,4.117,0,0,1,51.17-8.442a4.887,4.887,0,0,1,1.16,3.467v1.151H46.441a2.135,2.135,0,0,0,.694,1.257,2.066,2.066,0,0,0,1.389.457,2.662,2.662,0,0,0,2.2-.984l1.354,1.6A3.784,3.784,0,0,1,50.506-.277,5.3,5.3,0,0,1,48.322.176ZM47.988-7.4q-1.3,0-1.547,1.723H49.43v-.229a1.467,1.467,0,0,0-.36-1.1A1.434,1.434,0,0,0,47.988-7.4Z" transform="translate(1020 2648)" fill="#12263f"/>
    <path id="Trazado_207378" data-name="Trazado 207378" d="M8.815-5.15H4.148L3.12,0H.176L2.733-12.8H11.18l-.457,2.285h-5.5L4.605-7.436H9.272ZM13.781.185a3.41,3.41,0,0,1-2.9-1.327,4.164,4.164,0,0,1-.681-3.3l.053-.334a6.58,6.58,0,0,1,1.622-3.59,4.278,4.278,0,0,1,3.274-1.323,3.067,3.067,0,0,1,2.624,1.169,4.028,4.028,0,0,1,.567,3.138l-.246,1.556H13.122l-.018.044a1.749,1.749,0,0,0,.316,1.217,1.339,1.339,0,0,0,1.125.461,4.862,4.862,0,0,0,1.239-.136,10.7,10.7,0,0,0,1.274-.453l.4,1.811a5.817,5.817,0,0,1-1.63.76A6.873,6.873,0,0,1,13.781.185Zm1-7.585a1.042,1.042,0,0,0-.875.457,3.275,3.275,0,0,0-.514,1.222l.026.044h2.092l.044-.229A2.028,2.028,0,0,0,15.5-7.031.708.708,0,0,0,14.783-7.4ZM22.755.185a3.41,3.41,0,0,1-2.9-1.327,4.164,4.164,0,0,1-.681-3.3l.053-.334a6.58,6.58,0,0,1,1.622-3.59,4.278,4.278,0,0,1,3.274-1.323,3.067,3.067,0,0,1,2.624,1.169,4.028,4.028,0,0,1,.567,3.138l-.246,1.556H22.1l-.018.044a1.749,1.749,0,0,0,.316,1.217A1.339,1.339,0,0,0,23.52-2.1a4.862,4.862,0,0,0,1.239-.136,10.7,10.7,0,0,0,1.274-.453l.4,1.811a5.817,5.817,0,0,1-1.63.76A6.873,6.873,0,0,1,22.755.185Zm1-7.585a1.042,1.042,0,0,0-.875.457,3.275,3.275,0,0,0-.514,1.222l.026.044h2.092l.044-.229a2.028,2.028,0,0,0-.062-1.125A.708.708,0,0,0,23.757-7.4Zm4.368,2.487a7.6,7.6,0,0,1,1.516-3.573,3.457,3.457,0,0,1,2.729-1.2,2.167,2.167,0,0,1,1.055.264,2.561,2.561,0,0,1,.835.738l1-5.027H38.2L35.455,0h-2.54l.018-.958a3.861,3.861,0,0,1-1.063.848,2.456,2.456,0,0,1-1.151.294,2.453,2.453,0,0,1-2.29-1.415,5.1,5.1,0,0,1-.338-3.5Zm2.909.185A5.337,5.337,0,0,0,30.9-2.773a.762.762,0,0,0,.835.672,1.337,1.337,0,0,0,.721-.229,2.481,2.481,0,0,0,.659-.633L33.9-6.9a.876.876,0,0,0-.4-.378,1.457,1.457,0,0,0-.628-.123,1.348,1.348,0,0,0-1.112.672,4.711,4.711,0,0,0-.69,1.815Zm15.17.352A7.4,7.4,0,0,1,44.736-.936,3.454,3.454,0,0,1,42.012.185a2.526,2.526,0,0,1-1.222-.29,2.285,2.285,0,0,1-.87-.835L39.577,0H37.028l2.742-13.711h2.936L41.73-8.842a3.28,3.28,0,0,1,.9-.624,2.386,2.386,0,0,1,1.006-.22,2.416,2.416,0,0,1,2.325,1.463,5.689,5.689,0,0,1,.277,3.661Zm-2.892-.185a7.128,7.128,0,0,0,.176-2.123.759.759,0,0,0-.853-.716,1.3,1.3,0,0,0-.738.237,2.356,2.356,0,0,0-.633.659l-.817,4.061a.767.767,0,0,0,.4.264,2.407,2.407,0,0,0,.677.079,1.286,1.286,0,0,0,1.121-.558,4.717,4.717,0,0,0,.628-1.718ZM51.583-.009a4.132,4.132,0,0,1-.114-.505,4.243,4.243,0,0,1-.053-.558,4.019,4.019,0,0,1-1.094.918,2.723,2.723,0,0,1-1.358.338,2.306,2.306,0,0,1-1.854-.8,2.329,2.329,0,0,1-.422-2.07,3.3,3.3,0,0,1,1.4-2.228,5.75,5.75,0,0,1,3.16-.725h.914l.141-.677a1.493,1.493,0,0,0-.044-.958.7.7,0,0,0-.668-.3.9.9,0,0,0-.65.246,1.329,1.329,0,0,0-.343.747L47.76-6.583l-.018-.053a3.237,3.237,0,0,1,1.446-2.219,5.25,5.25,0,0,1,3.028-.831,3.338,3.338,0,0,1,2.457.892,2.584,2.584,0,0,1,.576,2.5l-.712,3.586a7.547,7.547,0,0,0-.171,1.433A6.681,6.681,0,0,0,54.483,0ZM50.291-1.934a1.514,1.514,0,0,0,.668-.163,2.038,2.038,0,0,0,.58-.417l.308-1.538h-.888a1.164,1.164,0,0,0-.879.347,1.654,1.654,0,0,0-.431.866.775.775,0,0,0,.088.668A.658.658,0,0,0,50.291-1.934ZM59.81-2.1a.993.993,0,0,0,.787-.325,1.907,1.907,0,0,0,.391-.958h2.672l.018.053a3.852,3.852,0,0,1-1.4,2.571,4.364,4.364,0,0,1-2.826.945,3.242,3.242,0,0,1-2.878-1.358,4.655,4.655,0,0,1-.584-3.476l.026-.2a6.245,6.245,0,0,1,1.648-3.524A4.49,4.49,0,0,1,61-9.686a3.162,3.162,0,0,1,2.527,1.02A3.158,3.158,0,0,1,64.1-5.915l-.026.044H61.383A2.232,2.232,0,0,0,61.326-7a.664.664,0,0,0-.69-.4,1.246,1.246,0,0,0-1.107.7,5.222,5.222,0,0,0-.589,1.846l-.026.2a4.877,4.877,0,0,0-.031,1.9A.846.846,0,0,0,59.81-2.1Zm8.411-1.679h-.378L67.087,0H64.151l2.742-13.711h2.936l-1.538,7.69h.316L71.033-9.51h3.3l.026.044-3.5,4.228L72.932,0h-3.34Z" transform="translate(763 2627)" fill="#12263f"/>
  </g>
</svg>
