<svg id="Grupo_147188" data-name="Grupo 147188" xmlns="http://www.w3.org/2000/svg" xmlns:xlink="http://www.w3.org/1999/xlink" width="820" height="632.138" viewBox="0 0 820 632.138">
  <defs>
    <clipPath id="clip-path">
      <rect id="Rectángulo_38603" data-name="Rectángulo 38603" width="820" height="632.138" fill="none"/>
    </clipPath>
  </defs>
  <g id="Grupo_147187" data-name="Grupo 147187" clip-path="url(#clip-path)">
    <path id="Trazado_207475" data-name="Trazado 207475" d="M496.819,173.03a66.364,66.364,0,1,1-66.364-66.364,66.363,66.363,0,0,1,66.364,66.364" transform="translate(-16.978 -4.974)" fill="#ccd9ff"/>
    <path id="Trazado_207476" data-name="Trazado 207476" d="M561.72,69.849a32.624,32.624,0,1,1-32.625-32.624A32.625,32.625,0,0,1,561.72,69.849" transform="translate(-23.151 -1.736)" fill="#ccd9ff"/>
    <path id="Trazado_207477" data-name="Trazado 207477" d="M408.241,176.685a1.14,1.14,0,0,0-.431-.95,5.4,5.4,0,0,0-1.515-.7,14.444,14.444,0,0,1-1.772-.7,3.356,3.356,0,0,1-2.24-3.024,2.711,2.711,0,0,1,.558-1.688,3.611,3.611,0,0,1,1.579-1.139,6.147,6.147,0,0,1,2.295-.408,5.37,5.37,0,0,1,2.228.443,3.528,3.528,0,0,1,1.532,1.262,3.3,3.3,0,0,1,.545,1.871h-2.77a1.4,1.4,0,0,0-.431-1.093,1.684,1.684,0,0,0-1.168-.388,1.891,1.891,0,0,0-1.175.329.966.966,0,0,0,.043,1.639,6,6,0,0,0,1.669.744,10.261,10.261,0,0,1,1.963.827,3.3,3.3,0,0,1,1.868,2.968,2.815,2.815,0,0,1-1.139,2.375,5.078,5.078,0,0,1-3.127.862,6.21,6.21,0,0,1-2.536-.5,3.83,3.83,0,0,1-1.709-1.378,3.586,3.586,0,0,1-.573-2.014h2.786a1.767,1.767,0,0,0,.479,1.365,2.262,2.262,0,0,0,1.554.439,1.782,1.782,0,0,0,1.089-.3.979.979,0,0,0,.4-.835" transform="translate(-18.742 -7.837)" fill="#002280"/>
    <path id="Trazado_207478" data-name="Trazado 207478" d="M415.735,175.846v3.91h-2.777V168.233h4.6a5.356,5.356,0,0,1,2.338.486,3.675,3.675,0,0,1,1.576,1.385,3.787,3.787,0,0,1,.558,2.037,3.332,3.332,0,0,1-1.207,2.694,5.007,5.007,0,0,1-3.313,1.01Zm0-2.144h1.821a1.715,1.715,0,0,0,1.23-.4,1.5,1.5,0,0,0,.424-1.139,1.858,1.858,0,0,0-.436-1.291,1.539,1.539,0,0,0-1.187-.489h-1.852Z" transform="translate(-19.256 -7.845)" fill="#002280"/>
    <path id="Trazado_207479" data-name="Trazado 207479" d="M428.3,175.679h-1.5v4.077h-2.777V168.233h4.535a5.065,5.065,0,0,1,3.2.909,3.081,3.081,0,0,1,1.155,2.569,3.735,3.735,0,0,1-.487,1.993,3.455,3.455,0,0,1-1.523,1.28l2.405,4.652v.119h-2.975Zm-1.5-2.136h1.758a1.58,1.58,0,0,0,1.191-.417,1.894,1.894,0,0,0,0-2.333,1.558,1.558,0,0,0-1.186-.424H426.8Z" transform="translate(-19.772 -7.845)" fill="#002280"/>
    <rect id="Rectángulo_38573" data-name="Rectángulo 38573" width="2.77" height="11.522" transform="translate(415.012 160.388)" fill="#002280"/>
    <path id="Trazado_207480" data-name="Trazado 207480" d="M449.865,179.755H447.1l-4.084-7.17v7.17h-2.777V168.233h2.777l4.077,7.17v-7.17h2.77Z" transform="translate(-20.529 -7.845)" fill="#002280"/>
    <path id="Trazado_207481" data-name="Trazado 207481" d="M460.954,170.378H457.5v9.377h-2.778v-9.377h-3.395v-2.145h9.631Z" transform="translate(-21.045 -7.845)" fill="#002280"/>
    <path id="Trazado_207482" data-name="Trazado 207482" d="M36.718,318.666v3.91H33.941V311.053h4.6a5.356,5.356,0,0,1,2.338.486,3.675,3.675,0,0,1,1.576,1.385,3.787,3.787,0,0,1,.558,2.037,3.332,3.332,0,0,1-1.207,2.694,5.007,5.007,0,0,1-3.313,1.01Zm0-2.144h1.821a1.715,1.715,0,0,0,1.23-.4,1.5,1.5,0,0,0,.424-1.139,1.858,1.858,0,0,0-.436-1.291,1.539,1.539,0,0,0-1.187-.489H36.718Z" transform="translate(-1.583 -14.504)" fill="#002280"/>
    <path id="Trazado_207483" data-name="Trazado 207483" d="M49.288,318.5h-1.5v4.077H45.006V311.053h4.535a5.065,5.065,0,0,1,3.2.909,3.081,3.081,0,0,1,1.155,2.569,3.735,3.735,0,0,1-.487,1.993,3.455,3.455,0,0,1-1.523,1.28l2.405,4.652v.119H51.321Zm-1.5-2.136h1.758a1.58,1.58,0,0,0,1.191-.416,1.894,1.894,0,0,0,0-2.333,1.555,1.555,0,0,0-1.186-.424H47.783Z" transform="translate(-2.099 -14.504)" fill="#002280"/>
    <path id="Trazado_207484" data-name="Trazado 207484" d="M65.839,317.043a6.8,6.8,0,0,1-.625,2.984,4.629,4.629,0,0,1-1.777,2,4.944,4.944,0,0,1-2.624.7,5.018,5.018,0,0,1-2.611-.677,4.61,4.61,0,0,1-1.776-1.934,6.606,6.606,0,0,1-.669-2.89v-.647a6.814,6.814,0,0,1,.622-2.988,4.62,4.62,0,0,1,1.78-2,4.988,4.988,0,0,1,2.64-.7,4.935,4.935,0,0,1,2.611.7,4.692,4.692,0,0,1,1.785,1.982,6.648,6.648,0,0,1,.645,2.949Zm-2.826-.483a4.835,4.835,0,0,0-.574-2.607,1.839,1.839,0,0,0-1.642-.89q-2.089,0-2.208,3.134l-.008.847a4.993,4.993,0,0,0,.561,2.6,1.841,1.841,0,0,0,1.67.909,1.814,1.814,0,0,0,1.623-.894,4.855,4.855,0,0,0,.578-2.571Z" transform="translate(-2.6 -14.497)" fill="#002280"/>
    <path id="Trazado_207485" data-name="Trazado 207485" d="M67.834,322.574V311.052h3.711a5.45,5.45,0,0,1,2.746.693,4.857,4.857,0,0,1,1.9,1.953,5.905,5.905,0,0,1,.693,2.83v.531a5.93,5.93,0,0,1-.668,2.836,4.888,4.888,0,0,1-1.884,1.963,5.346,5.346,0,0,1-2.711.716Zm2.777-9.377v7.241h.967a2.161,2.161,0,0,0,1.835-.851,4.168,4.168,0,0,0,.641-2.527v-.5a4.131,4.131,0,0,0-.641-2.516,2.2,2.2,0,0,0-1.868-.847Z" transform="translate(-3.163 -14.504)" fill="#002280"/>
    <path id="Trazado_207486" data-name="Trazado 207486" d="M87.859,311.052v7.541a4.344,4.344,0,0,1-.545,2.22,3.533,3.533,0,0,1-1.568,1.428,5.516,5.516,0,0,1-2.413.491,4.772,4.772,0,0,1-3.317-1.093,3.9,3.9,0,0,1-1.234-2.991v-7.6h2.793V318.7q.047,1.892,1.757,1.891a1.7,1.7,0,0,0,1.305-.475,2.214,2.214,0,0,0,.443-1.543v-7.527Z" transform="translate(-3.674 -14.504)" fill="#002280"/>
    <path id="Trazado_207487" data-name="Trazado 207487" d="M99.428,318.665a4.213,4.213,0,0,1-.649,2.125,3.924,3.924,0,0,1-1.666,1.428,5.672,5.672,0,0,1-2.449.506,4.525,4.525,0,0,1-3.577-1.481,6.108,6.108,0,0,1-1.306-4.179V316.5a6.983,6.983,0,0,1,.59-2.964,4.473,4.473,0,0,1,1.7-1.962,4.73,4.73,0,0,1,2.565-.692,4.969,4.969,0,0,1,3.371,1.1,4.369,4.369,0,0,1,1.448,3.044H96.681a2.057,2.057,0,0,0-.53-1.512,2.173,2.173,0,0,0-1.519-.46,1.661,1.661,0,0,0-1.52.776,4.971,4.971,0,0,0-.506,2.476v.816a5.525,5.525,0,0,0,.462,2.635,1.7,1.7,0,0,0,1.595.791,2.135,2.135,0,0,0,1.464-.451,1.917,1.917,0,0,0,.539-1.432Z" transform="translate(-4.187 -14.496)" fill="#002280"/>
    <path id="Trazado_207488" data-name="Trazado 207488" d="M110.054,313.2H106.6v9.377h-2.778V313.2h-3.395v-2.145h9.631Z" transform="translate(-4.683 -14.504)" fill="#002280"/>
    <path id="Trazado_207489" data-name="Trazado 207489" d="M121.264,317.043a6.813,6.813,0,0,1-.624,2.984,4.637,4.637,0,0,1-1.778,2,4.942,4.942,0,0,1-2.624.7,5.021,5.021,0,0,1-2.611-.677,4.616,4.616,0,0,1-1.776-1.934,6.606,6.606,0,0,1-.669-2.89v-.647a6.814,6.814,0,0,1,.622-2.988,4.628,4.628,0,0,1,1.781-2,4.984,4.984,0,0,1,2.639-.7,4.93,4.93,0,0,1,2.611.7,4.692,4.692,0,0,1,1.785,1.982,6.648,6.648,0,0,1,.645,2.949Zm-2.825-.483a4.834,4.834,0,0,0-.575-2.607,1.839,1.839,0,0,0-1.642-.89q-2.089,0-2.208,3.134l-.007.847a4.993,4.993,0,0,0,.56,2.6,1.843,1.843,0,0,0,1.67.909,1.817,1.817,0,0,0,1.624-.894,4.864,4.864,0,0,0,.578-2.571Z" transform="translate(-5.184 -14.497)" fill="#002280"/>
    <path id="Trazado_207490" data-name="Trazado 207490" d="M40.4,342.975V331.453h4.139a5.863,5.863,0,0,1,3.384.815,2.713,2.713,0,0,1,1.159,2.366,2.749,2.749,0,0,1-.411,1.527,2.4,2.4,0,0,1-1.212.933,2.427,2.427,0,0,1,1.384.886,2.578,2.578,0,0,1,.483,1.584,3.049,3.049,0,0,1-1.073,2.544,5.1,5.1,0,0,1-3.178.868Zm2.777-6.718h1.449a2.052,2.052,0,0,0,1.3-.335,1.18,1.18,0,0,0,.387-.96,1.242,1.242,0,0,0-.419-1.052,2.245,2.245,0,0,0-1.354-.321H43.172Zm0,1.819v2.762h1.821a1.725,1.725,0,0,0,1.155-.344,1.2,1.2,0,0,0,.4-.969,1.278,1.278,0,0,0-1.432-1.449Z" transform="translate(-1.884 -15.456)" fill="#002280"/>
    <path id="Trazado_207491" data-name="Trazado 207491" d="M57.86,340.823H54.054l-.665,2.153H50.421l4.227-11.522h2.61l4.259,11.522H58.533Zm-3.141-2.145H57.2l-1.242-4Z" transform="translate(-2.351 -15.456)" fill="#002280"/>
    <path id="Trazado_207492" data-name="Trazado 207492" d="M72.072,339.066a4.213,4.213,0,0,1-.649,2.125,3.924,3.924,0,0,1-1.666,1.428,5.672,5.672,0,0,1-2.449.506,4.525,4.525,0,0,1-3.577-1.481,6.108,6.108,0,0,1-1.306-4.179V336.9a6.983,6.983,0,0,1,.59-2.964,4.473,4.473,0,0,1,1.7-1.962,4.73,4.73,0,0,1,2.565-.692,4.97,4.97,0,0,1,3.371,1.1,4.369,4.369,0,0,1,1.448,3.044h-2.77a2.058,2.058,0,0,0-.53-1.512,2.173,2.173,0,0,0-1.519-.46,1.661,1.661,0,0,0-1.52.776,4.97,4.97,0,0,0-.506,2.476v.816a5.525,5.525,0,0,0,.462,2.635,1.7,1.7,0,0,0,1.595.791,2.135,2.135,0,0,0,1.464-.451,1.917,1.917,0,0,0,.539-1.432Z" transform="translate(-2.911 -15.448)" fill="#002280"/>
    <path id="Trazado_207493" data-name="Trazado 207493" d="M77.839,338.686,76.7,339.937v3.038H73.923V331.453H76.7v5.08l.966-1.464,2.484-3.616h3.435l-3.894,5.1,3.894,6.426H80.293Z" transform="translate(-3.447 -15.456)" fill="#002280"/>
    <path id="Trazado_207494" data-name="Trazado 207494" d="M87.573,340.838h4.835v2.137H84.8V331.452h2.777Z" transform="translate(-3.954 -15.456)" fill="#002280"/>
    <path id="Trazado_207495" data-name="Trazado 207495" d="M103.222,337.444a6.813,6.813,0,0,1-.625,2.984,4.637,4.637,0,0,1-1.778,2,4.942,4.942,0,0,1-2.624.7,5.021,5.021,0,0,1-2.611-.677,4.617,4.617,0,0,1-1.776-1.934,6.62,6.62,0,0,1-.669-2.89v-.647a6.814,6.814,0,0,1,.622-2.988,4.628,4.628,0,0,1,1.781-2,4.985,4.985,0,0,1,2.639-.7,4.93,4.93,0,0,1,2.611.7,4.692,4.692,0,0,1,1.785,1.982,6.661,6.661,0,0,1,.646,2.949Zm-2.826-.483a4.834,4.834,0,0,0-.575-2.606,1.838,1.838,0,0,0-1.642-.89q-2.089,0-2.208,3.134l-.007.847a5,5,0,0,0,.56,2.6,1.843,1.843,0,0,0,1.67.909,1.817,1.817,0,0,0,1.624-.894,4.864,4.864,0,0,0,.578-2.571Z" transform="translate(-4.343 -15.448)" fill="#002280"/>
    <path id="Trazado_207496" data-name="Trazado 207496" d="M114.638,341.542a4.46,4.46,0,0,1-1.876,1.147,8.065,8.065,0,0,1-2.706.436,4.826,4.826,0,0,1-3.617-1.385,5.6,5.6,0,0,1-1.447-3.853l-.009-1a6.875,6.875,0,0,1,.6-2.972,4.466,4.466,0,0,1,1.722-1.954,4.873,4.873,0,0,1,2.591-.685,5.1,5.1,0,0,1,3.343.986,4.165,4.165,0,0,1,1.388,2.94h-2.673a2.19,2.19,0,0,0-.619-1.379,1.993,1.993,0,0,0-1.344-.411,1.812,1.812,0,0,0-1.614.886,4.734,4.734,0,0,0-.579,2.533v.7a4.636,4.636,0,0,0,.589,2.592,2.087,2.087,0,0,0,1.857.867,2.333,2.333,0,0,0,1.614-.483v-1.788H109.93v-1.908h4.708Z" transform="translate(-4.895 -15.448)" fill="#002280"/>
    <path id="Trazado_207497" data-name="Trazado 207497" d="M248.121,319.5a1.14,1.14,0,0,0-.431-.95,5.4,5.4,0,0,0-1.515-.7,14.44,14.44,0,0,1-1.772-.7,3.356,3.356,0,0,1-2.24-3.024,2.711,2.711,0,0,1,.558-1.688,3.611,3.611,0,0,1,1.579-1.139,6.146,6.146,0,0,1,2.295-.408,5.37,5.37,0,0,1,2.228.443,3.528,3.528,0,0,1,1.532,1.262,3.3,3.3,0,0,1,.545,1.872h-2.77a1.4,1.4,0,0,0-.431-1.093,1.683,1.683,0,0,0-1.168-.388,1.891,1.891,0,0,0-1.175.329.966.966,0,0,0,.043,1.639,6,6,0,0,0,1.669.744,10.261,10.261,0,0,1,1.963.827,3.3,3.3,0,0,1,1.868,2.968,2.815,2.815,0,0,1-1.139,2.375,5.078,5.078,0,0,1-3.127.862,6.211,6.211,0,0,1-2.536-.5,3.831,3.831,0,0,1-1.709-1.378,3.586,3.586,0,0,1-.573-2.014H244.6a1.767,1.767,0,0,0,.479,1.365,2.262,2.262,0,0,0,1.554.439,1.783,1.783,0,0,0,1.089-.3.98.98,0,0,0,.4-.835" transform="translate(-11.276 -14.497)" fill="#002280"/>
    <path id="Trazado_207498" data-name="Trazado 207498" d="M257.119,318.5h-1.5v4.077h-2.778V311.053h4.535a5.065,5.065,0,0,1,3.2.909,3.081,3.081,0,0,1,1.155,2.569,3.735,3.735,0,0,1-.487,1.993,3.455,3.455,0,0,1-1.523,1.28l2.405,4.652v.119h-2.975Zm-1.5-2.136h1.757a1.58,1.58,0,0,0,1.191-.416,1.613,1.613,0,0,0,.4-1.162,1.631,1.631,0,0,0-.4-1.171,1.559,1.559,0,0,0-1.187-.424h-1.757Z" transform="translate(-11.79 -14.504)" fill="#002280"/>
    <path id="Trazado_207499" data-name="Trazado 207499" d="M266.7,318.666v3.91h-2.777V311.053h4.6a5.356,5.356,0,0,1,2.338.486,3.676,3.676,0,0,1,1.576,1.385,3.788,3.788,0,0,1,.558,2.037,3.332,3.332,0,0,1-1.207,2.694,5.007,5.007,0,0,1-3.313,1.01Zm0-2.144h1.821a1.715,1.715,0,0,0,1.23-.4,1.5,1.5,0,0,0,.424-1.139,1.858,1.858,0,0,0-.436-1.291,1.539,1.539,0,0,0-1.187-.489H266.7Z" transform="translate(-12.307 -14.504)" fill="#002280"/>
    <rect id="Rectángulo_38574" data-name="Rectángulo 38574" width="2.77" height="11.522" transform="translate(262.359 296.548)" fill="#002280"/>
    <path id="Trazado_207500" data-name="Trazado 207500" d="M289.745,322.575h-2.762L282.9,315.4v7.17h-2.777V311.052H282.9l4.077,7.17v-7.17h2.77Z" transform="translate(-13.062 -14.504)" fill="#002280"/>
    <path id="Trazado_207501" data-name="Trazado 207501" d="M300.834,313.2h-3.458v9.377H294.6V313.2H291.2v-2.145h9.631Z" transform="translate(-13.579 -14.504)" fill="#002280"/>
    <path id="Trazado_207502" data-name="Trazado 207502" d="M233.912,342.975V331.453h4.139a5.863,5.863,0,0,1,3.384.815,2.713,2.713,0,0,1,1.159,2.366,2.748,2.748,0,0,1-.411,1.527,2.4,2.4,0,0,1-1.212.933,2.427,2.427,0,0,1,1.384.886,2.578,2.578,0,0,1,.483,1.584,3.049,3.049,0,0,1-1.073,2.544,5.1,5.1,0,0,1-3.178.868Zm2.777-6.718h1.449a2.052,2.052,0,0,0,1.3-.335,1.18,1.18,0,0,0,.387-.96,1.242,1.242,0,0,0-.419-1.052,2.245,2.245,0,0,0-1.354-.321h-1.361Zm0,1.819v2.762h1.821a1.725,1.725,0,0,0,1.155-.344,1.2,1.2,0,0,0,.4-.969,1.278,1.278,0,0,0-1.432-1.449Z" transform="translate(-10.907 -15.456)" fill="#002280"/>
    <path id="Trazado_207503" data-name="Trazado 207503" d="M251.377,340.823h-3.806l-.665,2.153h-2.968l4.227-11.522h2.61l4.259,11.522H252.05Zm-3.141-2.145h2.477l-1.242-4Z" transform="translate(-11.375 -15.456)" fill="#002280"/>
    <path id="Trazado_207504" data-name="Trazado 207504" d="M265.589,339.066a4.213,4.213,0,0,1-.649,2.125,3.924,3.924,0,0,1-1.666,1.428,5.672,5.672,0,0,1-2.449.506,4.525,4.525,0,0,1-3.577-1.481,6.108,6.108,0,0,1-1.306-4.179V336.9a6.983,6.983,0,0,1,.59-2.964,4.472,4.472,0,0,1,1.7-1.962,4.73,4.73,0,0,1,2.565-.692,4.97,4.97,0,0,1,3.371,1.1,4.369,4.369,0,0,1,1.448,3.044h-2.771a2.058,2.058,0,0,0-.53-1.512,2.173,2.173,0,0,0-1.519-.46,1.661,1.661,0,0,0-1.52.776,4.97,4.97,0,0,0-.506,2.476v.816a5.525,5.525,0,0,0,.462,2.635,1.7,1.7,0,0,0,1.6.791,2.135,2.135,0,0,0,1.464-.451,1.917,1.917,0,0,0,.539-1.432Z" transform="translate(-11.935 -15.448)" fill="#002280"/>
    <path id="Trazado_207505" data-name="Trazado 207505" d="M271.356,338.686l-1.139,1.251v3.038h-2.777V331.453h2.777v5.08l.966-1.464,2.484-3.616H277.1l-3.894,5.1,3.894,6.426H273.81Z" transform="translate(-12.471 -15.456)" fill="#002280"/>
    <path id="Trazado_207506" data-name="Trazado 207506" d="M281.089,340.838h4.835v2.137h-7.613V331.452h2.777Z" transform="translate(-12.978 -15.456)" fill="#002280"/>
    <path id="Trazado_207507" data-name="Trazado 207507" d="M296.738,337.444a6.8,6.8,0,0,1-.625,2.984,4.629,4.629,0,0,1-1.777,2,4.944,4.944,0,0,1-2.624.7,5.019,5.019,0,0,1-2.611-.677,4.611,4.611,0,0,1-1.776-1.934,6.607,6.607,0,0,1-.669-2.89v-.647a6.814,6.814,0,0,1,.622-2.988,4.62,4.62,0,0,1,1.78-2,4.988,4.988,0,0,1,2.64-.7,4.935,4.935,0,0,1,2.611.7,4.692,4.692,0,0,1,1.785,1.982,6.648,6.648,0,0,1,.645,2.949Zm-2.826-.483a4.835,4.835,0,0,0-.574-2.606,1.839,1.839,0,0,0-1.642-.89q-2.089,0-2.208,3.134l-.008.847a4.993,4.993,0,0,0,.561,2.6,1.84,1.84,0,0,0,1.67.909,1.814,1.814,0,0,0,1.623-.894,4.855,4.855,0,0,0,.578-2.571Z" transform="translate(-13.367 -15.448)" fill="#002280"/>
    <path id="Trazado_207508" data-name="Trazado 207508" d="M308.154,341.542a4.46,4.46,0,0,1-1.876,1.147,8.065,8.065,0,0,1-2.706.436,4.826,4.826,0,0,1-3.617-1.385,5.6,5.6,0,0,1-1.447-3.853l-.009-1a6.876,6.876,0,0,1,.6-2.972,4.466,4.466,0,0,1,1.722-1.954,4.873,4.873,0,0,1,2.591-.685,5.1,5.1,0,0,1,3.343.986,4.165,4.165,0,0,1,1.388,2.94h-2.673a2.19,2.19,0,0,0-.619-1.379,1.993,1.993,0,0,0-1.344-.411,1.812,1.812,0,0,0-1.614.886,4.734,4.734,0,0,0-.579,2.533v.7a4.636,4.636,0,0,0,.589,2.592,2.087,2.087,0,0,0,1.857.867,2.333,2.333,0,0,0,1.614-.483v-1.788h-1.931v-1.908h4.708Z" transform="translate(-13.919 -15.448)" fill="#002280"/>
    <path id="Trazado_207509" data-name="Trazado 207509" d="M58.661,415.005H53.576V428.8H49.491V415.005H44.5v-3.155H58.661Z" transform="translate(-2.075 -19.205)" fill="#002280"/>
    <path id="Trazado_207510" data-name="Trazado 207510" d="M57.913,422.584a7.428,7.428,0,0,1,.733-3.357,5.24,5.24,0,0,1,2.106-2.263,6.341,6.341,0,0,1,3.223-.791,5.791,5.791,0,0,1,4.458,1.75,6.718,6.718,0,0,1,1.629,4.767v.139a6.523,6.523,0,0,1-1.635,4.672A5.806,5.806,0,0,1,64,429.23a5.875,5.875,0,0,1-4.318-1.612,6.312,6.312,0,0,1-1.758-4.37Zm3.921.245a4.683,4.683,0,0,0,.547,2.561A1.825,1.825,0,0,0,64,426.2q2.1,0,2.142-3.223v-.4q0-3.385-2.166-3.386-1.966,0-2.128,2.921Z" transform="translate(-2.7 -19.406)" fill="#002280"/>
    <path id="Trazado_207511" data-name="Trazado 207511" d="M72.659,428.8V411.851h5.459a8.023,8.023,0,0,1,4.038,1.019,7.149,7.149,0,0,1,2.8,2.873,8.671,8.671,0,0,1,1.019,4.161v.78a8.727,8.727,0,0,1-.984,4.172,7.185,7.185,0,0,1-2.769,2.886,7.846,7.846,0,0,1-3.987,1.053Zm4.085-13.79v10.648h1.421a3.178,3.178,0,0,0,2.7-1.252,6.134,6.134,0,0,0,.943-3.717v-.734a6.088,6.088,0,0,0-.943-3.7,3.235,3.235,0,0,0-2.747-1.245Z" transform="translate(-3.388 -19.205)" fill="#002280"/>
    <path id="Trazado_207512" data-name="Trazado 207512" d="M88.114,422.584a7.428,7.428,0,0,1,.733-3.357,5.229,5.229,0,0,1,2.106-2.263,6.336,6.336,0,0,1,3.223-.791,5.794,5.794,0,0,1,4.458,1.75,6.727,6.727,0,0,1,1.629,4.767v.139a6.523,6.523,0,0,1-1.635,4.672A5.809,5.809,0,0,1,94.2,429.23a5.872,5.872,0,0,1-4.318-1.612,6.3,6.3,0,0,1-1.758-4.37Zm3.921.245a4.682,4.682,0,0,0,.547,2.561,1.823,1.823,0,0,0,1.618.814q2.1,0,2.142-3.223v-.4q0-3.385-2.166-3.386-1.966,0-2.13,2.921Z" transform="translate(-4.109 -19.406)" fill="#002280"/>
    <path id="Trazado_207513" data-name="Trazado 207513" d="M204.365,428.8V411.851h5.458a8.029,8.029,0,0,1,4.038,1.019,7.161,7.161,0,0,1,2.8,2.873,8.682,8.682,0,0,1,1.019,4.161v.78a8.727,8.727,0,0,1-.984,4.172,7.188,7.188,0,0,1-2.77,2.886,7.846,7.846,0,0,1-3.987,1.053Zm4.084-13.79v10.648h1.421a3.178,3.178,0,0,0,2.7-1.252,6.134,6.134,0,0,0,.943-3.717v-.734a6.088,6.088,0,0,0-.943-3.7,3.234,3.234,0,0,0-2.747-1.245Z" transform="translate(-9.53 -19.205)" fill="#002280"/>
    <path id="Trazado_207514" data-name="Trazado 207514" d="M219.819,422.584a7.428,7.428,0,0,1,.733-3.357,5.235,5.235,0,0,1,2.106-2.263,6.339,6.339,0,0,1,3.223-.791,5.792,5.792,0,0,1,4.458,1.75,6.723,6.723,0,0,1,1.629,4.767v.139a6.523,6.523,0,0,1-1.635,4.672,5.807,5.807,0,0,1-4.428,1.728,5.874,5.874,0,0,1-4.318-1.612,6.308,6.308,0,0,1-1.758-4.37Zm3.921.245a4.682,4.682,0,0,0,.547,2.561,1.824,1.824,0,0,0,1.618.814q2.1,0,2.142-3.223v-.4q0-3.385-2.166-3.386-1.966,0-2.129,2.921Z" transform="translate(-10.25 -19.406)" fill="#002280"/>
    <path id="Trazado_207515" data-name="Trazado 207515" d="M234.345,412.9a1.768,1.768,0,0,1,.605-1.382,2.561,2.561,0,0,1,3.142,0,1.88,1.88,0,0,1,0,2.764,2.561,2.561,0,0,1-3.142,0,1.768,1.768,0,0,1-.605-1.381m4.166,15.85h-3.934V416.163h3.934Z" transform="translate(-10.928 -19.164)" fill="#002280"/>
    <path id="Trazado_207516" data-name="Trazado 207516" d="M244.847,416.406l.129,1.478a4.269,4.269,0,0,1,3.6-1.71,3.592,3.592,0,0,1,2.938,1.176,5.6,5.6,0,0,1,1.008,3.538V429h-3.935v-7.949a2.13,2.13,0,0,0-.383-1.4,1.782,1.782,0,0,0-1.4-.447,1.87,1.87,0,0,0-1.711.908V429H241.17V416.406Z" transform="translate(-11.246 -19.406)" fill="#002280"/>
    <path id="Trazado_207517" data-name="Trazado 207517" d="M254.867,422.608a8.516,8.516,0,0,1,.627-3.376,5.068,5.068,0,0,1,1.8-2.263,4.758,4.758,0,0,1,2.735-.8,3.783,3.783,0,0,1,3.073,1.327l.139-1.095h3.56V428.52a5.317,5.317,0,0,1-.773,2.893,4.966,4.966,0,0,1-2.24,1.885,8.246,8.246,0,0,1-3.4.658,7.092,7.092,0,0,1-2.683-.524,4.843,4.843,0,0,1-1.985-1.361l1.642-2.3a3.6,3.6,0,0,0,2.886,1.291q2.608,0,2.607-2.675v-.4a3.681,3.681,0,0,1-2.852,1.245,4.551,4.551,0,0,1-3.725-1.763,7.309,7.309,0,0,1-1.419-4.718Zm3.933.244a4.476,4.476,0,0,0,.582,2.449,1.837,1.837,0,0,0,1.629.9,2.083,2.083,0,0,0,1.85-.849v-5.3a2.032,2.032,0,0,0-1.828-.861,1.849,1.849,0,0,0-1.641.936,5.113,5.113,0,0,0-.594,2.718" transform="translate(-11.885 -19.406)" fill="#002280"/>
    <path id="Trazado_207518" data-name="Trazado 207518" d="M363.117,428.8V411.851h5.458a8.029,8.029,0,0,1,4.038,1.019,7.161,7.161,0,0,1,2.8,2.873,8.682,8.682,0,0,1,1.019,4.161v.78a8.727,8.727,0,0,1-.984,4.172,7.187,7.187,0,0,1-2.77,2.886,7.845,7.845,0,0,1-3.987,1.053Zm4.084-13.79v10.648h1.421a3.178,3.178,0,0,0,2.7-1.252,6.134,6.134,0,0,0,.943-3.717v-.734a6.088,6.088,0,0,0-.943-3.7,3.234,3.234,0,0,0-2.747-1.245Z" transform="translate(-16.932 -19.205)" fill="#002280"/>
    <path id="Trazado_207519" data-name="Trazado 207519" d="M378.571,422.584a7.428,7.428,0,0,1,.733-3.357,5.234,5.234,0,0,1,2.106-2.263,6.339,6.339,0,0,1,3.223-.791,5.792,5.792,0,0,1,4.458,1.75,6.723,6.723,0,0,1,1.629,4.767v.139a6.523,6.523,0,0,1-1.635,4.672,5.807,5.807,0,0,1-4.428,1.728,5.874,5.874,0,0,1-4.318-1.612,6.308,6.308,0,0,1-1.758-4.37Zm3.921.245a4.683,4.683,0,0,0,.547,2.561,1.824,1.824,0,0,0,1.618.814q2.1,0,2.142-3.223v-.4q0-3.385-2.166-3.386-1.966,0-2.129,2.921Z" transform="translate(-17.653 -19.406)" fill="#002280"/>
    <path id="Trazado_207520" data-name="Trazado 207520" d="M396.726,416.406l.129,1.478a4.269,4.269,0,0,1,3.6-1.71,3.592,3.592,0,0,1,2.938,1.176,5.6,5.6,0,0,1,1.008,3.538V429h-3.935v-7.949a2.13,2.13,0,0,0-.383-1.4,1.782,1.782,0,0,0-1.4-.447,1.87,1.87,0,0,0-1.711.908V429h-3.921V416.406Z" transform="translate(-18.328 -19.406)" fill="#002280"/>
    <path id="Trazado_207521" data-name="Trazado 207521" d="M413.3,429.229a6.474,6.474,0,0,1-4.69-1.728,5.967,5.967,0,0,1-1.793-4.5v-.326a7.738,7.738,0,0,1,.716-3.409,5.239,5.239,0,0,1,2.089-2.286,6.3,6.3,0,0,1,3.259-.809,5.449,5.449,0,0,1,4.19,1.647,6.471,6.471,0,0,1,1.536,4.59v1.524h-7.8a2.82,2.82,0,0,0,.919,1.665,2.737,2.737,0,0,0,1.838.605,3.526,3.526,0,0,0,2.911-1.3l1.791,2.118a5.006,5.006,0,0,1-2.077,1.612,7.017,7.017,0,0,1-2.892.6m-.442-10.031q-1.722,0-2.048,2.281h3.956v-.3a1.939,1.939,0,0,0-.477-1.461,1.906,1.906,0,0,0-1.432-.518" transform="translate(-18.97 -19.406)" fill="#002280"/>
    <rect id="Rectángulo_38575" data-name="Rectángulo 38575" width="2.77" height="11.522" transform="translate(596.213 292.317)" fill="#002280"/>
    <path id="Trazado_207522" data-name="Trazado 207522" d="M639.927,318.137h-2.762l-4.084-7.17v7.17H630.3V306.615h2.777l4.077,7.17v-7.17h2.77Z" transform="translate(-29.391 -14.298)" fill="#002280"/>
    <path id="Trazado_207523" data-name="Trazado 207523" d="M651.547,314.228a4.213,4.213,0,0,1-.649,2.125,3.924,3.924,0,0,1-1.666,1.428,5.672,5.672,0,0,1-2.449.506,4.525,4.525,0,0,1-3.577-1.481,6.108,6.108,0,0,1-1.306-4.179v-.569a6.984,6.984,0,0,1,.59-2.964,4.473,4.473,0,0,1,1.7-1.962,4.73,4.73,0,0,1,2.565-.692,4.97,4.97,0,0,1,3.371,1.1,4.369,4.369,0,0,1,1.448,3.044H648.8a2.057,2.057,0,0,0-.53-1.512,2.173,2.173,0,0,0-1.519-.46,1.661,1.661,0,0,0-1.52.776,4.97,4.97,0,0,0-.506,2.476v.816a5.524,5.524,0,0,0,.462,2.635,1.7,1.7,0,0,0,1.595.791,2.135,2.135,0,0,0,1.464-.451,1.917,1.917,0,0,0,.539-1.432Z" transform="translate(-29.932 -14.289)" fill="#002280"/>
    <path id="Trazado_207524" data-name="Trazado 207524" d="M657.679,314.061h-1.5v4.077H653.4V306.615h4.535a5.066,5.066,0,0,1,3.2.909,3.081,3.081,0,0,1,1.155,2.569,3.735,3.735,0,0,1-.487,1.993,3.455,3.455,0,0,1-1.523,1.28l2.405,4.652v.119h-2.976Zm-1.5-2.136h1.758a1.58,1.58,0,0,0,1.191-.417,1.894,1.894,0,0,0,0-2.333,1.558,1.558,0,0,0-1.186-.424h-1.758Z" transform="translate(-30.468 -14.298)" fill="#002280"/>
    <path id="Trazado_207525" data-name="Trazado 207525" d="M671.632,313.246h-4.368V316h5.16v2.137h-7.937V306.615h7.954v2.145h-5.177v2.429h4.368Z" transform="translate(-30.985 -14.298)" fill="#002280"/>
    <path id="Trazado_207526" data-name="Trazado 207526" d="M677.648,306.615l2.571,8.016,2.565-8.016h3.656v11.522h-2.786v-2.69l.269-5.509-2.786,8.2H679.3l-2.792-8.206.268,5.515v2.69H674V306.615Z" transform="translate(-31.429 -14.298)" fill="#002280"/>
    <path id="Trazado_207527" data-name="Trazado 207527" d="M696.044,313.246h-4.368V316h5.16v2.137H688.9V306.615h7.954v2.145h-5.177v2.429h4.368Z" transform="translate(-32.123 -14.298)" fill="#002280"/>
    <path id="Trazado_207528" data-name="Trazado 207528" d="M707.594,308.76h-3.458v9.377h-2.778V308.76h-3.395v-2.145h9.631Z" transform="translate(-32.546 -14.298)" fill="#002280"/>
    <path id="Trazado_207529" data-name="Trazado 207529" d="M718.8,312.606a6.8,6.8,0,0,1-.625,2.984,4.631,4.631,0,0,1-1.778,2,4.941,4.941,0,0,1-2.624.7,5.021,5.021,0,0,1-2.611-.677,4.61,4.61,0,0,1-1.776-1.934,6.606,6.606,0,0,1-.669-2.89v-.647a6.827,6.827,0,0,1,.622-2.988,4.622,4.622,0,0,1,1.781-2,4.985,4.985,0,0,1,2.639-.7,4.933,4.933,0,0,1,2.611.7,4.7,4.7,0,0,1,1.786,1.982,6.662,6.662,0,0,1,.645,2.949Zm-2.826-.483a4.826,4.826,0,0,0-.575-2.607,1.839,1.839,0,0,0-1.642-.89q-2.089,0-2.207,3.134l-.008.847a4.994,4.994,0,0,0,.56,2.6,1.842,1.842,0,0,0,1.67.91,1.816,1.816,0,0,0,1.624-.894,4.864,4.864,0,0,0,.578-2.571Z" transform="translate(-33.048 -14.29)" fill="#002280"/>
    <path id="Trazado_207530" data-name="Trazado 207530" d="M615.961,338.537V327.015h3.711a5.448,5.448,0,0,1,2.746.693,4.851,4.851,0,0,1,1.9,1.953,5.905,5.905,0,0,1,.693,2.83v.531a5.93,5.93,0,0,1-.668,2.836,4.888,4.888,0,0,1-1.884,1.963,5.347,5.347,0,0,1-2.711.716Zm2.778-9.377V336.4h.966a2.159,2.159,0,0,0,1.835-.851,4.168,4.168,0,0,0,.641-2.527v-.5a4.131,4.131,0,0,0-.641-2.516,2.2,2.2,0,0,0-1.868-.847Z" transform="translate(-28.722 -15.249)" fill="#002280"/>
    <path id="Trazado_207531" data-name="Trazado 207531" d="M634.1,333.647h-4.368V336.4h5.16v2.137h-7.937V327.015h7.954v2.145h-5.177v2.429H634.1Z" transform="translate(-29.235 -15.249)" fill="#002280"/>
    <path id="Trazado_207532" data-name="Trazado 207532" d="M643.475,334.628v3.91H640.7V327.015h4.6a5.356,5.356,0,0,1,2.338.486,3.675,3.675,0,0,1,1.576,1.385,3.787,3.787,0,0,1,.558,2.037,3.332,3.332,0,0,1-1.207,2.694,5.007,5.007,0,0,1-3.313,1.01Zm0-2.144H645.3a1.715,1.715,0,0,0,1.23-.4,1.5,1.5,0,0,0,.424-1.139,1.857,1.857,0,0,0-.436-1.291,1.539,1.539,0,0,0-1.187-.489h-1.852Z" transform="translate(-29.876 -15.249)" fill="#002280"/>
    <path id="Trazado_207533" data-name="Trazado 207533" d="M656.044,334.461h-1.5v4.077h-2.777V327.015H656.3a5.065,5.065,0,0,1,3.2.909,3.081,3.081,0,0,1,1.155,2.569,3.735,3.735,0,0,1-.487,1.993,3.454,3.454,0,0,1-1.523,1.28l2.405,4.652v.119h-2.976Zm-1.5-2.136H656.3a1.58,1.58,0,0,0,1.191-.417,1.894,1.894,0,0,0,0-2.333,1.558,1.558,0,0,0-1.186-.424h-1.758Z" transform="translate(-30.392 -15.249)" fill="#002280"/>
    <path id="Trazado_207534" data-name="Trazado 207534" d="M672.594,333.006a6.8,6.8,0,0,1-.625,2.984,4.63,4.63,0,0,1-1.777,2,4.944,4.944,0,0,1-2.624.7,5.019,5.019,0,0,1-2.611-.677,4.611,4.611,0,0,1-1.776-1.934,6.607,6.607,0,0,1-.669-2.89v-.647a6.815,6.815,0,0,1,.622-2.988,4.619,4.619,0,0,1,1.78-2,4.988,4.988,0,0,1,2.64-.7,4.935,4.935,0,0,1,2.611.7,4.692,4.692,0,0,1,1.785,1.982,6.648,6.648,0,0,1,.645,2.949Zm-2.826-.483a4.835,4.835,0,0,0-.574-2.607,1.839,1.839,0,0,0-1.642-.89q-2.089,0-2.208,3.134l-.008.847a4.993,4.993,0,0,0,.561,2.6,1.84,1.84,0,0,0,1.67.91,1.814,1.814,0,0,0,1.623-.894,4.854,4.854,0,0,0,.578-2.571Z" transform="translate(-30.893 -15.241)" fill="#002280"/>
    <path id="Trazado_207535" data-name="Trazado 207535" d="M674.589,338.537V327.015H678.3a5.45,5.45,0,0,1,2.746.693,4.857,4.857,0,0,1,1.9,1.953,5.907,5.907,0,0,1,.693,2.83v.531a5.93,5.93,0,0,1-.668,2.836,4.888,4.888,0,0,1-1.884,1.963,5.346,5.346,0,0,1-2.711.716Zm2.777-9.377V336.4h.967a2.161,2.161,0,0,0,1.835-.851,4.168,4.168,0,0,0,.641-2.527v-.5a4.131,4.131,0,0,0-.641-2.516,2.2,2.2,0,0,0-1.868-.847Z" transform="translate(-31.456 -15.249)" fill="#002280"/>
    <path id="Trazado_207536" data-name="Trazado 207536" d="M694.615,327.015v7.541a4.344,4.344,0,0,1-.545,2.22A3.533,3.533,0,0,1,692.5,338.2a5.516,5.516,0,0,1-2.413.491,4.772,4.772,0,0,1-3.317-1.093,3.9,3.9,0,0,1-1.234-2.991v-7.6h2.793v7.653q.047,1.892,1.757,1.892a1.7,1.7,0,0,0,1.305-.475,2.214,2.214,0,0,0,.443-1.543v-7.527Z" transform="translate(-31.967 -15.249)" fill="#002280"/>
    <path id="Trazado_207537" data-name="Trazado 207537" d="M706.184,334.628a4.213,4.213,0,0,1-.649,2.125,3.923,3.923,0,0,1-1.665,1.428,5.672,5.672,0,0,1-2.449.506,4.525,4.525,0,0,1-3.577-1.481,6.108,6.108,0,0,1-1.306-4.179v-.569a6.984,6.984,0,0,1,.59-2.964,4.473,4.473,0,0,1,1.7-1.962,4.73,4.73,0,0,1,2.565-.692,4.969,4.969,0,0,1,3.371,1.1,4.369,4.369,0,0,1,1.448,3.044h-2.771a2.058,2.058,0,0,0-.53-1.512,2.173,2.173,0,0,0-1.519-.46,1.661,1.661,0,0,0-1.52.776,4.971,4.971,0,0,0-.506,2.476v.816a5.524,5.524,0,0,0,.462,2.635,1.7,1.7,0,0,0,1.595.791,2.135,2.135,0,0,0,1.464-.451,1.917,1.917,0,0,0,.539-1.432Z" transform="translate(-32.48 -15.241)" fill="#002280"/>
    <path id="Trazado_207538" data-name="Trazado 207538" d="M716.81,329.16h-3.458v9.377h-2.778V329.16h-3.395v-2.145h9.631Z" transform="translate(-32.976 -15.249)" fill="#002280"/>
    <path id="Trazado_207539" data-name="Trazado 207539" d="M728.02,333.006a6.8,6.8,0,0,1-.625,2.984,4.63,4.63,0,0,1-1.777,2,4.944,4.944,0,0,1-2.624.7,5.018,5.018,0,0,1-2.611-.677,4.611,4.611,0,0,1-1.776-1.934,6.606,6.606,0,0,1-.669-2.89v-.647a6.814,6.814,0,0,1,.622-2.988,4.62,4.62,0,0,1,1.78-2,4.988,4.988,0,0,1,2.64-.7,4.935,4.935,0,0,1,2.611.7,4.693,4.693,0,0,1,1.785,1.982,6.649,6.649,0,0,1,.645,2.949Zm-2.826-.483a4.835,4.835,0,0,0-.574-2.607,1.839,1.839,0,0,0-1.642-.89q-2.089,0-2.208,3.134l-.008.847a4.992,4.992,0,0,0,.561,2.6,1.84,1.84,0,0,0,1.67.91,1.814,1.814,0,0,0,1.623-.894,4.855,4.855,0,0,0,.578-2.571Z" transform="translate(-33.478 -15.241)" fill="#002280"/>
    <path id="Trazado_207540" data-name="Trazado 207540" d="M513.173,60.614a.875.875,0,0,0-.33-.726,4.094,4.094,0,0,0-1.158-.538,11.057,11.057,0,0,1-1.355-.539,2.565,2.565,0,0,1-1.713-2.312,2.075,2.075,0,0,1,.426-1.292,2.768,2.768,0,0,1,1.208-.871,4.691,4.691,0,0,1,1.754-.312,4.111,4.111,0,0,1,1.7.338,2.712,2.712,0,0,1,1.172.966,2.529,2.529,0,0,1,.418,1.431H513.18a1.063,1.063,0,0,0-.33-.835,1.286,1.286,0,0,0-.892-.3,1.449,1.449,0,0,0-.9.251.741.741,0,0,0,.032,1.254,4.611,4.611,0,0,0,1.278.568,7.793,7.793,0,0,1,1.5.632A2.524,2.524,0,0,1,515.3,60.6a2.153,2.153,0,0,1-.872,1.816,3.876,3.876,0,0,1-2.39.659,4.762,4.762,0,0,1-1.94-.384,2.926,2.926,0,0,1-1.307-1.053,2.75,2.75,0,0,1-.439-1.54h2.131a1.352,1.352,0,0,0,.366,1.044,1.727,1.727,0,0,0,1.189.336,1.364,1.364,0,0,0,.832-.227.747.747,0,0,0,.305-.639" transform="translate(-23.704 -2.519)" fill="#002280"/>
    <path id="Trazado_207541" data-name="Trazado 207541" d="M523.9,59.973a3.206,3.206,0,0,1-.5,1.625,2.993,2.993,0,0,1-1.273,1.093,4.352,4.352,0,0,1-1.873.387,3.457,3.457,0,0,1-2.735-1.133,4.666,4.666,0,0,1-1-3.195v-.436a5.334,5.334,0,0,1,.451-2.266,3.416,3.416,0,0,1,1.3-1.5,3.614,3.614,0,0,1,1.96-.529,3.8,3.8,0,0,1,2.578.844,3.337,3.337,0,0,1,1.109,2.327H521.8a1.578,1.578,0,0,0-.405-1.156,1.671,1.671,0,0,0-1.162-.351,1.266,1.266,0,0,0-1.161.593,3.815,3.815,0,0,0-.388,1.893v.624a4.221,4.221,0,0,0,.354,2.014,1.3,1.3,0,0,0,1.22.605,1.633,1.633,0,0,0,1.12-.345,1.466,1.466,0,0,0,.411-1.094Z" transform="translate(-24.085 -2.519)" fill="#002280"/>
    <path id="Trazado_207542" data-name="Trazado 207542" d="M528.586,59.845h-1.151v3.117h-2.124V54.151h3.468a3.863,3.863,0,0,1,2.45.7,2.352,2.352,0,0,1,.884,1.964,2.863,2.863,0,0,1-.372,1.523,2.628,2.628,0,0,1-1.165.979l1.84,3.558v.091h-2.276Zm-1.151-1.633h1.344a1.2,1.2,0,0,0,.911-.319,1.444,1.444,0,0,0,0-1.783,1.189,1.189,0,0,0-.907-.325h-1.344Z" transform="translate(-24.495 -2.525)" fill="#002280"/>
    <path id="Trazado_207543" data-name="Trazado 207543" d="M540.7,54.151v5.767a3.338,3.338,0,0,1-.417,1.7,2.719,2.719,0,0,1-1.2,1.093,4.23,4.23,0,0,1-1.847.375,3.647,3.647,0,0,1-2.535-.835,2.985,2.985,0,0,1-.944-2.287v-5.81H535.9V60q.037,1.444,1.343,1.445a1.3,1.3,0,0,0,1-.363,1.7,1.7,0,0,0,.339-1.179V54.151Z" transform="translate(-24.889 -2.525)" fill="#002280"/>
    <path id="Trazado_207544" data-name="Trazado 207544" d="M545.221,54.151l1.967,6.13,1.96-6.13h2.8v8.811h-2.131V60.9l.206-4.212-2.13,6.269h-1.4l-2.136-6.275.2,4.218v2.057h-2.124V54.151Z" transform="translate(-25.294 -2.525)" fill="#002280"/>
    <path id="Trazado_207545" data-name="Trazado 207545" d="M509.895,78.561V69.75h2.839a4.176,4.176,0,0,1,2.1.53,3.729,3.729,0,0,1,1.456,1.494,4.513,4.513,0,0,1,.529,2.164v.406a4.547,4.547,0,0,1-.511,2.169,3.732,3.732,0,0,1-1.44,1.5,4.068,4.068,0,0,1-2.074.547Zm2.124-7.17v5.537h.739a1.655,1.655,0,0,0,1.4-.651,3.192,3.192,0,0,0,.49-1.932v-.382a3.167,3.167,0,0,0-.49-1.924,1.683,1.683,0,0,0-1.428-.647Z" transform="translate(-23.776 -3.252)" fill="#002280"/>
    <rect id="Rectángulo_38576" data-name="Rectángulo 38576" width="2.118" height="8.811" transform="translate(494.276 66.498)" fill="#002280"/>
    <path id="Trazado_207546" data-name="Trazado 207546" d="M527.309,76.916H524.4l-.508,1.646h-2.27l3.232-8.811h2l3.257,8.811h-2.281Zm-2.4-1.641H526.8l-.95-3.056Z" transform="translate(-24.323 -3.252)" fill="#002280"/>
    <path id="Trazado_207547" data-name="Trazado 207547" d="M534.466,75.444h-1.151v3.117h-2.124V69.75h3.468a3.863,3.863,0,0,1,2.45.7,2.352,2.352,0,0,1,.884,1.964,2.863,2.863,0,0,1-.372,1.523,2.628,2.628,0,0,1-1.165.979l1.84,3.558v.091h-2.276Zm-1.151-1.633h1.344a1.2,1.2,0,0,0,.91-.319,1.444,1.444,0,0,0,0-1.783,1.189,1.189,0,0,0-.907-.325h-1.344Z" transform="translate(-24.77 -3.252)" fill="#002280"/>
    <rect id="Rectángulo_38577" data-name="Rectángulo 38577" width="2.118" height="8.811" transform="translate(514.652 66.498)" fill="#002280"/>
    <path id="Trazado_207548" data-name="Trazado 207548" d="M551.046,74.332a5.2,5.2,0,0,1-.479,2.281,3.539,3.539,0,0,1-1.359,1.528,4.07,4.07,0,0,1-4,.017,3.523,3.523,0,0,1-1.359-1.479,5.047,5.047,0,0,1-.512-2.21v-.495a5.222,5.222,0,0,1,.476-2.285,3.523,3.523,0,0,1,1.361-1.528,3.822,3.822,0,0,1,2.019-.539,3.772,3.772,0,0,1,2,.533,3.585,3.585,0,0,1,1.365,1.516,5.074,5.074,0,0,1,.494,2.255Zm-2.161-.37a3.7,3.7,0,0,0-.439-1.993,1.408,1.408,0,0,0-1.256-.681q-1.6,0-1.688,2.4l-.007.647a3.822,3.822,0,0,0,.43,1.992,1.405,1.405,0,0,0,1.277.695,1.387,1.387,0,0,0,1.24-.685,3.7,3.7,0,0,0,.442-1.966Z" transform="translate(-25.336 -3.247)" fill="#002280"/>
    <path id="Trazado_207549" data-name="Trazado 207549" d="M527.218,0a67.889,67.889,0,0,0-67.811,67.811c0,21.009,8.828,41.795,25.395,54.748l19.24-24.989c-7.943-6.212-9.309-19.694-9.309-29.759A32.49,32.49,0,1,1,554.989,84.7L546.2,77.562l-8.712,55.073,31.093-11.845.369.473q.734-.573,1.449-1.165l19.2-7.312-7.052-5.724a67.484,67.484,0,0,0,9.635-19.746h0A67.849,67.849,0,0,0,527.218,0" transform="translate(-21.422)" fill="#0043ff"/>
    <path id="Trazado_207550" data-name="Trazado 207550" d="M429.926,73.845A97.766,97.766,0,0,0,332.272,171.5a87.014,87.014,0,0,0,2.008,20.067l-16.3,8.226,52.2,34.091,3.592-62.245-9.218,4.651c0-1.506.018-3.094.018-4.791a65.353,65.353,0,1,1,65.353,65.352v32.3a97.654,97.654,0,1,0,0-195.308" transform="translate(-14.827 -3.443)" fill="#0043ff"/>
    <path id="Trazado_207551" data-name="Trazado 207551" d="M613.683,260.367l-53.968-31.221.008,15.1H332.51v32.3H559.739l.008,15.1Z" transform="translate(-15.505 -10.685)" fill="#0043ff"/>
    <rect id="Rectángulo_38578" data-name="Rectángulo 38578" width="18.996" height="71.336" transform="translate(598.179 194.374)" fill="#0ccbc3"/>
    <rect id="Rectángulo_38579" data-name="Rectángulo 38579" width="18.996" height="85.155" transform="translate(621.739 180.555)" fill="#0ccbc3"/>
    <rect id="Rectángulo_38580" data-name="Rectángulo 38580" width="18.996" height="98.748" transform="translate(647.565 166.962)" fill="#0ccbc3"/>
    <rect id="Rectángulo_38581" data-name="Rectángulo 38581" width="18.996" height="113.473" transform="translate(673.045 152.237)" fill="#0ccbc3"/>
    <path id="Trazado_207552" data-name="Trazado 207552" d="M242.451,221.161v40.325l29.224-17.217V205.221Z" transform="translate(-11.306 -9.569)" fill="#fff"/>
    <path id="Trazado_207553" data-name="Trazado 207553" d="M242.451,221.161v40.325l29.224-17.217V205.221Z" transform="translate(-11.306 -9.569)" fill="none" stroke="#0043ff" stroke-miterlimit="10" stroke-width="2"/>
    <path id="Trazado_207554" data-name="Trazado 207554" d="M251.718,229v40.325l29.224-17.217V213.063Z" transform="translate(-11.738 -9.935)" fill="#fff"/>
    <path id="Trazado_207555" data-name="Trazado 207555" d="M251.718,229v40.325l29.224-17.217V213.063Z" transform="translate(-11.738 -9.935)" fill="none" stroke="#0043ff" stroke-miterlimit="10" stroke-width="2"/>
    <path id="Trazado_207556" data-name="Trazado 207556" d="M261.7,238.745v40.325l29.224-17.217V222.805Z" transform="translate(-12.203 -10.389)" fill="#fff"/>
    <path id="Trazado_207557" data-name="Trazado 207557" d="M261.7,238.745v40.325l29.224-17.217V222.805Z" transform="translate(-12.203 -10.389)" fill="none" stroke="#0043ff" stroke-miterlimit="10" stroke-width="2"/>
    <path id="Trazado_207558" data-name="Trazado 207558" d="M271.2,247.061v40.325l29.224-17.217V231.122Z" transform="translate(-12.646 -10.777)" fill="#fff"/>
    <path id="Trazado_207559" data-name="Trazado 207559" d="M271.2,247.061v40.325l29.224-17.217V231.122Z" transform="translate(-12.646 -10.777)" fill="none" stroke="#0043ff" stroke-miterlimit="10" stroke-width="2"/>
    <rect id="Rectángulo_38582" data-name="Rectángulo 38582" width="103.303" height="16.991" transform="translate(36.545 120.067)" fill="#fff"/>
    <rect id="Rectángulo_38583" data-name="Rectángulo 38583" width="103.303" height="16.991" transform="translate(36.545 120.067)" fill="none" stroke="#0043ff" stroke-miterlimit="10" stroke-width="2"/>
    <rect id="Rectángulo_38584" data-name="Rectángulo 38584" width="47.659" height="23.108" transform="translate(144.52 234.997)" fill="#0043ff"/>
    <path id="Trazado_207560" data-name="Trazado 207560" d="M197.391,281.284V234.729l23.447,23.277Z" transform="translate(-9.204 -10.945)" fill="#0043ff"/>
    <path id="Trazado_207561" data-name="Trazado 207561" d="M46,137.451H44.712v-4.989l-1.544.477V131.9l2.7-.967H46Z" transform="translate(-2.013 -6.105)" fill="#0043ff"/>
    <rect id="Rectángulo_38585" data-name="Rectángulo 38585" width="103.303" height="16.991" transform="translate(28.983 137.058)" fill="#fff"/>
    <rect id="Rectángulo_38586" data-name="Rectángulo 38586" width="103.303" height="16.991" transform="translate(28.983 137.058)" fill="none" stroke="#0043ff" stroke-miterlimit="10" stroke-width="2"/>
    <path id="Trazado_207562" data-name="Trazado 207562" d="M39.375,155.268H34.912v-.886l2.106-2.245a5.063,5.063,0,0,0,.642-.827,1.327,1.327,0,0,0,.209-.671.99.99,0,0,0-.22-.682.788.788,0,0,0-.625-.249.851.851,0,0,0-.69.3,1.2,1.2,0,0,0-.254.794h-1.3a2.134,2.134,0,0,1,.283-1.086,2,2,0,0,1,.8-.772,2.446,2.446,0,0,1,1.176-.279,2.311,2.311,0,0,1,1.563.482,1.708,1.708,0,0,1,.557,1.365,2.2,2.2,0,0,1-.25.983,5.461,5.461,0,0,1-.859,1.168l-1.481,1.561h2.8Z" transform="translate(-1.622 -6.932)" fill="#0043ff"/>
    <rect id="Rectángulo_38587" data-name="Rectángulo 38587" width="103.303" height="16.991" transform="translate(28.983 154.049)" fill="#fff"/>
    <rect id="Rectángulo_38588" data-name="Rectángulo 38588" width="103.303" height="16.991" transform="translate(28.983 154.049)" fill="none" stroke="#0043ff" stroke-miterlimit="10" stroke-width="2"/>
    <path id="Trazado_207563" data-name="Trazado 207563" d="M36.225,169.262h.689a.971.971,0,0,0,.728-.246.9.9,0,0,0,.236-.653.8.8,0,0,0-.235-.613.908.908,0,0,0-.645-.218.958.958,0,0,0-.623.2.651.651,0,0,0-.251.53H34.834a1.6,1.6,0,0,1,.275-.915,1.834,1.834,0,0,1,.77-.632,2.549,2.549,0,0,1,1.088-.228,2.444,2.444,0,0,1,1.62.493,1.688,1.688,0,0,1,.586,1.362,1.37,1.37,0,0,1-.273.823,1.787,1.787,0,0,1-.716.578,1.519,1.519,0,0,1,1.091,1.521,1.715,1.715,0,0,1-.633,1.391,2.543,2.543,0,0,1-1.675.522,2.411,2.411,0,0,1-1.594-.514,1.681,1.681,0,0,1-.62-1.36h1.294a.745.745,0,0,0,.275.6,1.144,1.144,0,0,0,1.4-.01.843.843,0,0,0,.262-.646q0-.975-1.073-.974h-.685Z" transform="translate(-1.621 -7.763)" fill="#0043ff"/>
    <rect id="Rectángulo_38589" data-name="Rectángulo 38589" width="103.303" height="16.991" transform="translate(28.983 171.039)" fill="#fff"/>
    <rect id="Rectángulo_38590" data-name="Rectángulo 38590" width="103.303" height="16.991" transform="translate(28.983 171.039)" fill="none" stroke="#0043ff" stroke-miterlimit="10" stroke-width="2"/>
    <path id="Trazado_207564" data-name="Trazado 207564" d="M38.732,188.466h.738v1.042h-.738v1.408H37.44v-1.408H34.77l-.059-.814,2.715-4.289h1.306Zm-2.732,0h1.44v-2.3l-.085.148Z" transform="translate(-1.619 -8.599)" fill="#0043ff"/>
    <rect id="Rectángulo_38591" data-name="Rectángulo 38591" width="103.303" height="16.991" transform="translate(28.983 188.03)" fill="#fff"/>
    <rect id="Rectángulo_38592" data-name="Rectángulo 38592" width="103.303" height="16.991" transform="translate(28.983 188.03)" fill="none" stroke="#0043ff" stroke-miterlimit="10" stroke-width="2"/>
    <path id="Trazado_207565" data-name="Trazado 207565" d="M35.112,205.537l.377-3.31h3.649V203.3h-2.59l-.161,1.4a2.05,2.05,0,0,1,.979-.246,1.877,1.877,0,0,1,1.459.577,2.306,2.306,0,0,1,.527,1.615,2.367,2.367,0,0,1-.266,1.13,1.874,1.874,0,0,1-.763.773,2.383,2.383,0,0,1-1.171.275,2.536,2.536,0,0,1-1.1-.239,1.942,1.942,0,0,1-.8-.673,1.834,1.834,0,0,1-.311-.989h1.279a.955.955,0,0,0,.284.633.9.9,0,0,0,.638.226.794.794,0,0,0,.675-.316,1.456,1.456,0,0,0,.237-.891,1.212,1.212,0,0,0-.273-.85,1,1,0,0,0-.774-.295,1.125,1.125,0,0,0-.747.241l-.125.116Z" transform="translate(-1.63 -9.43)" fill="#0043ff"/>
    <rect id="Rectángulo_38593" data-name="Rectángulo 38593" width="103.303" height="16.991" transform="translate(28.983 205.021)" fill="#fff"/>
    <rect id="Rectángulo_38594" data-name="Rectángulo 38594" width="103.303" height="16.991" transform="translate(28.983 205.021)" fill="none" stroke="#0043ff" stroke-miterlimit="10" stroke-width="2"/>
    <path id="Trazado_207566" data-name="Trazado 207566" d="M38.425,219.978v1.064H38.3a2.193,2.193,0,0,0-1.41.457,1.85,1.85,0,0,0-.643,1.23,1.762,1.762,0,0,1,1.311-.528,1.661,1.661,0,0,1,1.351.608,2.441,2.441,0,0,1,.5,1.6,2.394,2.394,0,0,1-.276,1.15,1.973,1.973,0,0,1-.778.8,2.262,2.262,0,0,1-1.137.285,2.112,2.112,0,0,1-1.663-.716,2.779,2.779,0,0,1-.633-1.91v-.464a4.2,4.2,0,0,1,.4-1.872,2.943,2.943,0,0,1,1.15-1.257,3.369,3.369,0,0,1,1.738-.449Zm-1.261,3.264a1.042,1.042,0,0,0-.568.163.989.989,0,0,0-.376.431v.393a1.749,1.749,0,0,0,.255,1.012.824.824,0,0,0,.716.364.815.815,0,0,0,.673-.329,1.537,1.537,0,0,0,0-1.707.841.841,0,0,0-.7-.326" transform="translate(-1.628 -10.258)" fill="#0043ff"/>
    <rect id="Rectángulo_38595" data-name="Rectángulo 38595" width="103.303" height="16.991" transform="translate(28.983 222.012)" fill="#fff"/>
    <rect id="Rectángulo_38596" data-name="Rectángulo 38596" width="103.303" height="16.991" transform="translate(28.983 222.012)" fill="none" stroke="#0043ff" stroke-miterlimit="10" stroke-width="2"/>
    <path id="Trazado_207567" data-name="Trazado 207567" d="M39.337,238.592l-2.518,5.79H35.456l2.522-5.469H34.74V237.87h4.6Z" transform="translate(-1.62 -11.092)" fill="#0043ff"/>
    <rect id="Rectángulo_38597" data-name="Rectángulo 38597" width="103.303" height="16.991" transform="translate(28.983 239.002)" fill="#fff"/>
    <rect id="Rectángulo_38598" data-name="Rectángulo 38598" width="103.303" height="16.991" transform="translate(28.983 239.002)" fill="none" stroke="#0043ff" stroke-miterlimit="10" stroke-width="2"/>
    <path id="Trazado_207568" data-name="Trazado 207568" d="M39.161,257.42a1.514,1.514,0,0,1-.236.839,1.712,1.712,0,0,1-.653.587,1.888,1.888,0,0,1,.751.627,1.614,1.614,0,0,1,.277.942,1.7,1.7,0,0,1-.59,1.371,2.82,2.82,0,0,1-3.216,0,1.7,1.7,0,0,1-.595-1.369,1.62,1.62,0,0,1,.277-.944,1.855,1.855,0,0,1,.746-.625,1.706,1.706,0,0,1-.651-.587,1.52,1.52,0,0,1-.235-.839,1.7,1.7,0,0,1,.555-1.328,2.551,2.551,0,0,1,3.012,0,1.682,1.682,0,0,1,.557,1.332M38,260.321a.939.939,0,0,0-.246-.68.982.982,0,0,0-1.319,0,1.062,1.062,0,0,0,0,1.354,1.01,1.01,0,0,0,1.331.009.936.936,0,0,0,.239-.681m-.134-2.84a.9.9,0,0,0-.2-.611.819.819,0,0,0-1.131,0,.88.88,0,0,0-.2.616.931.931,0,0,0,.2.627.8.8,0,0,0,1.133,0,.94.94,0,0,0,.2-.627" transform="translate(-1.627 -11.919)" fill="#0043ff"/>
    <rect id="Rectángulo_38599" data-name="Rectángulo 38599" width="103.303" height="16.991" transform="translate(28.983 255.993)" fill="#fff"/>
    <rect id="Rectángulo_38600" data-name="Rectángulo 38600" width="103.303" height="16.991" transform="translate(28.983 255.993)" fill="none" stroke="#0043ff" stroke-miterlimit="10" stroke-width="2"/>
    <path id="Trazado_207569" data-name="Trazado 207569" d="M37.938,277.418a1.631,1.631,0,0,1-1.18.5,1.747,1.747,0,0,1-1.382-.592,2.341,2.341,0,0,1-.519-1.6,2.5,2.5,0,0,1,.279-1.174,2.05,2.05,0,0,1,.781-.832,2.163,2.163,0,0,1,1.127-.3,2.075,2.075,0,0,1,1.145.322,2.113,2.113,0,0,1,.778.926,3.318,3.318,0,0,1,.281,1.381v.479a3.768,3.768,0,0,1-.808,2.559,3.062,3.062,0,0,1-2.295.992l-.317,0v-1.077l.286,0a1.653,1.653,0,0,0,1.825-1.584m-.863-.492a.907.907,0,0,0,.539-.161,1.071,1.071,0,0,0,.342-.389v-.533a1.777,1.777,0,0,0-.251-1.019.777.777,0,0,0-.67-.362.754.754,0,0,0-.64.356,1.506,1.506,0,0,0-.251.892,1.476,1.476,0,0,0,.243.874.8.8,0,0,0,.687.342" transform="translate(-1.625 -12.75)" fill="#0043ff"/>
    <rect id="Rectángulo_38601" data-name="Rectángulo 38601" width="103.303" height="16.991" transform="translate(28.983 272.984)" fill="#fff"/>
    <rect id="Rectángulo_38602" data-name="Rectángulo 38602" width="103.303" height="16.991" transform="translate(28.983 272.984)" fill="none" stroke="#0043ff" stroke-miterlimit="10" stroke-width="2"/>
    <path id="Trazado_207570" data-name="Trazado 207570" d="M35.317,297.848H34.025v-4.99l-1.544.477v-1.041l2.7-.967h.139Z" transform="translate(-1.515 -13.585)" fill="#0043ff"/>
    <path id="Trazado_207571" data-name="Trazado 207571" d="M42.056,295.151a3.3,3.3,0,0,1-.559,2.065,2.233,2.233,0,0,1-3.265.014,3.209,3.209,0,0,1-.578-2.013v-1.2a3.256,3.256,0,0,1,.566-2.071,2.243,2.243,0,0,1,3.26-.007,3.2,3.2,0,0,1,.576,2.011Zm-1.292-1.319a2.374,2.374,0,0,0-.222-1.178.747.747,0,0,0-.691-.371.734.734,0,0,0-.673.352,2.227,2.227,0,0,0-.23,1.1v1.585a2.5,2.5,0,0,0,.216,1.184.738.738,0,0,0,.7.387.729.729,0,0,0,.685-.371,2.454,2.454,0,0,0,.218-1.137Z" transform="translate(-1.756 -13.581)" fill="#0043ff"/>
    <line id="Línea_153" data-name="Línea 153" y1="5.72" transform="translate(1.43 617.727)" fill="none" stroke="#01074e" stroke-linecap="round" stroke-linejoin="round" stroke-width="3"/>
    <line id="Línea_154" data-name="Línea 154" y1="224.41" transform="translate(1.43 381.809)" fill="none" stroke="#01074e" stroke-linecap="round" stroke-linejoin="round" stroke-width="3" stroke-dasharray="12.071 12.071"/>
    <line id="Línea_155" data-name="Línea 155" y1="5.72" transform="translate(1.43 370.334)" fill="none" stroke="#01074e" stroke-linecap="round" stroke-linejoin="round" stroke-width="3"/>
    <line id="Línea_156" data-name="Línea 156" y1="5.72" transform="translate(150.949 617.727)" fill="none" stroke="#01074e" stroke-linecap="round" stroke-linejoin="round" stroke-width="3"/>
    <line id="Línea_157" data-name="Línea 157" y1="224.41" transform="translate(150.949 381.809)" fill="none" stroke="#01074e" stroke-linecap="round" stroke-linejoin="round" stroke-width="3" stroke-dasharray="12.071 12.071"/>
    <line id="Línea_158" data-name="Línea 158" y1="5.72" transform="translate(150.949 370.334)" fill="none" stroke="#01074e" stroke-linecap="round" stroke-linejoin="round" stroke-width="3"/>
    <line id="Línea_159" data-name="Línea 159" y1="5.72" transform="translate(298.655 617.727)" fill="none" stroke="#01074e" stroke-linecap="round" stroke-linejoin="round" stroke-width="3"/>
    <line id="Línea_160" data-name="Línea 160" y1="224.41" transform="translate(298.655 381.809)" fill="none" stroke="#01074e" stroke-linecap="round" stroke-linejoin="round" stroke-width="3" stroke-dasharray="12.071 12.071"/>
    <line id="Línea_161" data-name="Línea 161" y1="5.72" transform="translate(298.655 370.334)" fill="none" stroke="#01074e" stroke-linecap="round" stroke-linejoin="round" stroke-width="3"/>
    <line id="Línea_162" data-name="Línea 162" y1="5.72" transform="translate(446.361 617.727)" fill="none" stroke="#01074e" stroke-linecap="round" stroke-linejoin="round" stroke-width="3"/>
    <line id="Línea_163" data-name="Línea 163" y1="224.41" transform="translate(446.361 381.809)" fill="none" stroke="#01074e" stroke-linecap="round" stroke-linejoin="round" stroke-width="3" stroke-dasharray="12.071 12.071"/>
    <line id="Línea_164" data-name="Línea 164" y1="5.72" transform="translate(446.361 370.334)" fill="none" stroke="#01074e" stroke-linecap="round" stroke-linejoin="round" stroke-width="3"/>
    <path id="Trazado_207572" data-name="Trazado 207572" d="M70.682,542.736H24.552a5.7,5.7,0,0,1-5.7-5.7V503.142a5.7,5.7,0,0,1,5.7-5.7h46.13a5.7,5.7,0,0,1,5.7,5.7v33.889a5.7,5.7,0,0,1-5.7,5.7" transform="translate(-0.879 -23.196)" fill="#9eeae7"/>
    <path id="Trazado_207573" data-name="Trazado 207573" d="M378.642,601.191h-46.13a5.7,5.7,0,0,1-5.7-5.7V561.6a5.7,5.7,0,0,1,5.7-5.7h46.13a5.7,5.7,0,0,1,5.7,5.7v33.889a5.7,5.7,0,0,1-5.7,5.7" transform="translate(-15.239 -25.921)" fill="#9eeae7"/>
    <path id="Trazado_207574" data-name="Trazado 207574" d="M70.682,601.191H24.552a5.7,5.7,0,0,1-5.7-5.7V561.6a5.7,5.7,0,0,1,5.7-5.7h46.13a5.7,5.7,0,0,1,5.7,5.7v33.889a5.7,5.7,0,0,1-5.7,5.7" transform="translate(-0.879 -25.921)" fill="#ffe25a"/>
    <path id="Trazado_207575" data-name="Trazado 207575" d="M223.593,542.736h-46.13a5.7,5.7,0,0,1-5.7-5.7V503.142a5.7,5.7,0,0,1,5.7-5.7h46.13a5.7,5.7,0,0,1,5.7,5.7v33.889a5.7,5.7,0,0,1-5.7,5.7" transform="translate(-8.009 -23.196)" fill="#ffbea8"/>
    <path id="Trazado_207576" data-name="Trazado 207576" d="M292.028,542.736H245.9a5.7,5.7,0,0,1-5.7-5.7V503.142a5.7,5.7,0,0,1,5.7-5.7h46.13a5.7,5.7,0,0,1,5.7,5.7v33.889a5.7,5.7,0,0,1-5.7,5.7" transform="translate(-11.2 -23.196)" fill="#ffe25a"/>
    <path id="Trazado_207577" data-name="Trazado 207577" d="M449.335,542.736H403.2a5.7,5.7,0,0,1-5.7-5.7V503.142a5.7,5.7,0,0,1,5.7-5.7h46.13a5.7,5.7,0,0,1,5.7,5.7v33.889a5.7,5.7,0,0,1-5.7,5.7" transform="translate(-18.536 -23.196)" fill="#ffe25a"/>
    <path id="Trazado_207578" data-name="Trazado 207578" d="M223.593,601.191h-46.13a5.7,5.7,0,0,1-5.7-5.7V561.6a5.7,5.7,0,0,1,5.7-5.7h46.13a5.7,5.7,0,0,1,5.7,5.7v33.889a5.7,5.7,0,0,1-5.7,5.7" transform="translate(-8.009 -25.921)" fill="#ccd9ff"/>
    <path id="Trazado_207579" data-name="Trazado 207579" d="M378.642,542.736h-46.13a5.7,5.7,0,0,1-5.7-5.7V503.142a5.7,5.7,0,0,1,5.7-5.7h46.13a5.7,5.7,0,0,1,5.7,5.7v33.889a5.7,5.7,0,0,1-5.7,5.7" transform="translate(-15.239 -23.196)" fill="#ccd9ff"/>
    <path id="Trazado_207580" data-name="Trazado 207580" d="M831.82,569.59l-11.536-10.657a54.075,54.075,0,0,0-9.77-7.088l-53.127-30.674c-17.947-10.212-56.312-18.4-81.445-11.256-16.6,5.182-30.007,11.276-41.231,18.864-11,7.183-22.215,14.727-30.947,24.4-13.87,16.272,2.029,41.11,21.861,52.73L685.2,640.3c20.136,11.888,62.93,20.106,91.329,12.622,29.741-9.283,50.341-21.176,66.418-38.347,10.54-13.335,3.1-32.165-11.127-44.987" transform="translate(-27.91 -23.652)" fill="#747876"/>
    <path id="Trazado_207581" data-name="Trazado 207581" d="M811.176,551.845l-53.127-30.674c-17.947-10.211-56.312-18.4-81.445-11.256-26.523,8.278-44.892,18.884-59.23,34.2-12.367,14.51,1.809,36.661,19.5,47.023L690,621.81c17.957,10.6,56.119,17.929,81.445,11.256,26.522-8.278,44.892-18.884,59.229-34.2,11.559-14.622-1.134-36.656-19.494-47.023" transform="translate(-28.571 -23.652)" fill="#898a89"/>
    <path id="Trazado_207582" data-name="Trazado 207582" d="M709.22,621.681a10.175,10.175,0,0,0,6.839-.857c2.526-1.459,2.526-3.831,0-5.289l-3.453-1.994a2.494,2.494,0,0,0-2.256,0l-11.683,6.746a.688.688,0,0,0,0,1.3,2.5,2.5,0,0,0,2.257,0l3.65-2.108,1.748,1.01-1.2,4.287c-.085.3.1.6.447.8a2.157,2.157,0,0,0,.874.257c.87.081,1.688-.26,1.829-.763Zm2.258-6.185,2.324,1.342c1.281.74,1.281,1.943,0,2.683a5.143,5.143,0,0,1-4.649,0l-2.324-1.342Z" transform="translate(-32.557 -28.597)" fill="#ebebeb"/>
    <path id="Trazado_207583" data-name="Trazado 207583" d="M643.331,581.123c-.98-.056-1.893-.141-2.777-.223a29.324,29.324,0,0,0-7.654,0l-1.326.2c-.03,0-.058.013-.088.019-.054.01-.109.021-.162.034s-.092.027-.136.042-.089.03-.131.047-.092.041-.134.064c-.024.011-.05.021-.071.033-.071.046-.106.073-.14.1s-.06.046-.086.07a.919.919,0,0,0-.071.078.851.851,0,0,0-.066.081.644.644,0,0,0-.043.085.662.662,0,0,0-.036.085.5.5,0,0,0-.015.09.465.465,0,0,0-.007.089.52.52,0,0,0,.013.085.62.62,0,0,0,.027.1.562.562,0,0,0,.065.127.868.868,0,0,0,.139.159l.035.031a1.319,1.319,0,0,0,.182.129l6.9,3.99a2.5,2.5,0,0,0,2.256,0,.688.688,0,0,0,0-1.3l-4.851-2.8a29.827,29.827,0,0,1,4.891.193c.93.086,1.892.175,2.968.237a9.388,9.388,0,0,0,5.434-1.2c2.23-1.412,2.23-3.624,0-5.036a9.019,9.019,0,0,0-4.641-1.221,9.357,9.357,0,0,0-4.73,1.094.688.688,0,0,0,0,1.3,2.494,2.494,0,0,0,2.256,0,4.75,4.75,0,0,1,2.4-.556,4.6,4.6,0,0,1,2.357.622,1.384,1.384,0,0,1,0,2.552,4.773,4.773,0,0,1-2.761.612" transform="translate(-29.395 -26.835)" fill="#ebebeb"/>
    <path id="Trazado_207584" data-name="Trazado 207584" d="M740.468,522.453a1.78,1.78,0,0,0,1.681.68l-7.5,4.333a.688.688,0,0,0,0,1.3,2.493,2.493,0,0,0,2.255,0l11.684-6.745c.511-.3.614-.751.254-1.113a2.213,2.213,0,0,0-1.8-.429l-5.446.843c-.851.132-1.356.637-1.127,1.128" transform="translate(-34.235 -24.269)" fill="#ebebeb"/>
    <path id="Trazado_207585" data-name="Trazado 207585" d="M670.349,603.921a.687.687,0,0,0,0,1.3,2.49,2.49,0,0,0,2.257,0l2.34-1.351.331.192a2.5,2.5,0,0,0,2.257,0,.688.688,0,0,0,0-1.3l-.331-.191,7.086-4.092a.687.687,0,0,0,0-1.3l-1.994-1.151a2.459,2.459,0,0,0-1.538-.239l-12.977,1.994a1.459,1.459,0,0,0-1.131.65c-.149.318.009.658.412.891l5.628,3.249Zm.927-4.772,9.413-1.445.215.124-5.959,3.44Z" transform="translate(-31.083 -27.78)" fill="#ebebeb"/>
    <path id="Trazado_207586" data-name="Trazado 207586" d="M770.986,545.058a1.719,1.719,0,0,1-1.075-1.36,1.6,1.6,0,0,1,.962-1.386.687.687,0,0,0,0-1.3,2.49,2.49,0,0,0-2.257,0,3.163,3.163,0,0,0-1.9,2.73,3.262,3.262,0,0,0,1.892,2.557c.072.042.146.083.222.123a10.333,10.333,0,0,0,8.721,0c1.53-.806,2.29-1.95,2.085-3.138-.064-.374-.146-.724-.233-1.06a23.551,23.551,0,0,0,4.546-.234l1.327-.2a1.466,1.466,0,0,0,1.135-.65c.149-.318-.008-.659-.411-.892l-6.9-3.989a2.5,2.5,0,0,0-2.257,0,.688.688,0,0,0,0,1.3l4.851,2.8a24.92,24.92,0,0,1-3.954-.108,2.4,2.4,0,0,0-1.368.26c-.358.207-.525.5-.449.789.049.183.1.369.153.558a16.044,16.044,0,0,1,.386,1.6c.1.6-.282,1.184-1.06,1.594a5.232,5.232,0,0,1-4.421,0" transform="translate(-35.752 -24.993)" fill="#ebebeb"/>
    <path id="Trazado_207587" data-name="Trazado 207587" d="M791.374,576.342q-.193.229-.409.458c-.145.144-.3.3-.458.44-.184.161-.353.3-.522.425a5.683,5.683,0,0,1-.505.361c-.224.153-.457.305-.705.449L735.3,609.35c-5.2,3-13.628,3-18.826,0a10.416,10.416,0,0,1-1.323-.89,6.813,6.813,0,0,1-.867-.786c-.15-.156-.288-.314-.419-.474-.1-.123-.191-.247-.279-.373-.027-.037-.054-.074-.08-.112-.093-.137-.177-.276-.257-.415l-.034-.061c-1.46-2.648-.38-5.662,3.259-7.759l17.43-10.067-10.252-5.92-17.43,10.067c-5.2,3-13.62,3-18.826,0a11.534,11.534,0,0,1-1.323-.889,8.164,8.164,0,0,1-.729-.643l-.169-.168c-2.824-2.92-2.077-6.682,2.221-9.169l17.43-10.067-10.251-5.912L677.15,575.773c-5.2,3-13.628,3-18.826,0a9.8,9.8,0,0,1-2.238-1.717q-.193-.2-.361-.409c-.128-.16-.249-.313-.353-.473a5.61,5.61,0,0,1-.3-.493c-.052-.091-.092-.184-.137-.276-.031-.065-.068-.129-.1-.194-1.1-2.538.058-5.326,3.489-7.308L711.8,534.03c5.2-3,13.621-3,18.819,0,4.307,2.486,5.053,6.248,2.23,9.169-.161.16-.337.329-.521.5-.153.129-.321.265-.5.4a10.886,10.886,0,0,1-1.211.8L713.4,554.845l10.251,5.912,17.222-9.938a15.379,15.379,0,0,1,3.225-1.372c5.021-1.524,11.382-1.067,15.6,1.372a7.565,7.565,0,0,1,3.69,4.066,4.734,4.734,0,0,1-.738,4.2,4.367,4.367,0,0,1-.458.594,3.063,3.063,0,0,1-.265.3c-.055.064-.12.12-.176.176a9.587,9.587,0,0,1-.729.642,10.544,10.544,0,0,1-1.324.89l-17.222,9.939,10.252,5.919L758.7,574.1l11.254-6.5c5.2-3.008,13.628-3.008,18.826,0,4.1,2.367,4.965,5.88,2.6,8.736" transform="translate(-30.516 -24.797)" fill="#525452"/>
    <path id="Trazado_207588" data-name="Trazado 207588" d="M792.276,575.09a6.082,6.082,0,0,1-.883,1.436q-.192.229-.409.458c-.144.144-.3.3-.457.44-.185.161-.353.3-.522.425a5.683,5.683,0,0,1-.505.361c-.225.153-.458.305-.706.449l-53.478,30.874c-5.2,3-13.627,3-18.825,0a10.363,10.363,0,0,1-1.324-.89,8.293,8.293,0,0,1-.866-.786,6.43,6.43,0,0,1-1.292-1.885,7.907,7.907,0,0,1,3.482-3.562l17.429-10.067V588.6l-10.251-5.92-17.43,10.067c-5.2,3-13.621,3-18.826,0a11.53,11.53,0,0,1-1.323-.889c-.265-.209-.505-.425-.73-.642l-.169-.169a6.54,6.54,0,0,1-1.259-1.861,7.961,7.961,0,0,1,3.482-3.562l17.43-10.067v-3.746L694.591,565.9l-17.422,10.059c-5.2,3-13.628,3-18.826,0a9.806,9.806,0,0,1-2.239-1.717c-.128-.136-.249-.273-.36-.409-.129-.16-.249-.313-.354-.473a5.738,5.738,0,0,1-.537-.963,7.932,7.932,0,0,1,3.489-3.562l53.478-30.874c5.2-3,13.62-3,18.818,0a7.933,7.933,0,0,1,3.489,3.562,6.525,6.525,0,0,1-1.259,1.861c-.16.16-.337.329-.522.5-.152.129-.32.265-.5.4a10.846,10.846,0,0,1-1.212.8l-17.222,9.947v3.738l10.252,5.92,17.222-9.938a14.662,14.662,0,0,1,2.359-1.083c5.142-1.869,12-1.5,16.468,1.083a8.545,8.545,0,0,1,3.072,2.792,4.815,4.815,0,0,1,.418.769,5.742,5.742,0,0,1-.538.963,4.87,4.87,0,0,1-.449.57,2.252,2.252,0,0,1-.273.32c-.056.064-.12.12-.176.176a9.6,9.6,0,0,1-.73.642,10.53,10.53,0,0,1-1.323.89L742.5,571.809v3.746l10.251,5.919,4.885-2.823,12.338-7.124c5.2-3,13.628-3,18.825,0a7.994,7.994,0,0,1,3.482,3.562" transform="translate(-30.536 -24.98)" fill="#262626"/>
    <path id="Trazado_207589" data-name="Trazado 207589" d="M799.716,415.036,768.953,541.8l-1.829,7.363-.618,2.471-.537,2.157c0,.016-.016.064-.032.144a2.209,2.209,0,0,1-.273.321c-.056.064-.12.12-.176.176-.225.216-.465.433-.73.642a10.53,10.53,0,0,1-1.323.89l-16.3,9.409-.922.53v3.746l10.251,5.919,4.885-2.824c-1.836,7.4-4.628,20.68-4.845,20.8-9.1,5.463-18.754,11.4-21.914,11.775l8.752-40.716,3.626-16.845.866-4.035,1.236-5.735L779.077,409.02Z" transform="translate(-34.254 -19.073)" fill="#c9c9c9"/>
    <path id="Trazado_207590" data-name="Trazado 207590" d="M833.564,364.031a11.791,11.791,0,0,1-.056,1.436c-1.941,19.949-13.227,35.566-23.871,51.368a16.7,16.7,0,0,1-15.842,7.291,85.961,85.961,0,0,1-12.265-2.463,16.814,16.814,0,0,1-11.944-12.906c-1.772-8.92-4.146-20.334-4.668-31.613-.723-15.521,2.077-30.778,14.815-38.879a23.087,23.087,0,0,0,2.575-1.925c5.863-5.158,44.221,4.7,48.112,11.326.32.994.658,2.037,1.043,3.168a40.376,40.376,0,0,1,2.1,13.2" transform="translate(-35.663 -15.617)" fill="#333232"/>
    <path id="Trazado_207591" data-name="Trazado 207591" d="M635.409,557.57a3.6,3.6,0,0,1-2.116,2.959,11.353,11.353,0,0,1-10.245,0,3.706,3.706,0,0,1-2.1-2.75,1.268,1.268,0,0,1-.009-.322,3.656,3.656,0,0,1,2.106-2.846,11.353,11.353,0,0,1,10.245,0,3.6,3.6,0,0,1,2.116,2.959" transform="translate(-28.954 -25.805)" fill="#747876"/>
    <path id="Trazado_207592" data-name="Trazado 207592" d="M635.157,555.228c0,.6-.009,1.208-.017,1.811-.21,4.714-8.714,5.058-11.893,3.054-2.231-1.241-2.088-2.76-2.021-4.664,0-.109-.009-.21-.009-.31a3.524,3.524,0,0,1,2.03-2.743,10.945,10.945,0,0,1,9.872,0,3.473,3.473,0,0,1,2.038,2.852" transform="translate(-28.967 -25.703)" fill="#909190"/>
    <path id="Trazado_207593" data-name="Trazado 207593" d="M635.158,555.228a3.473,3.473,0,0,1-2.038,2.852,10.946,10.946,0,0,1-9.872,0,3.573,3.573,0,0,1-2.021-2.65,1.254,1.254,0,0,1-.009-.31,3.524,3.524,0,0,1,2.03-2.743,10.945,10.945,0,0,1,9.872,0,3.473,3.473,0,0,1,2.038,2.852" transform="translate(-28.967 -25.703)" fill="#a5a6a5"/>
    <path id="Trazado_207594" data-name="Trazado 207594" d="M710.812,516.278a3.6,3.6,0,0,1-2.116,2.959,11.353,11.353,0,0,1-10.245,0,3.706,3.706,0,0,1-2.1-2.75,1.268,1.268,0,0,1-.009-.322,3.656,3.656,0,0,1,2.106-2.846,11.354,11.354,0,0,1,10.245,0,3.6,3.6,0,0,1,2.116,2.959" transform="translate(-32.47 -23.879)" fill="#747876"/>
    <path id="Trazado_207595" data-name="Trazado 207595" d="M710.56,513.936c0,.6-.009,1.208-.017,1.811-.21,4.714-8.714,5.058-11.893,3.054-2.231-1.241-2.088-2.76-2.021-4.664,0-.109-.009-.21-.009-.31a3.524,3.524,0,0,1,2.03-2.743,10.945,10.945,0,0,1,9.872,0,3.473,3.473,0,0,1,2.038,2.852" transform="translate(-32.483 -23.777)" fill="#909190"/>
    <path id="Trazado_207596" data-name="Trazado 207596" d="M710.561,513.936a3.473,3.473,0,0,1-2.038,2.852,10.946,10.946,0,0,1-9.872,0,3.573,3.573,0,0,1-2.021-2.65,1.263,1.263,0,0,1-.009-.31,3.524,3.524,0,0,1,2.03-2.743,10.945,10.945,0,0,1,9.872,0,3.473,3.473,0,0,1,2.038,2.852" transform="translate(-32.483 -23.777)" fill="#a5a6a5"/>
    <path id="Trazado_207597" data-name="Trazado 207597" d="M846.5,593.078a3.6,3.6,0,0,1-2.115,2.959,11.354,11.354,0,0,1-10.245,0,3.706,3.706,0,0,1-2.1-2.75,1.263,1.263,0,0,1-.009-.322,3.656,3.656,0,0,1,2.106-2.846,11.354,11.354,0,0,1,10.245,0,3.6,3.6,0,0,1,2.115,2.959" transform="translate(-38.797 -27.46)" fill="#747876"/>
    <path id="Trazado_207598" data-name="Trazado 207598" d="M846.244,590.737c0,.6-.009,1.208-.017,1.811-.209,4.714-8.714,5.058-11.893,3.054-2.231-1.241-2.088-2.76-2.021-4.664,0-.109-.009-.21-.009-.31a3.524,3.524,0,0,1,2.03-2.743,10.945,10.945,0,0,1,9.872,0,3.473,3.473,0,0,1,2.038,2.852" transform="translate(-38.81 -27.358)" fill="#909190"/>
    <path id="Trazado_207599" data-name="Trazado 207599" d="M846.245,590.737a3.473,3.473,0,0,1-2.038,2.852,10.945,10.945,0,0,1-9.872,0,3.573,3.573,0,0,1-2.021-2.65,1.262,1.262,0,0,1-.009-.31,3.524,3.524,0,0,1,2.03-2.743,10.945,10.945,0,0,1,9.872,0,3.473,3.473,0,0,1,2.038,2.852" transform="translate(-38.81 -27.358)" fill="#a5a6a5"/>
    <path id="Trazado_207600" data-name="Trazado 207600" d="M753.277,632.7a3.6,3.6,0,0,1-2.115,2.959,11.353,11.353,0,0,1-10.245,0,3.706,3.706,0,0,1-2.1-2.75,1.271,1.271,0,0,1-.009-.322,3.656,3.656,0,0,1,2.106-2.846,11.353,11.353,0,0,1,10.245,0,3.6,3.6,0,0,1,2.115,2.959" transform="translate(-34.451 -29.308)" fill="#747876"/>
    <path id="Trazado_207601" data-name="Trazado 207601" d="M753.025,630.363c0,.6-.009,1.208-.017,1.811-.209,4.714-8.714,5.058-11.893,3.054-2.231-1.241-2.088-2.76-2.021-4.664,0-.109-.009-.21-.009-.31a3.524,3.524,0,0,1,2.03-2.743,10.946,10.946,0,0,1,9.872,0,3.473,3.473,0,0,1,2.038,2.852" transform="translate(-34.463 -29.206)" fill="#909190"/>
    <path id="Trazado_207602" data-name="Trazado 207602" d="M753.026,630.363a3.473,3.473,0,0,1-2.038,2.852,10.945,10.945,0,0,1-9.872,0,3.573,3.573,0,0,1-2.021-2.65,1.259,1.259,0,0,1-.009-.31,3.524,3.524,0,0,1,2.03-2.743,10.946,10.946,0,0,1,9.872,0,3.473,3.473,0,0,1,2.038,2.852" transform="translate(-34.463 -29.206)" fill="#a5a6a5"/>
    <path id="Trazado_207603" data-name="Trazado 207603" d="M761.349,580.284c-1.837,7.4-4.629,20.678-4.845,20.8-9.1,5.462-18.754,11.4-21.914,11.775l9.057-42.137c0,2.239,2.566,2.72,2.566,2.72v3.746l10.252,5.92Z" transform="translate(-34.254 -26.613)" fill="#595959"/>
    <path id="Trazado_207604" data-name="Trazado 207604" d="M831.461,350.745c-10.235-10.227-28.6-1.061-36.58,23.5-7.026,21.626-27.334,25.222-29.965,2.811-.722-15.522,1.43-27.283,12.471-38.323.868-.868,3.072-2.163,6.359-3.922,12.349-6.607,42.782,6.141,46.672,12.767.321.994.658,2.037,1.043,3.168" transform="translate(-35.662 -15.526)" fill="#e6be42"/>
    <path id="Trazado_207605" data-name="Trazado 207605" d="M802.673,557.251l4.186-2.037,2.571,1.653-6.256,2.78.1,6.978-2.6-1.672.1-4.742-4.273,2.057-2.6-1.673,6.389-2.808-.065-6.844,2.571,1.653Z" transform="translate(-37.02 -25.691)" fill="red"/>
    <path id="Trazado_207606" data-name="Trazado 207606" d="M809.343,565.694l-2.2,3.419-2.236-1.438,6.243-9.7,4.233,2.723a6.409,6.409,0,0,1,1.892,1.783,3.808,3.808,0,0,1,.7,2.055,3.473,3.473,0,0,1-.579,2,3.172,3.172,0,0,1-2.539,1.547,5.853,5.853,0,0,1-3.552-1.121Zm1.042-1.62,2,1.285a2.526,2.526,0,0,0,1.593.5,1.533,1.533,0,0,0,1.152-.767,1.794,1.794,0,0,0,.272-1.454,2.216,2.216,0,0,0-1.006-1.288l-2.049-1.318Z" transform="translate(-37.533 -26.018)" fill="red"/>
  </g>
</svg>
