<svg xmlns="http://www.w3.org/2000/svg" xmlns:xlink="http://www.w3.org/1999/xlink" width="426.129" height="75.778" viewBox="0 0 426.129 75.778">
  <defs>
    <clipPath id="clip-path">
      <rect id="Rectángulo_38604" data-name="Rectángulo 38604" width="426.129" height="75.778" fill="none"/>
    </clipPath>
  </defs>
  <g id="Grupo_147332" data-name="Grupo 147332" transform="translate(-587 -6873)">
    <g id="Grupo_147194" data-name="Grupo 147194" transform="translate(587 6873)">
      <g id="Grupo_147191" data-name="Grupo 147191">
        <g id="Grupo_147190" data-name="Grupo 147190" clip-path="url(#clip-path)">
          <path id="Trazado_207607" data-name="Trazado 207607" d="M412.463,67.608H62.4A13.666,13.666,0,0,1,48.735,53.942h0V21.4A13.666,13.666,0,0,1,62.4,7.737H412.463A13.665,13.665,0,0,1,426.129,21.4V53.941a13.665,13.665,0,0,1-13.665,13.667Z" fill="#3740a5"/>
          <path id="Trazado_207608" data-name="Trazado 207608" d="M37.889,0A37.889,37.889,0,1,0,75.778,37.889,37.888,37.888,0,0,0,37.889,0" fill="#0043ff"/>
        </g>
      </g>
      <path id="Trazado_208189" data-name="Trazado 208189" d="M15.54-5.92A6.289,6.289,0,0,1,13.422-1.4,7.438,7.438,0,0,1,8.386.244a6.688,6.688,0,0,1-5.377-2.3A9.435,9.435,0,0,1,1.05-8.374V-9.46a10.654,10.654,0,0,1,.9-4.517,6.769,6.769,0,0,1,2.582-3,7.232,7.232,0,0,1,3.9-1.044,7.246,7.246,0,0,1,4.956,1.648,6.759,6.759,0,0,1,2.173,4.626H11.9a3.712,3.712,0,0,0-.958-2.5,3.548,3.548,0,0,0-2.509-.775A3.112,3.112,0,0,0,5.695-13.7a7.354,7.354,0,0,0-.934,4.071v1.343a7.871,7.871,0,0,0,.873,4.211A3.054,3.054,0,0,0,8.386-2.747a3.615,3.615,0,0,0,2.533-.775,3.5,3.5,0,0,0,.958-2.4Zm1.624-.806a7.833,7.833,0,0,1,.757-3.5A5.54,5.54,0,0,1,20.1-12.61a6.357,6.357,0,0,1,3.3-.842,6.014,6.014,0,0,1,4.364,1.636,6.565,6.565,0,0,1,1.886,4.443l.024.9a6.9,6.9,0,0,1-1.7,4.877A5.9,5.9,0,0,1,23.425.244a5.927,5.927,0,0,1-4.559-1.831,7.025,7.025,0,0,1-1.7-4.98Zm3.528.25A4.937,4.937,0,0,0,21.4-3.6a2.336,2.336,0,0,0,2.026,1,2.341,2.341,0,0,0,2-.984,5.4,5.4,0,0,0,.72-3.148,4.888,4.888,0,0,0-.72-2.861A2.341,2.341,0,0,0,23.4-10.608a2.3,2.3,0,0,0-2,1.009A5.493,5.493,0,0,0,20.691-6.476Zm14.465-6.732.11,1.477a4.642,4.642,0,0,1,3.8-1.721,3.523,3.523,0,0,1,3.5,2.014,4.535,4.535,0,0,1,3.967-2.014,3.94,3.94,0,0,1,3.2,1.251,5.751,5.751,0,0,1,1.05,3.766V0h-3.54V-8.423a2.515,2.515,0,0,0-.439-1.642,1.948,1.948,0,0,0-1.55-.519,2.2,2.2,0,0,0-2.2,1.514L43.066,0H39.539V-8.411a2.484,2.484,0,0,0-.452-1.66,1.966,1.966,0,0,0-1.538-.513,2.286,2.286,0,0,0-2.173,1.245V0H31.848V-13.208ZM65.381-6.482A7.921,7.921,0,0,1,64-1.593,4.442,4.442,0,0,1,60.254.244a4.115,4.115,0,0,1-3.235-1.392V5.078H53.491V-13.208h3.271l.122,1.294a4.146,4.146,0,0,1,3.345-1.538,4.472,4.472,0,0,1,3.8,1.807,8.136,8.136,0,0,1,1.355,4.98Zm-3.528-.256A5.2,5.2,0,0,0,61.2-9.583a2.127,2.127,0,0,0-1.9-1,2.31,2.31,0,0,0-2.283,1.27v5.408A2.349,2.349,0,0,0,59.326-2.6Q61.853-2.6,61.853-6.738ZM71.289,0h-3.54V-18.75h3.54Zm8.984.244a6.484,6.484,0,0,1-4.73-1.782,6.335,6.335,0,0,1-1.825-4.749v-.342a7.979,7.979,0,0,1,.769-3.558A5.644,5.644,0,0,1,76.666-12.6a6.116,6.116,0,0,1,3.217-.848,5.482,5.482,0,0,1,4.266,1.709A6.944,6.944,0,0,1,85.706-6.9v1.44H77.295a3.277,3.277,0,0,0,1.031,2.075,3.118,3.118,0,0,0,2.179.781,3.808,3.808,0,0,0,3.186-1.477l1.733,1.941A5.3,5.3,0,0,1,83.276-.385,7.049,7.049,0,0,1,80.273.244Zm-.4-10.852a2.2,2.2,0,0,0-1.7.711,3.682,3.682,0,0,0-.836,2.035h4.907v-.282A2.626,2.626,0,0,0,81.6-9.964,2.274,2.274,0,0,0,79.871-10.608Zm11.145-2.6.11,1.477a4.642,4.642,0,0,1,3.8-1.721,3.523,3.523,0,0,1,3.5,2.014,4.535,4.535,0,0,1,3.967-2.014,3.94,3.94,0,0,1,3.2,1.251,5.751,5.751,0,0,1,1.05,3.766V0H103.1V-8.423a2.515,2.515,0,0,0-.439-1.642,1.948,1.948,0,0,0-1.55-.519,2.2,2.2,0,0,0-2.2,1.514L98.926,0H95.4V-8.411a2.484,2.484,0,0,0-.452-1.66,1.967,1.967,0,0,0-1.538-.513,2.286,2.286,0,0,0-2.173,1.245V0H87.708V-13.208ZM115.43.244a6.484,6.484,0,0,1-4.73-1.782,6.335,6.335,0,0,1-1.825-4.749v-.342a7.979,7.979,0,0,1,.769-3.558,5.644,5.644,0,0,1,2.179-2.417,6.116,6.116,0,0,1,3.217-.848,5.482,5.482,0,0,1,4.266,1.709A6.944,6.944,0,0,1,120.862-6.9v1.44h-8.411a3.277,3.277,0,0,0,1.031,2.075,3.118,3.118,0,0,0,2.179.781,3.808,3.808,0,0,0,3.186-1.477l1.733,1.941a5.3,5.3,0,0,1-2.148,1.752A7.049,7.049,0,0,1,115.43.244Zm-.4-10.852a2.2,2.2,0,0,0-1.7.711,3.682,3.682,0,0,0-.836,2.035H117.4v-.282a2.626,2.626,0,0,0-.635-1.821A2.274,2.274,0,0,0,115.027-10.608Zm11.084-2.6.11,1.526a4.611,4.611,0,0,1,3.8-1.77,3.832,3.832,0,0,1,3.125,1.233,5.752,5.752,0,0,1,1.05,3.687V0h-3.528V-8.447a2.289,2.289,0,0,0-.488-1.63,2.186,2.186,0,0,0-1.624-.507,2.427,2.427,0,0,0-2.234,1.27V0h-3.528V-13.208Zm14.978-3.247v3.247h2.258v2.588h-2.258v6.592a1.574,1.574,0,0,0,.281,1.05,1.41,1.41,0,0,0,1.074.317,5.626,5.626,0,0,0,1.038-.085V-.073a7.263,7.263,0,0,1-2.136.317q-3.711,0-3.784-3.748V-10.62h-1.929v-2.588h1.929v-3.247Zm2.958,9.729a7.833,7.833,0,0,1,.757-3.5,5.541,5.541,0,0,1,2.179-2.38,6.357,6.357,0,0,1,3.3-.842,6.014,6.014,0,0,1,4.364,1.636,6.565,6.565,0,0,1,1.886,4.443l.024.9a6.9,6.9,0,0,1-1.7,4.877A5.9,5.9,0,0,1,150.309.244a5.927,5.927,0,0,1-4.559-1.831,7.025,7.025,0,0,1-1.7-4.98Zm3.528.25a4.937,4.937,0,0,0,.708,2.879,2.336,2.336,0,0,0,2.026,1,2.341,2.341,0,0,0,2-.984,5.4,5.4,0,0,0,.72-3.148,4.888,4.888,0,0,0-.72-2.861,2.341,2.341,0,0,0-2.026-1.015,2.3,2.3,0,0,0-2,1.009A5.493,5.493,0,0,0,147.575-6.476ZM171.037.244a6.484,6.484,0,0,1-4.73-1.782,6.335,6.335,0,0,1-1.825-4.749v-.342a7.979,7.979,0,0,1,.769-3.558A5.644,5.644,0,0,1,167.43-12.6a6.116,6.116,0,0,1,3.217-.848,5.482,5.482,0,0,1,4.266,1.709A6.944,6.944,0,0,1,176.469-6.9v1.44h-8.411a3.277,3.277,0,0,0,1.031,2.075,3.118,3.118,0,0,0,2.179.781,3.808,3.808,0,0,0,3.186-1.477l1.733,1.941A5.3,5.3,0,0,1,174.04-.385,7.049,7.049,0,0,1,171.037.244Zm-.4-10.852a2.2,2.2,0,0,0-1.7.711,3.683,3.683,0,0,0-.836,2.035H173v-.282a2.626,2.626,0,0,0-.635-1.821A2.274,2.274,0,0,0,170.634-10.608Zm11.084-2.6.11,1.526a4.611,4.611,0,0,1,3.8-1.77,3.832,3.832,0,0,1,3.125,1.233,5.752,5.752,0,0,1,1.05,3.687V0h-3.528V-8.447a2.289,2.289,0,0,0-.488-1.63,2.186,2.186,0,0,0-1.624-.507,2.427,2.427,0,0,0-2.234,1.27V0H178.4V-13.208ZM196.7-16.455v3.247h2.258v2.588H196.7v6.592a1.574,1.574,0,0,0,.281,1.05,1.41,1.41,0,0,0,1.074.317,5.626,5.626,0,0,0,1.038-.085V-.073a7.263,7.263,0,0,1-2.136.317q-3.711,0-3.784-3.748V-10.62h-1.929v-2.588h1.929v-3.247ZM208.341-9.9a9.585,9.585,0,0,0-1.27-.1,2.584,2.584,0,0,0-2.625,1.355V0H200.92V-13.208h3.333l.1,1.575a3.269,3.269,0,0,1,2.942-1.819,3.7,3.7,0,0,1,1.1.159ZM215.892.244a6.484,6.484,0,0,1-4.73-1.782,6.335,6.335,0,0,1-1.825-4.749v-.342a7.979,7.979,0,0,1,.769-3.558,5.644,5.644,0,0,1,2.179-2.417,6.116,6.116,0,0,1,3.217-.848,5.482,5.482,0,0,1,4.266,1.709A6.944,6.944,0,0,1,221.324-6.9v1.44h-8.411a3.277,3.277,0,0,0,1.031,2.075,3.118,3.118,0,0,0,2.179.781,3.808,3.808,0,0,0,3.186-1.477l1.733,1.941A5.3,5.3,0,0,1,218.9-.385,7.049,7.049,0,0,1,215.892.244Zm-.4-10.852a2.2,2.2,0,0,0-1.7.711,3.683,3.683,0,0,0-.836,2.035h4.907v-.282a2.626,2.626,0,0,0-.635-1.821A2.274,2.274,0,0,0,215.489-10.608Zm17.371-2.6.11,1.477a4.642,4.642,0,0,1,3.8-1.721,3.523,3.523,0,0,1,3.5,2.014,4.535,4.535,0,0,1,3.967-2.014,3.94,3.94,0,0,1,3.2,1.251,5.751,5.751,0,0,1,1.05,3.766V0h-3.54V-8.423a2.515,2.515,0,0,0-.439-1.642,1.948,1.948,0,0,0-1.55-.519,2.2,2.2,0,0,0-2.2,1.514L240.77,0h-3.528V-8.411a2.484,2.484,0,0,0-.452-1.66,1.966,1.966,0,0,0-1.538-.513,2.286,2.286,0,0,0-2.173,1.245V0h-3.528V-13.208ZM257.274.244a6.484,6.484,0,0,1-4.73-1.782,6.335,6.335,0,0,1-1.825-4.749v-.342a7.979,7.979,0,0,1,.769-3.558,5.644,5.644,0,0,1,2.179-2.417,6.116,6.116,0,0,1,3.217-.848,5.482,5.482,0,0,1,4.266,1.709A6.944,6.944,0,0,1,262.706-6.9v1.44H254.3a3.277,3.277,0,0,0,1.031,2.075,3.118,3.118,0,0,0,2.179.781,3.808,3.808,0,0,0,3.186-1.477l1.733,1.941a5.3,5.3,0,0,1-2.148,1.752A7.049,7.049,0,0,1,257.274.244Zm-.4-10.852a2.2,2.2,0,0,0-1.7.711,3.683,3.683,0,0,0-.836,2.035h4.907v-.282a2.626,2.626,0,0,0-.635-1.821A2.274,2.274,0,0,0,256.871-10.608Zm.317-8.142h3.845l-3.381,3.784h-2.869Zm11.743,2.295v3.247h2.258v2.588h-2.258v6.592a1.574,1.574,0,0,0,.281,1.05,1.41,1.41,0,0,0,1.074.317,5.626,5.626,0,0,0,1.038-.085V-.073a7.263,7.263,0,0,1-2.136.317q-3.711,0-3.784-3.748V-10.62h-1.929v-2.588H265.4v-3.247Zm2.958,9.729a7.833,7.833,0,0,1,.757-3.5,5.54,5.54,0,0,1,2.179-2.38,6.357,6.357,0,0,1,3.3-.842,6.014,6.014,0,0,1,4.364,1.636,6.565,6.565,0,0,1,1.886,4.443l.024.9a6.9,6.9,0,0,1-1.7,4.877A5.9,5.9,0,0,1,278.152.244a5.927,5.927,0,0,1-4.559-1.831,7.025,7.025,0,0,1-1.7-4.98Zm3.528.25a4.937,4.937,0,0,0,.708,2.879,2.336,2.336,0,0,0,2.026,1,2.341,2.341,0,0,0,2-.984,5.4,5.4,0,0,0,.72-3.148,4.888,4.888,0,0,0-.72-2.861,2.341,2.341,0,0,0-2.026-1.015,2.3,2.3,0,0,0-2,1.009A5.493,5.493,0,0,0,275.418-6.476ZM286.026-6.7a7.96,7.96,0,0,1,1.385-4.919,4.5,4.5,0,0,1,3.79-1.831,4.045,4.045,0,0,1,3.186,1.44V-18.75h3.54V0h-3.186l-.171-1.4A4.151,4.151,0,0,1,291.177.244a4.483,4.483,0,0,1-3.741-1.837A8.216,8.216,0,0,1,286.026-6.7Zm3.528.263A5.214,5.214,0,0,0,290.2-3.59a2.108,2.108,0,0,0,1.88.99,2.361,2.361,0,0,0,2.307-1.381V-9.2a2.327,2.327,0,0,0-2.283-1.381Q289.554-10.583,289.553-6.439Zm10.559-.287a7.833,7.833,0,0,1,.757-3.5,5.54,5.54,0,0,1,2.179-2.38,6.357,6.357,0,0,1,3.3-.842,6.014,6.014,0,0,1,4.364,1.636A6.565,6.565,0,0,1,312.6-7.373l.024.9a6.9,6.9,0,0,1-1.7,4.877A5.9,5.9,0,0,1,306.375.244a5.927,5.927,0,0,1-4.559-1.831,7.025,7.025,0,0,1-1.7-4.98Zm3.528.25a4.937,4.937,0,0,0,.708,2.879,2.336,2.336,0,0,0,2.026,1,2.341,2.341,0,0,0,2-.984,5.4,5.4,0,0,0,.72-3.148,4.888,4.888,0,0,0-.72-2.861,2.341,2.341,0,0,0-2.026-1.015,2.3,2.3,0,0,0-2,1.009A5.493,5.493,0,0,0,303.64-6.476ZM321.951-3.65a1.137,1.137,0,0,0-.641-1.019,7.28,7.28,0,0,0-2.057-.665q-4.712-.989-4.712-4A3.629,3.629,0,0,1,316-12.274a5.884,5.884,0,0,1,3.815-1.178,6.333,6.333,0,0,1,4.022,1.184,3.732,3.732,0,0,1,1.508,3.076h-3.528a1.707,1.707,0,0,0-.488-1.251,2.066,2.066,0,0,0-1.526-.494,2.111,2.111,0,0,0-1.379.4,1.272,1.272,0,0,0-.488,1.025,1.087,1.087,0,0,0,.555.946,5.714,5.714,0,0,0,1.874.623,15.3,15.3,0,0,1,2.222.592q2.8,1.025,2.8,3.552a3.445,3.445,0,0,1-1.55,2.924,6.688,6.688,0,0,1-4,1.117,6.985,6.985,0,0,1-2.948-.592,4.946,4.946,0,0,1-2.02-1.624,3.772,3.772,0,0,1-.732-2.228h3.345a1.842,1.842,0,0,0,.7,1.44,2.76,2.76,0,0,0,1.733.5,2.554,2.554,0,0,0,1.532-.385A1.2,1.2,0,0,0,321.951-3.65Z" transform="translate(85.614 44.975)" fill="#fff"/>
      <g id="Grupo_147193" data-name="Grupo 147193">
        <g id="Grupo_147192" data-name="Grupo 147192" clip-path="url(#clip-path)">
          <path id="Trazado_207609" data-name="Trazado 207609" d="M32.4,61.611H21.175a.8.8,0,0,1-.8-.8V44.168H17.094a.8.8,0,0,1-.8-.8V31.073a6.062,6.062,0,0,1,6.055-6.056h8.875a6.063,6.063,0,0,1,6.056,6.056V43.365a.8.8,0,0,1-.8.8H33.2v16.64a.8.8,0,0,1-.8.8m-10.418-1.6h9.616V43.365a.8.8,0,0,1,.8-.8h3.278V31.073a4.456,4.456,0,0,0-4.451-4.451H22.347a4.456,4.456,0,0,0-4.45,4.451v11.49h3.278a.8.8,0,0,1,.8.8Z" fill="#fff"/>
          <path id="Trazado_207610" data-name="Trazado 207610" d="M26.785,61.611a.8.8,0,0,1-.8-.8V46.123a.8.8,0,1,1,1.6,0V60.809a.8.8,0,0,1-.8.8" fill="#fff"/>
          <path id="Trazado_207611" data-name="Trazado 207611" d="M21.175,44.167a.8.8,0,0,1-.8-.8V32.406a.8.8,0,1,1,1.6,0V43.365a.8.8,0,0,1-.8.8" fill="#fff"/>
          <path id="Trazado_207612" data-name="Trazado 207612" d="M32.4,44.167a.8.8,0,0,1-.8-.8V32.406a.8.8,0,1,1,1.605,0V43.365a.8.8,0,0,1-.8.8" fill="#fff"/>
          <path id="Trazado_207613" data-name="Trazado 207613" d="M27.116,24.217l-.1,0c-1,.044-2.519-.4-3.68-2.59a8.173,8.173,0,0,1-.9-3.811V16.6a.8.8,0,0,1,.117-.417,6.024,6.024,0,0,1,4.47-2.018c2.159,0,4.622,1.354,4.622,2.541v1.106a8.175,8.175,0,0,1-.9,3.811c-1.125,2.126-2.573,2.592-3.624,2.592M24.037,16.9v.912a6.56,6.56,0,0,0,.715,3.06c.623,1.177,1.364,1.735,2.262,1.737a2.659,2.659,0,0,0,2.307-1.737,6.557,6.557,0,0,0,.715-3.06v-.94a4.583,4.583,0,0,0-3.017-1.1,4.845,4.845,0,0,0-2.982,1.13" fill="#fff"/>
          <path id="Trazado_207614" data-name="Trazado 207614" d="M39.025,61.611H17.095a.8.8,0,1,1,0-1.6h21.93a.368.368,0,0,0,.367-.367V55.271A.8.8,0,0,1,40,54.494a17.074,17.074,0,0,0,4.516-1.87.8.8,0,0,1,.977.122l3.088,3.088a.369.369,0,0,0,.52,0l4.611-4.611a.369.369,0,0,0,0-.52l-3.088-3.088a.8.8,0,0,1-.122-.978,17.02,17.02,0,0,0,1.869-4.514.8.8,0,0,1,.778-.6h4.367a.368.368,0,0,0,.368-.368V34.629a.367.367,0,0,0-.368-.367H53.146a.8.8,0,0,1-.778-.6A16.985,16.985,0,0,0,50.5,29.142a.8.8,0,0,1,.122-.978l3.088-3.088a.369.369,0,0,0,0-.52L49.1,19.945a.369.369,0,0,0-.521,0L45.49,23.032a.8.8,0,0,1-.977.123A17.033,17.033,0,0,0,40,21.286a.8.8,0,0,1-.605-.778V16.141a.368.368,0,0,0-.367-.369H35.514a.8.8,0,0,1,0-1.6h3.511A1.974,1.974,0,0,1,41,16.141V19.9a18.679,18.679,0,0,1,3.792,1.569l2.654-2.654a1.976,1.976,0,0,1,2.789,0l4.611,4.612a1.974,1.974,0,0,1,0,2.79l-2.654,2.654a18.579,18.579,0,0,1,1.57,3.792h3.754a1.974,1.974,0,0,1,1.973,1.972V41.15a1.976,1.976,0,0,1-1.973,1.973H53.759a18.64,18.64,0,0,1-1.57,3.791l2.654,2.654a1.972,1.972,0,0,1,0,2.789l-4.61,4.612a1.975,1.975,0,0,1-2.79,0l-2.654-2.654A18.692,18.692,0,0,1,41,55.885v3.754a1.974,1.974,0,0,1-1.972,1.972" fill="#fff"/>
          <path id="Trazado_207615" data-name="Trazado 207615" d="M35.764,56.647a.8.8,0,1,1,0-1.6,17.153,17.153,0,1,0,0-34.306.8.8,0,1,1,0-1.6,18.758,18.758,0,1,1,0,37.516" fill="#fff"/>
          <path id="Trazado_207616" data-name="Trazado 207616" d="M35.764,48.51a.8.8,0,1,1,0-1.6,9.019,9.019,0,0,0,3-17.524.8.8,0,0,1,.533-1.513A10.623,10.623,0,0,1,35.764,48.51" fill="#fff"/>
          <path id="Trazado_207617" data-name="Trazado 207617" d="M58.683,61.611h-14.5a.8.8,0,1,1,0-1.6h14.5a.8.8,0,0,1,0,1.6" fill="#fff"/>
        </g>
      </g>
    </g>
  </g>
</svg>
