<svg id="Grupo_147207" data-name="Grupo 147207" xmlns="http://www.w3.org/2000/svg" xmlns:xlink="http://www.w3.org/1999/xlink" width="268.701" height="150.08" viewBox="0 0 268.701 150.08">
  <defs>
    <clipPath id="clip-path">
      <rect id="Rectángulo_38632" data-name="Rectángulo 38632" width="268.701" height="150.08" fill="none"/>
    </clipPath>
    <clipPath id="clip-path-3">
      <rect id="Rectángulo_38626" data-name="Rectángulo 38626" width="1.197" height="2.168" transform="translate(200.767 63.508)" fill="none"/>
    </clipPath>
    <clipPath id="clip-path-4">
      <rect id="Rectángulo_38627" data-name="Rectángulo 38627" width="19.511" height="19.511" transform="translate(205.2 4.016)" fill="none"/>
    </clipPath>
    <clipPath id="clip-path-5">
      <rect id="Rectángulo_38628" data-name="Rectángulo 38628" width="19.368" height="19.369" transform="translate(205.271 4.087)" fill="none"/>
    </clipPath>
  </defs>
  <g id="Grupo_147206" data-name="Grupo 147206" clip-path="url(#clip-path)">
    <g id="Grupo_147205" data-name="Grupo 147205">
      <g id="Grupo_147204" data-name="Grupo 147204" clip-path="url(#clip-path)">
        <path id="Trazado_207618" data-name="Trazado 207618" d="M91.091,35.779V31.561a.747.747,0,0,0-.747-.747H89.258a.685.685,0,0,1-.67-.526,14.934,14.934,0,0,0-1.879-4.56.7.7,0,0,1,.09-.864l.764-.763a.747.747,0,0,0,0-1.057L84.58,20.062a.746.746,0,0,0-1.056,0l-.763.762a.7.7,0,0,1-.863.091,14.919,14.919,0,0,0-4.561-1.881.685.685,0,0,1-.526-.67V17.281a.746.746,0,0,0-.747-.747H71.846a.746.746,0,0,0-.747.747v1.083a.685.685,0,0,1-.526.67,14.937,14.937,0,0,0-4.562,1.88.7.7,0,0,1-.864-.09l-.761-.762a.747.747,0,0,0-1.057,0l-2.982,2.982a.747.747,0,0,0,0,1.057l.762.763a.7.7,0,0,1,.091.863,14.939,14.939,0,0,0-1.879,4.561.685.685,0,0,1-.67.526H57.566a.747.747,0,0,0-.747.747v4.218a.747.747,0,0,0,.747.747h1.085a.685.685,0,0,1,.67.526,14.961,14.961,0,0,0,1.88,4.56.7.7,0,0,1-.091.863l-.763.764a.746.746,0,0,0,0,1.056l2.982,2.983a.747.747,0,0,0,1.057,0l.764-.764a.7.7,0,0,1,.863-.091,14.93,14.93,0,0,0,4.56,1.877.686.686,0,0,1,.526.671v1.088a.747.747,0,0,0,.747.747h4.218a.747.747,0,0,0,.747-.747V48.97a.685.685,0,0,1,.526-.67A14.926,14.926,0,0,0,81.9,46.422a.7.7,0,0,1,.863.091l.765.765a.746.746,0,0,0,1.056,0l2.983-2.983a.746.746,0,0,0,0-1.056l-.764-.764a.7.7,0,0,1-.091-.864,14.918,14.918,0,0,0,1.879-4.559.685.685,0,0,1,.67-.526h1.087A.747.747,0,0,0,91.091,35.779ZM73.954,45.563a11.892,11.892,0,1,1,11.886-11.9A11.89,11.89,0,0,1,73.954,45.563Z" fill="none" stroke="#e7f7fc" stroke-miterlimit="10" stroke-width="0.79"/>
        <path id="Trazado_207619" data-name="Trazado 207619" d="M110.491,50.057V47.183a.509.509,0,0,0-.509-.509h-.74a.466.466,0,0,1-.456-.359,10.176,10.176,0,0,0-1.281-3.107.476.476,0,0,1,.062-.589l.52-.52a.509.509,0,0,0,0-.72l-2.032-2.032a.51.51,0,0,0-.72,0l-.52.52a.474.474,0,0,1-.588.062,10.154,10.154,0,0,0-3.109-1.282.467.467,0,0,1-.358-.457v-.737a.509.509,0,0,0-.509-.51H97.376a.509.509,0,0,0-.509.51v.737a.467.467,0,0,1-.358.457A10.177,10.177,0,0,0,93.4,39.927a.474.474,0,0,1-.589-.061l-.519-.519a.509.509,0,0,0-.72,0L89.54,41.379a.509.509,0,0,0,0,.72l.52.52a.473.473,0,0,1,.061.588,10.18,10.18,0,0,0-1.28,3.108.467.467,0,0,1-.457.359h-.739a.509.509,0,0,0-.509.509v2.874a.509.509,0,0,0,.509.51h.739a.467.467,0,0,1,.457.358,10.182,10.182,0,0,0,1.281,3.108.474.474,0,0,1-.062.588l-.52.52a.509.509,0,0,0,0,.72l2.032,2.033a.509.509,0,0,0,.72,0l.521-.521a.474.474,0,0,1,.588-.062,10.18,10.18,0,0,0,3.108,1.28.466.466,0,0,1,.358.457v.741a.509.509,0,0,0,.509.509h2.875a.509.509,0,0,0,.509-.509v-.742a.466.466,0,0,1,.358-.456,10.154,10.154,0,0,0,3.107-1.28.476.476,0,0,1,.589.062l.521.521a.509.509,0,0,0,.72,0l2.032-2.033a.509.509,0,0,0,0-.72l-.521-.52a.474.474,0,0,1-.061-.589,10.164,10.164,0,0,0,1.28-3.107.467.467,0,0,1,.457-.358h.74a.509.509,0,0,0,.509-.51M98.813,56.268a7.647,7.647,0,1,1,7.643-7.65,7.645,7.645,0,0,1-7.643,7.65" fill="#e7f7fc"/>
        <path id="Trazado_207620" data-name="Trazado 207620" d="M57.755,124.776a1.394,1.394,0,1,1-1.394-1.393,1.393,1.393,0,0,1,1.394,1.393" fill="#bfecff"/>
        <path id="Trazado_207621" data-name="Trazado 207621" d="M244.438,86.7a1.394,1.394,0,1,1-1.393-1.393,1.393,1.393,0,0,1,1.393,1.393" fill="#bfecff"/>
        <path id="Trazado_207622" data-name="Trazado 207622" d="M241.651,36.942a1.394,1.394,0,1,1-1.393-1.393,1.393,1.393,0,0,1,1.393,1.393" fill="#bfecff"/>
        <path id="Trazado_207623" data-name="Trazado 207623" d="M191.03,20.03a.874.874,0,1,1-.874-.874.874.874,0,0,1,.874.874" fill="#bfecff"/>
        <path id="Trazado_207624" data-name="Trazado 207624" d="M61.816,8.387a.874.874,0,1,1-.874-.874.874.874,0,0,1,.874.874" fill="#bfecff"/>
        <path id="Trazado_207625" data-name="Trazado 207625" d="M81.162,62.213a.874.874,0,1,1-.874-.874.874.874,0,0,1,.874.874" fill="#bfecff"/>
        <path id="Trazado_207626" data-name="Trazado 207626" d="M49.1,126.169a.874.874,0,1,1-.874-.874.874.874,0,0,1,.874.874" fill="#bfecff"/>
        <path id="Trazado_207627" data-name="Trazado 207627" d="M224,125.6a1.393,1.393,0,1,1-1.393-1.393A1.393,1.393,0,0,1,224,125.6" fill="#bfecff"/>
        <path id="Trazado_207628" data-name="Trazado 207628" d="M253.627,125.6a1.394,1.394,0,1,1-1.393-1.393,1.393,1.393,0,0,1,1.393,1.393" fill="#bfecff"/>
        <path id="Trazado_207629" data-name="Trazado 207629" d="M87.234,4.587a1.394,1.394,0,1,1-1.393-1.393,1.393,1.393,0,0,1,1.393,1.393" fill="#bfecff"/>
        <path id="Trazado_207630" data-name="Trazado 207630" d="M181.985,67.987a1.865,1.865,0,1,1-1.865-1.865,1.864,1.864,0,0,1,1.865,1.865" fill="#bfecff"/>
        <path id="Trazado_207631" data-name="Trazado 207631" d="M44.465,44.931A1.865,1.865,0,1,1,42.6,43.066a1.865,1.865,0,0,1,1.864,1.865" fill="#bfecff"/>
        <path id="Trazado_207632" data-name="Trazado 207632" d="M39.219,17.1H36.874a.273.273,0,0,1-.273-.273V14.481a.273.273,0,0,1,.273-.273h2.345a.273.273,0,0,1,.273.273v2.345a.273.273,0,0,1-.273.273" fill="#fff"/>
        <path id="Trazado_207633" data-name="Trazado 207633" d="M43.086,17.1H40.741a.273.273,0,0,1-.273-.273V14.481a.273.273,0,0,1,.273-.273h2.345a.273.273,0,0,1,.273.273v2.345a.273.273,0,0,1-.273.273" fill="#fff"/>
        <path id="Trazado_207634" data-name="Trazado 207634" d="M46.954,17.1H44.609a.273.273,0,0,1-.273-.273V14.481a.273.273,0,0,1,.273-.273h2.345a.273.273,0,0,1,.273.273v2.345a.273.273,0,0,1-.273.273" fill="#fff"/>
        <path id="Trazado_207635" data-name="Trazado 207635" d="M236.169,118.637h-2.345a.273.273,0,0,1-.273-.273v-2.345a.273.273,0,0,1,.273-.273h2.345a.273.273,0,0,1,.273.273v2.345a.273.273,0,0,1-.273.273" fill="#e7f7fc"/>
        <path id="Trazado_207636" data-name="Trazado 207636" d="M240.037,118.637h-2.345a.273.273,0,0,1-.273-.273v-2.345a.273.273,0,0,1,.273-.273h2.345a.273.273,0,0,1,.273.273v2.345a.273.273,0,0,1-.273.273" fill="#e7f7fc"/>
        <path id="Trazado_207637" data-name="Trazado 207637" d="M243.9,118.637h-2.345a.273.273,0,0,1-.273-.273v-2.345a.273.273,0,0,1,.273-.273H243.9a.273.273,0,0,1,.273.273v2.345a.273.273,0,0,1-.273.273" fill="#e7f7fc"/>
        <path id="Trazado_207638" data-name="Trazado 207638" d="M57.373,117.053H55.028a.273.273,0,0,1-.273-.273v-2.345a.273.273,0,0,1,.273-.273h2.345a.273.273,0,0,1,.273.273v2.345a.273.273,0,0,1-.273.273" fill="#e7f7fc"/>
        <path id="Trazado_207639" data-name="Trazado 207639" d="M61.24,117.053H58.9a.273.273,0,0,1-.273-.273v-2.345a.273.273,0,0,1,.273-.273H61.24a.273.273,0,0,1,.273.273v2.345a.273.273,0,0,1-.273.273" fill="#e7f7fc"/>
        <path id="Trazado_207640" data-name="Trazado 207640" d="M65.108,117.053H62.763a.273.273,0,0,1-.273-.273v-2.345a.273.273,0,0,1,.273-.273h2.345a.273.273,0,0,1,.273.273v2.345a.273.273,0,0,1-.273.273" fill="#e7f7fc"/>
        <path id="Trazado_207641" data-name="Trazado 207641" d="M162.191,141.9H106.51a8.786,8.786,0,0,1-8.786-8.786V9.181A8.786,8.786,0,0,1,106.51.4h55.681a8.786,8.786,0,0,1,8.786,8.786V133.118a8.786,8.786,0,0,1-8.786,8.786" fill="#5295ba"/>
        <path id="Trazado_207642" data-name="Trazado 207642" d="M161.909,139.893H106.791a7.7,7.7,0,0,1-7.7-7.7V9.329a7.7,7.7,0,0,1,7.7-7.7h55.118a7.7,7.7,0,0,1,7.7,7.7V132.2a7.7,7.7,0,0,1-7.7,7.7" fill="#fff"/>
        <path id="Trazado_207643" data-name="Trazado 207643" d="M166.518,9.088V131.813a5.212,5.212,0,0,1-5.212,5.212H107.393a5.212,5.212,0,0,1-5.211-5.212V9.088a5.212,5.212,0,0,1,5.211-5.212h8.991a1.317,1.317,0,0,1,1.178.728l.955,1.906a2.576,2.576,0,0,0,2.309,1.43h27.047a2.576,2.576,0,0,0,2.31-1.43l.954-1.906a1.32,1.32,0,0,1,1.179-.728h8.99a5.212,5.212,0,0,1,5.212,5.212" fill="#e7f7fc"/>
        <path id="Trazado_207644" data-name="Trazado 207644" d="M145.7,5.71H123.917a.917.917,0,0,1,0-1.834H145.7a.917.917,0,0,1,0,1.834" fill="#e7f7fc"/>
        <rect id="Rectángulo_38607" data-name="Rectángulo 38607" width="55.371" height="24.013" rx="3.448" transform="translate(106.037 108.752)" fill="none" stroke="#85d1d0" stroke-linecap="round" stroke-linejoin="round" stroke-width="1" stroke-dasharray="2.837 2.837"/>
        <rect id="Rectángulo_38608" data-name="Rectángulo 38608" width="29.021" height="16.86" rx="2.487" transform="translate(128.969 56.979)" fill="none" stroke="#85d1d0" stroke-linecap="round" stroke-linejoin="round" stroke-width="1" stroke-dasharray="2.837 2.837"/>
        <path id="Trazado_207645" data-name="Trazado 207645" d="M160.681,104.758H111.016a2.964,2.964,0,0,1-2.963-2.963V80.847a2.964,2.964,0,0,1,2.963-2.963h49.665a2.963,2.963,0,0,1,2.963,2.963v20.948a2.963,2.963,0,0,1-2.963,2.963" fill="#60909b"/>
        <path id="Trazado_207646" data-name="Trazado 207646" d="M161.408,78.668V99.627a2.956,2.956,0,0,1-2.959,2.955H109a2.956,2.956,0,0,1-2.959-2.955V78.668A2.96,2.96,0,0,1,109,75.709h49.454a2.959,2.959,0,0,1,2.959,2.959" fill="#9fe5f4"/>
        <path id="Trazado_207647" data-name="Trazado 207647" d="M125.165,100.4H110.6a2,2,0,0,1-2-2V83.828a2,2,0,0,1,2-2h14.569a2,2,0,0,1,2,2V98.4a2,2,0,0,1-2,2" fill="#fff"/>
        <path id="Trazado_207648" data-name="Trazado 207648" d="M142.432,84.178H129.6a.632.632,0,1,1,0-1.263h12.831a.632.632,0,1,1,0,1.263" fill="#c7f2f9"/>
        <path id="Trazado_207649" data-name="Trazado 207649" d="M136.585,86.7H129.6a.632.632,0,1,1,0-1.263h6.984a.632.632,0,1,1,0,1.263" fill="#c7f2f9"/>
        <path id="Trazado_207650" data-name="Trazado 207650" d="M158.054,86.7h-18.9a.632.632,0,1,1,0-1.263h18.9a.632.632,0,1,1,0,1.263" fill="#c7f2f9"/>
        <path id="Trazado_207651" data-name="Trazado 207651" d="M140.407,89.223H129.6a.632.632,0,1,1,0-1.263h10.806a.632.632,0,1,1,0,1.263" fill="#c7f2f9"/>
        <path id="Trazado_207652" data-name="Trazado 207652" d="M149.579,89.223h-6.793a.632.632,0,1,1,0-1.263h6.793a.632.632,0,1,1,0,1.263" fill="#c7f2f9"/>
        <path id="Trazado_207653" data-name="Trazado 207653" d="M158.054,89.223H151.8a.632.632,0,1,1,0-1.263h6.256a.632.632,0,1,1,0,1.263" fill="#c7f2f9"/>
        <path id="Trazado_207654" data-name="Trazado 207654" d="M158.054,91.745H129.6a.632.632,0,0,1,0-1.263h28.453a.632.632,0,1,1,0,1.263" fill="#c7f2f9"/>
        <path id="Trazado_207655" data-name="Trazado 207655" d="M145.26,94.267H129.6a.632.632,0,1,1,0-1.263H145.26a.632.632,0,1,1,0,1.263" fill="#c7f2f9"/>
        <path id="Trazado_207656" data-name="Trazado 207656" d="M158.054,94.267H147.785a.632.632,0,0,1,0-1.263h10.269a.632.632,0,1,1,0,1.263" fill="#c7f2f9"/>
        <path id="Trazado_207657" data-name="Trazado 207657" d="M138.8,96.79h-9.2a.632.632,0,0,1,0-1.263h9.2a.632.632,0,1,1,0,1.263" fill="#c7f2f9"/>
        <path id="Trazado_207658" data-name="Trazado 207658" d="M150.492,96.79h-9.2a.632.632,0,0,1,0-1.263h9.2a.632.632,0,1,1,0,1.263" fill="#c7f2f9"/>
        <path id="Trazado_207659" data-name="Trazado 207659" d="M158.054,96.79h-5.339a.632.632,0,0,1,0-1.263h5.339a.632.632,0,1,1,0,1.263" fill="#c7f2f9"/>
        <path id="Trazado_207660" data-name="Trazado 207660" d="M142.432,99.312H129.6a.631.631,0,1,1,0-1.263h12.831a.631.631,0,1,1,0,1.263" fill="#c7f2f9"/>
        <path id="Trazado_207661" data-name="Trazado 207661" d="M158.054,84.178H145.223a.632.632,0,1,1,0-1.263h12.831a.632.632,0,1,1,0,1.263" fill="#c7f2f9"/>
        <path id="Trazado_207662" data-name="Trazado 207662" d="M161.408,78.668v.881H106.036v-.881A2.96,2.96,0,0,1,109,75.709h49.454a2.959,2.959,0,0,1,2.959,2.959" fill="#4bbdce"/>
        <path id="Trazado_207663" data-name="Trazado 207663" d="M150.971,77.7a.686.686,0,1,1-.686-.686.686.686,0,0,1,.686.686" fill="#e7f7fc"/>
        <path id="Trazado_207664" data-name="Trazado 207664" d="M154.481,77.7a.686.686,0,1,1-.686-.686.686.686,0,0,1,.686.686" fill="#e7f7fc"/>
        <path id="Trazado_207665" data-name="Trazado 207665" d="M157.991,77.7a.686.686,0,1,1-.686-.686.686.686,0,0,1,.686.686" fill="#e7f7fc"/>
        <path id="Rectángulo_38609" data-name="Rectángulo 38609" d="M2.943,0H13.9a2.943,2.943,0,0,1,2.943,2.943V13.9A2.942,2.942,0,0,1,13.9,16.844H2.943A2.943,2.943,0,0,1,0,13.9V2.943A2.943,2.943,0,0,1,2.943,0Z" transform="translate(109.278 56.995)" fill="none" stroke="#65b4d6" stroke-miterlimit="10" stroke-width="0.896"/>
        <path id="Trazado_207666" data-name="Trazado 207666" d="M115.073,62.981l-2.427,2.427,2.446,2.446" fill="none" stroke="#65b4d6" stroke-linecap="round" stroke-linejoin="round" stroke-width="1.672"/>
        <path id="Trazado_207667" data-name="Trazado 207667" d="M120.328,62.981l2.427,2.427-2.446,2.446" fill="none" stroke="#65b4d6" stroke-linecap="round" stroke-linejoin="round" stroke-width="1.672"/>
        <line id="Línea_165" data-name="Línea 165" x1="2.273" y2="4.873" transform="translate(116.564 62.981)" fill="none" stroke="#65b4d6" stroke-linecap="round" stroke-linejoin="round" stroke-width="1.672"/>
        <path id="Trazado_207668" data-name="Trazado 207668" d="M161.408,15.881V50.149a3.366,3.366,0,0,1-3.366,3.367H109.4a3.369,3.369,0,0,1-3.367-3.367V15.881a3.368,3.368,0,0,1,3.367-3.366h48.639a3.365,3.365,0,0,1,3.366,3.366" fill="#c7f2f9"/>
        <path id="Trazado_207669" data-name="Trazado 207669" d="M158.219,23.342a8.025,8.025,0,1,1-8.025-8.025,8.025,8.025,0,0,1,8.025,8.025" fill="#f4feff"/>
        <path id="Trazado_207670" data-name="Trazado 207670" d="M138.585,53.515H109.4a3.367,3.367,0,0,1-3.366-3.366v-5.4l12.77-22.119a1.734,1.734,0,0,1,3,0l9.642,16.7,7.161,12.4a1.7,1.7,0,0,1-.029,1.778" fill="#fff"/>
        <path id="Trazado_207671" data-name="Trazado 207671" d="M151.17,53.515H123.264l8.19-14.181,4.411-7.643a1.561,1.561,0,0,1,2.7,0Z" fill="#f4feff"/>
        <rect id="Rectángulo_38610" data-name="Rectángulo 38610" width="21.513" height="32.331" transform="translate(185.007 117.192)" fill="#5498bc"/>
        <rect id="Rectángulo_38611" data-name="Rectángulo 38611" width="8.237" height="32.331" transform="translate(206.52 117.192)" fill="#65b4d6"/>
        <rect id="Rectángulo_38612" data-name="Rectángulo 38612" width="6.048" height="1.032" transform="translate(207.699 118.433)" fill="#c7f2f9"/>
        <rect id="Rectángulo_38613" data-name="Rectángulo 38613" width="6.048" height="1.032" transform="translate(207.699 120.65)" fill="#c7f2f9"/>
        <rect id="Rectángulo_38614" data-name="Rectángulo 38614" width="6.048" height="1.032" transform="translate(207.699 122.866)" fill="#c7f2f9"/>
        <rect id="Rectángulo_38615" data-name="Rectángulo 38615" width="6.048" height="1.032" transform="translate(207.699 125.083)" fill="#c7f2f9"/>
        <rect id="Rectángulo_38616" data-name="Rectángulo 38616" width="6.048" height="1.032" transform="translate(207.699 127.3)" fill="#c7f2f9"/>
        <rect id="Rectángulo_38617" data-name="Rectángulo 38617" width="6.048" height="1.032" transform="translate(207.699 129.516)" fill="#c7f2f9"/>
        <rect id="Rectángulo_38618" data-name="Rectángulo 38618" width="6.048" height="1.032" transform="translate(207.699 131.733)" fill="#c7f2f9"/>
        <rect id="Rectángulo_38619" data-name="Rectángulo 38619" width="6.048" height="1.032" transform="translate(207.699 133.949)" fill="#c7f2f9"/>
        <rect id="Rectángulo_38620" data-name="Rectángulo 38620" width="6.048" height="1.032" transform="translate(207.699 136.166)" fill="#c7f2f9"/>
        <rect id="Rectángulo_38621" data-name="Rectángulo 38621" width="6.048" height="1.032" transform="translate(207.699 138.383)" fill="#c7f2f9"/>
        <rect id="Rectángulo_38622" data-name="Rectángulo 38622" width="6.048" height="1.032" transform="translate(207.699 140.599)" fill="#c7f2f9"/>
        <rect id="Rectángulo_38623" data-name="Rectángulo 38623" width="6.048" height="1.032" transform="translate(207.699 142.816)" fill="#c7f2f9"/>
        <rect id="Rectángulo_38624" data-name="Rectángulo 38624" width="6.048" height="1.032" transform="translate(207.699 145.033)" fill="#c7f2f9"/>
        <rect id="Rectángulo_38625" data-name="Rectángulo 38625" width="6.048" height="1.032" transform="translate(207.699 147.249)" fill="#c7f2f9"/>
        <path id="Trazado_207672" data-name="Trazado 207672" d="M181.512,149.523h10.934a5.966,5.966,0,0,0-.713-4.359s-.881.706-3.517.229a11.723,11.723,0,0,1-1.859,1.3c-.764.369-5.14,1.229-4.845,2.831" fill="#281b23"/>
        <path id="Trazado_207673" data-name="Trazado 207673" d="M182.274,118.693c.706,4.214,3.965,18.47,5.366,26.892a12.859,12.859,0,0,0,4.441-.226c-.128-2.937-.38-9.962-.351-13.042.049-5.207.293-12.072-2-15.84l-7.707.607c.047.406.09.737.127.974s.08.437.122.635" fill="#0b5445"/>
        <path id="Trazado_207674" data-name="Trazado 207674" d="M161.735,149.523h10.934a5.966,5.966,0,0,0-.713-4.359s-.881.706-3.517.229a11.722,11.722,0,0,1-1.859,1.3c-.764.369-5.14,1.229-4.845,2.831" fill="#281b23"/>
        <path id="Trazado_207675" data-name="Trazado 207675" d="M168.123,145.338a12.539,12.539,0,0,0,4.319.386c.582-3.385,1.5-10.833,2.326-14.325,1.283-5.426,2.538-12.889,1.666-15.552l-7.581-1.9c-.025.24-.642,23.081-.73,31.395" fill="#0c3526"/>
        <path id="Trazado_207676" data-name="Trazado 207676" d="M198.293,106.173h0c-.152-1.5-.328-2.592-.328-2.592l-8.469,2.072-7.2,1.64c-2.667.594-5.889,1.309-8.729,1.951-3.188.724-5.3,3.146-4.605,6.337l.8,3.872c4.458-.061,25.419-2.07,27.212-2.976,2.025-1.023,2.635-4.639,1.316-10.3" fill="#0c3526"/>
        <path id="Trazado_207677" data-name="Trazado 207677" d="M210.936,106.173h0a11.693,11.693,0,0,0-.883-3.106l-7.914,2.586-7.2,1.64c-2.667.594-5.889,1.309-8.729,1.951-3.188.724-5.3,3.146-4.6,6.337l.8,3.872c4.458-.061,23.092-.71,27.212-2.976,1.988-1.093,2.635-4.639,1.316-10.3" fill="#0b5445"/>
        <path id="Trazado_207678" data-name="Trazado 207678" d="M187.231,94.035s3.762-1.7,4.8,0a2.662,2.662,0,0,1-1.108,3.394,87.852,87.852,0,0,1-15.376,5.5,16.586,16.586,0,0,0-.763-1.952,36,36,0,0,0,6.121-3.417,39.027,39.027,0,0,1,6.329-3.533" fill="#e5a8cc"/>
        <path id="Trazado_207679" data-name="Trazado 207679" d="M188.171,82.287l-3.224,12.877s.333,3.256,3.621,1.658,5.466-11.857,5.466-11.857Z" fill="#e5a8cc"/>
        <path id="Trazado_207680" data-name="Trazado 207680" d="M193.626,89.49c-.4-.1-.78-.2-1.147-.312s-.733-.225-1.073-.344a18.1,18.1,0,0,1-4.719-2.311,33.826,33.826,0,0,1,3.155-8.851,1.166,1.166,0,0,0,.078-.138L190,77.4a8.063,8.063,0,0,1,2.243-2.334l.27-.188L192.9,81.6l.064.693Z" fill="#fff"/>
        <path id="Trazado_207681" data-name="Trazado 207681" d="M193.626,89.49c-.4-.1-.78-.2-1.147-.312s-.733-.225-1.073-.344c.644-4.529,1.225-7.374,1.225-7.374l.33.83Z" fill="#d4f2e6"/>
        <path id="Trazado_207682" data-name="Trazado 207682" d="M212.658,77.864c-.078,1.99-.427,5.187-.729,8.4-.1,1.018-.188,2.041-.266,3.027-.055.615-.982,3.894-1.018,4.481-.165,2.806-1.541,4.907-.239,9.181a6.731,6.731,0,0,1,.39,1.972c0,.294-.381.6-.532.683a8.968,8.968,0,0,1-2.921.7h-.005a75.916,75.916,0,0,1-8.108.371c-2.8,0-7.008-.445-7.54-1.151-.486-.647-.036-1.587.193-2.885,1.032-5.856.665-8.911.6-13.139,0-.105,0-.211,0-.321-.105-6.522-.536-12.1-.234-14.116l.271-.188q.667-.455,1.3-.812c.037-.018.083-.046.129-.073.128-.074.261-.142.385-.211a1.345,1.345,0,0,1,.147-.074,31.953,31.953,0,0,1,3.127-1.233c.1-.032.193-.064.271-.087.748-.046,1.559-.055,2.435-.032.761.022,1.926.123,3.192.288h.005a32.966,32.966,0,0,1,4.237.794.134.134,0,0,1,.023.009,8.716,8.716,0,0,1,3.334,2.334,11.269,11.269,0,0,1,1.555,2.087" fill="#fff"/>
        <path id="Trazado_207683" data-name="Trazado 207683" d="M210.406,102.95a6.731,6.731,0,0,1,.39,1.972c0,.294-.381.6-.532.683a8.947,8.947,0,0,1-2.922.7,2.068,2.068,0,0,0,1.463-1.683,41.239,41.239,0,0,1-.5-6.512c.193-2.339.573-6.063-.151-9.044s-1.413-6.9-1.413-6.9l4.086,2.467s.528.739,1.106,1.633c-.1,1.018-.188,2.041-.266,3.027-.055.614-2.559,9.388-1.257,13.662" fill="#d4f2e6"/>
        <path id="Trazado_207684" data-name="Trazado 207684" d="M192.43,60.628s.354,4.274,1.771,4.561,1.069-1.529,1.069-1.529l-.2-2.029Z" fill="#0b5445"/>
        <path id="Trazado_207685" data-name="Trazado 207685" d="M198.964,76.116c-2.775-.33-1.738-3.027-1.358-3.646.1-.032.578-.179.615-.2l.009,0a.767.767,0,0,0,.216-.321,6.569,6.569,0,0,0,.137-2.22v-.261c.046-.17.092-.331.129-.482l1.458-1.147,3.087-2.426s-.821,4.059-.161,6.618a.965.965,0,0,0,.408.615s.005,0,.005,0a.744.744,0,0,0,.307.11c.757.358-.3,3.907-4.852,3.366" fill="#e5a8cc"/>
        <path id="Trazado_207686" data-name="Trazado 207686" d="M201.409,67.987a4.6,4.6,0,0,1-2.966,3.954,6.507,6.507,0,0,0,.139-2.216l1.231-.967Z" fill="#cc93b6"/>
        <path id="Trazado_207687" data-name="Trazado 207687" d="M193.107,61.236s.641,8.867,3.036,9.621a6.227,6.227,0,0,0,5.24-2.659c.631-.849,1.429-1.04,1.689-2.065.423-1.665,1.02-4.736.259-6.586-1.084-2.636-10.121-4.729-10.224,1.689" fill="#e5a8cc"/>
        <path id="Trazado_207688" data-name="Trazado 207688" d="M203.368,58.084a2.608,2.608,0,0,0-1.67-2.213c-1.623-.759-5-.432-8.473.344-.815.182-1.838-.318-2.408.077-.688.477,0,2.658,0,2.658,1.341,4.062,6.277,2.741,7.761,2.24.352,1.046.307,2.5,1.187,3.25a2.876,2.876,0,0,0,2.257.292c.109.207.518.39.6.674a14.341,14.341,0,0,1,.23,3.58l.418-.2c.055-.31,4.384-10.565.1-10.7" fill="#0b5445"/>
        <path id="Trazado_207689" data-name="Trazado 207689" d="M195.563,64.223a1.086,1.086,0,1,1-1.265-1.157A1.232,1.232,0,0,1,195.563,64.223Z" fill="none" stroke="#fff" stroke-miterlimit="10" stroke-width="0.501"/>
        <path id="Trazado_207690" data-name="Trazado 207690" d="M198.456,63.682a1.086,1.086,0,1,1-1.265-1.157A1.232,1.232,0,0,1,198.456,63.682Z" fill="none" stroke="#fff" stroke-miterlimit="10" stroke-width="0.501"/>
        <path id="Trazado_207691" data-name="Trazado 207691" d="M195.563,64.223s.127-.206.793-.148" fill="none" stroke="#fff" stroke-miterlimit="10" stroke-width="0.501"/>
        <line id="Línea_166" data-name="Línea 166" y1="0.395" x2="2.473" transform="translate(198.481 63.464)" fill="none" stroke="#fff" stroke-miterlimit="10" stroke-width="0.501"/>
        <path id="Trazado_207692" data-name="Trazado 207692" d="M201.136,66.6c1.7.652,2.235-3.539.618-3.725-1.227-.141-1.277,1.57-1.277,1.57s-.314,1.782.659,2.155" fill="#e5a8cc"/>
        <g id="Grupo_147197" data-name="Grupo 147197" opacity="0.5">
          <g id="Grupo_147196" data-name="Grupo 147196">
            <g id="Grupo_147195" data-name="Grupo 147195" clip-path="url(#clip-path-3)">
              <path id="Trazado_207693" data-name="Trazado 207693" d="M201.7,63.509a3.468,3.468,0,0,0-.207,1.035,6.884,6.884,0,0,1-.154,1.132,1.278,1.278,0,0,1-.567-1.2.991.991,0,0,1,.928-.969" fill="#cc93b6"/>
              <path id="Trazado_207694" data-name="Trazado 207694" d="M201.964,64.305a.687.687,0,0,0-.486.736L200.8,64.8a1.054,1.054,0,0,1,1.168-.492h0" fill="#cc93b6"/>
            </g>
          </g>
        </g>
        <path id="Trazado_207695" data-name="Trazado 207695" d="M217.511,95.732v0c-.749.869-3.589,1.5-4.956.3a7.951,7.951,0,0,1-1.391-2.642,82,82,0,0,1-2.358-7.984l6.356-3.248s.818,3.666,1.523,7.151c0,0,.006.035.019.1.229,1.116.442,2.214.61,3.156a.4.4,0,0,1,.012.075,13.338,13.338,0,0,1,.185,3.091" fill="#e5a8cc"/>
        <path id="Trazado_207696" data-name="Trazado 207696" d="M206.4,80.957a76.328,76.328,0,0,0,2.543,7.39,10.082,10.082,0,0,0,4.666-.564,8.6,8.6,0,0,0,2.971-1.93s-1.28-3.6-2.428-6.181a12.526,12.526,0,0,0-2.1-3.645,10.123,10.123,0,0,0-2.524-1.877Z" fill="#fff"/>
        <path id="Trazado_207697" data-name="Trazado 207697" d="M214.443,82.624l-3.73-1.609-2.939-7.573s.538.163,1.248.45h0l.1.037a.436.436,0,0,1,.055.024c.634.3,3.093,1.746,4.794,7.01.014.045.027.089.041.133.181.607.314,1.1.385,1.347.007.024.014.048.021.075s.017.072.027.106" fill="#fff"/>
        <path id="Trazado_207698" data-name="Trazado 207698" d="M217.511,95.732v0c-.055.466-.183.8-.413.919-.037.023-.559.334-.6.357a31.7,31.7,0,0,1-3.941,2.038,142.7,142.7,0,0,1-13.759,4.944,16.108,16.108,0,0,0-.841-1.921,36.055,36.055,0,0,0,5.973-3.667c2.965-2.263,7.229-5.012,7.229-5.012l1.077-1.267s3.829-3.523,4.444-2.814c0,0,.006.035.019.1.091.367.4,1.719.61,3.156a.4.4,0,0,1,.012.075,13.338,13.338,0,0,1,.185,3.091" fill="#e5a8cc"/>
        <path id="Trazado_207699" data-name="Trazado 207699" d="M198.4,101.858a2.371,2.371,0,0,1-1.511.291c-.422-.089-.592-.262-.9-.317a6.952,6.952,0,0,1-1.554-.359c-.412-.2-.572-.224-.558.189s.826.77,1.046.885a2.049,2.049,0,0,1,.526.526c.03.046-1.352.77-1.724.623a1.075,1.075,0,0,0-.048.519c.063.186.348.251.37.344s-.066.284,0,.433.315.148.418.389-.011.245.064.5.4.3.457.426.028.281.163.37a6.252,6.252,0,0,0,1.832-.5c.454-.195,1.667-1.94,3.009-2.536Z" fill="#e5a8cc"/>
        <path id="Trazado_207700" data-name="Trazado 207700" d="M204.756,109.651h-9.67v-.946h9.67a.473.473,0,1,1,0,.946" fill="#498478"/>
        <path id="Trazado_207701" data-name="Trazado 207701" d="M199.524,109.651H175.312a.643.643,0,0,1-.621-.473L169.735,91.34a.62.62,0,0,1,.6-.786h23.413a1.214,1.214,0,0,1,1.17.89l4.938,17.774a.342.342,0,0,1-.329.433" fill="#498478"/>
        <path id="Trazado_207702" data-name="Trazado 207702" d="M198.648,109.651H174.436a.643.643,0,0,1-.621-.473L168.859,91.34a.62.62,0,0,1,.6-.786h23.413a1.214,1.214,0,0,1,1.17.89l4.938,17.774a.342.342,0,0,1-.329.433" fill="#63dbd6"/>
        <path id="Trazado_207703" data-name="Trazado 207703" d="M102.688,98.125l2.8-2.875a7.5,7.5,0,0,1,.25-1.553,7.124,7.124,0,0,1,.743-1.381,1.012,1.012,0,0,1,.59,0,2.71,2.71,0,0,1,.564-.131,1.661,1.661,0,0,1,.5.159s.419-.028.594-.028a.373.373,0,0,1,.231.049,12.413,12.413,0,0,1,1-1.04c.328-.262.829-.745.977-.743s.2.248.1.51a2.917,2.917,0,0,1-.546.685l-1.277,1.936a2.69,2.69,0,0,0,.334-.16c.117-.073.9-.8.943-.83s.4-.262.6-.029-1.338,2.08-1.586,2.328a13.521,13.521,0,0,1-1.664.965s-1.5,2.691-1.642,2.866a21.484,21.484,0,0,1-3.522-.728" fill="#e4aacf"/>
        <path id="Trazado_207704" data-name="Trazado 207704" d="M105.328,84.852s-1.567,9.075-3.041,9.286c0,0-5.887.237-7.2-6.9-1.138-6.194,3.424-7.514,5.558-7.04s5.139.781,4.681,4.658" fill="#e4aacf"/>
        <path id="Trazado_207705" data-name="Trazado 207705" d="M100.125,92.686a8.3,8.3,0,0,0-1.114,3.805,8.742,8.742,0,0,1-4.712-.814,33.369,33.369,0,0,0,1.368-7.922" fill="#e4aacf"/>
        <path id="Trazado_207706" data-name="Trazado 207706" d="M98.465,78.674c-3.217.711-2.96,2.715-2.96,2.715-1.506.373-1.83.994-1.817,3.774s1.018,6.119,1.573,6.39a14.892,14.892,0,0,0,3.962.19c.263-.1,1.363-2.646,1.107-3.095s.013-2.213.745-2.28.589,1.069.589,1.069l.6-.132.465-1.14c4.251.253,5.35-4.592,5.35-4.592-1.022-.666-6.4-3.61-9.616-2.9" fill="#0b5445"/>
        <path id="Trazado_207707" data-name="Trazado 207707" d="M62.755,140.109l3.253.47-1.078,3.8-3.523-.888a2.29,2.29,0,0,1,.731-3.38,1.188,1.188,0,0,1,.617,0" fill="#e5a8cc"/>
        <path id="Trazado_207708" data-name="Trazado 207708" d="M87.033,130.354l-4.794-14.516s-1.454-.518-2.2,0c0,0-4.994,2.685-4.461,10.343a124.968,124.968,0,0,0,2.114,14.545L64.9,140.253a4.358,4.358,0,0,0-.557,4.317s16.072,4.323,18.337,4.722c1.839.325,3.854.576,4.826-.258,1.713-1.467-.476-18.68-.476-18.68"/>
        <path id="Trazado_207709" data-name="Trazado 207709" d="M77.9,140.109l3.253.47-1.078,3.8-3.523-.888a2.29,2.29,0,0,1,.731-3.38,1.188,1.188,0,0,1,.617,0" fill="#e5a8cc"/>
        <path id="Trazado_207710" data-name="Trazado 207710" d="M76.719,142.1c-.073.748.581,1.421.462,1.608s-2.307,3.854-2.307,3.854,1.651.719,1.385,1.758h-4.18a3.467,3.467,0,0,1-1.065-2.4,12.144,12.144,0,0,1,1.029-3.062c.746-1.437,2.441-4.684,2.441-4.684a2.362,2.362,0,0,1,1.393.027,8.475,8.475,0,0,1,2.022.9s-1,.143-1.18,1.991" fill="#63dbd6"/>
        <path id="Trazado_207711" data-name="Trazado 207711" d="M110.206,145.985c-1.032-3.851-10.743-20.292-14.028-24.732-6.748-2.929-13.939-5.415-13.939-5.415-2.975.71-4.44,6.7-2.753,10.7,1.158,2.741,8.5,9.64,13,13.7L80,140.222a4.153,4.153,0,0,0-.138,4.284s20.75,4.718,22.57,4.984a41.247,41.247,0,0,0,5.9,0s2.734-.263,1.865-3.505" fill="#0b5445"/>
        <path id="Trazado_207712" data-name="Trazado 207712" d="M61.575,142.1c-.074.748.58,1.421.461,1.608s-2.307,3.854-2.307,3.854,1.652.719,1.385,1.758h-4.18a3.467,3.467,0,0,1-1.065-2.4,12.144,12.144,0,0,1,1.029-3.062c.747-1.437,2.442-4.684,2.442-4.684a2.359,2.359,0,0,1,1.392.027,8.475,8.475,0,0,1,2.022.9s-1,.143-1.179,1.991" fill="#63dbd6"/>
        <path id="Trazado_207713" data-name="Trazado 207713" d="M125.828,95.331,119.136,107.1l-4.792-4.777-3.967,5.9,1.152.554-.415.345s9.249,4.5,10.357,3.51,6.272-15.969,6.272-15.969Z" fill="#e4aacf"/>
        <path id="Trazado_207714" data-name="Trazado 207714" d="M115.2,103.072s-1.263,5.329-3.79,7.856l-6.465-2.461s-3,5.046-5.935,8.914c-1.127,1.494-1.5,3.6-2.827,3.872-.082-.028-.16-.053-.243-.074-3.592-1.078-8.893.066-13.267-1.559-4.832-1.8-3.894-2.811-3.894-2.811a62.345,62.345,0,0,0,4.593-10.873,66.707,66.707,0,0,0,1.6-6.555A7.548,7.548,0,0,1,91.321,93.3c.037,0,.07-.012.107-.016,3.663-.465,13.251.666,15.115,1.465s8.655,8.321,8.655,8.321" fill="#63dbd6"/>
        <path id="Trazado_207715" data-name="Trazado 207715" d="M104.942,108.467s-3,5.045-5.934,8.914c-1.128,1.494-1.5,3.6-2.828,3.872.581-.205,1.544-3.259,1.885-3.946s.893-1.371,2.079-3.77,2.784-5.926,2.784-5.926Z" fill="#79efe4"/>
        <path id="Trazado_207716" data-name="Trazado 207716" d="M92.481,140.237a6.972,6.972,0,0,1,6.449.927,18.661,18.661,0,0,1-6.449-.927"/>
        <path id="Trazado_207717" data-name="Trazado 207717" d="M130.829,91a6.277,6.277,0,0,0-1.125.812l.382-.731a7.206,7.206,0,0,0,.686-.755c.181-.267.086-.535-.058-.549a5.666,5.666,0,0,0-1.054.754l.077-.147a7.2,7.2,0,0,0,.686-.755c.182-.268.086-.535-.057-.549a9.02,9.02,0,0,0-1.3.96l-.565.757.426-.828a3.624,3.624,0,0,0,.374-.574c.149-.3.041-.391-.042-.49s-.864.482-1.064.715a12.083,12.083,0,0,0-.881,1.309l-.653,1.351c-.042-.391-.107-1.061-.153-1.488-.067-.615-.624-.761-.643-.462a15.62,15.62,0,0,0-.26,2.569c.071.8.2,1.322.254,1.771a3.527,3.527,0,0,1-.416,1.346s1.863,1.156,2.171.81a14.432,14.432,0,0,0,1.279-1.632,8.621,8.621,0,0,0,.729-1.647L130.2,92.3a7.092,7.092,0,0,0,.686-.755c.182-.267.086-.535-.057-.549" fill="#e4aacf"/>
        <path id="Trazado_207718" data-name="Trazado 207718" d="M237.724,53.517H215.887a2.535,2.535,0,0,0-2.535,2.534V61.21a2.535,2.535,0,0,0,2.215,2.514.365.365,0,0,1,.32.363v2.824a.167.167,0,0,0,.3.1l2.224-3.11a.368.368,0,0,1,.3-.154h19.009a2.534,2.534,0,0,0,2.534-2.534V56.051A2.534,2.534,0,0,0,237.724,53.517Z" fill="none" stroke="#fff" stroke-miterlimit="10" stroke-width="0.896"/>
        <path id="Trazado_207719" data-name="Trazado 207719" d="M219.236,58.623a.834.834,0,1,1-.834-.834A.834.834,0,0,1,219.236,58.623Z" fill="none" stroke="#fff" stroke-miterlimit="10" stroke-width="0.896"/>
        <path id="Trazado_207720" data-name="Trazado 207720" d="M223.438,58.623a.835.835,0,1,1-.834-.834A.834.834,0,0,1,223.438,58.623Z" fill="none" stroke="#fff" stroke-miterlimit="10" stroke-width="0.896"/>
        <path id="Trazado_207721" data-name="Trazado 207721" d="M227.639,58.623a.835.835,0,1,1-.834-.834A.834.834,0,0,1,227.639,58.623Z" fill="none" stroke="#fff" stroke-miterlimit="10" stroke-width="0.896"/>
        <path id="Trazado_207722" data-name="Trazado 207722" d="M231.841,58.623a.835.835,0,1,1-.834-.834A.834.834,0,0,1,231.841,58.623Z" fill="none" stroke="#fff" stroke-miterlimit="10" stroke-width="0.896"/>
        <path id="Trazado_207723" data-name="Trazado 207723" d="M236.042,58.623a.835.835,0,1,1-.834-.834A.834.834,0,0,1,236.042,58.623Z" fill="none" stroke="#fff" stroke-miterlimit="10" stroke-width="0.896"/>
        <path id="Trazado_207724" data-name="Trazado 207724" d="M65.168,76.133H87a2.535,2.535,0,0,1,2.535,2.534v5.159a2.535,2.535,0,0,1-2.215,2.514A.365.365,0,0,0,87,86.7v2.824a.167.167,0,0,1-.3.1l-2.224-3.11a.368.368,0,0,0-.3-.154H65.168a2.535,2.535,0,0,1-2.534-2.534V78.667A2.535,2.535,0,0,1,65.168,76.133Z" fill="none" stroke="#fff" stroke-miterlimit="10" stroke-width="0.896"/>
        <path id="Trazado_207725" data-name="Trazado 207725" d="M83.655,81.239a.834.834,0,1,0,.834-.834A.834.834,0,0,0,83.655,81.239Z" fill="none" stroke="#fff" stroke-miterlimit="10" stroke-width="0.896"/>
        <path id="Trazado_207726" data-name="Trazado 207726" d="M79.454,81.239a.834.834,0,1,0,.834-.834A.834.834,0,0,0,79.454,81.239Z" fill="none" stroke="#fff" stroke-miterlimit="10" stroke-width="0.896"/>
        <path id="Trazado_207727" data-name="Trazado 207727" d="M75.252,81.239a.834.834,0,1,0,.834-.834A.834.834,0,0,0,75.252,81.239Z" fill="none" stroke="#fff" stroke-miterlimit="10" stroke-width="0.896"/>
        <path id="Trazado_207728" data-name="Trazado 207728" d="M71.051,81.239a.834.834,0,1,0,.834-.834A.834.834,0,0,0,71.051,81.239Z" fill="none" stroke="#fff" stroke-miterlimit="10" stroke-width="0.896"/>
        <path id="Trazado_207729" data-name="Trazado 207729" d="M66.849,81.239a.834.834,0,1,0,.834-.834A.834.834,0,0,0,66.849,81.239Z" fill="none" stroke="#fff" stroke-miterlimit="10" stroke-width="0.896"/>
        <path id="Trazado_207730" data-name="Trazado 207730" d="M197.05,41.616h-39.8a3.975,3.975,0,0,1,0-7.949h39.8a3.975,3.975,0,1,1,0,7.949" fill="#fff"/>
        <path id="Trazado_207731" data-name="Trazado 207731" d="M197.05,41.616h-39.8a3.975,3.975,0,0,1,0-7.949h39.8a3.975,3.975,0,1,1,0,7.949Z" fill="none" stroke="#65b4d6" stroke-miterlimit="10" stroke-width="0.896"/>
        <path id="Trazado_207732" data-name="Trazado 207732" d="M196.467,37.367a2.113,2.113,0,1,1-2.114-2.114A2.114,2.114,0,0,1,196.467,37.367Z" fill="none" stroke="#65b4d6" stroke-miterlimit="10" stroke-width="1.672"/>
        <line id="Línea_167" data-name="Línea 167" x2="1.167" y2="1.167" transform="translate(195.848 38.861)" fill="none" stroke="#65b4d6" stroke-linecap="round" stroke-miterlimit="10" stroke-width="1.672"/>
        <path id="Trazado_207733" data-name="Trazado 207733" d="M136.758,149.714H126.745a3.172,3.172,0,0,1-3.172-3.172V136.529a3.172,3.172,0,0,1,3.172-3.172h10.013a3.172,3.172,0,0,1,3.172,3.172v10.013a3.172,3.172,0,0,1-3.172,3.172" fill="#2c8091"/>
        <path id="Trazado_207734" data-name="Trazado 207734" d="M133.777,149.714H123.764a3.172,3.172,0,0,1-3.172-3.172V136.529a3.172,3.172,0,0,1,3.172-3.172h10.013a3.172,3.172,0,0,1,3.172,3.172v10.013a3.172,3.172,0,0,1-3.172,3.172" fill="#65b4d6"/>
        <path id="Trazado_207735" data-name="Trazado 207735" d="M126.839,138.448l4.695,2.711a.435.435,0,0,1,0,.753l-4.695,2.711a.435.435,0,0,1-.652-.377v-5.421a.435.435,0,0,1,.652-.377" fill="#fff"/>
        <path id="Trazado_207736" data-name="Trazado 207736" d="M240.334,149.714H227.245a4.147,4.147,0,0,1-4.147-4.147V132.478a4.147,4.147,0,0,1,4.147-4.147h13.089a4.147,4.147,0,0,1,4.147,4.147v13.089a4.147,4.147,0,0,1-4.147,4.147" fill="#2c8091"/>
        <path id="Trazado_207737" data-name="Trazado 207737" d="M236.437,149.714H223.348a4.147,4.147,0,0,1-4.147-4.147V132.478a4.147,4.147,0,0,1,4.147-4.147h13.089a4.147,4.147,0,0,1,4.147,4.147v13.089a4.147,4.147,0,0,1-4.147,4.147" fill="#65b4d6"/>
        <path id="Trazado_207738" data-name="Trazado 207738" d="M232.462,133.578a2.569,2.569,0,1,1-2.569-2.569,2.569,2.569,0,0,1,2.569,2.569" fill="#fff"/>
        <path id="Trazado_207739" data-name="Trazado 207739" d="M235.248,142.276v3.792a.621.621,0,0,1-.62.621h-9.471a.62.62,0,0,1-.62-.621v-3.792a5.355,5.355,0,1,1,10.711,0" fill="#fff"/>
        <path id="Trazado_207740" data-name="Trazado 207740" d="M182.074,46.194h-8.408a.632.632,0,0,1,0-1.263h8.408a.632.632,0,0,1,0,1.263" fill="#f4feff"/>
        <path id="Trazado_207741" data-name="Trazado 207741" d="M190.484,46.194H184.4a.632.632,0,1,1,0-1.263h6.084a.632.632,0,1,1,0,1.263" fill="#f4feff"/>
        <path id="Trazado_207742" data-name="Trazado 207742" d="M177.238,48.972h-3.572a.632.632,0,0,1,0-1.263h3.572a.632.632,0,1,1,0,1.263" fill="#f4feff"/>
        <path id="Trazado_207743" data-name="Trazado 207743" d="M190.484,48.972H179.359a.632.632,0,1,1,0-1.263h11.125a.632.632,0,1,1,0,1.263" fill="#f4feff"/>
        <path id="Trazado_207744" data-name="Trazado 207744" d="M184.749,51.75H173.667a.632.632,0,1,1,0-1.263h11.082a.632.632,0,0,1,0,1.263" fill="#f4feff"/>
        <path id="Trazado_207745" data-name="Trazado 207745" d="M190.484,51.75h-3.572a.632.632,0,1,1,0-1.263h3.572a.632.632,0,1,1,0,1.263" fill="#f4feff"/>
        <path id="Trazado_207746" data-name="Trazado 207746" d="M75.616,110.719H46.267a1.573,1.573,0,0,1-1.573-1.573V94.33a1.574,1.574,0,0,1,1.573-1.573H75.616a1.573,1.573,0,0,1,1.573,1.573v14.816a1.573,1.573,0,0,1-1.573,1.573" fill="#2c8091"/>
        <line id="Línea_168" data-name="Línea 168" x2="29.733" transform="translate(46.075 95.184)" fill="none" stroke="#fff" stroke-linecap="round" stroke-miterlimit="10" stroke-width="0.896"/>
        <path id="Trazado_207747" data-name="Trazado 207747" d="M75.384,93.95a.36.36,0,1,1-.36-.36.36.36,0,0,1,.36.36" fill="#fff"/>
        <path id="Trazado_207748" data-name="Trazado 207748" d="M73.506,93.95a.36.36,0,1,1-.36-.36.36.36,0,0,1,.36.36" fill="#fff"/>
        <path id="Trazado_207749" data-name="Trazado 207749" d="M71.629,93.95a.36.36,0,1,1-.36-.36.36.36,0,0,1,.36.36" fill="#fff"/>
        <path id="Trazado_207750" data-name="Trazado 207750" d="M51.618,97.6H46.573a.5.5,0,0,1,0-.995h5.045a.5.5,0,0,1,0,.995" fill="#81d1d0"/>
        <path id="Trazado_207751" data-name="Trazado 207751" d="M51.618,99.9H46.573a.5.5,0,0,1,0-1h5.045a.5.5,0,0,1,0,1" fill="#81d1d0"/>
        <path id="Trazado_207752" data-name="Trazado 207752" d="M51.618,102.2H46.573a.5.5,0,0,1,0-.995h5.045a.5.5,0,0,1,0,.995" fill="#81d1d0"/>
        <path id="Trazado_207753" data-name="Trazado 207753" d="M51.618,104.5H46.573a.5.5,0,0,1,0-1h5.045a.5.5,0,0,1,0,1" fill="#81d1d0"/>
        <path id="Trazado_207754" data-name="Trazado 207754" d="M51.618,106.793H46.573a.5.5,0,0,1,0-1h5.045a.5.5,0,0,1,0,1" fill="#81d1d0"/>
        <path id="Trazado_207755" data-name="Trazado 207755" d="M51.618,109.09H46.573a.5.5,0,0,1,0-.995h5.045a.5.5,0,0,1,0,.995" fill="#81d1d0"/>
        <path id="Trazado_207756" data-name="Trazado 207756" d="M75.311,97.6H53.568a.5.5,0,0,1,0-.995H75.311a.5.5,0,0,1,0,.995" fill="#53b4b7"/>
        <path id="Trazado_207757" data-name="Trazado 207757" d="M75.311,99.9H53.568a.5.5,0,0,1,0-1H75.311a.5.5,0,0,1,0,1" fill="#53b4b7"/>
        <path id="Trazado_207758" data-name="Trazado 207758" d="M75.311,102.2H53.568a.5.5,0,0,1,0-.995H75.311a.5.5,0,0,1,0,.995" fill="#53b4b7"/>
        <path id="Trazado_207759" data-name="Trazado 207759" d="M75.311,104.5H53.568a.5.5,0,0,1,0-1H75.311a.5.5,0,0,1,0,1" fill="#53b4b7"/>
        <path id="Trazado_207760" data-name="Trazado 207760" d="M75.311,106.793H53.568a.5.5,0,0,1,0-1H75.311a.5.5,0,0,1,0,1" fill="#53b4b7"/>
        <path id="Trazado_207761" data-name="Trazado 207761" d="M75.311,109.09H53.568a.5.5,0,0,1,0-.995H75.311a.5.5,0,0,1,0,.995" fill="#53b4b7"/>
        <circle id="Elipse_4066" data-name="Elipse 4066" cx="13.377" cy="13.377" r="13.377" transform="translate(201.578 0.394)" fill="none" stroke="#e7f7fc" stroke-miterlimit="10" stroke-width="0.79"/>
        <path id="Trazado_207762" data-name="Trazado 207762" d="M226.585,13.771a11.63,11.63,0,1,1-11.63-11.63,11.63,11.63,0,0,1,11.63,11.63" fill="#5295ba"/>
        <path id="Trazado_207763" data-name="Trazado 207763" d="M216.014,13.771a1.059,1.059,0,1,1-1.059-1.059,1.059,1.059,0,0,1,1.059,1.059" fill="#fff"/>
        <path id="Trazado_207764" data-name="Trazado 207764" d="M214.84,13.563h0a.331.331,0,0,1-.45-.129l-3.42-6.169a.331.331,0,1,1,.579-.321l3.42,6.169a.331.331,0,0,1-.129.45" fill="#fff"/>
        <path id="Trazado_207765" data-name="Trazado 207765" d="M215.123,13.939h0a.333.333,0,0,1,.468,0l2.959,2.96a.331.331,0,0,1-.468.468l-2.959-2.959a.333.333,0,0,1,0-.469" fill="#fff"/>
        <line id="Línea_169" data-name="Línea 169" y1="1.337" transform="translate(215.026 3.126)" fill="none" stroke="#fff" stroke-linecap="round" stroke-miterlimit="10" stroke-width="2"/>
        <line id="Línea_170" data-name="Línea 170" x2="1.337" transform="translate(224.264 13.842)" fill="none" stroke="#fff" stroke-linecap="round" stroke-miterlimit="10" stroke-width="2"/>
        <line id="Línea_171" data-name="Línea 171" y2="1.337" transform="translate(214.884 23.08)" fill="none" stroke="#fff" stroke-linecap="round" stroke-miterlimit="10" stroke-width="2"/>
        <line id="Línea_172" data-name="Línea 172" x1="1.337" transform="translate(204.309 13.7)" fill="none" stroke="#fff" stroke-linecap="round" stroke-miterlimit="10" stroke-width="2"/>
        <g id="Grupo_147200" data-name="Grupo 147200" opacity="0.5">
          <g id="Grupo_147199" data-name="Grupo 147199">
            <g id="Grupo_147198" data-name="Grupo 147198" clip-path="url(#clip-path-4)">
              <line id="Línea_173" data-name="Línea 173" x1="0.669" y1="1.158" transform="translate(209.693 4.516)" fill="none" stroke="#e7f7fc" stroke-linecap="round" stroke-miterlimit="10" stroke-width="1"/>
              <line id="Línea_174" data-name="Línea 174" y1="0.669" x2="1.158" transform="translate(223.052 8.51)" fill="none" stroke="#e7f7fc" stroke-linecap="round" stroke-miterlimit="10" stroke-width="1"/>
              <line id="Línea_175" data-name="Línea 175" x2="0.669" y2="1.158" transform="translate(219.548 21.868)" fill="none" stroke="#e7f7fc" stroke-linecap="round" stroke-miterlimit="10" stroke-width="1"/>
              <line id="Línea_176" data-name="Línea 176" x1="1.158" y2="0.669" transform="translate(205.7 18.364)" fill="none" stroke="#e7f7fc" stroke-linecap="round" stroke-miterlimit="10" stroke-width="1"/>
            </g>
          </g>
        </g>
        <g id="Grupo_147203" data-name="Grupo 147203" opacity="0.5">
          <g id="Grupo_147202" data-name="Grupo 147202">
            <g id="Grupo_147201" data-name="Grupo 147201" clip-path="url(#clip-path-5)">
              <line id="Línea_177" data-name="Línea 177" x1="1.158" y1="0.669" transform="translate(205.771 8.386)" fill="none" stroke="#e7f7fc" stroke-linecap="round" stroke-miterlimit="10" stroke-width="1"/>
              <line id="Línea_178" data-name="Línea 178" y1="1.158" x2="0.669" transform="translate(219.671 4.587)" fill="none" stroke="#e7f7fc" stroke-linecap="round" stroke-miterlimit="10" stroke-width="1"/>
              <line id="Línea_179" data-name="Línea 179" x2="1.158" y2="0.669" transform="translate(222.981 18.487)" fill="none" stroke="#e7f7fc" stroke-linecap="round" stroke-miterlimit="10" stroke-width="1"/>
              <line id="Línea_180" data-name="Línea 180" x1="0.669" y2="1.158" transform="translate(209.57 21.797)" fill="none" stroke="#e7f7fc" stroke-linecap="round" stroke-miterlimit="10" stroke-width="1"/>
            </g>
          </g>
        </g>
        <path id="Trazado_207766" data-name="Trazado 207766" d="M56.018,81.091H41.328a3.938,3.938,0,0,1-3.938-3.938V62.463a3.938,3.938,0,0,1,3.938-3.938h14.69a3.938,3.938,0,0,1,3.938,3.938v14.69a3.938,3.938,0,0,1-3.938,3.938" fill="#2c8091"/>
        <path id="Trazado_207767" data-name="Trazado 207767" d="M55.052,79.136H38.8a3.156,3.156,0,0,1-3.155-3.155V59.725A3.156,3.156,0,0,1,38.8,56.57H55.052a3.155,3.155,0,0,1,3.155,3.155V75.981a3.155,3.155,0,0,1-3.155,3.155" fill="#a0dbfd"/>
        <rect id="Rectángulo_38629" data-name="Rectángulo 38629" width="22.566" height="22.566" rx="3.155" transform="translate(35.641 56.57)" fill="none" stroke="#e7f7fc" stroke-miterlimit="10" stroke-width="1"/>
        <path id="Trazado_207768" data-name="Trazado 207768" d="M50.832,65.27h-.118V63.977a3.847,3.847,0,1,0-7.694,0V65.27h-.026a1.08,1.08,0,0,0-1.08,1.079v4.872a1.08,1.08,0,0,0,1.08,1.079h7.838a1.079,1.079,0,0,0,1.08-1.079V66.349a1.079,1.079,0,0,0-1.08-1.079m-6.838-1.293a2.873,2.873,0,0,1,5.746,0V65.27H43.994Z" fill="#e7f7fc"/>
        <path id="Trazado_207769" data-name="Trazado 207769" d="M48.18,67.773a1.256,1.256,0,1,0-1.888,1.083.224.224,0,0,1,.114.251l-.219.807a.754.754,0,1,0,1.456,0l-.216-.8a.225.225,0,0,1,.117-.254,1.251,1.251,0,0,0,.636-1.089" fill="#a0dbfd"/>
        <path id="Trazado_207770" data-name="Trazado 207770" d="M51.449,74.009H42.377a.463.463,0,0,1,0-.926h9.072a.463.463,0,0,1,0,.926" fill="#e7f7fc"/>
        <path id="Trazado_207771" data-name="Trazado 207771" d="M51.449,75.578H42.377a.463.463,0,0,1,0-.926h9.072a.463.463,0,0,1,0,.926" fill="#e7f7fc"/>
        <path id="Trazado_207772" data-name="Trazado 207772" d="M233.765,107.616h-8.648A2.318,2.318,0,0,1,222.8,105.3V96.65a2.318,2.318,0,0,1,2.318-2.319h8.648a2.318,2.318,0,0,1,2.318,2.319V105.3a2.318,2.318,0,0,1-2.318,2.318" fill="#2c8091"/>
        <path id="Trazado_207773" data-name="Trazado 207773" d="M233.2,106.465h-9.571a1.856,1.856,0,0,1-1.856-1.857v-9.57a1.856,1.856,0,0,1,1.856-1.858H233.2a1.857,1.857,0,0,1,1.856,1.858v9.57a1.857,1.857,0,0,1-1.856,1.857" fill="#a0dbfd"/>
        <path id="Rectángulo_38630" data-name="Rectángulo 38630" d="M1.857,0h9.57a1.857,1.857,0,0,1,1.857,1.857v9.57a1.858,1.858,0,0,1-1.858,1.858H1.857A1.857,1.857,0,0,1,0,11.428V1.857A1.857,1.857,0,0,1,1.857,0Z" transform="translate(221.77 93.18)" fill="none" stroke="#e7f7fc" stroke-miterlimit="10" stroke-width="1"/>
        <path id="Trazado_207774" data-name="Trazado 207774" d="M225.728,103.79a.394.394,0,0,1-.112-.016.41.41,0,0,1-.284-.507l2.009-7.112a.411.411,0,0,1,.791.223l-2.009,7.112a.41.41,0,0,1-.4.3" fill="#fff"/>
        <path id="Trazado_207775" data-name="Trazado 207775" d="M229.087,103.79a.394.394,0,0,1-.112-.016.41.41,0,0,1-.284-.507l2.009-7.112a.411.411,0,0,1,.792.223l-2.01,7.112a.41.41,0,0,1-.395.3" fill="#fff"/>
        <path id="Trazado_207776" data-name="Trazado 207776" d="M231.967,98.623h-7.112a.411.411,0,0,1,0-.823h7.112a.411.411,0,1,1,0,.823" fill="#fff"/>
        <path id="Trazado_207777" data-name="Trazado 207777" d="M231.967,101.872h-7.112a.411.411,0,0,1,0-.823h7.112a.411.411,0,1,1,0,.823" fill="#fff"/>
        <path id="Trazado_207778" data-name="Trazado 207778" d="M73.391,65.417H68.248a.564.564,0,1,1,0-1.128h5.143a.564.564,0,1,1,0,1.128" fill="#f4feff"/>
        <path id="Trazado_207779" data-name="Trazado 207779" d="M78.572,67.921H68.247a.564.564,0,1,1,0-1.128H78.572a.564.564,0,1,1,0,1.128" fill="#f4feff"/>
        <path id="Trazado_207780" data-name="Trazado 207780" d="M69.467,70.424H68.248a.564.564,0,1,1,0-1.128h1.219a.564.564,0,0,1,0,1.128" fill="#f4feff"/>
        <path id="Trazado_207781" data-name="Trazado 207781" d="M78.572,70.424H71.383a.564.564,0,0,1,0-1.128h7.189a.564.564,0,0,1,0,1.128" fill="#f4feff"/>
        <path id="Trazado_207782" data-name="Trazado 207782" d="M78.572,65.417H75.454a.564.564,0,1,1,0-1.128h3.118a.564.564,0,1,1,0,1.128" fill="#f4feff"/>
        <path id="Trazado_207783" data-name="Trazado 207783" d="M49.568,142.343a3.571,3.571,0,0,0-1.834.5,3.846,3.846,0,0,0-7.668.433,3.9,3.9,0,0,0,.023.421,2.937,2.937,0,1,0-.544,5.823H49.568a3.59,3.59,0,1,0,0-7.181" fill="#fff"/>
        <path id="Trazado_207784" data-name="Trazado 207784" d="M24.078,126.92a3.793,3.793,0,0,1,.051-1.615,16,16,0,0,0-.18-8.7c-1.923-6-9.714-11.319-9.714-11.319s2.115,8.858,3.854,12.629a47.468,47.468,0,0,0,4.735,7.559,3.69,3.69,0,0,1,.68,1.552,64.6,64.6,0,0,1,1.074,12.449l.584.023a65.139,65.139,0,0,0-1.084-12.579" fill="#e7f7fc"/>
        <path id="Trazado_207785" data-name="Trazado 207785" d="M30.289,121.277a70.029,70.029,0,0,0,2.267-10.657S25.571,116.384,25,120.844a15,15,0,0,0,.476,6.212,4.234,4.234,0,0,1,.165,1.689,59.131,59.131,0,0,0-.144,11.67l.526-.061A58.124,58.124,0,0,1,26.1,129.4a4.362,4.362,0,0,1,.962-2.315,18.288,18.288,0,0,0,3.223-5.806" fill="#c5eaef"/>
        <path id="Trazado_207786" data-name="Trazado 207786" d="M37.391,110.392s-7.528,2.794-9.5,8.94a16.4,16.4,0,0,0-.164,8.989,3.088,3.088,0,0,1,0,1.531,68.95,68.95,0,0,0-1.791,14.492h.6a68.476,68.476,0,0,1,1.73-14.179,5.31,5.31,0,0,1,.893-1.906,48.076,48.076,0,0,0,4.733-7.585,81.277,81.277,0,0,0,3.5-10.282" fill="#e7f7fc"/>
        <path id="Trazado_207787" data-name="Trazado 207787" d="M24.109,136.325a20.891,20.891,0,0,0-1.738-6.832,2.32,2.32,0,0,1-.176-1.236,11.276,11.276,0,0,0-.176-3.674c-.611-3.016-4.613-9.531-10.408-9.912a42.184,42.184,0,0,1,3.028,5.9c1.3,3.4,3.16,6.962,6.241,8.328a2.316,2.316,0,0,1,1.193,1.238,20.222,20.222,0,0,1,1.508,6.222Z" fill="#c5eaef"/>
        <path id="Trazado_207788" data-name="Trazado 207788" d="M20.19,149.523h9.563l2.482-15.163a1.1,1.1,0,0,0-1.089-1.281H18.8a1.1,1.1,0,0,0-1.088,1.281Z" fill="#e7f7fc"/>
        <line id="Línea_181" data-name="Línea 181" x2="267.586" transform="translate(0.557 149.523)" fill="none" stroke="#fff" stroke-linecap="round" stroke-miterlimit="10" stroke-width="1.114"/>
      </g>
    </g>
  </g>
</svg>
