<svg xmlns="http://www.w3.org/2000/svg" width="61.256" height="61.256" viewBox="0 0 61.256 61.256"><path d="M61.256,50.51V0H0V50.51H25.08v2.73a4.432,4.432,0,0,1-4.427,4.427H15.832v3.589H45.424V57.667H40.6a4.432,4.432,0,0,1-4.427-4.427V50.51ZM57.667,3.589V38.4H3.589V3.589ZM3.589,46.921V41.994H57.667v4.927ZM33.925,57.667H27.331a7.968,7.968,0,0,0,1.337-4.427V50.51h3.918v2.73A7.969,7.969,0,0,0,33.925,57.667Z" fill="#402466"/><path d="M159.16,91.821V88.232a9.571,9.571,0,1,1,9.571-9.571v4.153a1.829,1.829,0,0,1-3.658,0V78.66a5.919,5.919,0,1,0-3.449,5.374,5.417,5.417,0,0,0,10.7-1.22V78.66a13.16,13.16,0,1,0-13.16,13.16Zm0-10.836a2.324,2.324,0,1,1,2.324-2.324A2.327,2.327,0,0,1,159.16,80.985Z" transform="translate(-128.532 -57.664)" fill="#402466"/></svg>