<svg xmlns="http://www.w3.org/2000/svg" width="61.359" height="46.671" viewBox="0 0 61.359 46.671"><g transform="translate(0 -61.28)"><path d="M49.436,70.581,43.853,73.51A23.34,23.34,0,1,0,42.6,97.762a15.031,15.031,0,0,0,6.416,3.322l.416.1.416-.1A14.969,14.969,0,0,0,61.359,86.521V76.836Zm-26.1,33.774c-1.422,0-3.089-1.982-4.35-5.172A31.908,31.908,0,0,1,17.3,92.963H29.369a31.906,31.906,0,0,1-1.683,6.221C26.424,102.374,24.757,104.356,23.335,104.356Zm-6.5-14.988c-.141-1.537-.214-3.129-.214-4.752s.073-3.215.214-4.752H29.84c.141,1.537.214,3.129.214,4.752s-.073,3.215-.214,4.752ZM3.6,84.615a19.717,19.717,0,0,1,.58-4.752h9.048c-.133,1.546-.2,3.137-.2,4.752s.069,3.206.2,4.752H4.175a19.717,19.717,0,0,1-.58-4.752Zm19.74-19.74c1.422,0,3.089,1.982,4.35,5.172a31.908,31.908,0,0,1,1.683,6.221H17.3a31.906,31.906,0,0,1,1.683-6.221c1.261-3.19,2.928-5.172,4.35-5.172ZM33.448,79.863h4.065v6.658a14.886,14.886,0,0,0,.279,2.846H33.448c.133-1.546.2-3.137.2-4.752S33.58,81.409,33.448,79.863Zm7.221-4.683L38.6,76.268H33.01a36.267,36.267,0,0,0-1.981-7.543,20.828,20.828,0,0,0-1.34-2.8,19.844,19.844,0,0,1,10.98,9.256ZM16.982,65.924a20.829,20.829,0,0,0-1.34,2.8,36.26,36.26,0,0,0-1.981,7.543H5.45A19.845,19.845,0,0,1,16.982,65.924ZM5.45,92.963h8.211a36.267,36.267,0,0,0,1.981,7.543,20.829,20.829,0,0,0,1.34,2.8A19.845,19.845,0,0,1,5.45,92.963Zm24.239,10.343a20.84,20.84,0,0,0,1.34-2.8,36.267,36.267,0,0,0,1.981-7.543h5.966a14.956,14.956,0,0,0,1.156,2.011,19.84,19.84,0,0,1-10.443,8.332ZM57.763,86.521A11.333,11.333,0,0,1,49.436,97.48a11.333,11.333,0,0,1-8.328-10.959V79.01l8.328-4.369,8.328,4.369Z" fill="#402466"/><path d="M366.429,235.667l-2.525,2.559,4.883,4.819,6.775-6.776-2.542-2.542-4.25,4.25Z" transform="translate(-320.293 -151.781)" fill="#402466"/></g></svg>