<svg xmlns="http://www.w3.org/2000/svg" width="61.37" height="56.256" viewBox="0 0 61.37 56.256"><g transform="translate(0 -21.332)"><path d="M44.266,43.061V31.128H40.91V28.876a7.544,7.544,0,0,0-15.089,0v2.252H22.466v4.459H0V61.365H6.413v8.749L18.84,61.365H28.1v7.474H42.53l12.427,8.749V68.839H61.37V43.061Zm-12.7-3.7V47.6H26.062V34.724H40.67V47.6H35.164V39.365h-3.6ZM29.417,28.876a3.949,3.949,0,0,1,7.9,0v2.252h-7.9V28.876ZM17.7,57.769l-7.692,5.415V57.769H3.6V39.183h18.87V51.2H28.1v6.571H17.7Zm40.073,7.474H51.361v5.416l-7.692-5.416H31.694V51.2H44.266V46.657H57.774Z" transform="translate(0 0)" fill="#402466"/><path d="M298.333,303.927h3.6v3.6h-3.6Z" transform="translate(-262.574 -248.722)" fill="#402466"/><path d="M359,303.927h3.6v3.6H359Z" transform="translate(-315.969 -248.722)" fill="#402466"/><path d="M419.667,303.927h3.6v3.6h-3.6Z" transform="translate(-369.365 -248.722)" fill="#402466"/></g></svg>