<svg xmlns="http://www.w3.org/2000/svg" width="56.256" height="56.256" viewBox="0 0 56.256 56.256"><path d="M138.081,108.613v12.211a18.313,18.313,0,0,0,12.427,17.363l.529.179.529-.179a18.313,18.313,0,0,0,12.427-17.363V108.613l-12.956-6.8ZM160.7,120.824a15.021,15.021,0,0,1-9.66,14.051,15.021,15.021,0,0,1-9.66-14.051V110.606l9.66-5.068,9.66,5.068Z" transform="translate(-122.909 -90.629)" fill="#402466"/><path d="M52.74,46.2V39.427H45.9A24.987,24.987,0,0,0,47.677,30.2v-.419h6.931v-3.3H47.677V16.829H52.74V10.057a5.164,5.164,0,1,0-3.3,0v3.476H46.791L28.128,3.743,9.465,13.533H6.812V10.057a5.164,5.164,0,1,0-3.3,0v6.772H8.579V26.48H1.648v3.3H8.579V30.2a24.985,24.985,0,0,0,1.779,9.231H3.516V46.2a5.164,5.164,0,1,0,3.3,0V42.723h5.147a24.74,24.74,0,0,0,1.99,2.931,25.037,25.037,0,0,0,13.8,8.8l.381.091.381-.091a25.037,25.037,0,0,0,13.8-8.8,24.749,24.749,0,0,0,1.99-2.931h5.147V46.2a5.164,5.164,0,1,0,3.3,0ZM51.092,3.3a1.868,1.868,0,1,1-1.868,1.868A1.87,1.87,0,0,1,51.092,3.3ZM5.164,3.3A1.868,1.868,0,1,1,3.3,5.164,1.87,1.87,0,0,1,5.164,3.3Zm0,49.663a1.868,1.868,0,1,1,1.868-1.868A1.87,1.87,0,0,1,5.164,52.96Zm22.964-1.807A21.56,21.56,0,0,1,11.875,30.2v-14.2L28.128,7.465l16.253,8.526V30.2A21.56,21.56,0,0,1,28.128,51.152ZM51.092,52.96a1.868,1.868,0,1,1,1.868-1.868A1.87,1.87,0,0,1,51.092,52.96Z" fill="#402466"/><path d="M202.279,230.139l-2.315,2.346,5.341,5.27,7.53-7.53-2.331-2.331-5.215,5.215Z" transform="translate(-177.993 -202.854)" fill="#402466"/></svg>