<svg xmlns="http://www.w3.org/2000/svg" xmlns:xlink="http://www.w3.org/1999/xlink" width="400" height="585" viewBox="0 0 400 585"><defs><clipPath id="a"><rect width="400" height="585" transform="translate(1020.21 1329)" fill="#fff"/></clipPath><clipPath id="b"><rect width="553.529" height="537.531" fill="none"/></clipPath></defs><g transform="translate(-1020.21 -1329)" clip-path="url(#a)"><g transform="translate(978.64 1336.645)"><g clip-path="url(#b)"><path d="M171.357,166.961c-24.417,0-44.214,11.785-44.214,26.321s19.8,26.321,44.214,26.321,44.216-11.782,44.216-26.321-19.8-26.321-44.216-26.321" transform="translate(221.951 317.929)" fill="#b3b3c6"/><path d="M64.881,149.923c-30.757,0-55.691,14.843-55.691,33.152s24.934,33.154,55.691,33.154,55.693-14.843,55.693-33.154-24.934-33.152-55.693-33.152" transform="translate(16.043 285.485)" fill="#b3b3c6"/><path d="M157.123,73.745c0,38.185-29.266,69.141-65.366,69.141S26.39,111.93,26.39,73.745,55.656,4.6,91.756,4.6s65.366,30.956,65.366,69.14" transform="translate(46.069 8.769)" fill="#fff" opacity="0.5"/><path d="M134.3,21.985c0,10.653-8.166,19.29-18.237,19.29s-18.234-8.637-18.234-19.29S105.994,2.7,116.065,2.7,134.3,11.332,134.3,21.985" transform="translate(170.782 5.132)" fill="#fff" opacity="0.5"/><path d="M46.081,61.246c0,10.653-8.166,19.29-18.237,19.29S9.61,71.9,9.61,61.246s8.163-19.29,18.234-19.29,18.237,8.637,18.237,19.29" transform="translate(16.776 79.893)" fill="#fff" opacity="0.5"/><path d="M323.762,217.137,201.684,289.792,49.894,196.367,171.7,123.843Z" transform="translate(87.1 235.822)" fill="#b3b3c6"/><path d="M172.36,151.091c0,50.344-38.585,91.154-86.179,91.154S0,201.436,0,151.091,38.585,59.934,86.181,59.934s86.179,40.813,86.179,91.157" transform="translate(0 114.127)" fill="#fff" opacity="0.5"/><path d="M329.7,107.726c0,58.851-45.1,106.558-100.742,106.558S128.217,166.577,128.217,107.726,173.323,1.168,228.962,1.168,329.7,48.875,329.7,107.726" transform="translate(223.826 2.224)" fill="#fff" opacity="0.5"/><path d="M184.709,88.207c-27.457.343-49.568,13.868-49.384,30.213s22.586,29.321,50.043,28.978,49.568-13.87,49.384-30.215-22.586-29.315-50.043-28.975" transform="translate(236.232 167.953)" fill="#b3b3c6"/><path d="M160.737,59.276c6.348-16.81,9.725-36.6,9.725-36.6l-2.054-3.029s-7.9-.476-14.066,14.788-12.957,28.694-13.66,31.946c4.838,2.419,12.312,2.6,20.054-7.107" transform="translate(245.588 37.411)" fill="#2b2b33"/><path d="M154.839,88.7s-2.867,3.3-6.7,7.249c-3.545,3.653-4.643,4.708-7.932,8.1-1.922,1.984-.34,3.8,3.322,3.656a62.757,62.757,0,0,0,14.585-3.337,72.64,72.64,0,0,0,10.917-6.02,7.657,7.657,0,0,0,3.243-4.336v-6.1Z" transform="translate(243.326 167.405)" fill="#383842"/><path d="M159.814,96.045s-.664,6.25-1.074,14.1.643,14.785,2.91,15.651,8.731.755,12.408-10.147a45.737,45.737,0,0,0,1.483-21.477Z" transform="translate(276.961 179.323)" fill="#383842"/><path d="M199.094,77.965c1.356-22.371-10.3-34.133-10.3-34.133.928-7.539-32.135,3.012-32.135,3.012s-7.078,40.531-10.068,61.874c-3.4,24.256-1.911,67.555-1.911,67.555s.428,5.274,8.97,5.239c6.554-.026,11.957-5.669,11.957-5.669l.678-50.551,8.88-34.653s-.176,34.5,3.613,48.509c5.648,20.9,3.849,60.887,3.849,60.887s11.09,4.185,18.682.171,6.1-8.5,6.1-8.5,2.474-34.334-7.29-57.567c-.813-17.64-1.645-45.9-1.021-56.17" transform="translate(251.989 78.293)" fill="#2b2b33"/><path d="M160.222,21.286s-11.414,9.749-12.77,23.527c-.675,6.839,1.3,29.884,1.356,44.989.036,8.472-3.149,32.248-3.149,32.248a72.282,72.282,0,0,0,10.458,6.09c0-6.029,2.155-15.45,2.155-15.45s.648,10.621.645,16.464a37.377,37.377,0,0,0,11.644,1.812c10.568-.052,27.951-7.818,27.951-7.818s0-25.435-3.21-39.491c-3.427-15,1.771-40.218,1.26-44.266-.854-6.776-15.373-14.112-15.373-14.112s-10.3-8.434-20.969-3.993" transform="translate(254.274 38.073)" fill="#383842"/><path d="M163.192,19.995a69.145,69.145,0,0,0-10.661,11.6A23.7,23.7,0,0,0,149.17,38l3.361,3.471-4.775,2.419s-2.674,19.034.95,25.429,8,22.383,8,22.383,5.038-16.513,7.246-20.626,10.56-15.5,10.56-15.5l-4.184-6.677,6.82-2.355s9.613-12.747,8.608-16.592a12.007,12.007,0,0,0-8.4-8.657Z" transform="translate(256.276 38.075)" fill="#2b2b33"/><path d="M153.348,24.521s-2.713,8.684-4.2,16.537,3.913,33.979,3.913,33.979,2.405-25.537,7.246-32.8a163.667,163.667,0,0,1,13.2-16.789s-15.541,1.382-20.156-.926" transform="translate(259.916 46.693)" fill="#fff"/><path d="M155.166,25.852l-.8,6.709s-3.748,3.825-4.55,8.509.047,21.636.047,21.636l2.2,12.05.961-8.05s1.716-10.417,3.188-16.85a41.884,41.884,0,0,1,.662-5.84c1.019-3.166,1.227-9.674,1.227-9.674l3.962-5.013-3.778-4.658Z" transform="translate(260.923 46.977)" fill="#ef5c4d"/><path d="M149.578,16.365a3.192,3.192,0,0,1,1.5-2.721,7.109,7.109,0,0,1-.077,4.423,10.616,10.616,0,0,0-.472,3.16Z" transform="translate(261.116 25.981)" fill="#ffc5b3"/><path d="M157.646,30.342l-4.11-16.595a2.263,2.263,0,0,0-.28-.665l.06-.456-.791-.032a.991.991,0,0,0-.843.343l-4.228,4.423a4.249,4.249,0,0,0-.774,3.561l4.11,16.595a1.424,1.424,0,0,0,.876,1.144l.912.131.038-.447.027-.02,4.228-4.423a4.24,4.24,0,0,0,.774-3.558" transform="translate(255.87 23.973)" fill="#cacadd"/><path d="M157.157,33.956l-4.228,4.423c-.722.755-1.557.392-1.856-.81l-4.11-16.595a4.252,4.252,0,0,1,.774-3.558l4.228-4.423c.725-.755,1.56-.392,1.856.81l4.11,16.595a4.252,4.252,0,0,1-.774,3.558" transform="translate(256.365 23.992)" fill="#e2e2ed"/><path d="M155.858,31.542l-3.451,3.633c-.626.656-1.348.34-1.606-.7L147.242,20.1a3.675,3.675,0,0,1,.67-3.081l3.449-3.633c.626-.656,1.351-.34,1.609.7l3.558,14.376a3.675,3.675,0,0,1-.67,3.081" transform="translate(256.876 24.835)" fill="#fff"/><path d="M144.182,37.065s3.7-9.023,4.366-15.093c.244-2.2.524-4.231,2.21-5.617s2.518-2.3,2.666-1.3c.2,1.362-1.79,3.314-1.79,3.314s2.359-1.162,2.474-.459c.22,1.362-1.268,2.933-1.268,2.933s1.683-1.284,1.785-.116c.1,1.147-1.356,3.366-1.356,3.366s1.719-1.112,1.933-.073c.294,1.429-1.678,3.505-1.678,3.505l1.4,5.643-3.24,5.164Z" transform="translate(251.696 27.862)" fill="#ffc5b3"/><path d="M152.884,26.974l-.689,10.612a21.182,21.182,0,0,0,4.714,5.747c3.624-1.2,12.037-10.069,12.037-10.069L166.14,16.786Z" transform="translate(265.684 31.964)" fill="#ffad97"/><path d="M173.652,13.991c-3.773-5.085-14.621-9.372-21.688,1.69-7.411,11.6-.406,30.567,6.084,29.457,3.635-.619,11.82-4.124,15.406-10.316,4.039-6.973,3.13-16.879.2-20.832" transform="translate(259.727 16.648)" fill="#ffc5b3"/><path d="M156,21.707l.9,8.6-6.606,2.852S149.53,23.975,156,21.707" transform="translate(262.306 41.335)" fill="#f4f4f4"/><path d="M167.527,21.291a19.033,19.033,0,0,1-6.8,6.871c-2.427,1.452-8.056,2.942-8.056,2.942L155.164,39s7.869-3.372,11.732-6.613c0,0,5.126-6.43.631-11.091" transform="translate(266.524 40.543)" fill="#f4f4f4"/><path d="M163.563,77.312c2.139,5.155,5.115,11.1,11.823,11.021,4.066-.049,7-6.142,7-10.455A149.088,149.088,0,0,0,178.59,45.72c-2.941-13.127-5.532-20.376-12.139-20.98-2.927,1.969-5.434,11.791-5.434,22.069l2.559,30.32Z" transform="translate(281.086 47.11)" fill="#2b2b33"/><path d="M154.338,20.464a209.57,209.57,0,0,0-11.482,20.115c-4.094,8.727-4.248,16.583-2.092,21.538,2.2,5.062,4.857,2.48,8.295-.27s7.177-19.38,8.652-23.19,5.338-13.513,5.338-13.513-5.211-4.862-8.709-4.679" transform="translate(243.33 38.959)" fill="#2b2b33"/><path d="M168.682,45.642a31.947,31.947,0,0,1-3.35-5.927c-1.557-3.569-3.6-2.666-3.017.209s.667,3.119-.711,4.795S156.62,46.882,151.93,49s-5.126,8.143,1.323,8.384,14.041-2.155,16.7-1.438a82.919,82.919,0,0,1,8.089,3.113l2.924-8.483s-10.845-2.832-12.284-4.931" transform="translate(259.073 71.188)" fill="#ffc5b3"/><path d="M158.554,40.781s-.89,2.84-1.494,5.733a21.328,21.328,0,0,0-.228,6.029s8.462,2.774,12.572,4.078,13.83,3.2,16.96-.578,4.206-10.525-.783-13.005c-5.958-2.959-27.029-2.257-27.029-2.257" transform="translate(273.575 77.516)" fill="#2b2b33"/><path d="M172.95,10.769c-6.376-8.155-20.258-.865-21.4,5.858-1.411,8.3-1.411,8.3-4.717,11.576,10.461,7.345,23.179-3.293,23.223-3.311-.612,6.11,2.65,8.248,3.358,7.987.653-2.654,1.73-3.276,2.954-2.155,1.387,1.266,1.183,6.125,1.183,6.125A18.294,18.294,0,0,0,182.76,24.07c-.014-4.984-1.137-12.59-9.81-13.3" transform="translate(256.318 13.633)" fill="#383842"/><path d="M203.758,109.888c-19.7.244-35.562,9.95-35.433,21.677S184.53,152.6,204.23,152.356s35.562-9.95,35.433-21.68-16.2-21.032-35.905-20.788" transform="translate(293.84 209.241)" fill="#b3b3c6"/><path d="M196.751,39s-5.23-4.2-11.59,2.991C181.128,46.556,178,54.961,175.142,63.83c-1.65,5.117-3.119,9.6-4.4,14.434-3.668,13.87-1.875,16.293,4.514,15.218,4.956-.831,10.332-6.34,9.9-11.6S196.751,39,196.751,39" transform="translate(294.778 71.945)" fill="#ffa08d"/><path d="M171.409,60.8s2.9-18.511,10.952-21.172c6.378-2.108,7.963-1.359,8.561-.177s-11.6,25.618-11.6,25.618-5.247-2.669-7.91-4.269" transform="translate(299.225 72.923)" fill="#cacadd"/><path d="M172.124,45.437l-.975,3.816a22.67,22.67,0,0,0,10.162,5.233c4.058.775,4.613-2.181,1.461-2.846a21.785,21.785,0,0,1-10.648-6.2" transform="translate(298.772 86.522)" fill="#fff"/><path d="M198.928,80.447c1.285-3.616-20.966-6.366-20.966-6.366s-.047,17.556-.651,24.947c-.909,11.155-.7,16.49,2.339,31.461,1.348,6.639,3.042,31.792,2.589,40.65-.664,12.976-6.321,19.107-8.234,22.31s5.387,6.235,10.005,1.562,5.1-5.588,7.71-7.054,1.727-4.966,1.538-12.291c-.145-5.663,2.175-24.532,3.064-36.631,1.263-17.173-2.3-17.547-2.051-26.228.467-16.339,3.819-30,4.657-32.362" transform="translate(303.21 141.066)" fill="#ffa08d"/><path d="M198.926,112.809c-.008-.032-.016-.061-.022-.093a3.678,3.678,0,0,0-.143-.453l-.005.009a10.876,10.876,0,0,0-1.963-3.212s-1.1,10.385-6.867,14.669c-6.444,4.783-9.324,5.5-12.386,3.113a68.346,68.346,0,0,1-5.107,6.607c-1.9,2.233-.3,4.475,5.313,4.048a13.892,13.892,0,0,0,9.56-5c2.466-3.331,4.374-6.929,6.68-9.108.357-.34.662-.636.977-.941v0c.17,2.75.088,4.51.217,6.5.541.912,1.378.694,2.035,0,.376-2.193-.113-4.208,1.049-8.251,1.236-4.292.912-6.851.662-7.891" transform="translate(299.676 207.673)" fill="#383842"/><path d="M205.182,83.666c1.285-3.616-20.966-6.366-20.966-6.366s-.047,17.556-.651,24.947c-.909,11.155-.7,16.49,2.339,31.461,1.348,6.639,3.042,31.792,2.589,40.65-.664,12.976-6.321,19.107-8.234,22.31s5.384,6.235,10.005,1.56,5.1-5.585,7.71-7.051,1.727-4.966,1.538-12.291c-.146-5.663,2.174-24.532,3.064-36.631,1.263-17.173-2.3-17.547-2.051-26.228.467-16.339,3.819-30,4.657-32.362" transform="translate(314.128 147.195)" fill="#ffc5b3"/><path d="M205.155,115.929c-.008-.032-.017-.061-.022-.093a3.683,3.683,0,0,0-.143-.453l-.006.009a10.874,10.874,0,0,0-1.963-3.212s-1.1,10.385-6.867,14.669c-6.444,4.783-9.324,5.5-12.386,3.113a68.367,68.367,0,0,1-5.107,6.607c-1.9,2.233-.3,4.475,5.313,4.051a13.9,13.9,0,0,0,9.56-5c2.468-3.331,4.374-6.929,6.678-9.108.36-.337.667-.636.98-.941v0c.17,2.75.088,4.51.217,6.5.541.909,1.378.691,2.035,0,.376-2.193-.113-4.211,1.049-8.254,1.236-4.292.911-6.851.662-7.891" transform="translate(310.55 213.614)" fill="#383842"/><path d="M174.066,69.993S173.028,75.122,172.8,87.2c-.28,14.838,1.45,44.786,1.45,44.786s3.547,4.629,11.872,7.577c20.34,7.205,31.639-2.445,31.639-2.445s2.084-14.637,3.171-27.726c1.043-12.567.475-24.265-4.668-37.862-8.061-21.317-37.388-9.6-42.2-1.536" transform="translate(301.601 113.173)" fill="#2b2b33"/><path d="M222.095,62.6C221.008,54.6,203.811,43.78,203.811,43.78s-12.043,11.036-9.426,3.5c.821-2.37-.428-9.311-.428-9.311s-1.046-.276-2.562-.561c-2.276,2.663-6.743,9.738-9.168,12.668C179.888,52.9,173,62.7,175.108,71.965c1.793,7.9,1.137,21.056.739,24.938a121.389,121.389,0,0,1-2.606,15.035s3.948,9.549,20.392,9.932c15.873.372,21.809-8.4,21.809-8.4s-3.773-21.7-2.677-28.394c1.411-8.652,11.447-6.9,9.33-22.484" transform="translate(302.424 71.227)" fill="#e2e2ed"/><path d="M182.653,47.938s-4.025,17.443-4.025,24.439c5.129-2.878,10.03-8.579,11.279-9.639,5.653-4.792,6.51-7.3,6.51-7.3s-1.159-5.591-1.3-7.612c-.228-3.366.025-14.353.025-14.353Z" transform="translate(311.828 63.743)" fill="#ffa08d"/><path d="M193.57,39.038s-2.128,9.07-5.217,12.334-9.725,10.412-9.725,10.412a89.234,89.234,0,0,1,11.491,2.03c3.24-3.41,7.924-13.118,7.924-16.147,0-8.138-4.473-8.628-4.473-8.628" transform="translate(311.828 74.336)" fill="#fff"/><path d="M183.758,39.207S177.114,49.79,175.576,54.6c2.833,1.975,8.38,6.866,8.38,6.866A37.336,37.336,0,0,1,186.21,49.1c.733-1.818,1.414-7.769,1.414-7.769Z" transform="translate(306.5 74.658)" fill="#fff"/><path d="M176.256,30.155s-2.8,8.965-1.219,29.591A43.084,43.084,0,0,0,179.186,74.9s4.2-12.282,10.222-16.336c4.245-2.858-2.111-8.2-2.111-8.2Z" transform="translate(304.718 57.421)" fill="#383842"/><path d="M198.525,30.3c-4.723-4.231-16.307-6.145-21.183,6.352-5.115,13.1,5.483,30.4,11.71,27.907,3.484-1.4,10.549-4.824,12.913-11.742,2.661-7.783.228-19.229-3.44-22.516" transform="translate(307.221 51.589)" fill="#ffc5b3"/><path d="M183.169,36.931a11.642,11.642,0,0,1,1.988-2.274c.884-.717,2.57-.929,3.053,1.789a4.614,4.614,0,0,1-2.142,5.109Z" transform="translate(319.755 65.108)" fill="#ffc5b3"/><path d="M188.641,40.075s-.544,9.413,3.611,16.159,4.239,12.84,4.1,19.76C196.1,88.015,193.064,91.6,193.064,91.6s14.264-5.111,15.826-22.836c1.494-16.961,1.167-30.337-2.965-36.66-3.762-5.759-11.246-4.377-11.246-4.377s-9.706-7.647-17.7,6.988c-3.605,6.6-1.494,11.893,0,14.353a15.226,15.226,0,0,1,11.658-8.994" transform="translate(305.485 49)" fill="#383842"/><path d="M180.531,53.536s11.658-1.284,14.86,2.663-.977,11.948-.977,11.948l-14.958-6.122Z" transform="translate(313.271 101.564)" fill="#ffa08d"/><path d="M206.731,61.363c-2.614,10.818-4.47,14.7-4.47,14.7s-7.435-1.76-11.491-1.76c-4.278,0-15.541-7.583-15.541-7.583l-2.164,8.091s5.365,6.43,18.319,11.628c11.244,4.513,15.233,7.075,18.863.714s14.494-28.609,13.385-37.005c-1.3-9.825-14.33.569-16.9,11.213" transform="translate(302.118 88.001)" fill="#ffc5b3"/><path d="M174.76,49.808c-7.391-.015-7.575,6.871,0,6.871.766,1.429,2.663,2.016,3.517,3.035,2.161,2.585,9.129.218,9.129.218s-6.87-10.112-12.647-10.124" transform="translate(295.276 94.845)" fill="#ffc5b3"/><path d="M172.214,54.583s3.674-2.643,13.067-1.844c10.508.895,16.661,2.021,16.661,2.021-.472,2.108-2.422,2.5-2.633,7.406-9.923,1.536-20.6,7.888-27.959,3.514-6.01-3.575.865-11.1.865-11.1" transform="translate(294.819 100.139)" fill="#ffa08d"/><path d="M185.665,71.485s-2.729-22.92,6.09-28c7.6-4.38,13.965,4.26,13.9,13.159-.066,8.8-8.056,19.232-8.056,19.232Z" transform="translate(323.415 80.562)" fill="#cacadd"/><path d="M185.826,51.43l-.785,3.7s2.471.72,6.362,2.289,6.071,2.686,6.071,2.686l1.851-3.508s-4.624-3.125-13.5-5.169" transform="translate(323.023 97.933)" fill="#fff"/><path d="M58.71,77.009,155.863,18.2V340.609L58.71,399.8Z" transform="translate(102.489 34.659)" fill="#383842"/><path d="M64.37,364.851l-8.9-5.518V36.55l8.9,5.518Z" transform="translate(96.829 69.6)" fill="#2b2b33"/><path d="M161.523,21.82l-8.9-5.518L55.468,75.109l8.9,5.518Z" transform="translate(96.829 31.042)" fill="#4c4c56"/><path d="M58.726,38.435V65.029l116.112,71.414V109.85Z" transform="translate(102.516 73.188)" fill="#9797ad"/><path d="M271.991,89.526l-97.153,58.807L58.726,76.919l96.917-58.694Z" transform="translate(102.516 34.704)" fill="#b5b5c9"/><path d="M104.257,103.483,201.41,44.676V367.086l-97.153,59.185Z" transform="translate(181.999 85.072)" fill="#383842"/><path d="M109.916,391.325l-8.9-5.518V63.025l8.9,5.518Z" transform="translate(176.34 120.012)" fill="#2b2b33"/><path d="M207.069,48.294l-8.9-5.518-97.153,58.807,8.9,5.518Z" transform="translate(176.34 81.454)" fill="#4c4c56"/><path d="M111.746,88.282,60.877,57.219V41.5l50.869,31.063Z" transform="translate(106.272 79.033)" fill="#2b2b33"/><path d="M86.908,56.352V64.53l32.641,19.932V76.283Z" transform="translate(151.714 107.305)" fill="#fff"/><path d="M86.908,60.7v4.6L119.549,85.23v-4.6Z" transform="translate(151.714 115.588)" fill="#fff"/><path d="M72.219,52.318a6.089,6.089,0,0,0,2.367,4.78c1.307.8,2.364-.046,2.364-1.891a6.087,6.087,0,0,0-2.364-4.78c-1.307-.8-2.367.046-2.367,1.891" transform="translate(126.071 95.451)" fill="#ff735c"/><path d="M75.6,54.2a6.089,6.089,0,0,0,2.367,4.78c1.307.8,2.364-.046,2.364-1.891a6.092,6.092,0,0,0-2.364-4.78c-1.307-.8-2.367.049-2.367,1.891" transform="translate(131.965 99.027)" fill="#4981c4"/><path d="M42.814,103.95a61.73,61.73,0,0,0,10.11,7.324c5.005,2.707,11.312,4.838,14.321,7.545s6.889,7.554,11.147,8.175c3.7.54,9.217,1.452,11.3.619s3.427-5.117-.744-7.441c-6.29-3.505-6.529-5.074-7.781-5.974s2.493-2.82,4.371-3.947,1.384-3.044-.824-2.143c-1.8.735-5.84,0-7.927.453s-3.773,1.664-6.919-.227c-2.625-1.58-11.43-8.567-16.227-12.628a66.28,66.28,0,0,1-5.793-5.216Z" transform="translate(74.74 172.316)" fill="#ffc3b1"/><path d="M36.535,79.442s5.055-1.095,9.939,4.048c3.789,3.99,15.219,15.247,19.508,21.291,2.353,3.314,9.187,14.335,17.946,19.2,6.562,3.645,6.741,6.041,6.554,7.17-.071.427.041,9.552-6.222,9.517C77.9,140.637,68.053,131.1,63.6,128.689c-4.333-2.35-11.241-8.9-15.661-15.276a11.938,11.938,0,0,0-6.386-4.542S30.539,85.082,32.137,82.03a4.368,4.368,0,0,1,4.4-2.588" transform="translate(55.824 151.088)" fill="#406fb5"/><path d="M51.589,153.11s3.026,3.479,7.067,7.647c3.74,3.86,4.9,4.969,8.369,8.553,2.026,2.091.357,4.014-3.5,3.857a66.276,66.276,0,0,1-15.39-3.52,76.809,76.809,0,0,1-11.524-6.354,8.068,8.068,0,0,1-3.418-4.574v-6.433Z" transform="translate(57.939 289.982)" fill="#222228"/><path d="M36.038,160.864s.7,6.6,1.131,14.878-.675,15.6-3.07,16.513-9.215.8-13.091-10.708a48.247,48.247,0,0,1-1.565-22.659Z" transform="translate(32.746 302.558)" fill="#222228"/><path d="M25.319,141.786c-1.43-23.608,10.873-36.015,10.873-36.015-.98-7.955,33.906,3.177,33.906,3.177s7.471,42.767,10.626,65.287c3.589,25.595,2.018,71.284,2.018,71.284s-.453,5.564-9.467,5.527c-6.916-.026-12.619-5.98-12.619-5.98l-.714-53.342L50.574,155.16s.187,36.4-3.811,51.187C40.8,228.392,42.7,270.59,42.7,270.59s-11.7,4.417-19.714.18-6.439-8.971-6.439-8.971-2.608-36.23,7.693-60.744c.859-18.613,1.735-48.425,1.079-59.269" transform="translate(28.37 195.953)" fill="#2b2b33"/><path d="M66.821,109.759l.648,5.2s-8.045,9.18-23.7,9.18-24.146-5.309-24.146-5.309l.851-4.571Z" transform="translate(34.264 209.004)" fill="#222228"/><path d="M23.064,134.811l.64-9.2a3.576,3.576,0,0,1-2.466-4.051c.368-2.9,3.064-3.953,4.857-2.646.848.619,1.713,1.716,1.3,4.139a3.042,3.042,0,0,1-2.1,2.692s-.555,7.748-.675,9.264-.467,1.589-1.579,1.42a8.987,8.987,0,0,1-1.639-.366l.132-1.449ZM24.593,123.8c1.494-.154,1.9-3.77-.42-3.517a1.669,1.669,0,0,0-1.247,2.114,1.594,1.594,0,0,0,1.667,1.4" transform="translate(37.004 225.375)" fill="#c4bebb"/><path d="M27.02,132.042l-1.288-9.128a3.47,3.47,0,0,1-3.248-3.38c-.242-2.916,2.172-4.568,4.193-3.709.953.407,2.029,1.275,2.125,3.735a3.142,3.142,0,0,1-1.485,3.116s1.068,7.687,1.266,9.192-.124,1.658-1.247,1.754a8.718,8.718,0,0,1-1.675.023l-.173-1.446Zm-.793-11.1c1.422-.5,1.068-4.118-1.142-3.334a1.708,1.708,0,0,0-.777,2.352,1.553,1.553,0,0,0,1.919.982" transform="translate(39.22 220.122)" fill="#d6cfcc"/><path d="M22.832,131.689l.64-9.2a3.576,3.576,0,0,1-2.466-4.051c.368-2.9,3.064-3.953,4.857-2.646.848.619,1.713,1.716,1.3,4.138a3.042,3.042,0,0,1-2.1,2.692s-.555,7.748-.675,9.264-.467,1.589-1.579,1.42a8.986,8.986,0,0,1-1.639-.366l.132-1.449Zm1.529-11.013c1.494-.154,1.9-3.77-.42-3.517a1.669,1.669,0,0,0-1.247,2.114,1.594,1.594,0,0,0,1.667,1.4" transform="translate(36.599 219.43)" fill="#ebe4e0"/><path d="M26.055,121.909a.328.328,0,0,0,.319-.337v-4.42c0-2.6-.859-3.006-1.982-3.267l-.214-.052a.88.88,0,0,0-.826.2c-1.208,1.037-1.128,5.747-1.117,6.282a.33.33,0,0,0,.319.328h.008a.33.33,0,0,0,.31-.346c-.044-1.888.154-5.117.879-5.742a.288.288,0,0,1,.28-.07l.225.052c.862.2,1.483.349,1.483,2.611v4.42a.328.328,0,0,0,.318.337" transform="translate(38.803 216.702)" fill="#595959"/><path d="M24.691,112.957v3.79c0,1.173-.637,1.847-1.381,1.342s-.637-1.571-.637-3.142-.005-2.1-.005-2.1Z" transform="translate(39.569 214.878)" fill="#ebe4e0"/><path d="M71.25,161.577c-.453,1.687-2.114,2.71-3.35,3.9-12.106,11.719-32.783,13.441-47.157,5.265-2.317-1.319-1.406-5.954-1.175-8.5A121.309,121.309,0,0,1,21.764,147c3.619-15.831-3.034-44.039-2.5-48.312.9-7.147,14.637-12.189,14.637-12.189s13.759-6.561,24.879-5.312c0,0,12.04,10.287,13.476,24.822.711,7.22-2.229,27.692-2.293,43.63-.008,2.021,2.111,8.846,1.282,11.933" transform="translate(33.512 154.305)" fill="#4981c4"/><path d="M42.363,105.263s-4.624,7.481-6.521,11.451c-1.395,2.919-3.742,7.722-4.937,10.522s3.234,6.9,5.766,2.474c.914-1.6,3.808-7.226,5.28-10.618,1.032-2.379,5.008-11.721,5.008-11.721Z" transform="translate(53.602 200.443)" fill="#ff8c80"/><path d="M34.354,135.524,55.735,90.73l4.434,2.094,1.667,2.2L40.208,138.884Z" transform="translate(59.972 172.768)" fill="#9797ad"/><path d="M33.666,135.208,54.752,90.332l6.62,3.247L39.519,138.571Z" transform="translate(58.769 172.011)" fill="#cacadd"/><path d="M32.8,108.382a77.242,77.242,0,0,1,8.539-1.789,3.054,3.054,0,0,1,2.806,2.018s3.449.354,4.747,1.745,1.085,2.111.678,3.171.585,2.219.077,3.247-1.667,1.484-1.744,2.727.17,1.682-1.919,2.646c-.612.282-.618,1.606-.955,1.984-1.463,1.641-4.536.558-6.057-.1-1.87-.807-10.574-5.765-10.574-5.765Z" transform="translate(49.569 202.969)" fill="#ffc3b1"/><path d="M34.037,140.813c-2.257,5.44-5.4,11.716-12.476,11.631-4.289-.052-7.386-6.482-7.383-11.033a157.312,157.312,0,0,1,4-33.933c3.1-13.85,5.453-23.356,13.393-22.293,3.089,2.079,5.151,12.6,5.151,23.443l-2.7,31.993Z" transform="translate(24.743 162.058)" fill="#406fb5"/><path d="M58.216,114.645c.761,1.594.755,5.573-1.139,8.957-1.5,2.689-2.534,4.716-4.069,5-3.446.636-10.189-1.638-14.613-2.654s-19.64-2.056-23.311-10.24c-2.153-4.792,9.209-13.76,15.013-13.354,4.432.311,15.071,5.759,21.282,9.349,3.5,2.021,6,1.2,6.837,2.945" transform="translate(25.865 194.874)" fill="#406fb5"/><path d="M43.313,84.768s.47,5.692.923,10.615-1.752,15.381-1.752,15.381-8.437-9.137-10.244-11.277a49.752,49.752,0,0,1-4.352-7.339Z" transform="translate(48.684 161.416)" fill="#fff"/><path d="M25.442,91.2l2.276-13.371L41.359,88.313l1.614,9.956a11.658,11.658,0,0,1,.758,5c-6.6-3.479-14-5.161-18.289-12.064" transform="translate(44.414 148.208)" fill="#ffab95"/><path d="M35.859,100.979c-1.181-1.092-2.391-2.152-3.611-3.206l-.958-10.42,2.029-.227a61.872,61.872,0,0,1,3.55,7.868,1.312,1.312,0,0,0-.22.723,20.332,20.332,0,0,1-.791,5.262" transform="translate(54.622 165.906)" fill="#2b2b33"/><path d="M35.349,85.386s1.587,4.211.453,7.185c-.187.433-2.628.729-2.628.729a23.2,23.2,0,0,1-2.831-6.5c1.021-.308,2.433-.63,3.177-.122a3.707,3.707,0,0,1,1.829-1.3" transform="translate(52.971 162.593)" fill="#2b2b33"/><path d="M28.17,83.995c1.529,4.269,5.165,8.5,7.356,11.809,2.655,4.014,11.8,15.386,11.8,15.386s.956-9.776.505-15.386-3.978-13.159-3.978-13.159L45.811,81.5s5.03,10.5,5.656,17.57-2.54,20.8-2.54,20.8-5.782-7.217-11.449-13.894-7.325-8.945-10.3-14.315c-.494-.892-2.628-4.83-2.628-6.055,1.208-.5,2.411-1.1,3.616-1.615" transform="translate(42.863 155.199)" fill="#406fb5"/><path d="M31.388,84.13a49.575,49.575,0,0,1,.368,10.293s5.338-.677,6.914.383c.966-2.12-1.455-10.725-4.514-13.417-.423-.372-1.387,1.06-2.768,2.742" transform="translate(54.793 154.869)" fill="#ebe4e0"/><path d="M27.191,80.533s-2.213,3.773-2.213,5.567c0,5.2,8.553,14.6,11.952,16a61.173,61.173,0,0,1,6.013-6.163s-.522-1.118-6.3-5.4a35.411,35.411,0,0,1-9.453-10" transform="translate(43.604 153.352)" fill="#ebe4e0"/><path d="M27.443,75.449c3.687-4.972,14.286-9.157,21.191,1.652,7.243,11.335.4,29.867-5.944,28.784-3.553-.6-11.551-4.028-15.055-10.081-3.946-6.813-3.056-16.493-.192-20.356" transform="translate(43.605 133.904)" fill="#ffc3b1"/><path d="M52.9,83.313c-1.469,2.483-3.762,5.393-9.668,5.721a22.341,22.341,0,0,1-8.652-1.258L35,94.6a5.325,5.325,0,0,1-1.771-.258c-.637-2.591-1.689-3.2-2.886-2.106-1.354,1.237-1.159,5.986-1.159,5.986a17.887,17.887,0,0,1-5.09-12.488c.014-4.87,4.039-15.418,12.474-16.525s14.442,3.558,16.5,8.323a6.6,6.6,0,0,1-.167,5.776" transform="translate(42.055 131.482)" fill="#2b2b2b"/><path d="M50.521,72.417s9.945,5.768,5.95,9.79c-5.9,5.936-23.212,5.965-30.084-2.027Z" transform="translate(46.062 137.897)" fill="#2b2b33"/><path d="M55.355,75.785V70.938s-3.7,7.159-15.414,7.917c-9.95.645-15.867-1.234-15.867-1.234l.1,4.754s6.249,3.694,19.4.691c10.7-2.445,11.782-7.281,11.782-7.281" transform="translate(42.024 135.081)" fill="#32323a"/><path d="M35.814,66.87a6.746,6.746,0,0,1,2.751,5.442c0,2.425-2.751-1.458-2.751-1.458Z" transform="translate(62.52 127.334)" fill="#2b2b33"/><path d="M39.306,71.422s1.675,4.519-2.721,6.654c-3.114,1.51-4.278-2.846-4.278-2.846Z" transform="translate(56.398 136.002)" fill="#fff"/><path d="M29.159,89.025c8.454,2.169,21.188-1.011,28.443-7.1s6.279-12.787-2.175-14.954-21.186,1.011-28.44,7.1-6.282,12.787,2.172,14.954" transform="translate(38.621 126.227)" fill="#2b2b33"/><path d="M28.649,88.578c8.072,1.623,20.521-2.018,27.806-8.135s6.642-12.386-1.431-14.01-20.521,2.018-27.8,8.135-6.645,12.386,1.428,14.01" transform="translate(38.667 125.767)" fill="#383842"/><path d="M26.348,88.655a20.554,20.554,0,0,0-2.781-4.6c-1.1-1.066-1.356.523-1.356.523s.692.166,1.9,2.222a18.743,18.743,0,0,1,1.2,2.326Z" transform="translate(38.772 159.362)" fill="#383842"/><path d="M28.327,85.133s4.594,7.444.568,9.909S21.6,88.824,21.6,88.824Z" transform="translate(37.712 162.111)" fill="#2b2b33"/><path d="M28.9,93.6a5.177,5.177,0,0,0,2.323-2.611c.681-1.806-8.413-5.1-8.413-5.1l-1.2,1.5Z" transform="translate(37.712 163.553)" fill="#2b2b33"/><path d="M28.765,84.619s4.594,7.443.568,9.909-7.293-6.218-7.293-6.218Z" transform="translate(38.477 161.132)" fill="#383842"/><path d="M28.289,86.157l-5.283,2.837c-.178-.3-.338-.6-.475-.874l5.376-2.869c.126.276.255.581.382.906" transform="translate(39.332 162.336)" fill="#46464f"/><path d="M28.256,86.962l-4.7,2.524a8.86,8.86,0,0,1-.695-.912l5.126-2.736a8.885,8.885,0,0,1,.266,1.124" transform="translate(39.912 163.453)" fill="#46464f"/><path d="M26.228,89.2a2.306,2.306,0,0,1-2.891-.427l4.184-2.233a2.842,2.842,0,0,1-1.293,2.66" transform="translate(40.739 164.781)" fill="#46464f"/><path d="M22.3,87.646l5.258-2.884s.173.288.373.668l-5.354,2.878c-.165-.369-.277-.662-.277-.662" transform="translate(38.932 161.405)" fill="#46464f"/><path d="M27.759,84.992c.11.209.239.462.373.752l-5.376,2.869c-.14-.279-.261-.534-.354-.743Z" transform="translate(39.107 161.842)" fill="#ebe4e0"/><path d="M28.267,86.365,23.141,89.1c-.157-.235-.3-.468-.437-.7l5.283-2.837c.1.258.195.523.28.8" transform="translate(39.634 162.93)" fill="#ebe4e0"/><path d="M27.909,87.125l-4.184,2.233a5.606,5.606,0,0,1-.61-.61l4.7-2.524a6.345,6.345,0,0,1,.093.9" transform="translate(40.351 164.19)" fill="#ebe4e0"/><path d="M36.282,88.743l1.049,3.816L25.222,99.073l-1.274-3.947Z" transform="translate(41.806 168.985)" fill="#fff"/><path d="M18.7,90.31s6.933,2.37,9.269,2.817c.777,2.962-1.7,9.68-3.7,13.934s-9.412,1.8-9.412,1.8S17.416,94.878,18.7,90.31" transform="translate(25.927 171.969)" fill="#4981c4"/><path d="M49.373,91.135s-2.254,4.658-5.955,1.786a45.326,45.326,0,0,1-7.951-7.958l3.322-4.693s8.168,7.577,10.585,10.865" transform="translate(61.912 152.851)" fill="#4981c4"/><path d="M97.122,120.583c1.247-3.508-20.34-6.177-20.34-6.177s-.044,17.033-.632,24.2c-.881,10.821-.681,16,2.271,30.52,1.307,6.442,2.952,30.843,2.512,39.436-.645,12.587-6.131,18.535-7.99,21.642s5.225,6.049,9.706,1.513,4.95-5.419,7.479-6.839,1.678-4.821,1.494-11.925c-.143-5.495,2.109-23.8,2.974-35.536,1.225-16.659-2.232-17.022-1.991-25.444.453-15.851,3.7-29.1,4.517-31.394" transform="translate(126.805 217.853)" fill="#ffa08d"/><path d="M97.118,151.977l-.022-.09a3.755,3.755,0,0,0-.137-.441l-.006.009a10.5,10.5,0,0,0-1.905-3.113s-1.06,10.075-6.661,14.231c-6.252,4.638-9.044,5.335-12.015,3.02A66.131,66.131,0,0,1,71.418,172c-1.845,2.169-.3,4.345,5.151,3.929a13.479,13.479,0,0,0,9.278-4.85c2.391-3.235,4.242-6.723,6.477-8.838.349-.328.645-.619.95-.912v0c.165,2.669.088,4.374.211,6.305.524.886,1.337.674,1.974,0,.365-2.126-.11-4.083,1.019-8.007,1.194-4.162.881-6.645.64-7.653" transform="translate(123.377 282.472)" fill="#ef5c4d"/><path d="M103.188,123.706c1.247-3.508-20.34-6.177-20.34-6.177s-.044,17.033-.629,24.2c-.884,10.821-.684,16,2.268,30.52C85.8,178.694,87.439,203.1,87,211.689c-.645,12.587-6.131,18.535-7.99,21.642s5.225,6.049,9.706,1.513,4.95-5.419,7.479-6.839,1.678-4.821,1.494-11.925c-.143-5.495,2.109-23.8,2.974-35.536,1.225-16.659-2.23-17.022-1.991-25.444.453-15.851,3.7-29.1,4.517-31.394" transform="translate(137.394 223.8)" fill="#ffc5b3"/><path d="M103.161,155.006l-.022-.09a3.758,3.758,0,0,0-.137-.442l-.006.009a10.593,10.593,0,0,0-1.905-3.116s-1.063,10.078-6.661,14.233c-6.252,4.638-9.044,5.335-12.018,3.02a65.551,65.551,0,0,1-4.953,6.407c-1.842,2.169-.294,4.345,5.154,3.929a13.484,13.484,0,0,0,9.278-4.85c2.391-3.235,4.242-6.723,6.477-8.837.349-.328.645-.619.95-.912v0c.165,2.669.088,4.374.211,6.305.524.886,1.337.674,1.974,0,.365-2.126-.11-4.083,1.019-8.007,1.194-4.162.881-6.645.64-7.653" transform="translate(133.925 288.234)" fill="#ef5c4d"/><path d="M71.875,108.96a29.765,29.765,0,0,0,0,15.689c2.323,8.747,5.3,7.226,5.3,7.226l4.242-20.5Z" transform="translate(123.669 207.483)" fill="#ffc5b3"/><path d="M92.764,81.008s-4.893-6.09-12.616,2.367c-7.534,8.248-6.175,30.12-7.534,40.784-2.194,17.193-2.194,45.259-2.194,45.259s5.211,4.493,8.91,1.766a30.342,30.342,0,0,0,6.472-7.1Z" transform="translate(122.931 150.216)" fill="#ef5c4d"/><path d="M88.128,73.6s5.047,5.986,6.724,19.853,1.2,17.71,1.2,17.71-11.241,1.478-13.77-4.606S88.128,73.6,88.128,73.6" transform="translate(142.808 140.142)" fill="#2b2b33"/><path d="M73.237,110.124a117.8,117.8,0,0,0-1.463,18.14c-.269,14.393,1.409,43.447,1.409,43.447s3.311,4.943,11.515,7.353c5.458,1.6,14.574,1.981,20.873-.578,1.389-6.447,2.611-16.156,2.611-16.156.384,4.565,2.243,10.966,2.356,15.192a12.246,12.246,0,0,0,5.813-3.3s1.065-11.733,2.12-24.43c1.01-12.192.461-23.542-4.528-36.73-7.822-20.681-40.254-14.129-40.7-2.939" transform="translate(125.243 189.666)" fill="#ef5c4d"/><path d="M119.77,103.266c-1.054-7.754-17.737-18.253-17.737-18.253S99.3,93.65,96.742,95.767c-2.444,2.03-6.392-.049-3.855-7.362.8-2.3-.415-9.032-.415-9.032s-1.016-.27-2.485-.546c-2.208,2.585-6.543,9.447-8.893,12.291-2.271,2.744-8.948,12.253-6.908,21.236,1.741,7.664,2.655,17.745,2.466,21.526-.217,4.348-4.55,18.145-4.55,18.145s4.289,11.335,20.054,8.745a45.01,45.01,0,0,0,20.178-9.369s-2.828-18.892-2.449-26.693a20.988,20.988,0,0,0,9.884-21.442" transform="translate(125.867 150.103)" fill="#fff"/><path d="M91.37,85.312S87.756,96.174,84.4,105.746s-3.3,36.166-4.278,40.122c-1.6,6.462-5.969,8.986-8.9,6.764,0,0,6.727-31.214,4.511-41.916s.206-13.388,7.095-23.045,6.7-7.847,6.7-7.847Z" transform="translate(124.326 151.744)" fill="#ff735c"/><path d="M83.453,80.436c-2.666,3.8-7.7,11.027-7.7,11.027L77.731,94.4A10.782,10.782,0,0,0,74.7,97.347c-.06,4.865,1.395,18.509,1.395,18.509S78.931,100.591,86.3,87.99c2.391-4.089,1-4.144,1-4.144s-2.6-3.561-3.844-3.41" transform="translate(130.394 153.158)" fill="#ef5c4d"/><path d="M80.442,88.571s-.59,8.3-1.884,12.416c0,.79-.036,2.509,1.911,2.881s5.8.087,7.01-.938c5.486-4.65,6.315-7.08,6.315-7.08s-1.123-5.425-1.255-7.385c-.222-3.267.022-13.923.022-13.923Z" transform="translate(137.137 141.942)" fill="#ffa08d"/><path d="M78.753,84.482a14.172,14.172,0,0,0-.376,4.243c.242,1.731,1.3,2.306,2.952.918a8.749,8.749,0,0,0,2.348-3.41s-1.867-3.273-4.923-1.751" transform="translate(136.725 160.102)" fill="#4981c4"/><path d="M84.941,85.716s-2.685,3.877-4.794,11.617c-1.807,6.619-4.97,21.994-5.258,25.435a21.442,21.442,0,0,0,3.278,6.845l5.294-4.859L86.61,86.634Z" transform="translate(130.732 163.221)" fill="#4981c4"/><path d="M80.662,81.582s-1.7,1.289-2.979,7.618a9.942,9.942,0,0,0,.772,6.778l4.454-5.329a15.049,15.049,0,0,1-.642-9.067c.434-2.143-1.6,0-1.6,0" transform="translate(135.187 153.534)" fill="#e4f1f9"/><path d="M96.73,71.938c-4.58-4.107-15.818-5.959-20.551,6.16-4.961,12.712,5.321,29.5,11.362,27.073,3.383-1.356,10.233-4.679,12.526-11.387,2.584-7.554.222-18.657-3.336-21.845" transform="translate(130.694 131.052)" fill="#ffc5b3"/><path d="M95.872,80.957a69.982,69.982,0,0,0-14.335,30.965c-.986,5.14-3.424,16.444-3.913,26.28-.513,10.383,1.041,19.252,4.816,22.365,11.373,9.375,25.219-4.812,25.219-4.812s-5.513-19.609-4.552-25.653,8.152-32.423,5.818-36.706S95.872,80.957,95.872,80.957" transform="translate(135.341 154.159)" fill="#ff735c"/><path d="M92.992,80.432s.453,5.175-5.513,12.221c-9.157,10.809-8.921,27.375-8.921,27.375l11.968-16.014-2.037-4.69,4.7-.3s4.165-6.366,4.138-13.446c-.016-3.665-4.333-5.14-4.333-5.14" transform="translate(137.137 153.159)" fill="#ef5c4d"/><path d="M81.111,98.105a44.758,44.758,0,0,1-1.678-8.472s8.149-3.982,11.837-8.472c.538,5.44-3.49,14.353-10.159,16.943" transform="translate(138.665 154.549)" fill="#e4f1f9"/><path d="M92.193,104.907a13.319,13.319,0,0,0-7.163,12.735c.225,5.265,2.952,9,5.843,8.829,3.3-.195,3.7-1.086,3.512-1.795-.456-1.676-3.092-1.67-3.092-1.67s6.576-4.894,6.738-9.32-5.837-8.779-5.837-8.779" transform="translate(148.408 199.765)" fill="#ffc5b3"/><path d="M91.151,83.934c-4.583.523-7.726,12.381-4.709,20.963,3.476,9.889,12.943,21.421,12.943,21.421L87.634,145.366s-.428,8.713,4.223,10.487,6.809,0,6.809,0,16.06-19.267,17.018-24.846-2.636-14.7-9.107-26.62S94.9,83.507,91.151,83.934" transform="translate(148.824 159.799)" fill="#ef5c4d"/><path d="M87.017,83.879S94.8,93.4,103.065,95.534c3.9-9.291,4.657-11.855,2.8-17.739a9.264,9.264,0,0,0-8.814-6.642s-6.741-7.955-16.268-.712c-13.835,10.522-3.245,22.952-3.245,22.952s.483-6.142,9.478-9.514" transform="translate(128.594 128.337)" fill="#2b2b33"/><path d="M81.833,78.367a11.232,11.232,0,0,1,1.927-2.2c.859-.7,2.493-.9,2.963,1.734a4.481,4.481,0,0,1-2.078,4.958Z" transform="translate(142.854 144.168)" fill="#ffc5b3"/><path d="M137.35,122s.318,6.064,1.592,8.085,1.911,3.2,1.911,3.2-4.937-1.684-5.414,0,2.07,4.38,5.414,4.38,7.4-5.727,7.4-5.727l-.717-11.957Z" transform="translate(236.332 228.467)" fill="#ffc3b1"/><path d="M164.861,99.268s-4.624-2.625-11.548,2.312-15.282,19.426-18.388,24.477c-3.822,6.215-2.452,11.506-.637,19.659,1.683,7.571,3.5,15.529,5.414,18.9s10.807.253,11.3-3.189c.22-1.533-1.329-11.509-5.467-25.583,18.1-12.2,19.321-36.573,19.321-36.573" transform="translate(231.275 187.699)" fill="#406fb5"/><path d="M141.08,178.206c3.943-4.066,9.083-9.651,9.083-9.651l15.749,1.388v6.273a7.869,7.869,0,0,1-3.336,4.461,74.632,74.632,0,0,1-11.233,6.195,64.559,64.559,0,0,1-15.005,3.436c-3.767.151-5.4-1.725-3.418-3.764,3.383-3.494,4.514-4.577,8.16-8.338" transform="translate(230.559 320.964)" fill="#222228"/><path d="M149.646,182.377c3.943-4.063,6.892-7.458,6.892-7.458l17.94-.8v6.273a7.872,7.872,0,0,1-3.333,4.461,74.791,74.791,0,0,1-11.235,6.195,64.562,64.562,0,0,1-15.005,3.436c-3.767.151-5.4-1.722-3.418-3.764,3.383-3.494,4.514-4.577,8.16-8.338" transform="translate(245.512 331.551)" fill="#222228"/><path d="M155.644,121.311c-7.452,2.344-14.33,5.175-14.33,5.175s-4.736,44.42-4.536,65.952c.236,25.229,1.063,67.267,1.063,67.267s3.934,4.536,12.693,3.773c6.721-.584,8.751-3.322,8.751-3.322l-.214-64,5.241-30.851c-1.134-20.17-7.15-23.849-8.668-43.993" transform="translate(238.76 231.001)" fill="#2b2b33"/><path d="M171.027,272.738s2.035-36.9-3.355-65.345c1.938-16.7,7.9-46.482,4-64.471-4.882-22.481-10.376-18.616-10.376-18.616.464-3.778-7.369-3.139-15.53-1.49.016,15.058-3.144,65.223-1.277,81.257,2.584,22.191,5.134,72.4,5.134,72.4s4.39,2.811,12.979,1.136c9.711-1.9,8.426-4.87,8.426-4.87" transform="translate(251.198 231.387)" fill="#2b2b33"/><path d="M154.541,100.174c1.521.674,18.3,1.992,18.3,1.992s14.555,4.914,17.992,16.873c.253,3.752-1.115,12.793-1.683,16.725-.527.343-3.94-.235-4.19.531-3.583,11.036-3.888,19.127-2.636,31.673.357,3.578.975,7.412-.665,10.818-9.074,11.353-26.589,5.791-42.124-3.253,0-1.066.005-2.233.019-3.479-1.318-1.307-2.35-2.065-1.952-3.834a78.471,78.471,0,0,0,1.889-17.8c-.848-19.757.574-36.314,15.049-50.246" transform="translate(240.06 190.752)" fill="#4981c4"/><path d="M142.916,103.046s-.472,5.692-.923,10.615,1.752,15.381,1.752,15.381,8.437-9.137,10.244-11.277a49.75,49.75,0,0,0,4.352-7.339Z" transform="translate(247.77 196.221)" fill="#fff"/><path d="M162.012,109.481,159.736,96.11,146.1,106.591l-1.614,9.956a11.659,11.659,0,0,0-.758,5c6.6-3.479,14-5.161,18.289-12.064" transform="translate(250.815 183.013)" fill="#ffab95"/><path d="M138.236,124.924v4.339s6.444,7.243,19.821,8.759a42.1,42.1,0,0,0,23.012-3.726l-.664-2.637s-6.878,3.14-18.649,2.753-23.519-9.488-23.519-9.488" transform="translate(241.316 237.881)" fill="#222228"/><path d="M143.484,119.257c1.181-1.092,2.392-2.149,3.611-3.206l.958-10.42-2.029-.227a61.876,61.876,0,0,0-3.55,7.867,1.314,1.314,0,0,1,.22.726,20.33,20.33,0,0,0,.791,5.26" transform="translate(248.714 200.711)" fill="#2b2b33"/><path d="M144.178,103.664s-1.587,4.211-.453,7.185c.187.433,2.628.729,2.628.729a23.2,23.2,0,0,0,2.831-6.5c-1.021-.308-2.433-.63-3.177-.119a3.7,3.7,0,0,0-1.829-1.3" transform="translate(250.185 197.398)" fill="#2b2b33"/><path d="M152.686,150.116l-.642-9.2a3.576,3.576,0,0,0,2.466-4.051c-.368-2.9-3.064-3.953-4.857-2.646-.848.619-1.713,1.716-1.3,4.139a3.042,3.042,0,0,0,2.1,2.692s.557,7.748.675,9.264.467,1.589,1.582,1.42a8.9,8.9,0,0,0,1.636-.366l-.132-1.449ZM151.154,139.1c-1.494-.154-1.9-3.77.42-3.517a1.669,1.669,0,0,1,1.247,2.114,1.6,1.6,0,0,1-1.667,1.4" transform="translate(258.788 254.519)" fill="#c4bebb"/><path d="M148.752,147.347l1.285-9.128a3.47,3.47,0,0,0,3.248-3.381c.242-2.916-2.169-4.568-4.19-3.709-.955.407-2.029,1.275-2.128,3.735a3.142,3.142,0,0,0,1.485,3.116s-1.065,7.687-1.263,9.192.124,1.661,1.247,1.754a8.7,8.7,0,0,0,1.672.023l.173-1.446Zm.794-11.1c-1.425-.5-1.068-4.118,1.139-3.331a1.7,1.7,0,0,1,.777,2.35,1.55,1.55,0,0,1-1.916.982" transform="translate(256.55 249.266)" fill="#d6cfcc"/><path d="M152.915,146.994l-.64-9.2a3.575,3.575,0,0,0,2.466-4.051c-.368-2.9-3.064-3.953-4.857-2.646-.848.619-1.713,1.716-1.3,4.139a3.049,3.049,0,0,0,2.1,2.7s.555,7.746.675,9.262.464,1.589,1.579,1.42a8.982,8.982,0,0,0,1.639-.366l-.132-1.449Zm-1.529-11.013c-1.494-.154-1.9-3.77.42-3.517a1.669,1.669,0,0,1,1.246,2.114,1.594,1.594,0,0,1-1.667,1.4" transform="translate(259.193 248.574)" fill="#ebe4e0"/><path d="M148.319,137.214a.328.328,0,0,1-.319-.337v-4.42c0-2.6.859-3.006,1.982-3.267l.214-.052a.881.881,0,0,1,.826.2c1.208,1.037,1.128,5.747,1.117,6.282a.33.33,0,0,1-.318.328h-.008a.329.329,0,0,1-.31-.346c.047-1.888-.154-5.117-.879-5.742a.288.288,0,0,0-.28-.07l-.222.052c-.862.2-1.485.349-1.485,2.611v4.42a.328.328,0,0,1-.318.337" transform="translate(258.361 245.845)" fill="#595959"/><path d="M148.334,128.262v3.79c0,1.173.637,1.847,1.381,1.342s.637-1.571.637-3.142.006-2.1.006-2.1Z" transform="translate(258.944 244.022)" fill="#ebe4e0"/><path d="M157.26,127.226s-6.181,3.372-7.282,9.436.752,10.263,4.761,10.833,7.043-1.2,7.117-3.125-4.385-1.249-4.385-1.249,5.733-4.714,5.733-8.082-5.944-7.812-5.944-7.812" transform="translate(261.27 242.265)" fill="#ffc3b1"/><path d="M161.19,103.178c-6.647,1.591-7.12,13.563-3.649,26s11.809,25.087,11.809,25.087-11.205,12.758-13.717,14.605c-5.258,3.866-7.276,7.075-2.576,11.942,3.2,3.311,7.386,6.613,10.005,5.013,3.627-2.219,4.871-3.569,9.7-8.559,3.089-3.195,13.374-12.227,14.522-18.962.623-3.645-6.175-21.421-10.42-35.469s-9.341-21.169-15.672-19.653" transform="translate(262.581 196.089)" fill="#406fb5"/><path d="M164.791,102.273c-1.529,4.269-5.165,8.5-7.356,11.809-2.655,4.014-11.793,15.386-11.793,15.386s-.958-9.776-.508-15.386,3.979-13.159,3.979-13.159l-1.963-1.141s-5.03,10.5-5.656,17.57,2.543,20.8,2.543,20.8,5.78-7.217,11.447-13.894,7.326-8.945,10.3-14.318c.494-.892,2.628-4.827,2.628-6.052-1.208-.5-2.411-1.1-3.616-1.615" transform="translate(246.859 190.004)" fill="#406fb5"/><path d="M149.178,102.408a49.464,49.464,0,0,0-.371,10.292s-5.338-.677-6.914.383c-.966-2.12,1.452-10.725,4.514-13.417.42-.372,1.387,1.06,2.77,2.742" transform="translate(247.325 189.674)" fill="#ebe4e0"/><path d="M160.028,98.811s2.213,3.773,2.213,5.567c0,5.2-8.553,14.6-11.952,16a60.849,60.849,0,0,0-6.013-6.16s.522-1.121,6.3-5.408a35.411,35.411,0,0,0,9.453-10" transform="translate(251.86 188.157)" fill="#ebe4e0"/><path d="M165.371,93.727c-3.687-4.972-14.286-9.157-21.191,1.652-7.243,11.335-.4,29.867,5.944,28.784,3.553-.6,11.551-4.028,15.055-10.08,3.946-6.813,3.056-16.493.192-20.356" transform="translate(246.264 168.709)" fill="#ffc3b1"/><path d="M141.687,101.591c1.469,2.483,3.762,5.393,9.667,5.721a22.341,22.341,0,0,0,8.652-1.258l-.415,6.828a5.325,5.325,0,0,0,1.771-.258c.637-2.593,1.689-3.2,2.886-2.106,1.354,1.237,1.156,5.986,1.156,5.986a17.883,17.883,0,0,0,5.093-12.488c-.014-4.87-4.039-15.421-12.474-16.525s-14.442,3.558-16.5,8.323a6.6,6.6,0,0,0,.168,5.776" transform="translate(246.039 166.288)" fill="#2b2b2b"/><path d="M145.007,90.7s-9.945,5.768-5.953,9.79c5.9,5.936,23.215,5.965,30.087-2.027Z" transform="translate(241.094 172.702)" fill="#2b2b33"/><path d="M140.331,94.063V89.216s3.7,7.159,15.412,7.917c9.953.645,15.87-1.234,15.87-1.234l-.1,4.754s-6.249,3.694-19.4.691c-10.7-2.445-11.782-7.281-11.782-7.281" transform="translate(244.973 169.886)" fill="#32323a"/><path d="M141.732,85.148a6.746,6.746,0,0,0-2.751,5.442c0,2.425,2.751-1.458,2.751-1.458Z" transform="translate(242.617 162.14)" fill="#2b2b33"/><path d="M141.14,89.7s-1.675,4.519,2.721,6.654c3.114,1.51,4.278-2.846,4.278-2.846Z" transform="translate(245.839 170.806)" fill="#fff"/><path d="M172.285,107.3c-8.454,2.169-21.188-1.011-28.442-7.1s-6.279-12.787,2.175-14.954,21.186,1.011,28.44,7.1,6.282,12.787-2.172,14.954" transform="translate(242.617 161.032)" fill="#2b2b33"/><path d="M172.181,106.856c-8.072,1.623-20.521-2.018-27.806-8.135s-6.642-12.386,1.43-14.01,20.521,2.018,27.8,8.135,6.645,12.386-1.428,14.01" transform="translate(243.186 160.572)" fill="#383842"/><path d="M167.167,108.222s-4.267,2.373-7,3.5-5.066,2.216-5.066,2.216,2.35,9.436,6.26,13.4c5.414,5.489,12.01,0,12.01,0Z" transform="translate(270.755 206.077)" fill="#4981c4"/><path d="M144.274,100.86a18.252,18.252,0,0,0,1.886,3.543,18.879,18.879,0,0,0,2.092,1.911s-4.27,7.522-7.24,8.98-5.631-2.5-5.631-2.5a60.517,60.517,0,0,1,8.893-11.931" transform="translate(236.332 192.058)" fill="#4981c4"/><path d="M146.994,109.088l-1.049,3.816,12.108,6.514,1.274-3.947Z" transform="translate(254.773 207.727)" fill="#fff"/><path d="M151.5,106.766a20.554,20.554,0,0,1,2.781-4.6c1.1-1.066,1.356.526,1.356.526s-.692.163-1.9,2.219a19.247,19.247,0,0,0-1.2,2.326Z" transform="translate(264.471 193.851)" fill="#383842"/><path d="M152.576,103.245s-4.594,7.443-.568,9.909,7.293-6.218,7.293-6.218Z" transform="translate(262.472 196.6)" fill="#2b2b33"/><path d="M152.457,111.715a5.177,5.177,0,0,1-2.323-2.611c-.681-1.806,8.413-5.1,8.413-5.1l1.2,1.5Z" transform="translate(262.023 198.04)" fill="#2b2b33"/><path d="M152.138,102.73s-4.594,7.443-.568,9.909,7.293-6.218,7.293-6.218Z" transform="translate(261.708 195.619)" fill="#383842"/><path d="M150.589,104.268l5.283,2.837c.178-.3.338-.6.475-.874l-5.376-2.869c-.129.276-.255.581-.382.906" transform="translate(262.88 196.823)" fill="#46464f"/><path d="M150.39,105.074l4.7,2.524a8.849,8.849,0,0,0,.695-.912l-5.126-2.736a8.9,8.9,0,0,0-.266,1.124" transform="translate(262.533 197.942)" fill="#46464f"/><path d="M151.651,107.306a2.3,2.3,0,0,0,2.891-.427l-4.187-2.233a2.839,2.839,0,0,0,1.3,2.66" transform="translate(262.471 199.268)" fill="#46464f"/><path d="M156.494,105.757l-5.258-2.884s-.173.288-.373.668l5.354,2.878c.165-.369.277-.662.277-.662" transform="translate(263.359 195.892)" fill="#46464f"/><path d="M151.1,103.1c-.11.209-.239.462-.373.752l5.376,2.869c.14-.279.261-.534.354-.743Z" transform="translate(263.121 196.33)" fill="#ebe4e0"/><path d="M150.487,104.476l5.126,2.736c.156-.235.3-.468.436-.7l-5.283-2.837c-.1.258-.195.523-.28.8" transform="translate(262.702 197.417)" fill="#ebe4e0"/><path d="M150.356,105.236l4.184,2.233a5.858,5.858,0,0,0,.61-.61l-4.7-2.524a6.34,6.34,0,0,0-.093.9" transform="translate(262.474 198.678)" fill="#ebe4e0"/><path d="M61.815,106.97a1.407,1.407,0,0,1-1.367-1.359,1.427,1.427,0,0,1,1.282-1.542,45.229,45.229,0,0,0,7.9-1.252,1.361,1.361,0,0,1,1.653,1.077,1.46,1.46,0,0,1-1.021,1.748,47.9,47.9,0,0,1-8.361,1.324c-.03,0-.06,0-.091,0m-8.221-.154a1.166,1.166,0,0,1-.14-.009,47.977,47.977,0,0,1-8.311-1.632,1.464,1.464,0,0,1-.961-1.786,1.371,1.371,0,0,1,1.689-1.016,45.3,45.3,0,0,0,7.861,1.548,1.434,1.434,0,0,1,1.227,1.589,1.4,1.4,0,0,1-1.365,1.307m24.173-3.842a1.378,1.378,0,0,1-1.266-.886,1.483,1.483,0,0,1,.73-1.9,47.266,47.266,0,0,0,7.07-3.941,1.334,1.334,0,0,1,1.9.444,1.5,1.5,0,0,1-.42,2,49.673,49.673,0,0,1-7.476,4.165,1.309,1.309,0,0,1-.535.116m-39.985-.749a1.258,1.258,0,0,1-.579-.136,49.588,49.588,0,0,1-7.336-4.446,1.5,1.5,0,0,1-.351-2.018,1.315,1.315,0,0,1,1.908-.369,47.417,47.417,0,0,0,6.941,4.2,1.489,1.489,0,0,1,.664,1.928,1.368,1.368,0,0,1-1.247.839m53.8-8.579a1.338,1.338,0,0,1-1.019-.479,1.514,1.514,0,0,1,.1-2.05,50,50,0,0,0,5.469-6.177,1.328,1.328,0,0,1,1.927-.238,1.509,1.509,0,0,1,.225,2.042A53.04,53.04,0,0,1,92.5,93.27a1.336,1.336,0,0,1-.92.375m-67.3-1.263a1.333,1.333,0,0,1-.956-.409,53.042,53.042,0,0,1-5.557-6.738,1.507,1.507,0,0,1,.291-2.03,1.322,1.322,0,0,1,1.922.311,50.315,50.315,0,0,0,5.255,6.369,1.508,1.508,0,0,1,.03,2.053,1.325,1.325,0,0,1-.986.444m77.469-12.337a1.3,1.3,0,0,1-.659-.18,1.5,1.5,0,0,1-.544-1.975,51.8,51.8,0,0,0,3.251-7.728,1.356,1.356,0,0,1,1.749-.894,1.474,1.474,0,0,1,.846,1.847,55.249,55.249,0,0,1-3.438,8.178,1.365,1.365,0,0,1-1.205.752M14.576,78.412a1.37,1.37,0,0,1-1.227-.8,55.127,55.127,0,0,1-3.16-8.3A1.465,1.465,0,0,1,11.1,67.5a1.352,1.352,0,0,1,1.716.958A51.8,51.8,0,0,0,15.8,76.3a1.494,1.494,0,0,1-.61,1.952,1.318,1.318,0,0,1-.615.157m92.562-14.75a1.189,1.189,0,0,1-.228-.02,1.448,1.448,0,0,1-1.128-1.673,54.159,54.159,0,0,0,.659-8.425,1.375,1.375,0,1,1,2.746,0,56.994,56.994,0,0,1-.7,8.907,1.4,1.4,0,0,1-1.351,1.211M9.749,61.844A1.4,1.4,0,0,1,8.39,60.581a57.138,57.138,0,0,1-.434-7.037q0-.95.03-1.894a1.375,1.375,0,1,1,2.743.1c-.016.6-.027,1.191-.027,1.792a54.2,54.2,0,0,0,.409,6.656A1.441,1.441,0,0,1,9.93,61.832a1.318,1.318,0,0,1-.181.012m97.84-11.87a1.4,1.4,0,0,1-1.365-1.313,53.265,53.265,0,0,0-1.425-8.323,1.462,1.462,0,0,1,.969-1.78,1.369,1.369,0,0,1,1.68,1.025,56.34,56.34,0,0,1,1.507,8.8,1.432,1.432,0,0,1-1.236,1.586c-.044,0-.091.006-.132.006m-97.263-5.46a1.279,1.279,0,0,1-.275-.029A1.449,1.449,0,0,1,8.98,42.775a55.784,55.784,0,0,1,2.383-8.591,1.351,1.351,0,0,1,1.776-.828,1.48,1.48,0,0,1,.785,1.879,52.709,52.709,0,0,0-2.254,8.117,1.4,1.4,0,0,1-1.345,1.162m93-11.283a1.367,1.367,0,0,1-1.249-.845,51.2,51.2,0,0,0-3.94-7.356,1.508,1.508,0,0,1,.362-2.018,1.331,1.331,0,0,1,1.908.38,54.843,54.843,0,0,1,4.165,7.78A1.49,1.49,0,0,1,103.9,33.1a1.278,1.278,0,0,1-.574.134M16.253,28.341a1.318,1.318,0,0,1-.7-.206,1.5,1.5,0,0,1-.475-1.989A54.03,54.03,0,0,1,20,18.873a1.323,1.323,0,0,1,1.936-.166,1.512,1.512,0,0,1,.157,2.047,51.264,51.264,0,0,0-4.657,6.877,1.361,1.361,0,0,1-1.181.709m77.832-9.424a1.334,1.334,0,0,1-.988-.447,49.318,49.318,0,0,0-6-5.594,1.511,1.511,0,0,1-.283-2.036,1.331,1.331,0,0,1,1.922-.3,52.336,52.336,0,0,1,6.343,5.913,1.511,1.511,0,0,1-.041,2.053,1.313,1.313,0,0,1-.95.407M26.876,15.13a1.344,1.344,0,0,1-1.052-.517,1.512,1.512,0,0,1,.165-2.047A50.692,50.692,0,0,1,32.89,7.4a1.327,1.327,0,0,1,1.878.514A1.5,1.5,0,0,1,34.282,9.9a47.723,47.723,0,0,0-6.521,4.891,1.332,1.332,0,0,1-.884.34M80.922,8.569a1.276,1.276,0,0,1-.621-.16A46.47,46.47,0,0,0,72.9,5.215,1.471,1.471,0,0,1,72,3.394a1.351,1.351,0,0,1,1.722-.953,49.017,49.017,0,0,1,7.831,3.383,1.492,1.492,0,0,1,.6,1.955,1.364,1.364,0,0,1-1.225.79M40.989,6.324a1.369,1.369,0,0,1-1.279-.935A1.477,1.477,0,0,1,40.5,3.516a48.509,48.509,0,0,1,8.124-2.48,1.362,1.362,0,0,1,1.612,1.141A1.447,1.447,0,0,1,49.16,3.885a45.6,45.6,0,0,0-7.68,2.344,1.333,1.333,0,0,1-.491.1M65.28,3.385a1.03,1.03,0,0,1-.187-.015,45.182,45.182,0,0,0-7.984-.439,1.491,1.491,0,0,1-1.417-1.409,1.421,1.421,0,0,1,1.329-1.5A47.633,47.633,0,0,1,65.464.5a1.44,1.44,0,0,1,1.175,1.632A1.4,1.4,0,0,1,65.28,3.385" transform="translate(13.889 0.001)" fill="#fff" opacity="0.5"/><path d="M131.78,53.552a24.385,24.385,0,0,1-3.687-.279,1.443,1.443,0,0,1-1.159-1.65A1.4,1.4,0,0,1,128.49,50.4a21.8,21.8,0,0,0,7.726-.209,1.372,1.372,0,0,1,1.612,1.141,1.448,1.448,0,0,1-1.076,1.708,24.123,24.123,0,0,1-4.972.514M120.5,50.578a1.312,1.312,0,0,1-.645-.171,25.722,25.722,0,0,1-6.834-5.628,1.514,1.514,0,0,1,.091-2.053,1.322,1.322,0,0,1,1.938.1,22.89,22.89,0,0,0,6.1,5.024,1.493,1.493,0,0,1,.566,1.963,1.364,1.364,0,0,1-1.214.77m23.621-.642a1.354,1.354,0,0,1-1.178-.706,1.5,1.5,0,0,1,.472-1.989,23.017,23.017,0,0,0,5.843-5.344,1.33,1.33,0,0,1,1.936-.2,1.517,1.517,0,0,1,.189,2.047,25.77,25.77,0,0,1-6.557,5.988,1.288,1.288,0,0,1-.706.206M109.636,37.945a1.372,1.372,0,0,1-1.266-.892,27.908,27.908,0,0,1-1.911-8.936,1.422,1.422,0,0,1,1.3-1.525,1.38,1.38,0,0,1,1.441,1.377,24.819,24.819,0,0,0,1.7,7.966,1.483,1.483,0,0,1-.739,1.9,1.315,1.315,0,0,1-.53.11m44.733-1.214a1.282,1.282,0,0,1-.461-.084,1.474,1.474,0,0,1-.832-1.853,25.132,25.132,0,0,0,1.315-8.059c0-.834-.038-1.652-.118-2.466a1.43,1.43,0,0,1,1.227-1.589,1.392,1.392,0,0,1,1.5,1.3c.088.906.132,1.83.132,2.762a28.184,28.184,0,0,1-1.474,9.029,1.375,1.375,0,0,1-1.293.964M108.807,20.889a1.234,1.234,0,0,1-.393-.064,1.465,1.465,0,0,1-.923-1.806,27.283,27.283,0,0,1,3.88-8.2,1.33,1.33,0,0,1,1.922-.308,1.508,1.508,0,0,1,.288,2.03,24.314,24.314,0,0,0-3.46,7.307,1.386,1.386,0,0,1-1.315,1.037m44.612-3.653a1.366,1.366,0,0,1-1.238-.828A24.111,24.111,0,0,0,147.7,9.754a1.511,1.511,0,0,1-.008-2.056,1.328,1.328,0,0,1,1.941-.009,26.9,26.9,0,0,1,5.022,7.467,1.489,1.489,0,0,1-.645,1.937,1.31,1.31,0,0,1-.59.142m-35.024-10.1a1.349,1.349,0,0,1-1.139-.642,1.5,1.5,0,0,1,.371-2.016A24.509,24.509,0,0,1,125.533.736,1.369,1.369,0,0,1,127.2,1.785a1.461,1.461,0,0,1-.994,1.766,21.9,21.9,0,0,0-7.048,3.34,1.31,1.31,0,0,1-.766.247m23.552-1.931a1.316,1.316,0,0,1-.582-.136,21.488,21.488,0,0,0-7.452-2.143,1.439,1.439,0,0,1-1.241-1.583,1.415,1.415,0,0,1,1.5-1.31,24.114,24.114,0,0,1,8.361,2.4,1.49,1.49,0,0,1,.662,1.931,1.367,1.367,0,0,1-1.244.836" transform="translate(185.841 0.059)" fill="#fff" opacity="0.5"/><path d="M32.945,108.984a1.456,1.456,0,0,1-.041-2.9,24.169,24.169,0,0,0,7.649-1.5,1.358,1.358,0,0,1,1.752.886,1.477,1.477,0,0,1-.84,1.853,26.68,26.68,0,0,1-8.476,1.67Zm-8.138-1.066a1.221,1.221,0,0,1-.376-.058,27.216,27.216,0,0,1-7.836-3.819,1.5,1.5,0,0,1-.382-2.01,1.322,1.322,0,0,1,1.9-.407,24.674,24.674,0,0,0,7.065,3.447,1.459,1.459,0,0,1,.945,1.792,1.385,1.385,0,0,1-1.318,1.054m23.429-4.635a1.344,1.344,0,0,1-1.1-.578,1.51,1.51,0,0,1,.269-2.033,26.286,26.286,0,0,0,5.42-5.9,1.324,1.324,0,0,1,1.911-.346,1.5,1.5,0,0,1,.327,2.024,29.092,29.092,0,0,1-6,6.546,1.339,1.339,0,0,1-.826.29M11.3,98.436a1.333,1.333,0,0,1-1.068-.54A30.071,30.071,0,0,1,5.913,90,1.475,1.475,0,0,1,6.7,88.12a1.34,1.34,0,0,1,1.776.828,27.129,27.129,0,0,0,3.893,7.127,1.511,1.511,0,0,1-.209,2.042,1.322,1.322,0,0,1-.859.319m46.309-9.142a1.294,1.294,0,0,1-.415-.07,1.472,1.472,0,0,1-.9-1.824,28.176,28.176,0,0,0,1.186-8.132A28.82,28.82,0,0,0,57.3,76a1.433,1.433,0,0,1,1.194-1.618,1.383,1.383,0,0,1,1.529,1.266,31.8,31.8,0,0,1,.206,3.622,31.275,31.275,0,0,1-1.315,9.012,1.381,1.381,0,0,1-1.307,1.014M5.449,82.446a1.409,1.409,0,0,1-1.37-1.362q-.049-.9-.052-1.812A31.53,31.53,0,0,1,4.873,72a1.369,1.369,0,0,1,1.667-1.054,1.46,1.46,0,0,1,1,1.763,28.291,28.291,0,0,0-.763,6.558c0,.549.016,1.1.047,1.638a1.42,1.42,0,0,1-1.288,1.536l-.082,0M56.428,68.929a1.369,1.369,0,0,1-1.249-.845,26.934,26.934,0,0,0-4.3-6.863,1.514,1.514,0,0,1,.091-2.053,1.32,1.32,0,0,1,1.938.1,29.876,29.876,0,0,1,4.761,7.606A1.485,1.485,0,0,1,57,68.8a1.275,1.275,0,0,1-.571.134M9.409,65.822a1.331,1.331,0,0,1-.722-.218,1.5,1.5,0,0,1-.445-2,29.509,29.509,0,0,1,5.618-6.921,1.325,1.325,0,0,1,1.936.16,1.509,1.509,0,0,1-.148,2.047,26.5,26.5,0,0,0-5.071,6.247,1.359,1.359,0,0,1-1.167.685m36.106-9.578a1.293,1.293,0,0,1-.686-.195,24.362,24.362,0,0,0-7.254-2.983,1.45,1.45,0,0,1-1.046-1.728,1.361,1.361,0,0,1,1.634-1.107,27.043,27.043,0,0,1,8.042,3.3,1.5,1.5,0,0,1,.5,1.986,1.361,1.361,0,0,1-1.189.723M21.726,54.67a1.369,1.369,0,0,1-1.263-.886,1.481,1.481,0,0,1,.728-1.9,26.659,26.659,0,0,1,8.369-2.216,1.454,1.454,0,0,1,.247,2.893,24.006,24.006,0,0,0-7.545,2,1.31,1.31,0,0,1-.535.116" transform="translate(7.03 94.569)" fill="#fff" opacity="0.5"/></g></g></g></svg>